<svg width="20" height="20" viewBox="0 0 20 20" fill="none" xmlns="http://www.w3.org/2000/svg">
<rect width="20" height="20" rx="6" fill="#750033"/>
<path d="M16.375 4.69957H14.4688C14.3125 3.42145 13.5 2.5 12.4688 2.5C11.4375 2.5 10.5938 3.42145 10.4688 4.69957H9.53126C9.40625 3.42145 8.5625 2.5 7.53125 2.5C6.49999 2.5 5.65624 3.42145 5.53123 4.69957H3.62499C3.28125 4.69957 3 4.96709 3 5.29404V15.9055C3 16.2325 3.28125 16.5 3.62499 16.5H16.375C16.7188 16.5 17 16.2325 17 15.9055V5.29404C17 4.99682 16.7188 4.69957 16.375 4.69957ZM12.4375 3.71868C12.75 3.71868 13.0938 4.1348 13.2188 4.7293H11.6875C11.7813 4.1051 12.125 3.71868 12.4375 3.71868ZM7.50002 3.71868C7.81253 3.71868 8.15627 4.1348 8.28128 4.7293H6.75001C6.84376 4.1051 7.1875 3.71868 7.50002 3.71868ZM4.24998 15.3705V5.91828H5.59375C5.84374 6.95861 6.59374 7.70172 7.53125 7.70172C7.87499 7.70172 8.12501 7.4342 8.12501 7.10725C8.12501 6.78029 7.84376 6.51275 7.50002 6.51275C7.28126 6.51275 7 6.27496 6.84376 5.91828H10.5313C10.7813 6.95861 11.5313 7.70172 12.4688 7.70172C12.8125 7.70172 13.0625 7.4342 13.0625 7.10725C13.0625 6.78029 12.7813 6.51275 12.4375 6.51275C12.2188 6.51275 11.9375 6.27496 11.7813 5.91828H15.7813V15.3705H4.24998Z" fill="#FF0070"/>
<path d="M7.49467 13.5L8.05267 10.35L7.15267 10.938L6.78667 10.194L8.30467 9.252H9.22867L8.47867 13.5H7.49467ZM13.306 12.648L13.156 13.5H10.066L10.21 12.672L12.124 11.178C12.292 11.038 12.418 10.91 12.502 10.794C12.59 10.678 12.634 10.56 12.634 10.44C12.634 10.3 12.59 10.19 12.502 10.11C12.418 10.026 12.292 9.984 12.124 9.984C11.956 9.984 11.812 10.038 11.692 10.146C11.576 10.25 11.49 10.398 11.434 10.59L10.534 10.404C10.654 10 10.862 9.688 11.158 9.468C11.458 9.248 11.808 9.138 12.208 9.138C12.412 9.138 12.602 9.164 12.778 9.216C12.954 9.268 13.106 9.346 13.234 9.45C13.366 9.55 13.468 9.674 13.54 9.822C13.616 9.966 13.654 10.132 13.654 10.32C13.654 10.496 13.628 10.652 13.576 10.788C13.524 10.92 13.452 11.044 13.36 11.16C13.272 11.276 13.168 11.386 13.048 11.49C12.928 11.59 12.798 11.694 12.658 11.802L11.578 12.648H13.306Z" fill="#FF0070"/>
</svg>
