<svg width="20" height="20" viewBox="0 0 20 20" fill="none" xmlns="http://www.w3.org/2000/svg">
<rect width="20" height="20" rx="6" fill="#750033"/>
<path d="M16.375 4.69957H14.4688C14.3125 3.42145 13.5 2.5 12.4688 2.5C11.4375 2.5 10.5938 3.42145 10.4688 4.69957H9.53126C9.40625 3.42145 8.5625 2.5 7.53125 2.5C6.49999 2.5 5.65624 3.42145 5.53123 4.69957H3.62499C3.28125 4.69957 3 4.96709 3 5.29404V15.9055C3 16.2325 3.28125 16.5 3.62499 16.5H16.375C16.7188 16.5 17 16.2325 17 15.9055V5.29404C17 4.99682 16.7188 4.69957 16.375 4.69957ZM12.4375 3.71868C12.75 3.71868 13.0938 4.1348 13.2188 4.7293H11.6875C11.7813 4.1051 12.125 3.71868 12.4375 3.71868ZM7.50002 3.71868C7.81253 3.71868 8.15627 4.1348 8.28128 4.7293H6.75001C6.84376 4.1051 7.1875 3.71868 7.50002 3.71868ZM4.24998 15.3705V5.91828H5.59375C5.84374 6.95861 6.59374 7.70172 7.53125 7.70172C7.87499 7.70172 8.12501 7.4342 8.12501 7.10725C8.12501 6.78029 7.84376 6.51275 7.50002 6.51275C7.28126 6.51275 7 6.27496 6.84376 5.91828H10.5313C10.7813 6.95861 11.5313 7.70172 12.4688 7.70172C12.8125 7.70172 13.0625 7.4342 13.0625 7.10725C13.0625 6.78029 12.7813 6.51275 12.4375 6.51275C12.2188 6.51275 11.9375 6.27496 11.7813 5.91828H15.7813V15.3705H4.24998Z" fill="#FF0070"/>
<path d="M9.42534 13.5L9.98334 10.35L9.08334 10.938L8.71734 10.194L10.2353 9.252H11.1593L10.4093 13.5H9.42534Z" fill="#FF0070"/>
</svg>
