<svg width="20" height="20" viewBox="0 0 20 20" fill="none" xmlns="http://www.w3.org/2000/svg">
<rect width="20" height="20" rx="6" fill="#750033"/>
<path d="M16.375 4.69957H14.4688C14.3125 3.42145 13.5 2.5 12.4688 2.5C11.4375 2.5 10.5938 3.42145 10.4688 4.69957H9.53126C9.40625 3.42145 8.5625 2.5 7.53125 2.5C6.49999 2.5 5.65624 3.42145 5.53123 4.69957H3.62499C3.28125 4.69957 3 4.96709 3 5.29404V15.9055C3 16.2325 3.28125 16.5 3.62499 16.5H16.375C16.7188 16.5 17 16.2325 17 15.9055V5.29404C17 4.99682 16.7188 4.69957 16.375 4.69957ZM12.4375 3.71868C12.75 3.71868 13.0938 4.1348 13.2188 4.7293H11.6875C11.7813 4.1051 12.125 3.71868 12.4375 3.71868ZM7.50002 3.71868C7.81253 3.71868 8.15627 4.1348 8.28128 4.7293H6.75001C6.84376 4.1051 7.1875 3.71868 7.50002 3.71868ZM4.24998 15.3705V5.91828H5.59375C5.84374 6.95861 6.59374 7.70172 7.53125 7.70172C7.87499 7.70172 8.12501 7.4342 8.12501 7.10725C8.12501 6.78029 7.84376 6.51275 7.50002 6.51275C7.28126 6.51275 7 6.27496 6.84376 5.91828H10.5313C10.7813 6.95861 11.5313 7.70172 12.4688 7.70172C12.8125 7.70172 13.0625 7.4342 13.0625 7.10725C13.0625 6.78029 12.7813 6.51275 12.4375 6.51275C12.2188 6.51275 11.9375 6.27496 11.7813 5.91828H15.7813V15.3705H4.24998Z" fill="#FF0070"/>
<path d="M9.80934 10.944C10.0813 10.944 10.2873 10.894 10.4273 10.794C10.5713 10.694 10.6433 10.55 10.6433 10.362C10.6433 10.234 10.5993 10.132 10.5113 10.056C10.4273 9.98 10.3113 9.942 10.1633 9.942C10.0073 9.942 9.87334 9.98 9.76134 10.056C9.65334 10.128 9.56734 10.23 9.50334 10.362L8.69934 10.038C8.84734 9.726 9.05934 9.498 9.33534 9.354C9.61134 9.21 9.91334 9.138 10.2413 9.138C10.4173 9.138 10.5873 9.16 10.7513 9.204C10.9193 9.248 11.0673 9.316 11.1953 9.408C11.3233 9.5 11.4253 9.618 11.5013 9.762C11.5813 9.902 11.6213 10.07 11.6213 10.266C11.6213 10.414 11.5953 10.546 11.5433 10.662C11.4953 10.774 11.4313 10.872 11.3513 10.956C11.2713 11.04 11.1813 11.108 11.0813 11.16C10.9813 11.212 10.8813 11.25 10.7813 11.274V11.286C10.9853 11.342 11.1453 11.45 11.2613 11.61C11.3773 11.77 11.4353 11.956 11.4353 12.168C11.4353 12.408 11.3873 12.618 11.2913 12.798C11.1993 12.978 11.0753 13.128 10.9193 13.248C10.7633 13.368 10.5833 13.458 10.3793 13.518C10.1753 13.582 9.96334 13.614 9.74334 13.614C9.54734 13.614 9.36534 13.59 9.19734 13.542C9.02934 13.498 8.87734 13.432 8.74134 13.344C8.60534 13.252 8.48934 13.138 8.39334 13.002C8.30134 12.866 8.23134 12.71 8.18334 12.534L9.09534 12.288C9.13934 12.448 9.21934 12.57 9.33534 12.654C9.45134 12.738 9.59934 12.78 9.77934 12.78C9.97534 12.78 10.1333 12.73 10.2533 12.63C10.3773 12.53 10.4393 12.392 10.4393 12.216C10.4393 12.112 10.4173 12.024 10.3733 11.952C10.3333 11.88 10.2773 11.824 10.2053 11.784C10.1333 11.74 10.0493 11.71 9.95334 11.694C9.85734 11.674 9.75534 11.664 9.64734 11.664H9.38334L9.50334 10.944H9.80934Z" fill="#FF0070"/>
</svg>
