<svg width="20" height="20" viewBox="0 0 20 20" fill="none" xmlns="http://www.w3.org/2000/svg">
<rect width="20" height="20" rx="6" fill="#750033"/>
<path d="M16.375 4.69957H14.4688C14.3125 3.42145 13.5 2.5 12.4688 2.5C11.4375 2.5 10.5938 3.42145 10.4688 4.69957H9.53126C9.40625 3.42145 8.5625 2.5 7.53125 2.5C6.49999 2.5 5.65624 3.42145 5.53123 4.69957H3.62499C3.28125 4.69957 3 4.96709 3 5.29404V15.9055C3 16.2325 3.28125 16.5 3.62499 16.5H16.375C16.7188 16.5 17 16.2325 17 15.9055V5.29404C17 4.99682 16.7188 4.69957 16.375 4.69957ZM12.4375 3.71868C12.75 3.71868 13.0938 4.1348 13.2188 4.7293H11.6875C11.7813 4.1051 12.125 3.71868 12.4375 3.71868ZM7.50002 3.71868C7.81253 3.71868 8.15627 4.1348 8.28128 4.7293H6.75001C6.84376 4.1051 7.1875 3.71868 7.50002 3.71868ZM4.24998 15.3705V5.91828H5.59375C5.84374 6.95861 6.59374 7.70172 7.53125 7.70172C7.87499 7.70172 8.12501 7.4342 8.12501 7.10725C8.12501 6.78029 7.84376 6.51275 7.50002 6.51275C7.28126 6.51275 7 6.27496 6.84376 5.91828H10.5313C10.7813 6.95861 11.5313 7.70172 12.4688 7.70172C12.8125 7.70172 13.0625 7.4342 13.0625 7.10725C13.0625 6.78029 12.7813 6.51275 12.4375 6.51275C12.2188 6.51275 11.9375 6.27496 11.7813 5.91828H15.7813V15.3705H4.24998Z" fill="#FF0070"/>
<path d="M11.5373 11.952C11.5373 12.176 11.4973 12.388 11.4173 12.588C11.3373 12.788 11.2193 12.964 11.0633 13.116C10.9113 13.264 10.7233 13.384 10.4993 13.476C10.2793 13.564 10.0273 13.608 9.74334 13.608C9.52734 13.608 9.32534 13.578 9.13734 13.518C8.94934 13.462 8.78534 13.378 8.64534 13.266C8.50534 13.15 8.39534 13.008 8.31534 12.84C8.23534 12.668 8.19534 12.47 8.19534 12.246C8.19534 12.022 8.24534 11.798 8.34534 11.574C8.44534 11.346 8.60934 11.096 8.83734 10.824L10.1693 9.252H11.4053L10.0913 10.728L10.0553 10.776C10.0833 10.768 10.1173 10.762 10.1573 10.758C10.2013 10.75 10.2393 10.746 10.2713 10.746C10.4753 10.746 10.6553 10.78 10.8113 10.848C10.9713 10.912 11.1033 11 11.2073 11.112C11.3153 11.224 11.3973 11.354 11.4533 11.502C11.5093 11.646 11.5373 11.796 11.5373 11.952ZM10.5413 12.018C10.5413 11.922 10.5233 11.838 10.4873 11.766C10.4553 11.694 10.4113 11.634 10.3553 11.586C10.3033 11.534 10.2413 11.496 10.1693 11.472C10.1013 11.444 10.0313 11.43 9.95934 11.43C9.83934 11.43 9.72934 11.45 9.62934 11.49C9.53334 11.53 9.45134 11.586 9.38334 11.658C9.31534 11.73 9.26334 11.814 9.22734 11.91C9.19134 12.006 9.17334 12.11 9.17334 12.222C9.17334 12.314 9.18934 12.396 9.22134 12.468C9.25734 12.54 9.30334 12.602 9.35934 12.654C9.41534 12.706 9.47934 12.746 9.55134 12.774C9.62734 12.798 9.70534 12.81 9.78534 12.81C10.0213 12.81 10.2053 12.738 10.3373 12.594C10.4733 12.45 10.5413 12.258 10.5413 12.018Z" fill="#FF0070"/>
</svg>
