<svg width="20" height="20" viewBox="0 0 20 20" fill="none" xmlns="http://www.w3.org/2000/svg">
<rect width="20" height="20" rx="6" fill="#750033"/>
<path d="M5.63749 13L4.70799 10.881L4.77949 10.569H5.09799C5.45332 10.569 5.72632 10.5083 5.91699 10.387C6.10765 10.2613 6.23115 10.0923 6.28749 9.88H4.88999L4.98099 9.464H6.31999C6.30265 9.23433 6.21815 9.06317 6.06649 8.9505C5.91915 8.8335 5.68515 8.775 5.36449 8.775H5.13049L5.21499 8.359H7.87999L7.79549 8.775H6.56049C6.64715 8.827 6.72732 8.91367 6.80099 9.035C6.87899 9.152 6.92015 9.295 6.92449 9.464H7.63949L7.54849 9.88H6.88549C6.84649 10.0533 6.77065 10.2202 6.65799 10.3805C6.54532 10.5365 6.38065 10.6665 6.16399 10.7705C5.95165 10.8745 5.66782 10.9352 5.31249 10.9525L6.27449 13H5.63749Z" fill="#FFEDED"/>
<path d="M15.8736 5H4.12644C3.50575 5 3 5.52916 3 6.17859V13.8214C3 14.4708 3.50575 15 4.12644 15H15.8736C16.4943 15 17 14.4708 17 13.8214V6.17859C17 5.52916 16.4943 5 15.8736 5ZM15.9425 13.8214C15.9425 13.8605 15.9109 13.8936 15.8736 13.8936H4.12644C4.08908 13.8936 4.05747 13.8605 4.05747 13.8214V7.12868H15.9397V13.8214H15.9425ZM8.3908 8.92664V8.46061C8.3908 8.37943 8.45402 8.3163 8.52874 8.3163H14.319C14.3966 8.3163 14.4569 8.38244 14.4569 8.46061V8.92664C14.4569 9.00782 14.3937 9.07096 14.319 9.07096H8.52874C8.45115 9.07396 8.3908 9.00782 8.3908 8.92664ZM8.3908 10.1864V9.72039C8.3908 9.63921 8.45402 9.57607 8.52874 9.57607H12.6149C12.6925 9.57607 12.7529 9.64221 12.7529 9.72039V10.1864C12.7529 10.2676 12.6897 10.3307 12.6149 10.3307H8.52874C8.45115 10.3307 8.3908 10.2646 8.3908 10.1864ZM8.3908 11.4432V10.9772C8.3908 10.896 8.45402 10.8328 8.52874 10.8328H14.319C14.3966 10.8328 14.4569 10.899 14.4569 10.9772V11.4432C14.4569 11.5244 14.3937 11.5875 14.319 11.5875H8.52874C8.45115 11.5875 8.3908 11.5244 8.3908 11.4432ZM8.3908 12.6999V12.2339C8.3908 12.1527 8.45402 12.0896 8.52874 12.0896H9.37931H9.97126H11.6236C11.7011 12.0896 11.7615 12.1557 11.7615 12.2339V12.6999C11.7615 12.7811 11.6983 12.8443 11.6236 12.8443H9.97126H9.37931H8.52874C8.45115 12.8443 8.3908 12.7811 8.3908 12.6999Z" fill="#FFEDED"/>
</svg>
