<svg width="21" height="21" viewBox="0 0 21 21" fill="none" xmlns="http://www.w3.org/2000/svg">
<path d="M11.8519 8.89777L11.8607 1.31147C11.8607 0.978864 11.7286 0.659883 11.4934 0.424698C11.2582 0.189512 10.9392 0.0573863 10.6066 0.0573862C10.274 0.0573861 9.95502 0.189511 9.71983 0.424697C9.48465 0.659883 9.35252 0.978862 9.35252 1.31147L9.36135 8.89777L1.77505 8.88894C1.44244 8.88894 1.12346 9.02107 0.888277 9.25625C0.653091 9.49144 0.520965 9.81042 0.520965 10.143C0.520965 10.4756 0.653091 10.7946 0.888276 11.0298C1.12346 11.265 1.44244 11.3971 1.77505 11.3971L9.36135 11.3883L9.35252 18.9746C9.35184 19.1395 9.38382 19.3028 9.4466 19.4553C9.50939 19.6078 9.60174 19.7463 9.71832 19.8629C9.83491 19.9794 9.97343 20.0718 10.1259 20.1346C10.2783 20.1974 10.4417 20.2293 10.6066 20.2287C10.7715 20.2293 10.9349 20.1974 11.0873 20.1346C11.2398 20.0718 11.3783 19.9794 11.4949 19.8629C11.6115 19.7463 11.7038 19.6078 11.7666 19.4553C11.8294 19.3028 11.8614 19.1395 11.8607 18.9746L11.8519 11.3883L19.4382 11.3971C19.603 11.3978 19.7664 11.3658 19.9189 11.303C20.0713 11.2402 20.2098 11.1479 20.3264 11.0313C20.443 10.9147 20.5354 10.7762 20.5982 10.6237C20.6609 10.4713 20.6929 10.3079 20.6922 10.143C20.6929 9.97814 20.6609 9.81476 20.5982 9.66231C20.5354 9.50985 20.443 9.37133 20.3264 9.25475C20.2098 9.13816 20.0713 9.04581 19.9189 8.98302C19.7664 8.92024 19.603 8.88827 19.4382 8.88894L11.8519 8.89777Z" fill="#FFEDED"/>
</svg>
