<svg width="50" height="50" viewBox="0 0 50 50" fill="none" xmlns="http://www.w3.org/2000/svg">
<path fill-rule="evenodd" clip-rule="evenodd" d="M50 42.5C50 46.6421 46.6421 50 42.5 50H7.5C3.35786 50 0 46.6421 0 42.5V7.5C0 3.35786 3.35786 0 7.5 0H17.5012C18.8813 0 20 1.11873 20 2.49875C20 3.87885 18.8814 4.99772 17.5012 4.998L7.5 5C6.11929 5 5 6.11929 5 7.5V40.695L15.4657 26.0469C16.2504 24.9482 17.7487 24.6843 18.8531 25.3975L19.1005 25.5794L31.9625 36.295L35.4199 31.1133C36.2366 29.8881 37.909 29.6462 39.0353 30.5264L39.2678 30.7322L45 36.4625V32.5C45 31.1193 46.1193 30 47.5 30C48.8807 30 50 31.1193 50 32.5V42.5ZM17.9675 31.145L8.07 45H42.5C43.5723 45 44.4869 44.3249 44.842 43.3766L37.8875 36.425L34.5801 41.3868C33.8107 42.5408 32.2659 42.8344 31.1351 42.0949L30.8995 41.9206L17.9675 31.145ZM37.5 0C38.8807 0 40 1.11929 40 2.5V10H47.5C48.8807 10 50 11.1193 50 12.5C50 13.8807 48.8807 15 47.5 15H40V22.5C40 23.8807 38.8807 25 37.5 25C36.1193 25 35 23.8807 35 22.5V15H27.5C26.1193 15 25 13.8807 25 12.5C25 11.1193 26.1193 10 27.5 10H35V2.5C35 1.11929 36.1193 0 37.5 0ZM15 10C17.7614 10 20 12.2386 20 15C20 17.7614 17.7614 20 15 20C12.2386 20 10 17.7614 10 15C10 12.2386 12.2386 10 15 10Z" fill="#FFEDED"/>
</svg>
