<svg width="20" height="20" viewBox="0 0 20 20" fill="none" xmlns="http://www.w3.org/2000/svg">
<rect width="20" height="20" rx="6" fill="#750033"/>
<path d="M9.99999 4.04707C9.33993 4.04707 8.8094 4.6103 8.8094 5.29482C8.8094 5.97932 9.33994 6.54255 9.99999 6.54255C10.66 6.54255 11.1906 5.97933 11.1906 5.29482C11.1906 4.61032 10.6601 4.04707 9.99999 4.04707ZM9.99999 5.92977C9.67253 5.92977 9.39963 5.64844 9.39963 5.29482C9.39963 4.94121 9.67254 4.65985 9.99999 4.65985C10.3275 4.65985 10.6004 4.94118 10.6004 5.29482C10.6004 5.64844 10.3275 5.92977 9.99999 5.92977Z" fill="#FFEDED" stroke="#FFEDED" stroke-width="0.15"/>
<mask id="path-3-outside-1_1654_5" maskUnits="userSpaceOnUse" x="2" y="1.5" width="16" height="16" fill="black">
<rect fill="white" x="2" y="1.5" width="16" height="16"/>
<path d="M16.7793 14.6896H16.6635C16.5765 14.227 16.234 13.86 15.7975 13.7582V12.7675C15.7975 12.6397 15.699 12.5361 15.5774 12.5361H15.4614V8.70401H15.5774C15.699 8.70401 15.7975 8.60044 15.7975 8.47262V7.81901H16.4748C16.7098 7.81901 16.9064 7.6665 16.9756 7.43039C17.0448 7.19432 16.964 6.95189 16.7698 6.81277L11.3662 2.94277C10.9618 2.65312 10.4894 2.5 9.99998 2.5C9.51058 2.5 9.0382 2.65312 8.63373 2.94277L3.23018 6.8128C3.03596 6.95192 2.95522 7.19435 3.02442 7.43042C3.09366 7.6665 3.29026 7.81904 3.52525 7.81904H4.20247V8.47265C4.20247 8.60047 4.30102 8.70404 4.42259 8.70404H4.53863V12.5362H4.42259C4.30102 12.5362 4.20247 12.6397 4.20247 12.7675V13.7582C3.76598 13.86 3.42348 14.227 3.3365 14.6896H3.22075C3.09918 14.6896 3.00063 14.7932 3.00063 14.921V16.2686C3.00063 16.3964 3.09918 16.5 3.22075 16.5H16.7793C16.9008 16.5 16.9994 16.3964 16.9994 16.2686V14.921C16.9994 14.7932 16.9008 14.6896 16.7793 14.6896ZM4.42261 7.35629V7.35626H3.52528C3.47141 7.35626 3.45194 7.31729 3.44513 7.29406C3.43832 7.27083 3.43354 7.22712 3.47805 7.19524L8.88165 3.32521C9.2127 3.0881 9.59942 2.96278 10 2.96278C10.4006 2.96278 10.7874 3.08813 11.1184 3.32521L16.522 7.19527C16.5665 7.22714 16.5617 7.27086 16.5549 7.29409C16.5481 7.31731 16.5286 7.35629 16.4748 7.35629H15.5775H13.4971H12.5526H10.4723H9.52776H7.44742H6.50292H4.42261ZM13.8332 8.24123H13.7172V7.81901H15.3573V8.24123H15.2413H13.8332ZM15.0212 8.70401V12.5361H14.0533V8.70401H15.0212ZM13.7172 12.9989H13.8332H15.2413H15.3573V13.7296H13.7172V12.9989ZM12.5526 12.5361H12.4365V8.70401H12.5526C12.6741 8.70401 12.7727 8.60044 12.7727 8.47262V7.81901H13.277V8.47262C13.277 8.60044 13.3755 8.70401 13.4971 8.70401H13.6131V12.5361H13.4971C13.3755 12.5361 13.277 12.6397 13.277 12.7675V13.7296H12.7727V12.7675C12.7727 12.6397 12.6741 12.5361 12.5526 12.5361ZM10.8084 8.24123H10.6923V7.81901H12.3324V8.24123H12.2164H10.8084ZM11.9963 8.70401V12.5361H11.0285V8.70401H11.9963ZM10.6924 12.9989H10.8084H12.2164H12.3325V13.7296H10.6924V12.9989ZM9.52776 12.5361H9.41171V8.70401H9.52776C9.64933 8.70401 9.74787 8.60044 9.74787 8.47262V7.81901H10.2522V8.47262C10.2522 8.60044 10.3507 8.70401 10.4723 8.70401H10.5883V12.5361H10.4723C10.3507 12.5361 10.2522 12.6397 10.2522 12.7675V13.7296H9.74787V12.7675C9.74785 12.6397 9.6493 12.5361 9.52776 12.5361ZM7.78356 8.24123H7.66751V7.81901H9.30764V8.24123H9.19162H7.78356ZM8.9715 8.70401V12.5361H8.00365V8.70401H8.9715ZM7.66754 12.9989H7.78359H9.19162H9.30767V13.7296H7.66754V12.9989ZM6.50292 12.5361H6.38687V8.70401H6.50292C6.62449 8.70401 6.72304 8.60044 6.72304 8.47262V7.81901H7.22733V8.47262C7.22733 8.60044 7.32588 8.70401 7.44745 8.70401H7.5635V12.5361H7.44745C7.32588 12.5361 7.22733 12.6397 7.22733 12.7675V13.7296H6.72304V12.7675C6.72304 12.6397 6.62449 12.5361 6.50292 12.5361ZM4.75872 8.24123H4.64268V7.81901H6.28278V8.24123H6.16676H4.75872ZM5.94664 8.70401V12.5361H4.97884V8.70401H5.94664ZM4.6427 12.9989H4.75875H6.16676H6.2828V13.7296H4.6427V12.9989ZM4.44824 14.1924H6.50292H7.44742H9.52776H10.4723H12.5526H13.4971H15.5518C15.857 14.1924 16.1169 14.401 16.2091 14.6896H3.79092C3.8831 14.401 4.14294 14.1924 4.44824 14.1924ZM16.5592 16.0372H16.5591H3.44084V15.1524H3.53496H16.465H16.5592V16.0372Z"/>
</mask>
<path d="M16.7793 14.6896H16.6635C16.5765 14.227 16.234 13.86 15.7975 13.7582V12.7675C15.7975 12.6397 15.699 12.5361 15.5774 12.5361H15.4614V8.70401H15.5774C15.699 8.70401 15.7975 8.60044 15.7975 8.47262V7.81901H16.4748C16.7098 7.81901 16.9064 7.6665 16.9756 7.43039C17.0448 7.19432 16.964 6.95189 16.7698 6.81277L11.3662 2.94277C10.9618 2.65312 10.4894 2.5 9.99998 2.5C9.51058 2.5 9.0382 2.65312 8.63373 2.94277L3.23018 6.8128C3.03596 6.95192 2.95522 7.19435 3.02442 7.43042C3.09366 7.6665 3.29026 7.81904 3.52525 7.81904H4.20247V8.47265C4.20247 8.60047 4.30102 8.70404 4.42259 8.70404H4.53863V12.5362H4.42259C4.30102 12.5362 4.20247 12.6397 4.20247 12.7675V13.7582C3.76598 13.86 3.42348 14.227 3.3365 14.6896H3.22075C3.09918 14.6896 3.00063 14.7932 3.00063 14.921V16.2686C3.00063 16.3964 3.09918 16.5 3.22075 16.5H16.7793C16.9008 16.5 16.9994 16.3964 16.9994 16.2686V14.921C16.9994 14.7932 16.9008 14.6896 16.7793 14.6896ZM4.42261 7.35629V7.35626H3.52528C3.47141 7.35626 3.45194 7.31729 3.44513 7.29406C3.43832 7.27083 3.43354 7.22712 3.47805 7.19524L8.88165 3.32521C9.2127 3.0881 9.59942 2.96278 10 2.96278C10.4006 2.96278 10.7874 3.08813 11.1184 3.32521L16.522 7.19527C16.5665 7.22714 16.5617 7.27086 16.5549 7.29409C16.5481 7.31731 16.5286 7.35629 16.4748 7.35629H15.5775H13.4971H12.5526H10.4723H9.52776H7.44742H6.50292H4.42261ZM13.8332 8.24123H13.7172V7.81901H15.3573V8.24123H15.2413H13.8332ZM15.0212 8.70401V12.5361H14.0533V8.70401H15.0212ZM13.7172 12.9989H13.8332H15.2413H15.3573V13.7296H13.7172V12.9989ZM12.5526 12.5361H12.4365V8.70401H12.5526C12.6741 8.70401 12.7727 8.60044 12.7727 8.47262V7.81901H13.277V8.47262C13.277 8.60044 13.3755 8.70401 13.4971 8.70401H13.6131V12.5361H13.4971C13.3755 12.5361 13.277 12.6397 13.277 12.7675V13.7296H12.7727V12.7675C12.7727 12.6397 12.6741 12.5361 12.5526 12.5361ZM10.8084 8.24123H10.6923V7.81901H12.3324V8.24123H12.2164H10.8084ZM11.9963 8.70401V12.5361H11.0285V8.70401H11.9963ZM10.6924 12.9989H10.8084H12.2164H12.3325V13.7296H10.6924V12.9989ZM9.52776 12.5361H9.41171V8.70401H9.52776C9.64933 8.70401 9.74787 8.60044 9.74787 8.47262V7.81901H10.2522V8.47262C10.2522 8.60044 10.3507 8.70401 10.4723 8.70401H10.5883V12.5361H10.4723C10.3507 12.5361 10.2522 12.6397 10.2522 12.7675V13.7296H9.74787V12.7675C9.74785 12.6397 9.6493 12.5361 9.52776 12.5361ZM7.78356 8.24123H7.66751V7.81901H9.30764V8.24123H9.19162H7.78356ZM8.9715 8.70401V12.5361H8.00365V8.70401H8.9715ZM7.66754 12.9989H7.78359H9.19162H9.30767V13.7296H7.66754V12.9989ZM6.50292 12.5361H6.38687V8.70401H6.50292C6.62449 8.70401 6.72304 8.60044 6.72304 8.47262V7.81901H7.22733V8.47262C7.22733 8.60044 7.32588 8.70401 7.44745 8.70401H7.5635V12.5361H7.44745C7.32588 12.5361 7.22733 12.6397 7.22733 12.7675V13.7296H6.72304V12.7675C6.72304 12.6397 6.62449 12.5361 6.50292 12.5361ZM4.75872 8.24123H4.64268V7.81901H6.28278V8.24123H6.16676H4.75872ZM5.94664 8.70401V12.5361H4.97884V8.70401H5.94664ZM4.6427 12.9989H4.75875H6.16676H6.2828V13.7296H4.6427V12.9989ZM4.44824 14.1924H6.50292H7.44742H9.52776H10.4723H12.5526H13.4971H15.5518C15.857 14.1924 16.1169 14.401 16.2091 14.6896H3.79092C3.8831 14.401 4.14294 14.1924 4.44824 14.1924ZM16.5592 16.0372H16.5591H3.44084V15.1524H3.53496H16.465H16.5592V16.0372Z" fill="#FFEDED"/>
<path d="M16.7793 14.6896H16.6635C16.5765 14.227 16.234 13.86 15.7975 13.7582V12.7675C15.7975 12.6397 15.699 12.5361 15.5774 12.5361H15.4614V8.70401H15.5774C15.699 8.70401 15.7975 8.60044 15.7975 8.47262V7.81901H16.4748C16.7098 7.81901 16.9064 7.6665 16.9756 7.43039C17.0448 7.19432 16.964 6.95189 16.7698 6.81277L11.3662 2.94277C10.9618 2.65312 10.4894 2.5 9.99998 2.5C9.51058 2.5 9.0382 2.65312 8.63373 2.94277L3.23018 6.8128C3.03596 6.95192 2.95522 7.19435 3.02442 7.43042C3.09366 7.6665 3.29026 7.81904 3.52525 7.81904H4.20247V8.47265C4.20247 8.60047 4.30102 8.70404 4.42259 8.70404H4.53863V12.5362H4.42259C4.30102 12.5362 4.20247 12.6397 4.20247 12.7675V13.7582C3.76598 13.86 3.42348 14.227 3.3365 14.6896H3.22075C3.09918 14.6896 3.00063 14.7932 3.00063 14.921V16.2686C3.00063 16.3964 3.09918 16.5 3.22075 16.5H16.7793C16.9008 16.5 16.9994 16.3964 16.9994 16.2686V14.921C16.9994 14.7932 16.9008 14.6896 16.7793 14.6896ZM4.42261 7.35629V7.35626H3.52528C3.47141 7.35626 3.45194 7.31729 3.44513 7.29406C3.43832 7.27083 3.43354 7.22712 3.47805 7.19524L8.88165 3.32521C9.2127 3.0881 9.59942 2.96278 10 2.96278C10.4006 2.96278 10.7874 3.08813 11.1184 3.32521L16.522 7.19527C16.5665 7.22714 16.5617 7.27086 16.5549 7.29409C16.5481 7.31731 16.5286 7.35629 16.4748 7.35629H15.5775H13.4971H12.5526H10.4723H9.52776H7.44742H6.50292H4.42261ZM13.8332 8.24123H13.7172V7.81901H15.3573V8.24123H15.2413H13.8332ZM15.0212 8.70401V12.5361H14.0533V8.70401H15.0212ZM13.7172 12.9989H13.8332H15.2413H15.3573V13.7296H13.7172V12.9989ZM12.5526 12.5361H12.4365V8.70401H12.5526C12.6741 8.70401 12.7727 8.60044 12.7727 8.47262V7.81901H13.277V8.47262C13.277 8.60044 13.3755 8.70401 13.4971 8.70401H13.6131V12.5361H13.4971C13.3755 12.5361 13.277 12.6397 13.277 12.7675V13.7296H12.7727V12.7675C12.7727 12.6397 12.6741 12.5361 12.5526 12.5361ZM10.8084 8.24123H10.6923V7.81901H12.3324V8.24123H12.2164H10.8084ZM11.9963 8.70401V12.5361H11.0285V8.70401H11.9963ZM10.6924 12.9989H10.8084H12.2164H12.3325V13.7296H10.6924V12.9989ZM9.52776 12.5361H9.41171V8.70401H9.52776C9.64933 8.70401 9.74787 8.60044 9.74787 8.47262V7.81901H10.2522V8.47262C10.2522 8.60044 10.3507 8.70401 10.4723 8.70401H10.5883V12.5361H10.4723C10.3507 12.5361 10.2522 12.6397 10.2522 12.7675V13.7296H9.74787V12.7675C9.74785 12.6397 9.6493 12.5361 9.52776 12.5361ZM7.78356 8.24123H7.66751V7.81901H9.30764V8.24123H9.19162H7.78356ZM8.9715 8.70401V12.5361H8.00365V8.70401H8.9715ZM7.66754 12.9989H7.78359H9.19162H9.30767V13.7296H7.66754V12.9989ZM6.50292 12.5361H6.38687V8.70401H6.50292C6.62449 8.70401 6.72304 8.60044 6.72304 8.47262V7.81901H7.22733V8.47262C7.22733 8.60044 7.32588 8.70401 7.44745 8.70401H7.5635V12.5361H7.44745C7.32588 12.5361 7.22733 12.6397 7.22733 12.7675V13.7296H6.72304V12.7675C6.72304 12.6397 6.62449 12.5361 6.50292 12.5361ZM4.75872 8.24123H4.64268V7.81901H6.28278V8.24123H6.16676H4.75872ZM5.94664 8.70401V12.5361H4.97884V8.70401H5.94664ZM4.6427 12.9989H4.75875H6.16676H6.2828V13.7296H4.6427V12.9989ZM4.44824 14.1924H6.50292H7.44742H9.52776H10.4723H12.5526H13.4971H15.5518C15.857 14.1924 16.1169 14.401 16.2091 14.6896H3.79092C3.8831 14.401 4.14294 14.1924 4.44824 14.1924ZM16.5592 16.0372H16.5591H3.44084V15.1524H3.53496H16.465H16.5592V16.0372Z" stroke="#FFEDED" stroke-width="0.3" mask="url(#path-3-outside-1_1654_5)"/>
</svg>
