<svg width="32" height="24" viewBox="0 0 32 24" fill="none" xmlns="http://www.w3.org/2000/svg">
<path d="M18.9377 16.2C18.6933 16.2003 18.459 16.2975 18.2862 16.4703C18.1134 16.6431 18.0162 16.8774 18.0159 17.1218C18.0159 17.8122 17.3404 18.5705 16.7252 18.5705H9.71913C9.53209 18.5702 9.34946 18.6271 9.1957 18.7336L6.05793 20.8973V19.4923C6.05762 19.2479 5.9604 19.0136 5.78757 18.8408C5.61477 18.668 5.38047 18.5708 5.13605 18.5705H3.02896C2.71473 18.5701 2.41349 18.4451 2.19129 18.2229C1.9691 18.0007 1.8441 17.6995 1.84371 17.3852V7.90298C1.84406 7.58875 1.96904 7.28746 2.19124 7.06527C2.41344 6.84308 2.71473 6.71808 3.02896 6.71775H10.9306C11.0517 6.71775 11.1715 6.69388 11.2834 6.64757C11.3952 6.60125 11.4969 6.53335 11.5825 6.44773C11.6681 6.36213 11.736 6.26051 11.7823 6.14867C11.8286 6.03681 11.8525 5.91693 11.8525 5.79587C11.8525 5.67482 11.8286 5.55494 11.7823 5.4431C11.736 5.33126 11.6681 5.22964 11.5825 5.14402C11.4969 5.05842 11.3952 4.99052 11.2834 4.9442C11.1715 4.89786 11.0517 4.87402 10.9306 4.87402H3.02896C2.22592 4.87495 1.45603 5.19438 0.888195 5.76223C0.320359 6.33005 0.000936341 7.09994 0 7.90298V17.3852C0.000892558 18.1883 0.3203 18.9582 0.888147 19.526C1.45599 20.0939 2.22591 20.4133 3.02896 20.4142H4.2142V22.653C4.2142 22.8211 4.26016 22.986 4.34711 23.1299C4.43404 23.2737 4.55868 23.3911 4.70752 23.4692C4.85635 23.5473 5.02373 23.5833 5.19151 23.5732C5.35932 23.563 5.52114 23.5073 5.6595 23.4118L10.0062 20.4142H16.7252C18.3364 20.4142 19.8596 18.8143 19.8596 17.1218C19.8593 16.8774 19.7621 16.6431 19.5892 16.4703C19.4164 16.2975 19.1821 16.2003 18.9377 16.2Z" fill="#FFEDED"/>
<path d="M29.3662 0H15.67C14.9721 0.00204141 14.3034 0.280195 13.8098 0.773703C13.3163 1.26721 13.0382 1.93597 13.0361 2.63389V12.1211C13.0382 12.819 13.3163 13.4878 13.8098 13.9813C14.3034 14.4748 14.9721 14.753 15.67 14.755H22.6287L24.994 18.021C25.0229 18.0602 25.0606 18.0921 25.104 18.114C25.1475 18.136 25.1955 18.1474 25.2442 18.1474C25.2929 18.1474 25.3409 18.136 25.3844 18.114C25.4278 18.0921 25.4655 18.0602 25.4943 18.021L26.7272 16.3195L27.7859 14.8498L27.8543 14.755H29.3662C30.0644 14.7539 30.7337 14.476 31.2273 13.9823C31.721 13.4886 31.999 12.8193 32.0001 12.1211V2.63389C31.999 1.93568 31.721 1.26641 31.2273 0.772712C30.7337 0.279012 30.0644 0.00114706 29.3662 0ZM21.9913 3.50305C22.067 3.50427 22.1418 3.51854 22.2126 3.54519C22.2495 3.56626 22.2863 3.59261 22.318 3.61368C22.3481 3.62991 22.3763 3.64935 22.4023 3.67162C22.425 3.69843 22.4461 3.72657 22.4655 3.75591C22.4931 3.78766 22.5161 3.82312 22.5339 3.86125C22.5675 3.93586 22.5854 4.01651 22.5866 4.09831C22.5861 4.2153 22.551 4.32949 22.4856 4.42656C22.4203 4.5236 22.3277 4.59916 22.2195 4.64368C22.1114 4.68821 21.9924 4.69973 21.8777 4.67679C21.763 4.65382 21.6577 4.59744 21.5749 4.51471C21.4922 4.43199 21.4358 4.32665 21.4129 4.21192C21.3899 4.09721 21.4014 3.97828 21.446 3.87011C21.4905 3.7619 21.5661 3.66934 21.6631 3.604C21.7602 3.53869 21.8743 3.50356 21.9913 3.50305ZM24.2776 10.3722C24.2167 10.5173 24.1013 10.6328 23.9562 10.6936L23.3715 10.9359C23.0929 11.0501 22.7919 11.0991 22.4915 11.079C22.1911 11.0589 21.8993 10.9703 21.6384 10.82C21.3963 10.6841 21.189 10.4941 21.0328 10.2646C20.8765 10.0353 20.7755 9.77277 20.7376 9.49778C20.7228 9.41077 20.7157 9.32262 20.7166 9.23439L20.7218 9.16062L21.1222 6.05265C21.1306 5.97471 21.155 5.89936 21.194 5.83135C21.233 5.76335 21.2857 5.70418 21.3487 5.65758C21.4081 5.60831 21.4775 5.57244 21.552 5.55245C21.6266 5.53242 21.7045 5.52876 21.7806 5.54169C21.858 5.55017 21.9328 5.57411 22.0007 5.61213C22.0686 5.65015 22.1281 5.70144 22.1757 5.76296C22.2694 5.88837 22.3127 6.04438 22.2969 6.20015L21.9018 9.27128C21.9071 9.28708 21.9071 9.31343 21.9123 9.33447C21.9249 9.43046 21.9601 9.52205 22.0151 9.60173C22.0701 9.68141 22.1432 9.74688 22.2284 9.79276C22.3324 9.85211 22.4485 9.88719 22.568 9.89538C22.6875 9.9036 22.8073 9.88473 22.9185 9.84018L23.5032 9.59786C23.6487 9.53992 23.8108 9.53992 23.9562 9.59786C24.1013 9.6587 24.2167 9.7741 24.2776 9.91919C24.3355 10.0647 24.3355 10.2268 24.2776 10.3722Z" fill="#FFEDED"/>
<path d="M26.2418 1.80176H18.5605V12.0434H26.2418V1.80176Z" fill="#FFEDED"/>
<path d="M19.697 4.4502C19.8991 4.4502 20.1012 4.47204 20.3033 4.51574C20.5054 4.55945 20.6857 4.63319 20.8441 4.73696C21.008 4.83528 21.1391 4.96637 21.2374 5.13024C21.3411 5.28865 21.393 5.48529 21.393 5.72016C21.393 6.11344 21.2783 6.43571 21.0489 6.68697C20.8195 6.93822 20.5218 7.11028 20.1559 7.20314V7.21953C20.4508 7.26869 20.6966 7.40252 20.8933 7.621C21.0953 7.83403 21.1964 8.1126 21.1964 8.45672C21.1964 8.75168 21.1336 9.01112 21.008 9.23508C20.8878 9.45904 20.7185 9.64749 20.5 9.80042C20.2815 9.9479 20.0193 10.0599 19.7134 10.1363C19.4075 10.2128 19.0743 10.2511 18.7138 10.2511H16.4033L17.4275 4.4502H19.697ZM18.5254 5.5399L18.3124 6.78529H19.1481C19.2464 6.78529 19.3475 6.77435 19.4512 6.75251C19.5605 6.73067 19.6588 6.69242 19.7462 6.63781C19.8336 6.58319 19.9046 6.50945 19.9592 6.41659C20.0193 6.32372 20.0493 6.20902 20.0493 6.07247C20.0493 5.88128 19.9756 5.74474 19.8281 5.6628C19.6806 5.58087 19.4949 5.5399 19.271 5.5399H18.5254ZM18.1321 7.76848L17.8945 9.15315H18.6893C18.8422 9.15315 18.987 9.1395 19.1235 9.11218C19.26 9.08486 19.3802 9.04118 19.484 8.98109C19.5933 8.921 19.6779 8.83907 19.738 8.73529C19.8035 8.63152 19.8363 8.50588 19.8363 8.3584C19.8363 8.17269 19.7653 8.02793 19.6233 7.92416C19.4813 7.82038 19.2792 7.76848 19.017 7.76848H18.1321Z" fill="#750033"/>
<path d="M23.6816 5.38623H29.0585" stroke="#750033"/>
<path d="M4.73438 10.5073H10.1112" stroke="#FFEDED"/>
<path d="M23.6816 7.43457H29.0585" stroke="#750033"/>
<path d="M4.73438 12.5552H10.1112" stroke="#FFEDED"/>
<path d="M23.6816 9.48291H29.0585" stroke="#750033"/>
<path d="M4.73438 14.604H10.1112" stroke="#FFEDED"/>
</svg>
