<svg width="40" height="40" viewBox="0 0 40 40" fill="none" xmlns="http://www.w3.org/2000/svg">
<rect width="40" height="40" rx="6" fill="#FFEDED"/>
<path d="M22.3879 23.3689C22.1894 23.3691 21.999 23.4433 21.8585 23.5753C21.7181 23.7072 21.6391 23.8861 21.6389 24.0727C21.6389 24.5998 21.0901 25.1788 20.5901 25.1788H14.8973C14.7454 25.1786 14.5969 25.222 14.472 25.3033L11.9224 26.9553V25.8826C11.9221 25.6961 11.8432 25.5171 11.7027 25.3852C11.5623 25.2532 11.3719 25.179 11.1733 25.1788H9.4612C9.20586 25.1785 8.96109 25.0831 8.78055 24.9134C8.6 24.7437 8.49843 24.5137 8.49812 24.2738V17.0339C8.4984 16.794 8.59995 16.5639 8.78051 16.3943C8.96106 16.2246 9.20586 16.1292 9.4612 16.1289H15.8817C15.9801 16.1289 16.0775 16.1107 16.1684 16.0753C16.2593 16.04 16.3418 15.9881 16.4114 15.9228C16.4809 15.8574 16.5361 15.7798 16.5738 15.6944C16.6114 15.609 16.6308 15.5175 16.6308 15.425C16.6308 15.3326 16.6114 15.2411 16.5738 15.1557C16.5361 15.0703 16.4809 14.9927 16.4114 14.9273C16.3418 14.862 16.2593 14.8101 16.1684 14.7748C16.0775 14.7394 15.9801 14.7212 15.8817 14.7212H9.4612C8.80868 14.7219 8.18311 14.9658 7.72171 15.3994C7.26031 15.8329 7.00076 16.4207 7 17.0339V24.2738C7.00073 24.887 7.26026 25.4748 7.72167 25.9084C8.18308 26.3419 8.80867 26.5858 9.4612 26.5865H10.4243V28.2959C10.4243 28.4242 10.4616 28.5501 10.5323 28.66C10.6029 28.7698 10.7042 28.8594 10.8251 28.9191C10.9461 28.9788 11.0821 29.0062 11.2184 28.9985C11.3547 28.9907 11.4862 28.9481 11.5987 28.8752L15.1306 26.5865H20.5901C21.8993 26.5865 23.137 25.365 23.137 24.0727C23.1368 23.8861 23.0578 23.7072 22.9173 23.5753C22.7769 23.4433 22.5865 23.3691 22.3879 23.3689Z" fill="#FF0070"/>
<path d="M30.8599 11H19.731C19.1639 11.0016 18.6205 11.2139 18.2195 11.5907C17.8185 11.9675 17.5925 12.4782 17.5908 13.011V20.2548C17.5925 20.7877 17.8185 21.2983 18.2195 21.6751C18.6205 22.0519 19.1639 22.2643 19.731 22.2658H25.3854L27.3072 24.7595C27.3307 24.7894 27.3613 24.8138 27.3966 24.8305C27.432 24.8473 27.471 24.856 27.5106 24.856C27.5501 24.856 27.5891 24.8473 27.6245 24.8305C27.6598 24.8138 27.6904 24.7894 27.7138 24.7595L28.7155 23.4604L29.5758 22.3382L29.6314 22.2658H30.8599C31.4272 22.265 31.9711 22.0528 32.3722 21.6758C32.7733 21.2989 32.9992 20.7879 33.0001 20.2548V13.011C32.9992 12.4779 32.7733 11.9669 32.3722 11.59C31.9711 11.213 31.4272 11.0009 30.8599 11ZM24.8674 13.6747C24.9289 13.6756 24.9897 13.6865 25.0472 13.7068C25.0772 13.7229 25.1071 13.743 25.1328 13.7591C25.1573 13.7715 25.1802 13.7864 25.2013 13.8034C25.2198 13.8238 25.237 13.8453 25.2527 13.8677C25.2751 13.892 25.2938 13.9191 25.3083 13.9482C25.3356 14.0051 25.3501 14.0667 25.3511 14.1292C25.3507 14.2185 25.3221 14.3057 25.2691 14.3798C25.216 14.4539 25.1408 14.5116 25.0529 14.5456C24.965 14.5796 24.8683 14.5884 24.7751 14.5708C24.6819 14.5533 24.5963 14.5103 24.5291 14.4471C24.4619 14.3839 24.416 14.3035 24.3974 14.2159C24.3787 14.1283 24.3881 14.0375 24.4243 13.9549C24.4605 13.8723 24.5219 13.8016 24.6007 13.7517C24.6796 13.7019 24.7724 13.6751 24.8674 13.6747ZM26.7251 18.9195C26.6757 19.0303 26.5819 19.1184 26.464 19.1648L25.9889 19.3498C25.7625 19.437 25.518 19.4744 25.2739 19.4591C25.0298 19.4437 24.7926 19.3761 24.5806 19.2613C24.384 19.1576 24.2155 19.0125 24.0885 18.8373C23.9615 18.6622 23.8795 18.4618 23.8487 18.2518C23.8366 18.1854 23.8309 18.1181 23.8316 18.0507L23.8359 17.9944L24.1612 15.6214C24.168 15.5618 24.1878 15.5043 24.2195 15.4524C24.2512 15.4005 24.294 15.3553 24.3452 15.3197C24.3935 15.2821 24.4499 15.2547 24.5104 15.2394C24.571 15.2241 24.6344 15.2214 24.6962 15.2312C24.7591 15.2377 24.8199 15.256 24.875 15.285C24.9302 15.314 24.9785 15.3532 25.0172 15.4002C25.0934 15.4959 25.1285 15.615 25.1157 15.734L24.7947 18.0789C24.7989 18.0909 24.7989 18.111 24.8032 18.1271C24.8135 18.2004 24.8421 18.2703 24.8867 18.3312C24.9314 18.392 24.9908 18.442 25.06 18.477C25.1446 18.5223 25.2389 18.5491 25.336 18.5554C25.4331 18.5617 25.5304 18.5472 25.6208 18.5132L26.0959 18.3282C26.2141 18.284 26.3458 18.284 26.464 18.3282C26.5819 18.3747 26.6757 18.4628 26.7251 18.5736C26.7722 18.6846 26.7722 18.8084 26.7251 18.9195Z" fill="#FF0070"/>
<path d="M28.3225 12.376H22.0811V20.1957H28.3225V12.376Z" fill="#FF0070"/>
<path d="M23.0054 14.3979C23.1696 14.3979 23.3339 14.4146 23.4981 14.448C23.6623 14.4814 23.8088 14.5377 23.9375 14.6169C24.0706 14.692 24.1771 14.7921 24.257 14.9172C24.3414 15.0381 24.3835 15.1883 24.3835 15.3676C24.3835 15.6679 24.2903 15.9139 24.1039 16.1058C23.9175 16.2976 23.6756 16.429 23.3782 16.4999V16.5124C23.6179 16.5499 23.8176 16.6521 23.9774 16.8189C24.1416 16.9816 24.2237 17.1943 24.2237 17.457C24.2237 17.6822 24.1727 17.8803 24.0706 18.0513C23.973 18.2223 23.8354 18.3662 23.6579 18.483C23.4803 18.5956 23.2673 18.6811 23.0187 18.7395C22.7702 18.7979 22.4995 18.8271 22.2065 18.8271H20.3291L21.1613 14.3979H23.0054ZM22.0534 15.23L21.8803 16.1809H22.5594C22.6393 16.1809 22.7214 16.1725 22.8057 16.1558C22.8945 16.1392 22.9744 16.1099 23.0454 16.0682C23.1164 16.0265 23.1741 15.9702 23.2185 15.8993C23.2673 15.8284 23.2917 15.7409 23.2917 15.6366C23.2917 15.4906 23.2318 15.3864 23.1119 15.3238C22.9921 15.2612 22.8412 15.23 22.6592 15.23H22.0534ZM21.7338 16.9315L21.5408 17.9888H22.1865C22.3108 17.9888 22.4284 17.9784 22.5394 17.9575C22.6503 17.9366 22.748 17.9033 22.8323 17.8574C22.9211 17.8115 22.9899 17.749 23.0387 17.6697C23.092 17.5905 23.1186 17.4946 23.1186 17.382C23.1186 17.2402 23.0609 17.1296 22.9455 17.0504C22.8301 16.9712 22.6659 16.9315 22.4528 16.9315H21.7338Z" fill="#FFEDED"/>
<path d="M26.2412 15.1128H30.6102" stroke="#FFEDED"/>
<path d="M10.8447 19.0229H15.2137" stroke="#FF0070"/>
<path d="M26.2412 16.6768H30.6102" stroke="#FFEDED"/>
<path d="M10.8447 20.5864H15.2137" stroke="#FF0070"/>
<path d="M26.2412 18.2412H30.6102" stroke="#FFEDED"/>
<path d="M10.8447 22.1509H15.2137" stroke="#FF0070"/>
</svg>
