<svg width="40" height="40" viewBox="0 0 40 40" fill="none" xmlns="http://www.w3.org/2000/svg">
<rect width="40" height="40" rx="6" fill="#FFEDED"/>
<path fill-rule="evenodd" clip-rule="evenodd" d="M18.4413 20.0459V25.8427C18.4413 25.8828 18.4572 25.9212 18.4855 25.9495C18.5138 25.9778 18.5522 25.9937 18.5923 25.9937H20.7451C20.7852 25.9937 20.8236 25.9778 20.8519 25.9495C20.8802 25.9212 20.8961 25.8828 20.8961 25.8427V19.9527H22.4562C22.494 19.9524 22.5303 19.9382 22.5582 19.9127C22.5861 19.8872 22.6035 19.8523 22.6072 19.8148L22.7563 18.0384C22.7581 18.0178 22.7556 17.997 22.7489 17.9774C22.7423 17.9577 22.7316 17.9397 22.7175 17.9245C22.7035 17.9092 22.6864 17.897 22.6674 17.8887C22.6485 17.8804 22.6279 17.8762 22.6072 17.8763H20.8961V16.6163C20.8961 16.4744 20.9525 16.3383 21.0528 16.238C21.1531 16.1377 21.2892 16.0813 21.4311 16.0813H22.6333C22.6733 16.0813 22.7117 16.0654 22.7401 16.0371C22.7684 16.0088 22.7843 15.9704 22.7843 15.9303V14.1559C22.7843 14.1158 22.7684 14.0774 22.7401 14.0491C22.7117 14.0208 22.6733 14.0049 22.6333 14.0049H20.6016C20.3179 14.0049 20.037 14.0608 19.7749 14.1693C19.5128 14.2779 19.2747 14.437 19.074 14.6376C18.8734 14.8382 18.7143 15.0764 18.6058 15.3385C18.4972 15.6006 18.4413 15.8815 18.4413 16.1652V17.8763H17.3658C17.3258 17.8763 17.2874 17.8922 17.2591 17.9205C17.2308 17.9488 17.2148 17.9872 17.2148 18.0272V19.8017C17.2148 19.8418 17.2308 19.8802 17.2591 19.9085C17.2874 19.9368 17.3258 19.9527 17.3658 19.9527H18.4413V20.0459Z" fill="#FF0070"/>
<path d="M13.5061 11.4092H26.4939C27.0497 11.4102 27.5825 11.6314 27.9755 12.0245C28.3686 12.4175 28.5898 12.9504 28.5908 13.5063V26.4937C28.5898 27.0496 28.3686 27.5825 27.9755 27.9755C27.5825 28.3686 27.0496 28.5898 26.4937 28.5908H13.5063C12.9504 28.5898 12.4175 28.3686 12.0245 27.9755C11.6314 27.5825 11.4102 27.0497 11.4092 26.4939V13.5061C11.4102 12.9503 11.6314 12.4175 12.0245 12.0245C12.4175 11.6314 12.9503 11.4102 13.5061 11.4092ZM26.4939 9.875H13.5061C12.543 9.875 11.6195 10.2576 10.9385 10.9385C10.2576 11.6195 9.875 12.543 9.875 13.5061V26.4939C9.875 27.457 10.2576 28.3805 10.9385 29.0615C11.6195 29.7424 12.543 30.125 13.5061 30.125H26.4939C27.457 30.125 28.3805 29.7424 29.0615 29.0615C29.7424 28.3805 30.125 27.457 30.125 26.4939V13.5061C30.125 12.543 29.7424 11.6195 29.0615 10.9385C28.3805 10.2576 27.457 9.875 26.4939 9.875Z" fill="#FF0070" stroke="#FF0070" stroke-width="0.25"/>
</svg>
