<svg width="40" height="40" viewBox="0 0 40 40" fill="none" xmlns="http://www.w3.org/2000/svg">
<rect width="40" height="40" rx="6" fill="#FFEDED"/>
<path d="M13.5061 11.4092H26.4939C27.0497 11.4102 27.5825 11.6314 27.9755 12.0245C28.3686 12.4175 28.5898 12.9504 28.5908 13.5063V26.4937C28.5898 27.0496 28.3686 27.5825 27.9755 27.9755C27.5825 28.3686 27.0496 28.5898 26.4937 28.5908H13.5063C12.9504 28.5898 12.4175 28.3686 12.0245 27.9755C11.6314 27.5825 11.4102 27.0497 11.4092 26.4939V13.5061C11.4102 12.9503 11.6314 12.4175 12.0245 12.0245C12.4175 11.6314 12.9503 11.4102 13.5061 11.4092ZM26.4939 9.875H13.5061C12.543 9.875 11.6195 10.2576 10.9385 10.9385C10.2576 11.6195 9.875 12.543 9.875 13.5061V26.4939C9.875 27.457 10.2576 28.3805 10.9385 29.0615C11.6195 29.7424 12.543 30.125 13.5061 30.125H26.4939C27.457 30.125 28.3805 29.7424 29.0615 29.0615C29.7424 28.3805 30.125 27.457 30.125 26.4939V13.5061C30.125 12.543 29.7424 11.6195 29.0615 10.9385C28.3805 10.2576 27.457 9.875 26.4939 9.875Z" fill="#FF0070" stroke="#FF0070" stroke-width="0.25"/>
<path d="M19.9997 24.6663C22.577 24.6663 24.6663 22.577 24.6663 19.9997C24.6663 17.4223 22.577 15.333 19.9997 15.333C17.4223 15.333 15.333 17.4223 15.333 19.9997C15.333 22.577 17.4223 24.6663 19.9997 24.6663Z" stroke="#FF0070" stroke-width="1.6" stroke-miterlimit="10" stroke-linecap="round" stroke-linejoin="round"/>
<path d="M25.3337 14.6663C25.7018 14.6663 26.0003 14.3679 26.0003 13.9997C26.0003 13.6315 25.7018 13.333 25.3337 13.333C24.9655 13.333 24.667 13.6315 24.667 13.9997C24.667 14.3679 24.9655 14.6663 25.3337 14.6663Z" stroke="#FF0070" stroke-miterlimit="10" stroke-linecap="round" stroke-linejoin="round"/>
</svg>
