<svg width="40" height="40" viewBox="0 0 40 40" fill="none" xmlns="http://www.w3.org/2000/svg">
<rect width="40" height="40" rx="6" fill="#FFEDED"/>
<mask id="path-2-outside-1_564_307" maskUnits="userSpaceOnUse" x="9" y="9" width="22" height="22" fill="black">
<rect fill="white" x="9" y="9" width="22" height="22"/>
<path d="M18.4752 21.199C18.9496 21.707 19.4677 22.172 20.0237 22.5884C20.6249 23.0371 21.2621 23.4352 21.9287 23.7785L21.9564 23.7588C22.0052 23.7196 22.0606 23.6689 22.1192 23.6117C22.1778 23.5545 22.2169 23.5055 22.269 23.4483L22.453 23.208C22.4692 23.1829 22.4878 23.1593 22.5084 23.1377C23.2102 22.2092 24.0845 21.0927 25.4913 21.7466C25.5205 21.7587 25.5488 21.7729 25.576 21.7891C26.7158 22.4658 27.8849 23.1213 29.0344 23.785C29.063 23.8 29.0903 23.8175 29.1158 23.8373C29.4006 24.0314 29.6292 24.2976 29.7785 24.6089C29.9262 24.9295 30.0018 25.2789 30 25.6322C29.9965 25.9702 29.945 26.306 29.8469 26.6293C29.7437 26.9746 29.6016 27.3069 29.4236 27.6199C29.2038 28.0101 28.9178 28.3586 28.5785 28.6498C28.2582 28.924 27.9001 29.1503 27.5153 29.3216H27.5071C27.1575 29.48 26.7946 29.6069 26.4227 29.7009C26.0616 29.7933 25.6958 29.8665 25.3269 29.9199C24.7627 30.0047 24.1904 30.0222 23.6221 29.9722C23.0602 29.922 22.5052 29.8124 21.9662 29.6453C21.4134 29.4694 20.875 29.2508 20.3558 28.9914C19.7892 28.7107 19.237 28.4014 18.7015 28.0646L18.5647 27.9796C18.0649 27.6673 17.5259 27.3257 16.9805 26.9219C15.8555 26.0655 14.8191 25.0979 13.8868 24.0335C12.9826 23.0074 12.1911 21.8867 11.5258 20.6906C10.9337 19.6363 10.495 18.5023 10.2232 17.3232C9.97885 16.2747 9.93465 15.1892 10.093 14.1241C10.1891 13.493 10.3882 12.8822 10.6824 12.3162C10.957 11.7888 11.336 11.3232 11.7961 10.948C12.252 10.5811 12.7795 10.3143 13.3446 10.165C13.9419 10.0118 14.5613 9.96479 15.1747 10.026C15.3382 10.0366 15.4963 10.0889 15.6339 10.178C15.7691 10.2658 15.8809 10.3853 15.9595 10.5262L18.1512 14.2516C18.3442 14.5016 18.4703 14.7971 18.5175 15.1098C18.5565 15.4209 18.5104 15.7368 18.384 16.0236C18.2796 16.261 18.1366 16.4792 17.9607 16.6693C17.7867 16.8577 17.5947 17.0285 17.3875 17.1793C17.2687 17.2823 17.1189 17.3918 16.9625 17.5063L16.9479 17.5177C16.7624 17.6455 16.5866 17.787 16.422 17.9411C16.3577 17.9932 16.3073 18.0607 16.2754 18.1372C16.2754 18.1552 16.2901 18.1372 16.3064 18.165L16.3617 18.2517C16.5457 18.541 16.9007 19.0935 17.3061 19.6804C17.6629 20.2123 18.0534 20.7206 18.4752 21.2022V21.199ZM19.3626 23.4711C18.7569 23.0169 18.1914 22.511 17.6725 21.9591C17.2114 21.4382 16.786 20.8866 16.3992 20.3081C15.9954 19.7229 15.6241 19.1458 15.432 18.8369L15.3848 18.7666C15.3031 18.6658 15.2422 18.5498 15.2056 18.4252C15.169 18.3006 15.1574 18.1699 15.1715 18.0408C15.2146 17.6959 15.3806 17.3783 15.6388 17.1466C15.8444 16.9509 16.0648 16.7717 16.2982 16.6105C16.4285 16.5156 16.5522 16.4241 16.6646 16.3277L16.6988 16.3015C16.8568 16.1905 17.0026 16.0628 17.1335 15.9206C17.2274 15.8199 17.3044 15.7045 17.3615 15.579C17.4085 15.4769 17.427 15.3639 17.4152 15.252C17.3909 15.1251 17.3349 15.0064 17.2524 14.9071C17.2323 14.8841 17.2148 14.8589 17.2003 14.8319L15.0314 11.1229C14.5611 11.0799 14.087 11.1181 13.6295 11.2357C13.2132 11.3449 12.8247 11.5415 12.4897 11.8127C12.1464 12.0939 11.8634 12.442 11.6577 12.836C11.4217 13.2939 11.2621 13.7876 11.1855 14.2974C11.0483 15.2226 11.087 16.1656 11.2995 17.0763C11.5513 18.1527 11.9548 19.1876 12.4979 20.1495C13.123 21.2727 13.8677 22.3245 14.7188 23.2864C15.6022 24.2942 16.584 25.2104 17.6497 26.0212C18.1381 26.3923 18.669 26.7209 19.1574 27.0249L19.2958 27.1132C19.7971 27.429 20.3139 27.7192 20.8443 27.9828C21.3117 28.2167 21.7968 28.4129 22.2951 28.5697C22.7596 28.7161 23.2383 28.8125 23.7231 28.8574C24.2062 28.899 24.6926 28.8836 25.1722 28.8116C25.5011 28.7652 25.8272 28.7008 26.1491 28.6187C26.458 28.5412 26.7593 28.4362 27.0496 28.3049H27.0642C27.3537 28.1761 27.6235 28.0065 27.8653 27.8014C28.107 27.5936 28.3108 27.3453 28.4678 27.0674C28.6042 26.8282 28.7134 26.5743 28.7934 26.3106C28.8607 26.0884 28.8968 25.8578 28.9009 25.6256C28.905 25.4375 28.8666 25.2508 28.7885 25.0797C28.7227 24.9408 28.6209 24.8222 28.4938 24.7364C27.6129 24.1038 26.0661 23.3322 25.0745 22.7568L25.0273 22.7323C24.4167 22.4593 23.8501 23.1818 23.3893 23.7915L23.3616 23.8308C23.2818 23.937 23.1988 24.04 23.1336 24.1283C23.0685 24.2166 22.9708 24.3244 22.9057 24.3898C22.818 24.4777 22.725 24.5602 22.6272 24.6367C22.517 24.7202 22.3959 24.7884 22.2674 24.8394C22.1458 24.8874 22.0153 24.9086 21.8848 24.9015C21.7724 24.8938 21.6622 24.8667 21.5591 24.8214L21.507 24.7985C20.7561 24.4177 20.0388 23.9736 19.3626 23.4711Z"/>
</mask>
<path d="M18.4752 21.199C18.9496 21.707 19.4677 22.172 20.0237 22.5884C20.6249 23.0371 21.2621 23.4352 21.9287 23.7785L21.9564 23.7588C22.0052 23.7196 22.0606 23.6689 22.1192 23.6117C22.1778 23.5545 22.2169 23.5055 22.269 23.4483L22.453 23.208C22.4692 23.1829 22.4878 23.1593 22.5084 23.1377C23.2102 22.2092 24.0845 21.0927 25.4913 21.7466C25.5205 21.7587 25.5488 21.7729 25.576 21.7891C26.7158 22.4658 27.8849 23.1213 29.0344 23.785C29.063 23.8 29.0903 23.8175 29.1158 23.8373C29.4006 24.0314 29.6292 24.2976 29.7785 24.6089C29.9262 24.9295 30.0018 25.2789 30 25.6322C29.9965 25.9702 29.945 26.306 29.8469 26.6293C29.7437 26.9746 29.6016 27.3069 29.4236 27.6199C29.2038 28.0101 28.9178 28.3586 28.5785 28.6498C28.2582 28.924 27.9001 29.1503 27.5153 29.3216H27.5071C27.1575 29.48 26.7946 29.6069 26.4227 29.7009C26.0616 29.7933 25.6958 29.8665 25.3269 29.9199C24.7627 30.0047 24.1904 30.0222 23.6221 29.9722C23.0602 29.922 22.5052 29.8124 21.9662 29.6453C21.4134 29.4694 20.875 29.2508 20.3558 28.9914C19.7892 28.7107 19.237 28.4014 18.7015 28.0646L18.5647 27.9796C18.0649 27.6673 17.5259 27.3257 16.9805 26.9219C15.8555 26.0655 14.8191 25.0979 13.8868 24.0335C12.9826 23.0074 12.1911 21.8867 11.5258 20.6906C10.9337 19.6363 10.495 18.5023 10.2232 17.3232C9.97885 16.2747 9.93465 15.1892 10.093 14.1241C10.1891 13.493 10.3882 12.8822 10.6824 12.3162C10.957 11.7888 11.336 11.3232 11.7961 10.948C12.252 10.5811 12.7795 10.3143 13.3446 10.165C13.9419 10.0118 14.5613 9.96479 15.1747 10.026C15.3382 10.0366 15.4963 10.0889 15.6339 10.178C15.7691 10.2658 15.8809 10.3853 15.9595 10.5262L18.1512 14.2516C18.3442 14.5016 18.4703 14.7971 18.5175 15.1098C18.5565 15.4209 18.5104 15.7368 18.384 16.0236C18.2796 16.261 18.1366 16.4792 17.9607 16.6693C17.7867 16.8577 17.5947 17.0285 17.3875 17.1793C17.2687 17.2823 17.1189 17.3918 16.9625 17.5063L16.9479 17.5177C16.7624 17.6455 16.5866 17.787 16.422 17.9411C16.3577 17.9932 16.3073 18.0607 16.2754 18.1372C16.2754 18.1552 16.2901 18.1372 16.3064 18.165L16.3617 18.2517C16.5457 18.541 16.9007 19.0935 17.3061 19.6804C17.6629 20.2123 18.0534 20.7206 18.4752 21.2022V21.199ZM19.3626 23.4711C18.7569 23.0169 18.1914 22.511 17.6725 21.9591C17.2114 21.4382 16.786 20.8866 16.3992 20.3081C15.9954 19.7229 15.6241 19.1458 15.432 18.8369L15.3848 18.7666C15.3031 18.6658 15.2422 18.5498 15.2056 18.4252C15.169 18.3006 15.1574 18.1699 15.1715 18.0408C15.2146 17.6959 15.3806 17.3783 15.6388 17.1466C15.8444 16.9509 16.0648 16.7717 16.2982 16.6105C16.4285 16.5156 16.5522 16.4241 16.6646 16.3277L16.6988 16.3015C16.8568 16.1905 17.0026 16.0628 17.1335 15.9206C17.2274 15.8199 17.3044 15.7045 17.3615 15.579C17.4085 15.4769 17.427 15.3639 17.4152 15.252C17.3909 15.1251 17.3349 15.0064 17.2524 14.9071C17.2323 14.8841 17.2148 14.8589 17.2003 14.8319L15.0314 11.1229C14.5611 11.0799 14.087 11.1181 13.6295 11.2357C13.2132 11.3449 12.8247 11.5415 12.4897 11.8127C12.1464 12.0939 11.8634 12.442 11.6577 12.836C11.4217 13.2939 11.2621 13.7876 11.1855 14.2974C11.0483 15.2226 11.087 16.1656 11.2995 17.0763C11.5513 18.1527 11.9548 19.1876 12.4979 20.1495C13.123 21.2727 13.8677 22.3245 14.7188 23.2864C15.6022 24.2942 16.584 25.2104 17.6497 26.0212C18.1381 26.3923 18.669 26.7209 19.1574 27.0249L19.2958 27.1132C19.7971 27.429 20.3139 27.7192 20.8443 27.9828C21.3117 28.2167 21.7968 28.4129 22.2951 28.5697C22.7596 28.7161 23.2383 28.8125 23.7231 28.8574C24.2062 28.899 24.6926 28.8836 25.1722 28.8116C25.5011 28.7652 25.8272 28.7008 26.1491 28.6187C26.458 28.5412 26.7593 28.4362 27.0496 28.3049H27.0642C27.3537 28.1761 27.6235 28.0065 27.8653 27.8014C28.107 27.5936 28.3108 27.3453 28.4678 27.0674C28.6042 26.8282 28.7134 26.5743 28.7934 26.3106C28.8607 26.0884 28.8968 25.8578 28.9009 25.6256C28.905 25.4375 28.8666 25.2508 28.7885 25.0797C28.7227 24.9408 28.6209 24.8222 28.4938 24.7364C27.6129 24.1038 26.0661 23.3322 25.0745 22.7568L25.0273 22.7323C24.4167 22.4593 23.8501 23.1818 23.3893 23.7915L23.3616 23.8308C23.2818 23.937 23.1988 24.04 23.1336 24.1283C23.0685 24.2166 22.9708 24.3244 22.9057 24.3898C22.818 24.4777 22.725 24.5602 22.6272 24.6367C22.517 24.7202 22.3959 24.7884 22.2674 24.8394C22.1458 24.8874 22.0153 24.9086 21.8848 24.9015C21.7724 24.8938 21.6622 24.8667 21.5591 24.8214L21.507 24.7985C20.7561 24.4177 20.0388 23.9736 19.3626 23.4711Z" fill="#FF0070"/>
<path d="M24.96 22.8663L24.9795 22.8761L25.1141 22.608L25.0946 22.5982L24.96 22.8663ZM18.4752 21.199L18.6945 20.9942L18.1752 20.4381V21.199H18.4752ZM20.0237 22.5884L19.8438 22.8285L19.8442 22.8289L20.0237 22.5884ZM21.9287 23.7785L21.7914 24.0452L21.9534 24.1286L22.1022 24.0232L21.9287 23.7785ZM21.9564 23.7588L22.1299 24.0036L22.1372 23.9984L22.1443 23.9927L21.9564 23.7588ZM22.269 23.4483L22.4908 23.6503L22.4994 23.6408L22.5072 23.6306L22.269 23.4483ZM22.453 23.208L22.6912 23.3903L22.6985 23.3808L22.705 23.3708L22.453 23.208ZM22.5084 23.1377L22.7257 23.3445L22.7374 23.3322L22.7477 23.3186L22.5084 23.1377ZM25.4913 21.7466L25.3648 22.0189L25.3761 22.0236L25.4913 21.7466ZM25.576 21.7891L25.4227 22.047L25.4228 22.047L25.576 21.7891ZM29.0344 23.785L28.8843 24.045L28.895 24.0506L29.0344 23.785ZM29.1158 23.8373L28.9322 24.0745L28.9393 24.0801L28.9468 24.0852L29.1158 23.8373ZM29.7785 24.6089L30.051 24.4834L30.049 24.4791L29.7785 24.6089ZM30 25.6322L30.3 25.6352L30.3 25.6338L30 25.6322ZM29.8469 26.6293L29.5598 26.5423L29.5595 26.5434L29.8469 26.6293ZM29.4236 27.6199L29.1628 27.4716L29.1622 27.4727L29.4236 27.6199ZM28.5785 28.6498L28.7736 28.8777L28.7739 28.8774L28.5785 28.6498ZM27.5153 29.3216V29.6216H27.579L27.6373 29.5957L27.5153 29.3216ZM27.5071 29.3216V29.0216H27.4423L27.3833 29.0484L27.5071 29.3216ZM26.4227 29.7009L26.3492 29.41L26.3483 29.4102L26.4227 29.7009ZM25.3269 29.9199L25.2839 29.623L25.2823 29.6232L25.3269 29.9199ZM23.6221 29.9722L23.5954 30.271L23.5958 30.2711L23.6221 29.9722ZM21.9662 29.6453L21.8752 29.9312L21.8773 29.9318L21.9662 29.6453ZM20.3558 28.9914L20.4899 28.723L20.489 28.7226L20.3558 28.9914ZM18.7015 28.0646L18.8612 27.8106L18.8599 27.8098L18.7015 28.0646ZM18.5647 27.9796L18.4058 28.234L18.4064 28.2344L18.5647 27.9796ZM16.9805 26.9219L16.7987 27.1607L16.802 27.1631L16.9805 26.9219ZM13.8868 24.0335L14.1125 23.8358L14.1119 23.8351L13.8868 24.0335ZM11.5258 20.6906L11.788 20.5448L11.7874 20.5437L11.5258 20.6906ZM10.2232 17.3232L10.5155 17.2558L10.5154 17.2551L10.2232 17.3232ZM10.093 14.1241L9.79637 14.079L9.79621 14.08L10.093 14.1241ZM10.6824 12.3162L10.4163 12.1776L10.4162 12.1778L10.6824 12.3162ZM11.7961 10.948L11.608 10.7143L11.6065 10.7155L11.7961 10.948ZM13.3446 10.165L13.2701 9.87436L13.2679 9.87493L13.3446 10.165ZM15.1747 10.026L15.1449 10.3247L15.1554 10.3254L15.1747 10.026ZM15.6339 10.178L15.7972 9.92638L15.797 9.92624L15.6339 10.178ZM15.9595 10.5262L15.6975 10.6725L15.701 10.6783L15.9595 10.5262ZM18.1512 14.2516L17.8926 14.4037L17.9022 14.42L17.9137 14.435L18.1512 14.2516ZM18.5175 15.1098L18.8153 15.0725L18.8142 15.0651L18.5175 15.1098ZM18.384 16.0236L18.1095 15.9027L18.1094 15.9029L18.384 16.0236ZM17.9607 16.6693L17.7405 16.4656L17.7403 16.4658L17.9607 16.6693ZM17.3875 17.1793L17.211 16.9368L17.2007 16.9443L17.1911 16.9526L17.3875 17.1793ZM16.9625 17.5063L16.7853 17.2641L16.7779 17.2698L16.9625 17.5063ZM16.9479 17.5177L17.1181 17.7647L17.1255 17.7597L17.1325 17.7541L16.9479 17.5177ZM16.422 17.9411L16.611 18.174L16.6192 18.1674L16.6269 18.1601L16.422 17.9411ZM16.2754 18.1372L15.9985 18.0219L15.9754 18.0773L15.9754 18.1372L16.2754 18.1372ZM16.3064 18.165L16.0473 18.3168L16.0536 18.3266L16.3064 18.165ZM16.3617 18.2517L16.6149 18.0907L16.6145 18.0901L16.3617 18.2517ZM17.3061 19.6804L17.5553 19.5132L17.5529 19.5098L17.3061 19.6804ZM18.4752 21.2022L18.2495 21.3999L18.7752 22.0001V21.2022H18.4752ZM19.3626 23.4711L19.1826 23.7112L19.1836 23.7119L19.3626 23.4711ZM17.6725 21.9591L17.4477 22.158L17.4539 22.1646L17.6725 21.9591ZM16.3992 20.3081L16.6486 20.1413L16.6461 20.1377L16.3992 20.3081ZM15.432 18.8369L15.6869 18.6783L15.681 18.6696L15.432 18.8369ZM15.3848 18.7666L15.6338 18.5993L15.6263 18.5881L15.6179 18.5777L15.3848 18.7666ZM15.1715 18.0408L14.8738 18.0035L14.8732 18.0082L15.1715 18.0408ZM15.6388 17.1466L15.8392 17.37L15.8456 17.3639L15.6388 17.1466ZM16.2982 16.6105L16.4688 16.8574L16.4748 16.853L16.2982 16.6105ZM16.6646 16.3277L16.4823 16.0894L16.4756 16.0945L16.4692 16.1L16.6646 16.3277ZM16.6988 16.3015L16.5262 16.0558L16.5165 16.0632L16.6988 16.3015ZM17.1335 15.9206L16.914 15.7161L16.9128 15.7174L17.1335 15.9206ZM17.3615 15.579L17.0889 15.4536L17.0884 15.4547L17.3615 15.579ZM17.4152 15.252L17.7135 15.2205L17.7122 15.208L17.7099 15.1956L17.4152 15.252ZM17.2524 14.9071L17.4832 14.7153L17.4784 14.7098L17.2524 14.9071ZM17.2003 14.8319L17.4645 14.6895L17.4592 14.6805L17.2003 14.8319ZM15.0314 11.1229L15.2904 10.9714L15.2125 10.8382L15.0587 10.8241L15.0314 11.1229ZM13.6295 11.2357L13.5548 10.9451L13.5534 10.9455L13.6295 11.2357ZM12.4897 11.8127L12.301 11.5795L12.2996 11.5806L12.4897 11.8127ZM11.6577 12.836L11.3918 12.6972L11.391 12.6986L11.6577 12.836ZM11.1855 14.2974L10.8888 14.2528L10.8888 14.2534L11.1855 14.2974ZM11.2995 17.0763L11.0073 17.1445L11.0074 17.1447L11.2995 17.0763ZM12.4979 20.1495L12.76 20.0036L12.7591 20.002L12.4979 20.1495ZM14.7188 23.2864L14.9444 23.0887L14.9435 23.0876L14.7188 23.2864ZM17.6497 26.0212L17.468 26.26L17.4682 26.2601L17.6497 26.0212ZM19.1574 27.0249L19.3188 26.772L19.316 26.7702L19.1574 27.0249ZM19.2958 27.1132L19.1345 27.3661L19.1359 27.367L19.2958 27.1132ZM20.8443 27.9828L20.9785 27.7145L20.9778 27.7142L20.8443 27.9828ZM22.2951 28.5697L22.3853 28.2835L22.3851 28.2835L22.2951 28.5697ZM23.7231 28.8574L23.6954 29.1561L23.6973 29.1563L23.7231 28.8574ZM25.1722 28.8116L25.1303 28.5145L25.1276 28.5149L25.1722 28.8116ZM26.1491 28.6187L26.0761 28.3277L26.075 28.328L26.1491 28.6187ZM27.0496 28.3049V28.0049H26.9849L26.9259 28.0315L27.0496 28.3049ZM27.0642 28.3049V28.6049H27.1279L27.1862 28.579L27.0642 28.3049ZM27.8653 27.8014L28.0594 28.0302L28.0609 28.0289L27.8653 27.8014ZM28.4678 27.0674L28.2072 26.9188L28.2066 26.9199L28.4678 27.0674ZM28.7934 26.3106L29.0805 26.3977L29.0806 26.3975L28.7934 26.3106ZM28.9009 25.6256L28.601 25.6191L28.6009 25.6204L28.9009 25.6256ZM28.7885 25.0797L29.0615 24.9551L29.0596 24.9512L28.7885 25.0797ZM28.4938 24.7364L28.3188 24.9802L28.3259 24.985L28.4938 24.7364ZM25.0745 22.7568L25.2252 22.497L25.2128 22.4906L25.0745 22.7568ZM25.0273 22.7323L25.1655 22.466L25.1577 22.462L25.1497 22.4584L25.0273 22.7323ZM23.3893 23.7915L23.1498 23.6106L23.1441 23.6186L23.3893 23.7915ZM23.3616 23.8308L23.6016 24.011L23.6067 24.0037L23.3616 23.8308ZM22.9057 24.3898L23.118 24.6017L23.1182 24.6015L22.9057 24.3898ZM22.6272 24.6367L22.8085 24.8758L22.8121 24.8729L22.6272 24.6367ZM22.2674 24.8394L22.3776 25.1184L22.3779 25.1183L22.2674 24.8394ZM21.8848 24.9015L21.8643 25.2008L21.8684 25.201L21.8848 24.9015ZM21.5591 24.8214L21.6798 24.5467L21.6797 24.5467L21.5591 24.8214ZM21.507 24.7985L21.3713 25.0661L21.3787 25.0698L21.3864 25.0732L21.507 24.7985ZM18.2559 21.4037C18.7423 21.9247 19.2737 22.4015 19.8438 22.8285L20.2035 22.3483C19.6618 21.9425 19.1568 21.4894 18.6945 20.9942L18.2559 21.4037ZM19.8442 22.8289C20.4588 23.2875 21.11 23.6943 21.7914 24.0452L22.0661 23.5118C21.4142 23.1761 20.7911 22.7868 20.2031 22.348L19.8442 22.8289ZM22.1022 24.0232L22.1299 24.0036L21.7829 23.5141L21.7553 23.5337L22.1022 24.0232ZM22.1443 23.9927C22.2038 23.9449 22.2669 23.8868 22.3288 23.8264L21.9097 23.397C21.8543 23.4511 21.8067 23.4943 21.7685 23.5249L22.1443 23.9927ZM22.3288 23.8264C22.3951 23.7617 22.4538 23.6909 22.4908 23.6503L22.0472 23.2463C21.98 23.3201 21.9606 23.3474 21.9097 23.397L22.3288 23.8264ZM22.5072 23.6306L22.6912 23.3903L22.2148 23.0256L22.0308 23.2659L22.5072 23.6306ZM22.705 23.3708C22.7111 23.3614 22.718 23.3526 22.7257 23.3445L22.2911 22.9308C22.2576 22.9661 22.2274 23.0043 22.201 23.0452L22.705 23.3708ZM22.7477 23.3186C23.1044 22.8466 23.4683 22.3802 23.899 22.1003C24.1085 21.964 24.3258 21.878 24.5584 21.8562C24.7898 21.8345 25.0552 21.8747 25.3649 22.0186L25.6178 21.4745C25.2241 21.2915 24.8526 21.226 24.5025 21.2588C24.1535 21.2915 23.8446 21.42 23.572 21.5972C23.0383 21.9442 22.6141 22.5002 22.269 22.9568L22.7477 23.3186ZM25.3761 22.0236C25.3922 22.0302 25.4077 22.0381 25.4227 22.047L25.7293 21.5312C25.6899 21.5078 25.6489 21.4872 25.6065 21.4696L25.3761 22.0236ZM25.4228 22.047C26.5644 22.7249 27.7396 23.3838 28.8844 24.0448L29.1844 23.5252C28.0302 22.8588 26.8671 22.2068 25.7292 21.5311L25.4228 22.047ZM28.895 24.0506C28.908 24.0575 28.9205 24.0655 28.9322 24.0745L29.2995 23.6001C29.26 23.5696 29.218 23.5425 29.1738 23.5194L28.895 24.0506ZM28.9468 24.0852C29.1878 24.2495 29.3815 24.4749 29.508 24.7387L30.049 24.4791C29.8768 24.1203 29.6133 23.8133 29.2848 23.5894L28.9468 24.0852ZM29.506 24.7344C29.6354 25.0152 29.7016 25.3212 29.7 25.6306L30.3 25.6338C30.302 25.2366 30.2171 24.8439 30.051 24.4834L29.506 24.7344ZM29.7 25.6291C29.6968 25.9387 29.6496 26.2461 29.5598 26.5423L30.134 26.7164C30.2403 26.3658 30.2962 26.0017 30.3 25.6352L29.7 25.6291ZM29.5595 26.5434C29.4627 26.8669 29.3297 27.1783 29.1628 27.4716L29.6843 27.7683C29.8736 27.4355 30.0246 27.0823 30.1343 26.7153L29.5595 26.5434ZM29.1622 27.4727C28.9596 27.8324 28.6959 28.1537 28.3831 28.4221L28.7739 28.8774C29.1398 28.5635 29.4481 28.1877 29.685 27.7671L29.1622 27.4727ZM28.3834 28.4219C28.0851 28.6773 27.7516 28.888 27.3932 29.0475L27.6373 29.5957C28.0486 29.4126 28.4313 29.1707 28.7736 28.8777L28.3834 28.4219ZM27.5153 29.0216H27.5071V29.6216H27.5153V29.0216ZM27.3833 29.0484C27.0499 29.1994 26.7039 29.3204 26.3492 29.41L26.4962 29.9917C26.8854 29.8934 27.2651 29.7606 27.6309 29.5949L27.3833 29.0484ZM26.3483 29.4102C25.9975 29.5001 25.6422 29.5711 25.2839 29.623L25.3699 30.2168C25.7494 30.1618 26.1256 30.0866 26.4971 29.9915L26.3483 29.4102ZM25.2823 29.6232C24.7415 29.7045 24.1931 29.7213 23.6484 29.6734L23.5958 30.2711C24.1878 30.3232 24.7838 30.3049 25.3715 30.2166L25.2823 29.6232ZM23.6488 29.6734C23.108 29.625 22.5738 29.5196 22.055 29.3587L21.8773 29.9318C22.4365 30.1052 23.0124 30.2189 23.5954 30.271L23.6488 29.6734ZM22.0571 29.3594C21.5191 29.1882 20.9952 28.9755 20.4899 28.723L20.2217 29.2598C20.7548 29.5261 21.3076 29.7506 21.8752 29.9312L22.0571 29.3594ZM20.489 28.7226C19.9314 28.4464 19.3881 28.142 18.8612 27.8106L18.5418 28.3185C19.0859 28.6607 19.6469 28.975 20.2227 29.2602L20.489 28.7226ZM18.8599 27.8098L18.7231 27.7248L18.4064 28.2344L18.5432 28.3194L18.8599 27.8098ZM18.7237 27.7251C18.2244 27.4133 17.6941 27.077 17.1589 26.6808L16.802 27.1631C17.3577 27.5744 17.9053 27.9214 18.4058 28.234L18.7237 27.7251ZM17.1622 26.6832C16.0532 25.839 15.0315 24.8851 14.1125 23.8358L13.6611 24.2311C14.6066 25.3106 15.6578 26.2921 16.7987 27.1606L17.1622 26.6832ZM14.1119 23.8351C13.2219 22.8252 12.4428 21.7221 11.788 20.5448L11.2636 20.8364C11.9393 22.0513 12.7433 23.1896 13.6617 24.2318L14.1119 23.8351ZM11.7874 20.5437C11.2092 19.5143 10.7809 18.4071 10.5155 17.2558L9.93088 17.3906C10.2091 18.5975 10.6581 19.7583 11.2642 20.8375L11.7874 20.5437ZM10.5154 17.2551C10.2796 16.2434 10.2369 15.1959 10.3897 14.1682L9.79621 14.08C9.63236 15.1824 9.67811 16.306 9.93104 17.3913L10.5154 17.2551ZM10.3895 14.1693C10.4807 13.5707 10.6696 12.9913 10.9486 12.4545L10.4162 12.1778C10.1068 12.7731 9.89743 13.4154 9.79637 14.079L10.3895 14.1693ZM10.9485 12.4547C11.2043 11.9635 11.5573 11.5299 11.9857 11.1805L11.6065 10.7155C11.1147 11.1165 10.7097 11.6141 10.4163 12.1776L10.9485 12.4547ZM11.9842 11.1817C12.4073 10.8411 12.8969 10.5936 13.4212 10.455L13.2679 9.87493C12.6621 10.035 12.0966 10.321 11.608 10.7143L11.9842 11.1817ZM13.4191 10.4556C13.9824 10.3111 14.5664 10.2668 15.1449 10.3245L15.2045 9.7275C14.5561 9.66279 13.9014 9.71249 13.2701 9.87437L13.4191 10.4556ZM15.1554 10.3254C15.2676 10.3326 15.3762 10.3686 15.4708 10.4298L15.797 9.92624C15.6163 9.80924 15.4088 9.7405 15.194 9.72664L15.1554 10.3254ZM15.4706 10.4297C15.5647 10.4908 15.6427 10.5741 15.6976 10.6725L16.2215 10.38C16.119 10.1965 15.9734 10.0407 15.7972 9.92638L15.4706 10.4297ZM15.701 10.6783L17.8926 14.4037L18.4097 14.0995L16.2181 10.3741L15.701 10.6783ZM17.9137 14.435C18.0755 14.6445 18.1813 14.8922 18.2209 15.1546L18.8142 15.0651C18.7594 14.7019 18.6129 14.3587 18.3886 14.0683L17.9137 14.435ZM18.2199 15.1471C18.2521 15.4044 18.2139 15.6656 18.1095 15.9027L18.6585 16.1446C18.8068 15.8081 18.8609 15.4375 18.8152 15.0725L18.2199 15.1471ZM18.1094 15.9029C18.0184 16.1098 17.8937 16.2999 17.7405 16.4656L18.1809 16.8731C18.3794 16.6585 18.5409 16.4122 18.6586 16.1444L18.1094 15.9029ZM17.7403 16.4658C17.5796 16.6398 17.4023 16.7975 17.211 16.9368L17.5641 17.4219C17.7871 17.2595 17.9938 17.0756 18.1811 16.8728L17.7403 16.4658ZM17.1911 16.9526C17.0835 17.0458 16.9448 17.1475 16.7853 17.2642L17.1398 17.7483C17.2929 17.6362 17.4538 17.5188 17.584 17.4061L17.1911 16.9526ZM16.7779 17.2698L16.7633 17.2812L17.1325 17.7541L17.1472 17.7427L16.7779 17.2698ZM16.7777 17.2707C16.5799 17.407 16.3925 17.5578 16.217 17.722L16.6269 18.1601C16.7807 18.0163 16.9449 17.8841 17.1181 17.7647L16.7777 17.2707ZM16.233 17.7081C16.13 17.7917 16.0494 17.8995 15.9985 18.0219L16.5524 18.2525C16.5652 18.2218 16.5854 18.1948 16.611 18.174L16.233 17.7081ZM15.9754 18.1372C15.9754 18.1567 15.977 18.1943 15.9918 18.2382C16.0088 18.2886 16.041 18.3406 16.0928 18.3813C16.1391 18.4176 16.1841 18.4311 16.2018 18.436C16.2114 18.4386 16.2192 18.4402 16.2214 18.4407C16.2221 18.4408 16.2227 18.441 16.2231 18.441C16.2232 18.4411 16.2234 18.4411 16.2235 18.4411C16.2236 18.4411 16.2236 18.4411 16.2236 18.4411C16.2237 18.4412 16.2229 18.441 16.2217 18.4407C16.2076 18.4377 16.1678 18.4282 16.1254 18.3992C16.0848 18.3715 16.0606 18.3391 16.0475 18.3167L16.5652 18.0134C16.5439 17.9771 16.5118 17.9365 16.4639 17.9038C16.4142 17.8698 16.3676 17.8584 16.3479 17.8542C16.3472 17.854 16.3392 17.8523 16.3441 17.8534C16.345 17.8536 16.3516 17.8549 16.36 17.8572C16.3754 17.8614 16.4185 17.8742 16.4631 17.9092C16.4863 17.9274 16.5072 17.9494 16.5245 17.9748C16.5417 17.9998 16.553 18.0246 16.5604 18.0467C16.5743 18.088 16.5754 18.1222 16.5754 18.1372H15.9754ZM16.0536 18.3266L16.1089 18.4132L16.6145 18.0901L16.5592 18.0035L16.0536 18.3266ZM16.1086 18.4126C16.2934 18.7033 16.6507 19.2595 17.0593 19.8509L17.5529 19.5098C17.1507 18.9276 16.798 18.3787 16.6149 18.0907L16.1086 18.4126ZM17.057 19.8475C17.4209 20.3901 17.8192 20.9086 18.2495 21.3999L18.7009 21.0046C18.2875 20.5327 17.9049 20.0345 17.5553 19.5132L17.057 19.8475ZM18.7752 21.2022V21.199H18.1752V21.2022H18.7752ZM19.5426 23.2311C18.9507 22.7873 18.3982 22.2929 17.891 21.7536L17.4539 22.1646C17.9847 22.7291 18.5631 23.2465 19.1826 23.7112L19.5426 23.2311ZM17.8971 21.7602C17.445 21.2495 17.0279 20.7086 16.6486 20.1413L16.1498 20.4748C16.5441 21.0646 16.9778 21.6269 17.4478 22.1579L17.8971 21.7602ZM16.6461 20.1377C16.2453 19.5568 15.8767 18.9838 15.6867 18.6784L15.1772 18.9953C15.3716 19.3078 15.7454 19.8889 16.1523 20.4785L16.6461 20.1377ZM15.681 18.6696L15.6338 18.5993L15.1357 18.9339L15.183 19.0042L15.681 18.6696ZM15.6179 18.5777C15.5612 18.5078 15.5189 18.4272 15.4934 18.3406L14.9178 18.5098C14.9655 18.6723 15.045 18.8238 15.1517 18.9555L15.6179 18.5777ZM15.4934 18.3406C15.468 18.254 15.4599 18.1631 15.4697 18.0733L14.8732 18.0082C14.8549 18.1767 14.87 18.3472 14.9178 18.5098L15.4934 18.3406ZM15.4691 18.078C15.5034 17.8047 15.6349 17.5532 15.8391 17.3699L15.4384 16.9233C15.1263 17.2034 14.9259 17.5871 14.8738 18.0035L15.4691 18.078ZM15.8456 17.3639C16.0399 17.179 16.2482 17.0096 16.4687 16.8573L16.1277 16.3636C15.8815 16.5337 15.6488 16.7229 15.4319 16.9293L15.8456 17.3639ZM16.4748 16.853C16.6048 16.7583 16.7375 16.6605 16.86 16.5553L16.4692 16.1C16.367 16.1878 16.2521 16.273 16.1217 16.3679L16.4748 16.853ZM16.8468 16.5659L16.881 16.5398L16.5165 16.0632L16.4823 16.0894L16.8468 16.5659ZM16.8712 16.547C17.0468 16.4237 17.2087 16.2818 17.3542 16.1238L16.9128 15.7174C16.7964 15.8438 16.6669 15.9573 16.5264 16.056L16.8712 16.547ZM17.353 16.1251C17.469 16.0006 17.564 15.8581 17.6345 15.7032L17.0884 15.4547C17.0447 15.5508 16.9858 15.6391 16.914 15.7161L17.353 16.1251ZM17.634 15.7044C17.7036 15.5532 17.731 15.386 17.7135 15.2205L17.1169 15.2836C17.123 15.3418 17.1133 15.4005 17.0889 15.4536L17.634 15.7044ZM17.7099 15.1956C17.676 15.019 17.598 14.8537 17.4831 14.7154L17.0216 15.0989C17.0717 15.1591 17.1058 15.2312 17.1206 15.3085L17.7099 15.1956ZM17.4784 14.7098C17.473 14.7037 17.4683 14.6969 17.4644 14.6896L16.9362 14.9743C16.9613 15.0209 16.9916 15.0645 17.0264 15.1044L17.4784 14.7098ZM17.4592 14.6805L15.2904 10.9714L14.7725 11.2743L16.9413 14.9834L17.4592 14.6805ZM15.0587 10.8241C14.5542 10.7781 14.0456 10.819 13.5548 10.9451L13.7042 11.5262C14.1284 11.4172 14.5681 11.3818 15.0042 11.4216L15.0587 10.8241ZM13.5534 10.9455C13.0959 11.0655 12.669 11.2816 12.301 11.5795L12.6785 12.0459C12.9804 11.8015 13.3305 11.6242 13.7056 11.5259L13.5534 10.9455ZM12.2996 11.5806C11.925 11.8876 11.6162 12.2674 11.3918 12.6972L11.9236 12.9749C12.1106 12.6167 12.3679 12.3003 12.6799 12.0448L12.2996 11.5806ZM11.391 12.6986C11.14 13.1856 10.9703 13.7106 10.8888 14.2528L11.4822 14.342C11.5539 13.8646 11.7033 13.4022 11.9244 12.9735L11.391 12.6986ZM10.8888 14.2534C10.746 15.216 10.7862 16.197 11.0073 17.1445L11.5916 17.0082C11.3877 16.1342 11.3506 15.2293 11.4823 14.3414L10.8888 14.2534ZM11.0074 17.1447C11.2657 18.2488 11.6796 19.3102 12.2366 20.297L12.7591 20.002C12.2301 19.0649 11.8369 18.0567 11.5916 17.008L11.0074 17.1447ZM12.2357 20.2954C12.8714 21.4375 13.6286 22.507 14.4941 23.4852L14.9435 23.0876C14.1067 22.1419 13.3746 21.1079 12.76 20.0036L12.2357 20.2954ZM14.4932 23.4842C15.3898 24.507 16.3864 25.4369 17.468 26.26L17.8313 25.7825C16.7817 24.9838 15.8145 24.0813 14.9444 23.0887L14.4932 23.4842ZM17.4682 26.2601C17.9698 26.6412 18.513 26.9771 18.9989 27.2796L19.316 26.7702C18.8249 26.4646 18.3065 26.1434 17.8311 25.7823L17.4682 26.2601ZM18.9961 27.2778L19.1345 27.3661L19.4572 26.8603L19.3188 26.772L18.9961 27.2778ZM19.1359 27.367C19.6458 27.6882 20.1714 27.9834 20.7108 28.2515L20.9778 27.7142C20.4565 27.4551 19.9485 27.1698 19.4557 26.8593L19.1359 27.367ZM20.7101 28.2511C21.1917 28.4921 21.6916 28.6943 22.205 28.8558L22.3851 28.2835C21.902 28.1315 21.4317 27.9413 20.9785 27.7145L20.7101 28.2511ZM22.2049 28.8558C22.6897 29.0086 23.1894 29.1093 23.6954 29.1561L23.7507 28.5586C23.2871 28.5157 22.8294 28.4235 22.3853 28.2835L22.2049 28.8558ZM23.6973 29.1563C24.2039 29.1999 24.7139 29.1838 25.2168 29.1083L25.1276 28.5149C24.6713 28.5835 24.2085 28.5981 23.7488 28.5585L23.6973 29.1563ZM25.2141 29.1087C25.5539 29.0607 25.8908 28.9942 26.2233 28.9094L26.075 28.328C25.7637 28.4074 25.4483 28.4697 25.1303 28.5145L25.2141 29.1087ZM26.2222 28.9097C26.5484 28.8278 26.8667 28.7169 27.1732 28.5782L26.9259 28.0315C26.652 28.1554 26.3676 28.2546 26.0761 28.3277L26.2222 28.9097ZM27.0496 28.6049H27.0642V28.0049H27.0496V28.6049ZM27.1862 28.579C27.5018 28.4386 27.7958 28.2538 28.0594 28.0302L27.6713 27.5726C27.4511 27.7593 27.2057 27.9136 26.9423 28.0308L27.1862 28.579ZM28.0609 28.0289C28.3289 27.7984 28.555 27.523 28.729 27.2149L28.2066 26.9199C28.0667 27.1675 27.885 27.3888 27.6698 27.5739L28.0609 28.0289ZM28.7284 27.216C28.8759 26.9573 28.994 26.6828 29.0805 26.3977L28.5064 26.2235C28.4328 26.4658 28.3325 26.699 28.2072 26.9188L28.7284 27.216ZM29.0806 26.3975C29.1558 26.1487 29.1963 25.8907 29.2008 25.6309L28.6009 25.6204C28.5974 25.8249 28.5655 26.028 28.5063 26.2237L29.0806 26.3975ZM29.2008 25.6322C29.2059 25.3989 29.1583 25.1674 29.0615 24.9552L28.5156 25.2042C28.5749 25.3342 28.6041 25.476 28.601 25.6191L29.2008 25.6322ZM29.0596 24.9512C28.9708 24.7638 28.8335 24.6038 28.6617 24.4878L28.3259 24.985C28.4084 25.0407 28.4746 25.1177 28.5175 25.2082L29.0596 24.9512ZM28.6688 24.4927C28.2125 24.165 27.5915 23.8064 26.9711 23.4627C26.3426 23.1145 25.7179 22.7833 25.2251 22.4973L24.9239 23.0163C25.4227 23.3057 26.0673 23.6479 26.6803 23.9876C27.3014 24.3316 27.8943 24.6751 28.3188 24.9801L28.6688 24.4927ZM25.2128 22.4906L25.1655 22.466L24.889 22.9985L24.9362 23.023L25.2128 22.4906ZM25.1497 22.4584C24.6917 22.2536 24.2745 22.4463 23.9635 22.6976C23.6544 22.9474 23.3761 23.3114 23.1499 23.6107L23.6286 23.9724C23.8632 23.662 24.0986 23.3598 24.3407 23.1642C24.5809 22.9701 24.7523 22.938 24.9048 23.0062L25.1497 22.4584ZM23.1441 23.6186L23.1165 23.6578L23.6067 24.0037L23.6344 23.9645L23.1441 23.6186ZM23.1217 23.6506C23.0582 23.7352 22.9509 23.8706 22.8922 23.9502L23.375 24.3064C23.4466 24.2094 23.5054 24.1389 23.6015 24.0109L23.1217 23.6506ZM22.8922 23.9502C22.8387 24.0227 22.7518 24.1192 22.6931 24.1781L23.1182 24.6015C23.1898 24.5297 23.2983 24.4104 23.375 24.3064L22.8922 23.9502ZM22.6933 24.1779C22.6142 24.2572 22.5304 24.3315 22.4423 24.4004L22.8121 24.8729C22.9195 24.7889 23.0217 24.6983 23.118 24.6017L22.6933 24.1779ZM22.446 24.3976C22.3574 24.4648 22.2601 24.5196 22.1569 24.5605L22.3779 25.1183C22.5317 25.0573 22.6765 24.9757 22.8084 24.8758L22.446 24.3976ZM22.1572 24.5603C22.0757 24.5925 21.9884 24.6067 21.9011 24.6019L21.8684 25.201C22.0421 25.2105 22.2158 25.1823 22.3776 25.1184L22.1572 24.5603ZM21.9052 24.6022C21.8275 24.5969 21.7512 24.5781 21.6798 24.5467L21.4384 25.096C21.5733 25.1553 21.7174 25.1908 21.8643 25.2008L21.9052 24.6022ZM21.6797 24.5467L21.6276 24.5238L21.3864 25.0732L21.4385 25.0961L21.6797 24.5467ZM21.6427 24.5309C20.907 24.1578 20.2041 23.7227 19.5415 23.2304L19.1836 23.7119C19.8734 24.2246 20.6053 24.6775 21.3713 25.0661L21.6427 24.5309Z" fill="#FF0070" mask="url(#path-2-outside-1_564_307)"/>
</svg>
