<svg width="40" height="40" viewBox="0 0 40 40" fill="none" xmlns="http://www.w3.org/2000/svg">
<rect width="40" height="40" rx="6" fill="#FFEDED"/>
<path fill-rule="evenodd" clip-rule="evenodd" d="M27.0845 12.9066C25.2039 11.0313 22.7026 10 20.0384 10C14.5503 9.99997 10.0834 14.4451 10.0834 19.9102C10.0834 21.6559 10.5429 23.3634 11.4136 24.8636L10 30L15.28 28.6212C16.7361 29.4105 18.3741 29.8288 20.0369 29.8288H20.041C25.5295 29.8288 30 25.3837 30 19.919C30 17.2702 28.9636 14.7826 27.083 12.9081L27.0845 12.9066ZM20.0413 28.1567C18.5539 28.1567 17.097 27.7578 15.8259 27.0074L15.5228 26.8275L12.3895 27.6439L13.2263 24.6051L13.0303 24.2929C12.1972 22.9839 11.7625 21.4689 11.7625 19.9106C11.7625 15.368 15.476 11.6715 20.0458 11.6715C22.2556 11.6715 24.3373 12.5312 25.899 14.0852C27.4614 15.6439 28.3207 17.7105 28.3207 19.9131C28.317 24.4589 24.6035 28.1555 20.0406 28.1555L20.0413 28.1567ZM24.5794 21.9853C24.3321 21.86 23.1071 21.2628 22.8797 21.1802C22.6523 21.0975 22.4866 21.0549 22.3179 21.3054C22.1533 21.5515 21.6746 22.1105 21.5288 22.2776C21.383 22.4418 21.2387 22.4653 20.9914 22.3401C20.7441 22.2148 19.9391 21.9537 18.9894 21.1097C18.2508 20.4537 17.7499 19.6413 17.6041 19.3952C17.4584 19.1491 17.5879 19.0125 17.7145 18.8917C17.8289 18.7815 17.9622 18.603 18.0877 18.4579C18.2135 18.3129 18.2527 18.2115 18.3353 18.044C18.4184 17.8799 18.3778 17.7348 18.3154 17.6103C18.2527 17.4854 17.7536 16.2664 17.5503 15.7699C17.3506 15.2847 17.142 15.3522 16.9889 15.3438C16.8431 15.3364 16.6781 15.3364 16.5139 15.3364C16.3496 15.3364 16.0779 15.3985 15.8506 15.6453C15.6232 15.8914 14.9788 16.493 14.9788 17.7116C14.9788 18.9306 15.8698 20.1063 15.9949 20.2741C16.1207 20.4379 17.7499 22.9416 20.2458 24.013C20.8389 24.2668 21.3021 24.4192 21.6631 24.5371C22.26 24.7244 22.8014 24.6972 23.2296 24.6344C23.7083 24.5643 24.7019 24.0365 24.9105 23.458C25.1186 22.8792 25.1186 22.3841 25.0563 22.2817C24.9972 22.1715 24.8326 22.1105 24.5812 21.9838L24.5794 21.9853Z" fill="#FF0070"/>
</svg>
