<svg width="21" height="16" viewBox="0 0 21 16" fill="none" xmlns="http://www.w3.org/2000/svg">
<path d="M16.898 0H3.67347C2.6992 0 1.76484 0.331122 1.07593 0.920522C0.387025 1.50992 0 2.30932 0 3.14286V11.9429C0 12.7764 0.387025 13.5758 1.07593 14.1652C1.76484 14.7546 2.6992 15.0857 3.67347 15.0857H16.898C17.8722 15.0857 18.8066 14.7546 19.4955 14.1652C20.1844 13.5758 20.5714 12.7764 20.5714 11.9429V3.14286C20.5714 2.30932 20.1844 1.50992 19.4955 0.920522C18.8066 0.331122 17.8722 0 16.898 0ZM19.102 11.9429C19.102 12.443 18.8698 12.9226 18.4565 13.2763C18.0431 13.6299 17.4825 13.8286 16.898 13.8286H3.67347C3.08891 13.8286 2.52829 13.6299 2.11495 13.2763C1.7016 12.9226 1.46939 12.443 1.46939 11.9429V3.14286C1.46939 2.64273 1.7016 2.1631 2.11495 1.80946C2.52829 1.45582 3.08891 1.25714 3.67347 1.25714H16.898C17.4825 1.25714 18.0431 1.45582 18.4565 1.80946C18.8698 2.1631 19.102 2.64273 19.102 3.14286V11.9429Z" fill="#FFEDED"/>
<path d="M6.61228 6.28559C7.04821 6.28559 7.47435 6.17499 7.83681 5.96779C8.19927 5.76058 8.48177 5.46608 8.64859 5.12151C8.81541 4.77694 8.85906 4.39778 8.77402 4.03199C8.68897 3.6662 8.47905 3.3302 8.17081 3.06647C7.86256 2.80275 7.46983 2.62316 7.04228 2.55039C6.61473 2.47763 6.17156 2.51498 5.76882 2.6577C5.36608 2.80043 5.02185 3.04212 4.77966 3.35223C4.53747 3.66233 4.4082 4.02692 4.4082 4.39988C4.4082 4.9 4.64042 5.37964 5.05376 5.73328C5.46711 6.08692 6.02773 6.28559 6.61228 6.28559ZM6.61228 3.7713C6.75759 3.7713 6.89964 3.80817 7.02046 3.87724C7.14128 3.94631 7.23545 4.04448 7.29105 4.15933C7.34666 4.27419 7.36121 4.40057 7.33286 4.5225C7.30451 4.64443 7.23454 4.75644 7.13179 4.84434C7.02904 4.93225 6.89813 4.99212 6.75562 5.01637C6.6131 5.04062 6.46538 5.02818 6.33113 4.9806C6.19688 4.93302 6.08214 4.85246 6.00141 4.74909C5.92068 4.64572 5.87759 4.5242 5.87759 4.39988C5.87759 4.23317 5.955 4.07329 6.09278 3.95541C6.23056 3.83753 6.41743 3.7713 6.61228 3.7713Z" fill="#FFEDED"/>
<path d="M6.61195 6.91406C5.63768 6.91406 4.70332 7.24518 4.01441 7.83458C3.3255 8.42398 2.93848 9.22338 2.93848 10.0569V10.6855C2.93848 11.1856 3.17069 11.6653 3.58404 12.0189C3.99738 12.3725 4.558 12.5712 5.14256 12.5712H8.08133C8.66589 12.5712 9.22651 12.3725 9.63985 12.0189C10.0532 11.6653 10.2854 11.1856 10.2854 10.6855V10.0569C10.2854 9.22338 9.89839 8.42398 9.20948 7.83458C8.52057 7.24518 7.58621 6.91406 6.61195 6.91406ZM8.81603 10.6855C8.81603 10.8522 8.73862 11.0121 8.60084 11.13C8.46306 11.2478 8.27619 11.3141 8.08133 11.3141H5.14256C4.94771 11.3141 4.76083 11.2478 4.62305 11.13C4.48527 11.0121 4.40786 10.8522 4.40786 10.6855V10.0569C4.40786 9.5568 4.64008 9.07716 5.05342 8.72352C5.46677 8.36988 6.02739 8.17121 6.61195 8.17121C7.1965 8.17121 7.75712 8.36988 8.17047 8.72352C8.58381 9.07716 8.81603 9.5568 8.81603 10.0569V10.6855Z" fill="#FFEDED"/>
<path d="M16.8977 3.77148H12.4896C12.2947 3.77148 12.1079 3.83771 11.9701 3.95559C11.8323 4.07347 11.7549 4.23335 11.7549 4.40006C11.7549 4.56676 11.8323 4.72664 11.9701 4.84452C12.1079 4.9624 12.2947 5.02863 12.4896 5.02863H16.8977C17.0926 5.02863 17.2795 4.9624 17.4172 4.84452C17.555 4.72664 17.6324 4.56676 17.6324 4.40006C17.6324 4.23335 17.555 4.07347 17.4172 3.95559C17.2795 3.83771 17.0926 3.77148 16.8977 3.77148Z" fill="#FFEDED"/>
<path d="M16.8977 6.91406H12.4896C12.2947 6.91406 12.1079 6.98029 11.9701 7.09817C11.8323 7.21605 11.7549 7.37593 11.7549 7.54263C11.7549 7.70934 11.8323 7.86922 11.9701 7.9871C12.1079 8.10498 12.2947 8.17121 12.4896 8.17121H16.8977C17.0926 8.17121 17.2795 8.10498 17.4172 7.9871C17.555 7.86922 17.6324 7.70934 17.6324 7.54263C17.6324 7.37593 17.555 7.21605 17.4172 7.09817C17.2795 6.98029 17.0926 6.91406 16.8977 6.91406Z" fill="#FFEDED"/>
</svg>
