<svg width="30" height="30" viewBox="0 0 30 30" fill="none" xmlns="http://www.w3.org/2000/svg">
<path d="M28.6608 4.71337H24.5759C24.2411 1.97455 22.5001 0 20.2902 0C18.0804 0 16.2724 1.97455 16.0045 4.71337H13.9956C13.7277 1.97455 11.9196 0 9.70981 0C7.49998 0 5.69194 1.97455 5.42406 4.71337H1.33927C0.602681 4.71337 0 5.28661 0 5.98723V28.7261C0 29.4268 0.602681 30 1.33927 30H28.6608C29.3974 30 30.0001 29.4268 30.0001 28.7261V5.98723C30.0001 5.35033 29.3974 4.71337 28.6608 4.71337ZM20.2233 2.61145C20.8929 2.61145 21.6295 3.50315 21.8974 4.77708H18.6161C18.817 3.4395 19.5536 2.61145 20.2233 2.61145ZM9.64289 2.61145C10.3126 2.61145 11.0491 3.50315 11.317 4.77708H8.03574C8.23664 3.4395 8.97322 2.61145 9.64289 2.61145ZM2.67854 27.5797V7.32488H5.55803C6.09373 9.55416 7.70088 11.1465 9.70981 11.1465C10.4464 11.1465 10.9822 10.5733 10.9822 9.87267C10.9822 9.17205 10.3795 8.59874 9.64289 8.59874C9.17412 8.59874 8.57144 8.08921 8.23664 7.32488H16.1385C16.6742 9.55416 18.2813 11.1465 20.2902 11.1465C21.0268 11.1465 21.5626 10.5733 21.5626 9.87267C21.5626 9.17205 20.9599 8.59874 20.2233 8.59874C19.7545 8.59874 19.1518 8.08921 18.817 7.32488H27.3884V27.5797H2.67854Z" fill="#FFEDED"/>
<path d="M13.0501 23.1966H7.75383C7.82347 23.1966 8.10224 22.8481 8.45072 22.4997C8.79913 22.2209 9.21725 21.9422 9.63537 21.5938C10.0535 21.315 10.5413 20.9666 11.0291 20.6878C11.5169 20.3394 11.935 19.9909 12.3532 19.6425C13.2591 18.8063 13.7469 17.9003 13.7469 16.9944C13.7469 16.0885 13.3985 15.3219 12.7016 14.7645C12.0744 14.207 11.2382 13.9282 10.2626 13.9282C9.0779 13.9282 7.96289 14.207 6.91758 14.6948C6.70852 14.8341 6.56917 14.9735 6.56917 15.1826C6.56917 15.3916 6.63888 15.531 6.70852 15.6704C6.84787 15.8098 6.91758 15.8098 7.05694 15.8098C7.19629 15.8098 7.3357 15.8098 7.40535 15.7401C8.24159 15.3916 9.07784 15.1826 9.98379 15.1826C10.82 15.1826 11.4472 15.3916 11.8653 15.7401C12.0744 15.8794 12.2137 16.0885 12.2835 16.2975C12.3532 16.5066 12.4228 16.7854 12.4228 17.1338C12.4228 17.4822 12.2835 17.8307 12.0047 18.1791C11.7259 18.5275 11.3078 18.876 10.8897 19.1547C10.4716 19.5031 9.98372 19.7819 9.42625 20.1303C8.86877 20.4787 8.38094 20.8272 7.96282 21.1756C7.5447 21.524 7.12658 21.9421 6.84781 22.3602C6.56904 22.7784 6.42969 23.2662 6.42969 23.8237C6.42969 24.0327 6.4994 24.2418 6.63875 24.3811C6.7781 24.5205 6.98716 24.5902 7.19622 24.5902H13.0499C13.259 24.5902 13.3983 24.5205 13.5378 24.3811C13.6771 24.2418 13.7468 24.1024 13.7468 23.8933C13.7468 23.6842 13.6771 23.5449 13.5378 23.4055C13.3985 23.2663 13.2591 23.1966 13.0501 23.1966Z" fill="#FFEDED"/>
<path d="M22.6643 19.085C22.0371 18.4578 21.1311 18.1094 20.0162 18.1094C19.0406 18.1094 18.2043 18.3185 17.4377 18.7366L17.9256 15.531H22.3158C22.5249 15.531 22.6643 15.4613 22.8037 15.3219C22.943 15.1826 23.0127 15.0432 23.0127 14.8341C23.0127 14.625 22.943 14.4857 22.8037 14.3463C22.6643 14.2069 22.5249 14.1372 22.3158 14.1372H17.4377C17.2287 14.1372 17.0196 14.2766 16.8802 14.416C16.7408 14.5554 16.6711 14.7644 16.6014 14.9735L15.9045 19.0153C15.9045 19.085 15.9045 19.2244 15.9045 19.3637C15.9045 19.6425 15.9742 19.8516 16.1833 19.9909C16.3924 20.1303 16.6014 20.2 16.8105 20.2C17.0196 20.2 17.2286 20.1303 17.4377 19.9909C18.1346 19.5728 18.9708 19.3637 19.9464 19.3637C20.5736 19.3637 21.0614 19.5728 21.4795 19.9212C21.8977 20.2696 22.1067 20.7574 22.1067 21.3846C22.1067 21.8028 22.037 22.1512 21.8977 22.4299C21.4795 23.1965 20.5736 23.5449 19.1799 23.5449C18.3436 23.5449 17.6467 23.3359 16.9499 22.9875C16.7408 22.8481 16.5318 22.8481 16.3924 22.8481C16.2531 22.8481 16.1137 22.9178 15.9743 23.0572C15.835 23.1965 15.835 23.336 15.835 23.545C15.835 23.7541 15.9047 23.8934 16.1137 24.0328C17.0197 24.5903 18.1346 24.9388 19.389 24.9388C20.0859 24.9388 20.7131 24.8691 21.2705 24.66C22.8037 24.1722 23.5702 23.1269 23.5702 21.5241C23.5702 20.4787 23.2914 19.7122 22.6643 19.085Z" fill="#FFEDED"/>
</svg>
