<svg width="20" height="20" viewBox="0 0 20 20" fill="none" xmlns="http://www.w3.org/2000/svg">
<mask id="path-1-outside-1_527_6" maskUnits="userSpaceOnUse" x="0" y="0" width="20" height="20" fill="black">
<rect fill="white" width="20" height="20"/>
<path d="M8.90703 11.4557C9.34959 11.9301 9.83303 12.3642 10.3517 12.753C10.9126 13.1719 11.5071 13.5435 12.129 13.864L12.1549 13.8457C12.2004 13.8091 12.2521 13.7618 12.3068 13.7083C12.3615 13.6549 12.3979 13.6091 12.4465 13.5557L12.6182 13.3314C12.6333 13.3079 12.6506 13.286 12.6698 13.2658C13.3246 12.3989 14.1403 11.3565 15.4528 11.967C15.4801 11.9783 15.5065 11.9916 15.5318 12.0067C16.5952 12.6385 17.6859 13.2505 18.7584 13.8701C18.7851 13.8841 18.8105 13.9005 18.8343 13.919C19.1 14.1002 19.3133 14.3487 19.4526 14.6393C19.5904 14.9387 19.6609 15.2649 19.6592 15.5947C19.656 15.9103 19.6079 16.2238 19.5164 16.5257C19.4201 16.848 19.2876 17.1583 19.1214 17.4505C18.9164 17.8148 18.6496 18.1402 18.333 18.412C18.0342 18.6681 17.7001 18.8793 17.3411 19.0393H17.3335C17.0073 19.1872 16.6688 19.3057 16.3217 19.3934C15.9848 19.4797 15.6435 19.548 15.2994 19.5979C14.773 19.677 14.2391 19.6934 13.7089 19.6467C13.1847 19.5998 12.6668 19.4975 12.164 19.3415C11.6482 19.1773 11.1459 18.9732 10.6616 18.731C10.1329 18.4689 9.61778 18.1801 9.11819 17.8657L8.99058 17.7863C8.52422 17.4948 8.0214 17.1758 7.5125 16.7989C6.46295 15.9993 5.496 15.0959 4.62622 14.1021C3.78265 13.1442 3.04417 12.0978 2.42353 10.9811C1.87109 9.99677 1.46184 8.93805 1.20825 7.83715C0.980269 6.85823 0.939032 5.84477 1.08672 4.85042C1.17638 4.26122 1.36218 3.69091 1.63663 3.16247C1.89285 2.67006 2.24643 2.23539 2.6757 1.88506C3.10102 1.5425 3.59319 1.29345 4.12036 1.15402C4.67762 1.01103 5.25549 0.96713 5.82782 1.02429C5.98033 1.03414 6.12779 1.083 6.25621 1.16623C6.38232 1.24812 6.48661 1.35971 6.56003 1.4913L8.60473 4.96946C8.78485 5.20287 8.90251 5.4787 8.94653 5.7707C8.9829 6.06117 8.93984 6.3561 8.82196 6.62384C8.7246 6.84545 8.59111 7.0492 8.427 7.22668C8.26466 7.40256 8.08557 7.56205 7.89227 7.70284C7.78138 7.79899 7.64162 7.90125 7.49579 8.00808L7.48212 8.01876C7.30903 8.13811 7.14502 8.27024 6.99145 8.41404C6.93146 8.46275 6.88448 8.52569 6.85473 8.59718C6.85473 8.61397 6.8684 8.59718 6.88359 8.62313L6.93524 8.70402C7.1069 8.97415 7.43806 9.49 7.81632 10.0379C8.14918 10.5345 8.51351 11.0091 8.90703 11.4588V11.4557ZM9.73494 13.5771C9.16986 13.153 8.64229 12.6807 8.15812 12.1654C7.72798 11.6791 7.3311 11.1641 6.97018 10.6239C6.59345 10.0776 6.24709 9.53883 6.06784 9.25039L6.02379 9.18476C5.9476 9.09068 5.89078 8.98233 5.85662 8.86601C5.82246 8.74968 5.81164 8.6277 5.82478 8.50714C5.86506 8.18512 6.01991 7.88861 6.26077 7.67232C6.45256 7.48962 6.65826 7.32225 6.876 7.17173C6.99753 7.08322 7.11298 6.99775 7.2178 6.90771L7.2497 6.88329C7.39716 6.77966 7.53314 6.66045 7.6553 6.52769C7.74288 6.43361 7.8147 6.32589 7.86797 6.20872C7.91181 6.11339 7.92913 6.00791 7.9181 5.90348C7.89542 5.78495 7.84315 5.67414 7.76619 5.58146C7.74743 5.55995 7.73112 5.5364 7.71758 5.51125L5.69414 2.04836C5.25537 2.00827 4.81301 2.04389 4.3862 2.15366C3.99779 2.25561 3.63534 2.43924 3.32283 2.69241C3.00255 2.95497 2.73849 3.27996 2.54657 3.64779C2.32635 4.07529 2.17753 4.53623 2.10603 5.01219C1.97801 5.87601 2.0141 6.75638 2.21237 7.60669C2.44729 8.61167 2.82377 9.57781 3.33043 10.4759C3.91366 11.5246 4.60841 12.5065 5.40248 13.4046C6.2266 14.3455 7.14265 15.2009 8.13685 15.9579C8.59258 16.3044 9.0878 16.6111 9.54353 16.895L9.67266 16.9774C10.1403 17.2722 10.6225 17.5432 11.1173 17.7893C11.5533 18.0077 12.0059 18.1909 12.4708 18.3372C12.9042 18.4739 13.3508 18.564 13.8031 18.6058C14.2539 18.6447 14.7076 18.6304 15.1551 18.5631C15.4619 18.5198 15.7662 18.4597 16.0665 18.383C16.3547 18.3106 16.6358 18.2126 16.9066 18.09H16.9203C17.1904 17.9698 17.442 17.8115 17.6677 17.6199C17.8931 17.426 18.0833 17.1941 18.2297 16.9347C18.357 16.7113 18.4589 16.4743 18.5336 16.2281C18.5963 16.0206 18.63 15.8054 18.6338 15.5886C18.6377 15.4129 18.6018 15.2386 18.529 15.0789C18.4676 14.9492 18.3726 14.8385 18.254 14.7584C17.4322 14.1677 15.9891 13.4474 15.0639 12.9102L15.0199 12.8873C14.4502 12.6324 13.9216 13.307 13.4917 13.8762L13.4658 13.9129C13.3914 14.0121 13.3139 14.1082 13.2532 14.1906C13.1924 14.273 13.1013 14.3738 13.0405 14.4348C12.9587 14.5169 12.8719 14.5938 12.7807 14.6653C12.6778 14.7433 12.5649 14.807 12.445 14.8545C12.3315 14.8994 12.2098 14.9191 12.088 14.9125C11.9832 14.9054 11.8804 14.8801 11.7842 14.8377L11.7356 14.8164C11.0351 14.4608 10.3658 14.0462 9.73494 13.5771Z"/>
</mask>
<path d="M8.90703 11.4557C9.34959 11.9301 9.83303 12.3642 10.3517 12.753C10.9126 13.1719 11.5071 13.5435 12.129 13.864L12.1549 13.8457C12.2004 13.8091 12.2521 13.7618 12.3068 13.7083C12.3615 13.6549 12.3979 13.6091 12.4465 13.5557L12.6182 13.3314C12.6333 13.3079 12.6506 13.286 12.6698 13.2658C13.3246 12.3989 14.1403 11.3565 15.4528 11.967C15.4801 11.9783 15.5065 11.9916 15.5318 12.0067C16.5952 12.6385 17.6859 13.2505 18.7584 13.8701C18.7851 13.8841 18.8105 13.9005 18.8343 13.919C19.1 14.1002 19.3133 14.3487 19.4526 14.6393C19.5904 14.9387 19.6609 15.2649 19.6592 15.5947C19.656 15.9103 19.6079 16.2238 19.5164 16.5257C19.4201 16.848 19.2876 17.1583 19.1214 17.4505C18.9164 17.8148 18.6496 18.1402 18.333 18.412C18.0342 18.6681 17.7001 18.8793 17.3411 19.0393H17.3335C17.0073 19.1872 16.6688 19.3057 16.3217 19.3934C15.9848 19.4797 15.6435 19.548 15.2994 19.5979C14.773 19.677 14.2391 19.6934 13.7089 19.6467C13.1847 19.5998 12.6668 19.4975 12.164 19.3415C11.6482 19.1773 11.1459 18.9732 10.6616 18.731C10.1329 18.4689 9.61778 18.1801 9.11819 17.8657L8.99058 17.7863C8.52422 17.4948 8.0214 17.1758 7.5125 16.7989C6.46295 15.9993 5.496 15.0959 4.62622 14.1021C3.78265 13.1442 3.04417 12.0978 2.42353 10.9811C1.87109 9.99677 1.46184 8.93805 1.20825 7.83715C0.980269 6.85823 0.939032 5.84477 1.08672 4.85042C1.17638 4.26122 1.36218 3.69091 1.63663 3.16247C1.89285 2.67006 2.24643 2.23539 2.6757 1.88506C3.10102 1.5425 3.59319 1.29345 4.12036 1.15402C4.67762 1.01103 5.25549 0.96713 5.82782 1.02429C5.98033 1.03414 6.12779 1.083 6.25621 1.16623C6.38232 1.24812 6.48661 1.35971 6.56003 1.4913L8.60473 4.96946C8.78485 5.20287 8.90251 5.4787 8.94653 5.7707C8.9829 6.06117 8.93984 6.3561 8.82196 6.62384C8.7246 6.84545 8.59111 7.0492 8.427 7.22668C8.26466 7.40256 8.08557 7.56205 7.89227 7.70284C7.78138 7.79899 7.64162 7.90125 7.49579 8.00808L7.48212 8.01876C7.30903 8.13811 7.14502 8.27024 6.99145 8.41404C6.93146 8.46275 6.88448 8.52569 6.85473 8.59718C6.85473 8.61397 6.8684 8.59718 6.88359 8.62313L6.93524 8.70402C7.1069 8.97415 7.43806 9.49 7.81632 10.0379C8.14918 10.5345 8.51351 11.0091 8.90703 11.4588V11.4557ZM9.73494 13.5771C9.16986 13.153 8.64229 12.6807 8.15812 12.1654C7.72798 11.6791 7.3311 11.1641 6.97018 10.6239C6.59345 10.0776 6.24709 9.53883 6.06784 9.25039L6.02379 9.18476C5.9476 9.09068 5.89078 8.98233 5.85662 8.86601C5.82246 8.74968 5.81164 8.6277 5.82478 8.50714C5.86506 8.18512 6.01991 7.88861 6.26077 7.67232C6.45256 7.48962 6.65826 7.32225 6.876 7.17173C6.99753 7.08322 7.11298 6.99775 7.2178 6.90771L7.2497 6.88329C7.39716 6.77966 7.53314 6.66045 7.6553 6.52769C7.74288 6.43361 7.8147 6.32589 7.86797 6.20872C7.91181 6.11339 7.92913 6.00791 7.9181 5.90348C7.89542 5.78495 7.84315 5.67414 7.76619 5.58146C7.74743 5.55995 7.73112 5.5364 7.71758 5.51125L5.69414 2.04836C5.25537 2.00827 4.81301 2.04389 4.3862 2.15366C3.99779 2.25561 3.63534 2.43924 3.32283 2.69241C3.00255 2.95497 2.73849 3.27996 2.54657 3.64779C2.32635 4.07529 2.17753 4.53623 2.10603 5.01219C1.97801 5.87601 2.0141 6.75638 2.21237 7.60669C2.44729 8.61167 2.82377 9.57781 3.33043 10.4759C3.91366 11.5246 4.60841 12.5065 5.40248 13.4046C6.2266 14.3455 7.14265 15.2009 8.13685 15.9579C8.59258 16.3044 9.0878 16.6111 9.54353 16.895L9.67266 16.9774C10.1403 17.2722 10.6225 17.5432 11.1173 17.7893C11.5533 18.0077 12.0059 18.1909 12.4708 18.3372C12.9042 18.4739 13.3508 18.564 13.8031 18.6058C14.2539 18.6447 14.7076 18.6304 15.1551 18.5631C15.4619 18.5198 15.7662 18.4597 16.0665 18.383C16.3547 18.3106 16.6358 18.2126 16.9066 18.09H16.9203C17.1904 17.9698 17.442 17.8115 17.6677 17.6199C17.8931 17.426 18.0833 17.1941 18.2297 16.9347C18.357 16.7113 18.4589 16.4743 18.5336 16.2281C18.5963 16.0206 18.63 15.8054 18.6338 15.5886C18.6377 15.4129 18.6018 15.2386 18.529 15.0789C18.4676 14.9492 18.3726 14.8385 18.254 14.7584C17.4322 14.1677 15.9891 13.4474 15.0639 12.9102L15.0199 12.8873C14.4502 12.6324 13.9216 13.307 13.4917 13.8762L13.4658 13.9129C13.3914 14.0121 13.3139 14.1082 13.2532 14.1906C13.1924 14.273 13.1013 14.3738 13.0405 14.4348C12.9587 14.5169 12.8719 14.5938 12.7807 14.6653C12.6778 14.7433 12.5649 14.807 12.445 14.8545C12.3315 14.8994 12.2098 14.9191 12.088 14.9125C11.9832 14.9054 11.8804 14.8801 11.7842 14.8377L11.7356 14.8164C11.0351 14.4608 10.3658 14.0462 9.73494 13.5771Z" fill="#FFEDED"/>
<path d="M14.9525 13.0213L14.9708 13.0305L15.1054 12.7624L15.0872 12.7532L14.9525 13.0213ZM8.90703 11.4557L9.12638 11.2511L8.60703 10.6944V11.4557H8.90703ZM10.3517 12.753L10.1718 12.993L10.1722 12.9933L10.3517 12.753ZM12.129 13.864L11.9916 14.1307L12.1538 14.2143L12.3026 14.1087L12.129 13.864ZM12.1549 13.8457L12.3284 14.0904L12.3358 14.0852L12.3428 14.0795L12.1549 13.8457ZM12.4465 13.5557L12.6684 13.7576L12.677 13.7482L12.6848 13.738L12.4465 13.5557ZM12.6182 13.3314L12.8564 13.5137L12.8637 13.5042L12.8702 13.4941L12.6182 13.3314ZM12.6698 13.2658L12.8872 13.4725L12.899 13.4602L12.9092 13.4466L12.6698 13.2658ZM15.4528 11.967L15.3262 12.2392L15.3376 12.244L15.4528 11.967ZM15.5318 12.0067L15.3784 12.2645L15.3786 12.2646L15.5318 12.0067ZM18.7584 13.8701L18.6082 14.1301L18.6189 14.1357L18.7584 13.8701ZM18.8343 13.919L18.6506 14.1561L18.6578 14.1617L18.6653 14.1668L18.8343 13.919ZM19.4526 14.6393L19.7252 14.5139L19.7231 14.5096L19.4526 14.6393ZM19.6592 15.5947L19.9592 15.5978L19.9592 15.5963L19.6592 15.5947ZM19.5164 16.5257L19.2293 16.4387L19.229 16.4398L19.5164 16.5257ZM19.1214 17.4505L18.8606 17.3023L18.86 17.3034L19.1214 17.4505ZM18.333 18.412L18.5282 18.6398L18.5285 18.6396L18.333 18.412ZM17.3411 19.0393V19.3393H17.4049L17.4631 19.3133L17.3411 19.0393ZM17.3335 19.0393V18.7393H17.2686L17.2096 18.7661L17.3335 19.0393ZM16.3217 19.3934L16.2482 19.1025L16.2473 19.1027L16.3217 19.3934ZM15.2994 19.5979L15.2563 19.301L15.2548 19.3012L15.2994 19.5979ZM13.7089 19.6467L13.6822 19.9455L13.6826 19.9455L13.7089 19.6467ZM12.164 19.3415L12.073 19.6273L12.0751 19.628L12.164 19.3415ZM10.6616 18.731L10.7958 18.4627L10.7948 18.4622L10.6616 18.731ZM9.11819 17.8657L9.27799 17.6118L9.27662 17.6109L9.11819 17.8657ZM8.99058 17.7863L8.83157 18.0407L8.83215 18.041L8.99058 17.7863ZM7.5125 16.7989L7.33069 17.0375L7.33393 17.0399L7.5125 16.7989ZM4.62622 14.1021L4.85196 13.9045L4.85136 13.9038L4.62622 14.1021ZM2.42353 10.9811L2.68575 10.8353L2.68514 10.8342L2.42353 10.9811ZM1.20825 7.83715L1.50059 7.76981L1.50043 7.7691L1.20825 7.83715ZM1.08672 4.85042L0.790133 4.80528L0.789975 4.80634L1.08672 4.85042ZM1.63663 3.16247L1.37051 3.02399L1.3704 3.0242L1.63663 3.16247ZM2.6757 1.88506L2.48751 1.65141L2.48601 1.65263L2.6757 1.88506ZM4.12036 1.15402L4.0458 0.863424L4.04365 0.863992L4.12036 1.15402ZM5.82782 1.02429L5.79799 1.32299L5.80849 1.32367L5.82782 1.02429ZM6.25621 1.16623L6.41959 0.914622L6.41937 0.914479L6.25621 1.16623ZM6.56003 1.4913L6.29797 1.6375L6.30141 1.64334L6.56003 1.4913ZM8.60473 4.96946L8.34611 5.1215L8.35568 5.13778L8.36723 5.15274L8.60473 4.96946ZM8.94653 5.7707L9.2443 5.73341L9.24318 5.72599L8.94653 5.7707ZM8.82196 6.62384L8.5474 6.50295L8.5473 6.50316L8.82196 6.62384ZM8.427 7.22668L8.20673 7.023L8.20654 7.02321L8.427 7.22668ZM7.89227 7.70284L7.71564 7.46035L7.70536 7.46784L7.69575 7.47618L7.89227 7.70284ZM7.49579 8.00808L7.31842 7.76595L7.31107 7.77169L7.49579 8.00808ZM7.48212 8.01876L7.65242 8.26574L7.65979 8.26066L7.66684 8.25515L7.48212 8.01876ZM6.99145 8.41404L7.18054 8.64695L7.18877 8.64027L7.1965 8.63302L6.99145 8.41404ZM6.85473 8.59718L6.57774 8.48195L6.55473 8.53727L6.55473 8.59718L6.85473 8.59718ZM6.88359 8.62313L6.62451 8.77482L6.63074 8.78458L6.88359 8.62313ZM6.93524 8.70402L7.18845 8.54312L7.18809 8.54256L6.93524 8.70402ZM7.81632 10.0379L8.06555 9.87085L8.0632 9.86745L7.81632 10.0379ZM8.90703 11.4588L8.68128 11.6563L9.20703 12.257V11.4588H8.90703ZM9.73494 13.5771L9.55486 13.817L9.55591 13.8178L9.73494 13.5771ZM8.15812 12.1654L7.9333 12.3642L7.93948 12.3708L8.15812 12.1654ZM6.97018 10.6239L7.21965 10.4573L7.21716 10.4536L6.97018 10.6239ZM6.06784 9.25039L6.3228 9.09194L6.31692 9.08318L6.06784 9.25039ZM6.02379 9.18476L6.27287 9.01755L6.26538 9.0064L6.25693 8.99597L6.02379 9.18476ZM5.82478 8.50714L5.52707 8.4699L5.52655 8.47461L5.82478 8.50714ZM6.26077 7.67232L6.4613 7.89562L6.46768 7.88954L6.26077 7.67232ZM6.876 7.17173L7.04664 7.41858L7.05263 7.41423L6.876 7.17173ZM7.2178 6.90771L7.03545 6.66948L7.02873 6.67463L7.02231 6.68014L7.2178 6.90771ZM7.2497 6.88329L7.07707 6.63763L7.06735 6.64507L7.2497 6.88329ZM7.6553 6.52769L7.43571 6.32327L7.43453 6.32455L7.6553 6.52769ZM7.86797 6.20872L7.5954 6.08338L7.59487 6.08456L7.86797 6.20872ZM7.9181 5.90348L8.21644 5.87197L8.21512 5.85946L8.21276 5.84711L7.9181 5.90348ZM7.76619 5.58146L7.99706 5.38975L7.99225 5.38424L7.76619 5.58146ZM7.71758 5.51125L7.98187 5.36892L7.9766 5.3599L7.71758 5.51125ZM5.69414 2.04836L5.95316 1.89701L5.87524 1.76366L5.72144 1.7496L5.69414 2.04836ZM4.3862 2.15366L4.31147 1.86312L4.31004 1.86349L4.3862 2.15366ZM3.32283 2.69241L3.13399 2.45929L3.13264 2.4604L3.32283 2.69241ZM2.54657 3.64779L2.2806 3.50902L2.27988 3.51041L2.54657 3.64779ZM2.10603 5.01219L1.80936 4.96763L1.80928 4.96821L2.10603 5.01219ZM2.21237 7.60669L1.92021 7.67482L1.92025 7.67498L2.21237 7.60669ZM3.33043 10.4759L3.59261 10.3301L3.59172 10.3285L3.33043 10.4759ZM5.40248 13.4046L5.62815 13.207L5.62722 13.2059L5.40248 13.4046ZM8.13685 15.9579L7.9551 16.1966L7.9553 16.1968L8.13685 15.9579ZM9.54353 16.895L9.70495 16.6421L9.70215 16.6404L9.54353 16.895ZM9.67266 16.9774L9.51125 17.2303L9.51268 17.2312L9.67266 16.9774ZM11.1173 17.7893L11.2516 17.5211L11.2509 17.5207L11.1173 17.7893ZM12.4708 18.3372L12.5611 18.0511L12.5609 18.0511L12.4708 18.3372ZM13.8031 18.6058L13.7754 18.9046L13.7773 18.9047L13.8031 18.6058ZM15.1551 18.5631L15.1132 18.266L15.1105 18.2664L15.1551 18.5631ZM16.0665 18.383L15.9934 18.0921L15.9923 18.0923L16.0665 18.383ZM16.9066 18.09V17.79H16.8419L16.7829 17.8167L16.9066 18.09ZM16.9203 18.09V18.39H16.984L17.0423 18.3641L16.9203 18.09ZM17.6677 17.6199L17.8618 17.8487L17.8633 17.8474L17.6677 17.6199ZM18.2297 16.9347L17.9691 16.7862L17.9685 16.7872L18.2297 16.9347ZM18.5336 16.2281L18.8206 16.3151L18.8207 16.3149L18.5336 16.2281ZM18.6338 15.5886L18.3339 15.582L18.3339 15.5834L18.6338 15.5886ZM18.529 15.0789L18.802 14.9544L18.8001 14.9504L18.529 15.0789ZM18.254 14.7584L18.0789 15.0021L18.086 15.0069L18.254 14.7584ZM15.0639 12.9102L15.2147 12.6504L15.2023 12.644L15.0639 12.9102ZM15.0199 12.8873L15.1582 12.6211L15.1504 12.617L15.1424 12.6134L15.0199 12.8873ZM13.4917 13.8762L13.2521 13.6953L13.2465 13.7034L13.4917 13.8762ZM13.4658 13.9129L13.7059 14.093L13.711 14.0857L13.4658 13.9129ZM13.0405 14.4348L13.2529 14.6466L13.2531 14.6464L13.0405 14.4348ZM12.7807 14.6653L12.962 14.9043L12.9657 14.9014L12.7807 14.6653ZM12.445 14.8545L12.5553 15.1335L12.5556 15.1334L12.445 14.8545ZM12.088 14.9125L12.0676 15.2118L12.0717 15.2121L12.088 14.9125ZM11.7842 14.8377L11.905 14.5631L11.9049 14.5631L11.7842 14.8377ZM11.7356 14.8164L11.5998 15.0839L11.6072 15.0876L11.6149 15.091L11.7356 14.8164ZM8.68768 11.6604C9.1423 12.1476 9.63892 12.5936 10.1718 12.993L10.5316 12.5129C10.0271 12.1347 9.55689 11.7125 9.12638 11.2511L8.68768 11.6604ZM10.1722 12.9933C10.7464 13.4222 11.355 13.8026 11.9916 14.1307L12.2665 13.5973C11.6593 13.2844 11.0789 12.9216 10.5312 12.5126L10.1722 12.9933ZM12.3026 14.1087L12.3284 14.0904L11.9813 13.601L11.9555 13.6193L12.3026 14.1087ZM12.3428 14.0795C12.3991 14.0343 12.4585 13.9795 12.5164 13.923L12.0971 13.4937C12.0457 13.544 12.0018 13.5838 11.9669 13.6119L12.3428 14.0795ZM12.5164 13.923C12.5788 13.862 12.6349 13.7945 12.6684 13.7576L12.2247 13.3538C12.1609 13.4238 12.1441 13.4478 12.0971 13.4937L12.5164 13.923ZM12.6848 13.738L12.8564 13.5137L12.3799 13.1491L12.2083 13.3734L12.6848 13.738ZM12.8702 13.4941C12.8752 13.4864 12.8809 13.4791 12.8872 13.4725L12.4525 13.059C12.4203 13.0928 12.3914 13.1295 12.3661 13.1687L12.8702 13.4941ZM12.9092 13.4466C13.2424 13.0054 13.5799 12.573 13.9783 12.3138C14.1717 12.188 14.3713 12.1091 14.5843 12.0892C14.7962 12.0693 15.0402 12.1059 15.3263 12.239L15.5793 11.695C15.2092 11.5228 14.859 11.4608 14.5284 11.4918C14.1989 11.5227 13.9075 11.6441 13.6511 11.8109C13.1497 12.1371 12.752 12.6592 12.4304 13.0849L12.9092 13.4466ZM15.3376 12.244C15.3516 12.2498 15.3653 12.2567 15.3784 12.2645L15.6852 11.7488C15.6476 11.7265 15.6085 11.7068 15.5681 11.69L15.3376 12.244ZM15.3786 12.2646C16.4437 12.8975 17.5405 13.513 18.6083 14.1299L18.9085 13.6104C17.8313 12.988 16.7466 12.3795 15.6851 11.7488L15.3786 12.2646ZM18.6189 14.1357C18.63 14.1416 18.6406 14.1484 18.6506 14.1561L19.0181 13.6818C18.9804 13.6526 18.9401 13.6267 18.8979 13.6045L18.6189 14.1357ZM18.6653 14.1668C18.8872 14.3182 19.0655 14.5259 19.1821 14.769L19.7231 14.5096C19.561 14.1715 19.3128 13.8822 19.0034 13.6711L18.6653 14.1668ZM19.1801 14.7647C19.2995 15.0243 19.3607 15.3071 19.3592 15.5931L19.9592 15.5963C19.9612 15.2226 19.8813 14.8531 19.7251 14.5139L19.1801 14.7647ZM19.3592 15.5916C19.3563 15.8788 19.3125 16.164 19.2293 16.4387L19.8035 16.6127C19.9033 16.2835 19.9557 15.9418 19.9592 15.5978L19.3592 15.5916ZM19.229 16.4398C19.1391 16.7404 19.0156 17.0298 18.8606 17.3023L19.3822 17.5988C19.5596 17.2868 19.701 16.9556 19.8039 16.6116L19.229 16.4398ZM18.86 17.3034C18.6721 17.6372 18.4276 17.9354 18.1376 18.1844L18.5285 18.6396C18.8716 18.345 19.1608 17.9923 19.3829 17.5977L18.86 17.3034ZM18.1378 18.1842C17.861 18.4214 17.5515 18.6171 17.219 18.7652L17.4631 19.3133C17.8487 19.1416 18.2074 18.9147 18.5282 18.6398L18.1378 18.1842ZM17.3411 18.7393H17.3335V19.3393H17.3411V18.7393ZM17.2096 18.7661C16.8997 18.9066 16.578 19.0192 16.2482 19.1025L16.3953 19.6842C16.7596 19.5921 17.115 19.4678 17.4574 19.3125L17.2096 18.7661ZM16.2473 19.1027C15.9207 19.1864 15.5899 19.2526 15.2563 19.301L15.3424 19.8948C15.6972 19.8433 16.0489 19.773 16.3962 19.684L16.2473 19.1027ZM15.2548 19.3012C14.7519 19.3768 14.2418 19.3925 13.7352 19.3479L13.6826 19.9455C14.2365 19.9943 14.7941 19.9772 15.344 19.8945L15.2548 19.3012ZM13.7356 19.3479C13.2325 19.3029 12.7355 19.2047 12.2529 19.0549L12.0751 19.628C12.5982 19.7903 13.1368 19.8967 13.6822 19.9455L13.7356 19.3479ZM12.255 19.0556C11.7541 18.8961 11.2662 18.6979 10.7958 18.4627L10.5274 18.9993C11.0257 19.2485 11.5424 19.4584 12.073 19.6273L12.255 19.0556ZM10.7948 18.4622C10.2753 18.2046 9.76899 17.9208 9.27799 17.6118L8.95839 18.1196C9.46657 18.4394 9.99056 18.7332 10.5283 18.9998L10.7948 18.4622ZM9.27662 17.6109L9.14902 17.5315L8.83215 18.041L8.95975 18.1204L9.27662 17.6109ZM9.14959 17.5319C8.68383 17.2408 8.1897 16.9272 7.69107 16.5578L7.33393 17.0399C7.85309 17.4245 8.36461 17.7488 8.83157 18.0407L9.14959 17.5319ZM7.6943 16.5602C6.66075 15.7729 5.70852 14.8832 4.85196 13.9045L4.40047 14.2997C5.28348 15.3085 6.26515 16.2258 7.3307 17.0375L7.6943 16.5602ZM4.85136 13.9038C4.02202 12.962 3.29596 11.9333 2.68575 10.8353L2.1613 11.1268C2.79238 12.2623 3.54329 13.3263 4.40107 14.3004L4.85136 13.9038ZM2.68514 10.8342C2.14669 9.87486 1.74778 8.84291 1.50059 7.76981L0.915904 7.90449C1.1759 9.03319 1.59549 10.1187 2.16191 11.1279L2.68514 10.8342ZM1.50043 7.7691C1.28101 6.82694 1.24132 5.85152 1.38346 4.89449L0.789975 4.80634C0.636743 5.83801 0.679527 6.88951 0.916067 7.90519L1.50043 7.7691ZM1.38331 4.89555C1.46803 4.33882 1.64358 3.79998 1.90287 3.30074L1.3704 3.0242C1.08078 3.58184 0.88474 4.18361 0.790135 4.80528L1.38331 4.89555ZM1.90276 3.30095C2.14019 2.84466 2.46777 2.44197 2.86538 2.11748L2.48601 1.65263C2.02508 2.0288 1.64552 2.49547 1.37051 3.02399L1.90276 3.30095ZM2.86387 2.1187C3.25646 1.80251 3.71066 1.57269 4.19706 1.44405L4.04365 0.863992C3.47572 1.0142 2.94558 1.28249 2.48752 1.65141L2.86387 2.1187ZM4.19492 1.44461C4.71813 1.31036 5.26067 1.26914 5.79801 1.32281L5.85764 0.725779C5.25031 0.66512 4.63711 0.71171 4.0458 0.863432L4.19492 1.44461ZM5.80849 1.32367C5.90969 1.3302 6.00765 1.36263 6.09304 1.41798L6.41937 0.914479C6.24794 0.803369 6.05096 0.738076 5.84715 0.724917L5.80849 1.32367ZM6.09282 1.41784C6.17788 1.47307 6.24836 1.54842 6.29804 1.63747L6.82201 1.34514C6.72485 1.17099 6.58675 1.02317 6.41959 0.914622L6.09282 1.41784ZM6.30141 1.64334L8.34611 5.1215L8.86335 4.81742L6.81865 1.33927L6.30141 1.64334ZM8.36723 5.15274C8.51611 5.34567 8.61346 5.5738 8.64988 5.81542L9.24318 5.72599C9.19156 5.3836 9.05358 5.06006 8.84224 4.78618L8.36723 5.15274ZM8.64885 5.80798C8.67849 6.04464 8.64339 6.28491 8.5474 6.50295L9.09653 6.74472C9.23629 6.42729 9.28732 6.07769 9.2442 5.73343L8.64885 5.80798ZM8.5473 6.50316C8.46331 6.69433 8.3482 6.87001 8.20673 7.023L8.64726 7.43035C8.83402 7.22838 8.98588 6.99658 9.09662 6.74451L8.5473 6.50316ZM8.20654 7.02321C8.05749 7.1847 7.89307 7.33111 7.71564 7.46035L8.06891 7.94533C8.27806 7.79298 8.47183 7.62043 8.64745 7.43014L8.20654 7.02321ZM7.69575 7.47618C7.59612 7.56256 7.46746 7.65695 7.3185 7.76607L7.67308 8.25009C7.81579 8.14555 7.96664 8.03543 8.0888 7.92951L7.69575 7.47618ZM7.31107 7.77169L7.2974 7.78237L7.66684 8.25515L7.68051 8.24447L7.31107 7.77169ZM7.31182 7.77178C7.12646 7.8996 6.95083 8.04108 6.7864 8.19506L7.1965 8.63302C7.33921 8.49939 7.4916 8.37663 7.65242 8.26574L7.31182 7.77178ZM6.80236 8.18114C6.70368 8.26125 6.62654 8.36466 6.57774 8.48195L7.13172 8.71241C7.14241 8.68671 7.15924 8.66424 7.18054 8.64695L6.80236 8.18114ZM6.55473 8.59718C6.55473 8.61653 6.55628 8.65398 6.57104 8.69779C6.58794 8.74799 6.62009 8.80001 6.67188 8.84066C6.71808 8.87692 6.76305 8.89047 6.78072 8.8953C6.79026 8.89791 6.79799 8.89952 6.80017 8.89998C6.80128 8.90021 6.80269 8.9005 6.80232 8.90042C6.80232 8.90042 6.8023 8.90042 6.80228 8.90041C6.80226 8.90041 6.80223 8.9004 6.80218 8.90039C6.8021 8.90038 6.80197 8.90035 6.8018 8.90031C6.80147 8.90025 6.80096 8.90014 6.80033 8.9C6.78607 8.89693 6.74602 8.88731 6.70335 8.85814C6.66253 8.83023 6.63809 8.79756 6.62471 8.77471L7.14248 8.47155C7.12151 8.43572 7.08966 8.39543 7.042 8.36284C6.99249 8.32899 6.94618 8.31766 6.9266 8.31344C6.92593 8.3133 6.91799 8.31164 6.92296 8.31268C6.92393 8.31288 6.93053 8.31424 6.939 8.31656C6.95453 8.3208 6.99765 8.33361 7.04233 8.36868C7.06553 8.38689 7.08643 8.40892 7.10381 8.43437C7.12093 8.45942 7.13224 8.48426 7.13966 8.50632C7.15361 8.54773 7.15473 8.58204 7.15473 8.59718H6.55473ZM6.63074 8.78458L6.68239 8.86547L7.18809 8.54256L7.13644 8.46168L6.63074 8.78458ZM6.68204 8.86491C6.85453 9.13635 7.18802 9.65586 7.56944 10.2083L8.0632 9.86745C7.6881 9.32413 7.35928 8.81195 7.18845 8.54312L6.68204 8.86491ZM7.56712 10.2049C7.90713 10.7122 8.27929 11.197 8.68128 11.6563L9.13278 11.2612C8.74772 10.8212 8.39123 10.3568 8.06552 9.87087L7.56712 10.2049ZM9.20703 11.4588V11.4557H8.60703V11.4588H9.20703ZM9.91501 13.3372C9.36377 12.9234 8.8491 12.4627 8.37675 11.96L7.93948 12.3708C8.43548 12.8987 8.97595 13.3826 9.55486 13.817L9.91501 13.3372ZM8.38283 11.9666C7.96165 11.4905 7.57303 10.9862 7.21962 10.4573L6.72074 10.7906C7.08916 11.342 7.49431 11.8677 7.93341 12.3641L8.38283 11.9666ZM7.21716 10.4536C6.84343 9.91164 6.49969 9.37692 6.32265 9.09204L5.81303 9.40873C5.9945 9.70074 6.34346 10.2435 6.7232 10.7942L7.21716 10.4536ZM6.31692 9.08318L6.27287 9.01755L5.7747 9.35197L5.81876 9.41759L6.31692 9.08318ZM6.25693 8.99597C6.20573 8.93273 6.16747 8.85983 6.14446 8.78147L5.56877 8.95054C5.61409 9.10483 5.68948 9.24863 5.79064 9.37356L6.25693 8.99597ZM6.14446 8.78147C6.12145 8.70312 6.11415 8.62092 6.12302 8.53967L5.52655 8.47461C5.50912 8.63448 5.52346 8.79625 5.56877 8.95054L6.14446 8.78147ZM6.12246 8.54437C6.1538 8.29383 6.27425 8.06342 6.46121 7.89553L6.06032 7.44911C5.76558 7.7138 5.57632 8.07641 5.5271 8.46991L6.12246 8.54437ZM6.46768 7.88954C6.64817 7.71762 6.84173 7.56013 7.04659 7.41851L6.70541 6.92496C6.4748 7.08437 6.25695 7.26163 6.05385 7.4551L6.46768 7.88954ZM7.05263 7.41423C7.17397 7.32584 7.29831 7.23403 7.41328 7.13527L7.02231 6.68014C6.92764 6.76146 6.82109 6.84059 6.69937 6.92924L7.05263 7.41423ZM7.40014 7.14593L7.43204 7.12151L7.06735 6.64507L7.03545 6.66948L7.40014 7.14593ZM7.42218 7.12874C7.58722 7.01276 7.73938 6.87936 7.87606 6.73082L7.43453 6.32455C7.32689 6.44153 7.2071 6.54656 7.07721 6.63783L7.42218 7.12874ZM7.87488 6.7321C7.98454 6.6143 8.07442 6.47947 8.14107 6.33288L7.59487 6.08456C7.55497 6.17231 7.50121 6.25292 7.43572 6.32327L7.87488 6.7321ZM8.14053 6.33405C8.20693 6.18967 8.23313 6.03 8.21644 5.87197L7.61976 5.935C7.62513 5.98581 7.61669 6.0371 7.59541 6.08338L8.14053 6.33405ZM8.21276 5.84711C8.18057 5.67891 8.10638 5.52154 7.997 5.38981L7.53538 5.77311C7.57992 5.82674 7.61027 5.89099 7.62344 5.95986L8.21276 5.84711ZM7.99225 5.38424C7.98821 5.3796 7.98467 5.37449 7.98171 5.36901L7.45345 5.6535C7.47758 5.69832 7.50665 5.74031 7.54013 5.77868L7.99225 5.38424ZM7.9766 5.3599L5.95316 1.89701L5.43512 2.19971L7.45856 5.66261L7.9766 5.3599ZM5.72144 1.7496C5.24843 1.70639 4.77156 1.74478 4.31147 1.86312L4.46093 2.44421C4.85446 2.34299 5.26231 2.31016 5.66685 2.34711L5.72144 1.7496ZM4.31004 1.86349C3.88038 1.97627 3.47953 2.17937 3.13399 2.4593L3.51167 2.92551C3.79115 2.69911 4.1152 2.53496 4.46236 2.44384L4.31004 1.86349ZM3.13264 2.4604C2.78101 2.74866 2.4912 3.10538 2.2806 3.50902L2.81255 3.78657C2.98579 3.45454 3.22409 3.16128 3.51303 2.92441L3.13264 2.4604ZM2.27988 3.51041C2.04466 3.96703 1.88571 4.45933 1.80936 4.96763L2.40271 5.05675C2.46934 4.61313 2.60805 4.18355 2.81327 3.78518L2.27988 3.51041ZM1.80928 4.96821C1.67572 5.86935 1.71336 6.78775 1.92021 7.67482L2.50453 7.53857C2.31483 6.725 2.2803 5.88267 2.40279 5.05617L1.80928 4.96821ZM1.92025 7.67498C2.16164 8.70763 2.54849 9.70042 3.06914 10.6233L3.59172 10.3285C3.09905 9.45521 2.73295 8.5157 2.5045 7.53841L1.92025 7.67498ZM3.06825 10.6217C3.662 11.6893 4.3693 12.689 5.17773 13.6034L5.62722 13.2059C4.84752 12.3241 4.16532 11.3598 3.5926 10.3301L3.06825 10.6217ZM5.17681 13.6023C6.01415 14.5583 6.94492 15.4274 7.9551 16.1966L8.3186 15.7193C7.34039 14.9744 6.43905 14.1327 5.62814 13.207L5.17681 13.6023ZM7.9553 16.1968C8.42415 16.5532 8.93175 16.8674 9.38492 17.1496L9.70215 16.6404C9.24386 16.3549 8.76101 16.0556 8.3184 15.7191L7.9553 16.1968ZM9.38213 17.1479L9.51125 17.2303L9.83406 16.7245L9.70494 16.6421L9.38213 17.1479ZM9.51268 17.2312C9.9889 17.5314 10.4799 17.8073 10.9837 18.058L11.2509 17.5207C10.7652 17.2791 10.2918 17.0131 9.83264 16.7236L9.51268 17.2312ZM10.983 18.0576C11.4333 18.2831 11.9006 18.4722 12.3807 18.6234L12.5609 18.0511C12.1112 17.9095 11.6734 17.7323 11.2516 17.5211L10.983 18.0576ZM12.3806 18.6233C12.8343 18.7664 13.3019 18.8607 13.7754 18.9046L13.8307 18.3071C13.3997 18.2672 12.9741 18.1814 12.5611 18.0511L12.3806 18.6233ZM13.7773 18.9047C14.2516 18.9456 14.7289 18.9305 15.1997 18.8598L15.1105 18.2664C14.6863 18.3302 14.2562 18.3438 13.8289 18.307L13.7773 18.9047ZM15.197 18.8602C15.5147 18.8153 15.8298 18.7531 16.1407 18.6737L15.9923 18.0923C15.7026 18.1663 15.4091 18.2243 15.1132 18.2661L15.197 18.8602ZM16.1396 18.674C16.4451 18.5972 16.7432 18.4933 17.0303 18.3633L16.7829 17.8167C16.5284 17.9319 16.2642 18.0241 15.9934 18.0921L16.1396 18.674ZM16.9066 18.39H16.9203V17.79H16.9066V18.39ZM17.0423 18.3641C17.3385 18.2322 17.6144 18.0586 17.8618 17.8487L17.4735 17.3912C17.2696 17.5643 17.0422 17.7073 16.7983 17.8159L17.0423 18.3641ZM17.8633 17.8474C18.1152 17.6307 18.3275 17.3718 18.491 17.0821L17.9685 16.7872C17.8391 17.0164 17.6711 17.2212 17.472 17.3925L17.8633 17.8474ZM18.4904 17.0832C18.6287 16.8404 18.7395 16.5827 18.8206 16.3151L18.2465 16.141C18.1783 16.3659 18.0853 16.5823 17.9691 16.7862L18.4904 17.0832ZM18.8207 16.3149C18.8915 16.0809 18.9295 15.8383 18.9338 15.5938L18.3339 15.5834C18.3306 15.7725 18.3011 15.9603 18.2464 16.1412L18.8207 16.3149ZM18.9337 15.5952C18.9386 15.3744 18.8935 15.1553 18.802 14.9544L18.256 15.2033C18.3101 15.3219 18.3367 15.4514 18.3339 15.582L18.9337 15.5952ZM18.8001 14.9504C18.7158 14.7723 18.5852 14.6201 18.422 14.5098L18.086 15.0069C18.16 15.0569 18.2194 15.1261 18.2579 15.2073L18.8001 14.9504ZM18.4291 14.5147C18.0023 14.208 17.422 13.8727 16.8432 13.5518C16.2563 13.2265 15.6742 12.9176 15.2146 12.6507L14.9133 13.1696C15.3788 13.4399 15.9808 13.7598 16.5523 14.0766C17.1317 14.3978 17.6839 14.7181 18.079 15.002L18.4291 14.5147ZM15.2023 12.644L15.1582 12.6211L14.8815 13.1535L14.9256 13.1764L15.2023 12.644ZM15.1424 12.6134C14.7047 12.4176 14.3071 12.6029 14.0147 12.8394C13.7241 13.0745 13.463 13.4164 13.2523 13.6954L13.7311 14.057C13.9502 13.7668 14.1684 13.4868 14.392 13.306C14.6138 13.1266 14.7654 13.1021 14.8974 13.1611L15.1424 12.6134ZM13.2465 13.7034L13.2207 13.74L13.711 14.0857L13.7369 14.0491L13.2465 13.7034ZM13.2259 13.7328C13.1677 13.8103 13.0661 13.9389 13.0117 14.0126L13.4946 14.3687C13.5618 14.2775 13.6151 14.2138 13.7058 14.0929L13.2259 13.7328ZM13.0117 14.0126C12.9625 14.0793 12.8822 14.1686 12.8279 14.2232L13.2531 14.6464C13.3203 14.5789 13.4223 14.4668 13.4946 14.3687L13.0117 14.0126ZM12.8281 14.223C12.7549 14.2964 12.6773 14.3652 12.5957 14.4291L12.9657 14.9014C13.0665 14.8225 13.1625 14.7374 13.2529 14.6466L12.8281 14.223ZM12.5994 14.4262C12.5182 14.4879 12.429 14.5381 12.3344 14.5756L12.5556 15.1334C12.7008 15.0758 12.8375 14.9987 12.962 14.9043L12.5994 14.4262ZM12.3347 14.5755C12.2615 14.6045 12.1829 14.6172 12.1044 14.6129L12.0717 15.2121C12.2367 15.2211 12.4016 15.1943 12.5553 15.1335L12.3347 14.5755ZM12.1084 14.6132C12.0383 14.6084 11.9695 14.5915 11.905 14.5631L11.6634 15.1123C11.7914 15.1686 11.9281 15.2023 12.0676 15.2118L12.1084 14.6132ZM11.9049 14.5631L11.8563 14.5417L11.6149 15.091L11.6635 15.1124L11.9049 14.5631ZM11.8714 14.5488C11.186 14.201 10.5312 13.7954 9.91397 13.3364L9.55591 13.8178C10.2004 14.2971 10.8841 14.7206 11.5998 15.0839L11.8714 14.5488Z" fill="#FFEDED" mask="url(#path-1-outside-1_527_6)"/>
</svg>
