<svg width="21" height="21" viewBox="0 0 21 21" fill="none" xmlns="http://www.w3.org/2000/svg">
<mask id="path-1-outside-1_291_954" maskUnits="userSpaceOnUse" x="0" y="0" width="21" height="21" fill="black">
<rect fill="white" width="21" height="21"/>
<path d="M9.13295 11.7544C9.58815 12.2423 10.0854 12.6889 10.6189 13.0888C11.1959 13.5197 11.8073 13.9019 12.447 14.2316L12.4736 14.2127C12.5204 14.175 12.5736 14.1264 12.6298 14.0714C12.6861 14.0165 12.7236 13.9694 12.7736 13.9145L12.9501 13.6837C12.9657 13.6596 12.9835 13.637 13.0033 13.6162C13.6767 12.7246 14.5158 11.6524 15.8658 12.2803C15.8938 12.292 15.9209 12.3056 15.947 12.3211C17.0408 12.971 18.1626 13.6005 19.2658 14.2378C19.2932 14.2523 19.3194 14.2691 19.3439 14.2881C19.6171 14.4745 19.8365 14.7301 19.9798 15.029C20.1216 15.3369 20.1941 15.6724 20.1923 16.0117C20.189 16.3363 20.1395 16.6587 20.0454 16.9693C19.9464 17.3008 19.8101 17.62 19.6392 17.9205C19.4283 18.2952 19.1539 18.6299 18.8283 18.9095C18.5209 19.1729 18.1772 19.3902 17.8079 19.5547H17.8001C17.4647 19.7068 17.1164 19.8287 16.7595 19.9189C16.413 20.0077 16.0619 20.0779 15.7079 20.1292C15.1665 20.2106 14.6174 20.2275 14.072 20.1795C13.5328 20.1312 13.0002 20.026 12.4829 19.8655C11.9525 19.6966 11.4358 19.4867 10.9376 19.2376C10.3939 18.968 9.86401 18.671 9.35013 18.3475L9.21888 18.2659C8.7392 17.9661 8.22201 17.638 7.69857 17.2503C6.61903 16.4279 5.62446 15.4986 4.72982 14.4764C3.86216 13.4911 3.10258 12.4149 2.4642 11.2662C1.89597 10.2538 1.47503 9.16485 1.2142 8.03249C0.979705 7.02561 0.93729 5.98319 1.0892 4.96043C1.18142 4.35439 1.37253 3.76779 1.65482 3.22425C1.91836 2.71778 2.28204 2.27068 2.72357 1.91035C3.16105 1.558 3.66728 1.30183 4.20951 1.15842C4.7827 1.01135 5.37708 0.966191 5.96576 1.02499C6.12262 1.03512 6.2743 1.08537 6.40638 1.17098C6.5361 1.25521 6.64337 1.36999 6.71888 1.50534L8.82201 5.08287C9.00727 5.32295 9.1283 5.60666 9.17357 5.90701C9.21099 6.20577 9.16669 6.50913 9.04545 6.78452C8.9453 7.01247 8.808 7.22203 8.6392 7.40458C8.47223 7.58549 8.28801 7.74954 8.0892 7.89435C7.97513 7.99325 7.83138 8.09842 7.68138 8.20831L7.66732 8.2193C7.48929 8.34206 7.32059 8.47796 7.16263 8.62587C7.10093 8.67597 7.0526 8.74071 7.02201 8.81425C7.02201 8.83151 7.03607 8.81425 7.0517 8.84093L7.10482 8.92413C7.28138 9.20198 7.62201 9.73257 8.01107 10.2961C8.35344 10.8069 8.72818 11.2951 9.13295 11.7576V11.7544ZM9.98451 13.9364C9.40328 13.5002 8.86064 13.0144 8.36263 12.4844C7.92021 11.9842 7.51198 11.4545 7.14076 10.8989C6.75326 10.3369 6.39701 9.7828 6.21264 9.48611L6.16732 9.41861C6.08896 9.32184 6.03052 9.2104 5.99538 9.09075C5.96024 8.9711 5.94911 8.84563 5.96264 8.72163C6.00406 8.39041 6.16334 8.08543 6.41107 7.86296C6.60835 7.67504 6.81993 7.50289 7.04389 7.34807C7.16889 7.25702 7.28764 7.16911 7.39545 7.0765L7.42826 7.05138C7.57994 6.94479 7.7198 6.82217 7.84545 6.68562C7.93553 6.58885 8.00941 6.47806 8.0642 6.35754C8.10929 6.25948 8.12711 6.15099 8.11576 6.04358C8.09243 5.92166 8.03867 5.80769 7.95951 5.71236C7.94021 5.69024 7.92344 5.66602 7.90951 5.64015L5.82826 2.07831C5.37696 2.03708 4.92196 2.07371 4.48295 2.18663C4.08344 2.29149 3.71064 2.48036 3.3892 2.74076C3.05977 3.01083 2.78816 3.3451 2.59076 3.72344C2.36425 4.16315 2.21117 4.63726 2.13764 5.12683C2.00596 6.01533 2.04307 6.92084 2.24701 7.79546C2.48864 8.82914 2.87588 9.82289 3.39701 10.7466C3.99691 11.8253 4.7115 12.8353 5.52826 13.7591C6.37594 14.7268 7.31816 15.6066 8.34076 16.3853C8.80951 16.7416 9.31888 17.0572 9.78763 17.3491L9.92045 17.4339C10.4015 17.7372 10.8974 18.0159 11.4064 18.269C11.8549 18.4936 12.3204 18.682 12.7986 18.8326C13.2443 18.9732 13.7037 19.0658 14.1689 19.1089C14.6325 19.1488 15.0993 19.1341 15.5595 19.0649C15.8751 19.0204 16.1881 18.9585 16.497 18.8797C16.7934 18.8052 17.0825 18.7044 17.3611 18.5783H17.3751C17.6529 18.4546 17.9118 18.2918 18.1439 18.0948C18.3758 17.8953 18.5714 17.6568 18.722 17.39C18.8529 17.1602 18.9577 16.9164 19.0345 16.6632C19.099 16.4498 19.1337 16.2284 19.1376 16.0054C19.1416 15.8247 19.1047 15.6454 19.0298 15.4811C18.9667 15.3477 18.869 15.2339 18.747 15.1515C17.9017 14.5439 16.4173 13.803 15.4658 13.2504L15.4204 13.2269C14.8345 12.9647 14.2908 13.6586 13.8486 14.2441L13.822 14.2818C13.7454 14.3838 13.6658 14.4827 13.6033 14.5675C13.5408 14.6523 13.447 14.7559 13.3845 14.8187C13.3003 14.9031 13.2111 14.9822 13.1173 15.0557C13.0115 15.136 12.8953 15.2014 12.772 15.2503C12.6553 15.2965 12.5301 15.3168 12.4048 15.31C12.297 15.3026 12.1913 15.2766 12.0923 15.2331L12.0423 15.2111C11.3218 14.8454 10.6334 14.419 9.98451 13.9364Z"/>
</mask>
<path d="M9.13295 11.7544C9.58815 12.2423 10.0854 12.6889 10.6189 13.0888C11.1959 13.5197 11.8073 13.9019 12.447 14.2316L12.4736 14.2127C12.5204 14.175 12.5736 14.1264 12.6298 14.0714C12.6861 14.0165 12.7236 13.9694 12.7736 13.9145L12.9501 13.6837C12.9657 13.6596 12.9835 13.637 13.0033 13.6162C13.6767 12.7246 14.5158 11.6524 15.8658 12.2803C15.8938 12.292 15.9209 12.3056 15.947 12.3211C17.0408 12.971 18.1626 13.6005 19.2658 14.2378C19.2932 14.2523 19.3194 14.2691 19.3439 14.2881C19.6171 14.4745 19.8365 14.7301 19.9798 15.029C20.1216 15.3369 20.1941 15.6724 20.1923 16.0117C20.189 16.3363 20.1395 16.6587 20.0454 16.9693C19.9464 17.3008 19.8101 17.62 19.6392 17.9205C19.4283 18.2952 19.1539 18.6299 18.8283 18.9095C18.5209 19.1729 18.1772 19.3902 17.8079 19.5547H17.8001C17.4647 19.7068 17.1164 19.8287 16.7595 19.9189C16.413 20.0077 16.0619 20.0779 15.7079 20.1292C15.1665 20.2106 14.6174 20.2275 14.072 20.1795C13.5328 20.1312 13.0002 20.026 12.4829 19.8655C11.9525 19.6966 11.4358 19.4867 10.9376 19.2376C10.3939 18.968 9.86401 18.671 9.35013 18.3475L9.21888 18.2659C8.7392 17.9661 8.22201 17.638 7.69857 17.2503C6.61903 16.4279 5.62446 15.4986 4.72982 14.4764C3.86216 13.4911 3.10258 12.4149 2.4642 11.2662C1.89597 10.2538 1.47503 9.16485 1.2142 8.03249C0.979705 7.02561 0.93729 5.98319 1.0892 4.96043C1.18142 4.35439 1.37253 3.76779 1.65482 3.22425C1.91836 2.71778 2.28204 2.27068 2.72357 1.91035C3.16105 1.558 3.66728 1.30183 4.20951 1.15842C4.7827 1.01135 5.37708 0.966191 5.96576 1.02499C6.12262 1.03512 6.2743 1.08537 6.40638 1.17098C6.5361 1.25521 6.64337 1.36999 6.71888 1.50534L8.82201 5.08287C9.00727 5.32295 9.1283 5.60666 9.17357 5.90701C9.21099 6.20577 9.16669 6.50913 9.04545 6.78452C8.9453 7.01247 8.808 7.22203 8.6392 7.40458C8.47223 7.58549 8.28801 7.74954 8.0892 7.89435C7.97513 7.99325 7.83138 8.09842 7.68138 8.20831L7.66732 8.2193C7.48929 8.34206 7.32059 8.47796 7.16263 8.62587C7.10093 8.67597 7.0526 8.74071 7.02201 8.81425C7.02201 8.83151 7.03607 8.81425 7.0517 8.84093L7.10482 8.92413C7.28138 9.20198 7.62201 9.73257 8.01107 10.2961C8.35344 10.8069 8.72818 11.2951 9.13295 11.7576V11.7544ZM9.98451 13.9364C9.40328 13.5002 8.86064 13.0144 8.36263 12.4844C7.92021 11.9842 7.51198 11.4545 7.14076 10.8989C6.75326 10.3369 6.39701 9.7828 6.21264 9.48611L6.16732 9.41861C6.08896 9.32184 6.03052 9.2104 5.99538 9.09075C5.96024 8.9711 5.94911 8.84563 5.96264 8.72163C6.00406 8.39041 6.16334 8.08543 6.41107 7.86296C6.60835 7.67504 6.81993 7.50289 7.04389 7.34807C7.16889 7.25702 7.28764 7.16911 7.39545 7.0765L7.42826 7.05138C7.57994 6.94479 7.7198 6.82217 7.84545 6.68562C7.93553 6.58885 8.00941 6.47806 8.0642 6.35754C8.10929 6.25948 8.12711 6.15099 8.11576 6.04358C8.09243 5.92166 8.03867 5.80769 7.95951 5.71236C7.94021 5.69024 7.92344 5.66602 7.90951 5.64015L5.82826 2.07831C5.37696 2.03708 4.92196 2.07371 4.48295 2.18663C4.08344 2.29149 3.71064 2.48036 3.3892 2.74076C3.05977 3.01083 2.78816 3.3451 2.59076 3.72344C2.36425 4.16315 2.21117 4.63726 2.13764 5.12683C2.00596 6.01533 2.04307 6.92084 2.24701 7.79546C2.48864 8.82914 2.87588 9.82289 3.39701 10.7466C3.99691 11.8253 4.7115 12.8353 5.52826 13.7591C6.37594 14.7268 7.31816 15.6066 8.34076 16.3853C8.80951 16.7416 9.31888 17.0572 9.78763 17.3491L9.92045 17.4339C10.4015 17.7372 10.8974 18.0159 11.4064 18.269C11.8549 18.4936 12.3204 18.682 12.7986 18.8326C13.2443 18.9732 13.7037 19.0658 14.1689 19.1089C14.6325 19.1488 15.0993 19.1341 15.5595 19.0649C15.8751 19.0204 16.1881 18.9585 16.497 18.8797C16.7934 18.8052 17.0825 18.7044 17.3611 18.5783H17.3751C17.6529 18.4546 17.9118 18.2918 18.1439 18.0948C18.3758 17.8953 18.5714 17.6568 18.722 17.39C18.8529 17.1602 18.9577 16.9164 19.0345 16.6632C19.099 16.4498 19.1337 16.2284 19.1376 16.0054C19.1416 15.8247 19.1047 15.6454 19.0298 15.4811C18.9667 15.3477 18.869 15.2339 18.747 15.1515C17.9017 14.5439 16.4173 13.803 15.4658 13.2504L15.4204 13.2269C14.8345 12.9647 14.2908 13.6586 13.8486 14.2441L13.822 14.2818C13.7454 14.3838 13.6658 14.4827 13.6033 14.5675C13.5408 14.6523 13.447 14.7559 13.3845 14.8187C13.3003 14.9031 13.2111 14.9822 13.1173 15.0557C13.0115 15.136 12.8953 15.2014 12.772 15.2503C12.6553 15.2965 12.5301 15.3168 12.4048 15.31C12.297 15.3026 12.1913 15.2766 12.0923 15.2331L12.0423 15.2111C11.3218 14.8454 10.6334 14.419 9.98451 13.9364Z" fill="#FFEDED"/>
<path d="M15.3531 13.3609L15.3719 13.3704L15.5065 13.1023L15.4878 13.0929L15.3531 13.3609ZM9.13295 11.7544L9.3523 11.5498L8.83295 10.9931V11.7544H9.13295ZM10.6189 13.0888L10.4389 13.3288L10.4394 13.3291L10.6189 13.0888ZM12.447 14.2316L12.3096 14.4982L12.4717 14.5818L12.6206 14.4763L12.447 14.2316ZM12.4736 14.2127L12.6471 14.4574L12.6545 14.4522L12.6615 14.4466L12.4736 14.2127ZM12.7736 13.9145L12.9954 14.1164L13.0041 14.1069L13.0118 14.0968L12.7736 13.9145ZM12.9501 13.6837L13.1884 13.866L13.1957 13.8565L13.2022 13.8464L12.9501 13.6837ZM13.0033 13.6162L13.2206 13.823L13.2324 13.8106L13.2427 13.797L13.0033 13.6162ZM15.8658 12.2803L15.7391 12.5526L15.7505 12.5573L15.8658 12.2803ZM15.947 12.3211L15.7936 12.579L15.7938 12.579L15.947 12.3211ZM19.2658 14.2378L19.1156 14.4978L19.1263 14.5034L19.2658 14.2378ZM19.3439 14.2881L19.1601 14.5252L19.1673 14.5308L19.1748 14.5359L19.3439 14.2881ZM19.9798 15.029L20.2524 14.9036L20.2503 14.8993L19.9798 15.029ZM20.1923 16.0117L20.4923 16.0148L20.4923 16.0133L20.1923 16.0117ZM20.0454 16.9693L19.7583 16.8823L19.758 16.8834L20.0454 16.9693ZM19.6392 17.9205L19.3784 17.7723L19.3778 17.7734L19.6392 17.9205ZM18.8283 18.9095L19.0235 19.1373L19.0237 19.1371L18.8283 18.9095ZM17.8079 19.5547V19.8547H17.8717L17.93 19.8287L17.8079 19.5547ZM17.8001 19.5547V19.2547H17.7353L17.6762 19.2815L17.8001 19.5547ZM16.7595 19.9189L16.686 19.628L16.685 19.6283L16.7595 19.9189ZM15.7079 20.1292L15.6649 19.8323L15.6633 19.8326L15.7079 20.1292ZM14.072 20.1795L14.0453 20.4783L14.0457 20.4783L14.072 20.1795ZM12.4829 19.8655L12.3919 20.1514L12.3941 20.152L12.4829 19.8655ZM10.9376 19.2376L11.0718 18.9693L11.0709 18.9688L10.9376 19.2376ZM9.35013 18.3475L9.50994 18.0936L9.50857 18.0928L9.35013 18.3475ZM9.21888 18.2659L9.05988 18.5203L9.06045 18.5207L9.21888 18.2659ZM7.69857 17.2503L7.51676 17.4889L7.52 17.4913L7.69857 17.2503ZM4.72982 14.4764L4.95557 14.2789L4.95497 14.2782L4.72982 14.4764ZM2.4642 11.2662L2.72642 11.1205L2.72581 11.1194L2.4642 11.2662ZM1.2142 8.03249L1.50654 7.96515L1.50638 7.96445L1.2142 8.03249ZM1.0892 4.96043L0.792611 4.9153L0.792453 4.91636L1.0892 4.96043ZM1.65482 3.22425L1.3887 3.08577L1.38859 3.08598L1.65482 3.22425ZM2.72357 1.91035L2.53539 1.6767L2.53389 1.67792L2.72357 1.91035ZM4.20951 1.15842L4.13495 0.867825L4.1328 0.868392L4.20951 1.15842ZM5.96576 1.02499L5.93593 1.32369L5.94643 1.32436L5.96576 1.02499ZM6.40638 1.17098L6.56977 0.919371L6.56955 0.919229L6.40638 1.17098ZM6.71888 1.50534L6.45683 1.65154L6.46026 1.65738L6.71888 1.50534ZM8.82201 5.08287L8.56339 5.23491L8.57296 5.2512L8.5845 5.26615L8.82201 5.08287ZM9.17357 5.90701L9.47134 5.86972L9.47022 5.86229L9.17357 5.90701ZM9.04545 6.78452L8.77088 6.66363L8.77079 6.66385L9.04545 6.78452ZM8.6392 7.40458L8.41893 7.20091L8.41874 7.20111L8.6392 7.40458ZM8.0892 7.89435L7.91257 7.65186L7.90228 7.65935L7.89267 7.66769L8.0892 7.89435ZM7.68138 8.20831L7.50401 7.96618L7.49667 7.97192L7.68138 8.20831ZM7.66732 8.2193L7.83762 8.46627L7.84499 8.4612L7.85204 8.45569L7.66732 8.2193ZM7.16263 8.62587L7.35173 8.85878L7.35995 8.8521L7.36769 8.84485L7.16263 8.62587ZM7.02201 8.81425L6.74502 8.69902L6.72201 8.75433V8.81425H7.02201ZM7.0517 8.84093L6.79262 8.99263L6.79885 9.00238L7.0517 8.84093ZM7.10482 8.92413L7.35803 8.76323L7.35767 8.76268L7.10482 8.92413ZM8.01107 10.2961L8.2603 10.1291L8.25795 10.1257L8.01107 10.2961ZM9.13295 11.7576L8.9072 11.9552L9.43295 12.5559V11.7576H9.13295ZM9.98451 13.9364L9.80443 14.1764L9.80548 14.1772L9.98451 13.9364ZM8.36263 12.4844L8.13782 12.6832L8.144 12.6898L8.36263 12.4844ZM7.14076 10.8989L7.39023 10.7322L7.38774 10.7286L7.14076 10.8989ZM6.21264 9.48611L6.4676 9.32767L6.46172 9.3189L6.21264 9.48611ZM6.16732 9.41861L6.4164 9.2514L6.40892 9.24025L6.40047 9.22982L6.16732 9.41861ZM5.96264 8.72163L5.66492 8.68439L5.6644 8.6891L5.96264 8.72163ZM6.41107 7.86296L6.6116 8.08626L6.61799 8.08018L6.41107 7.86296ZM7.04389 7.34807L7.21453 7.59492L7.22051 7.59056L7.04389 7.34807ZM7.39545 7.0765L7.2131 6.83828L7.20638 6.84342L7.19996 6.84894L7.39545 7.0765ZM7.42826 7.05138L7.25563 6.80572L7.24591 6.81316L7.42826 7.05138ZM7.84545 6.68562L7.62586 6.4812L7.62469 6.48249L7.84545 6.68562ZM8.0642 6.35754L7.79163 6.2322L7.7911 6.23338L8.0642 6.35754ZM8.11576 6.04358L8.4141 6.01207L8.41278 5.99956L8.41042 5.98721L8.11576 6.04358ZM7.95951 5.71236L8.19038 5.52065L8.18557 5.51514L7.95951 5.71236ZM7.90951 5.64015L8.1738 5.49781L8.16853 5.48879L7.90951 5.64015ZM5.82826 2.07831L6.08728 1.92696L6.00936 1.79361L5.85556 1.77956L5.82826 2.07831ZM4.48295 2.18663L4.40822 1.89608L4.40679 1.89646L4.48295 2.18663ZM3.3892 2.74076L3.20035 2.50765L3.199 2.50876L3.3892 2.74076ZM2.59076 3.72344L2.32478 3.58467L2.32407 3.58606L2.59076 3.72344ZM2.13764 5.12683L1.84096 5.08227L1.84088 5.08285L2.13764 5.12683ZM2.24701 7.79546L1.95485 7.86358L1.95489 7.86374L2.24701 7.79546ZM3.39701 10.7466L3.65919 10.6008L3.6583 10.5992L3.39701 10.7466ZM5.52826 13.7591L5.75393 13.5614L5.75301 13.5603L5.52826 13.7591ZM8.34076 16.3853L8.15901 16.624L8.15921 16.6241L8.34076 16.3853ZM9.78763 17.3491L9.94905 17.0963L9.94625 17.0945L9.78763 17.3491ZM9.92045 17.4339L9.75904 17.6868L9.76047 17.6877L9.92045 17.4339ZM11.4064 18.269L11.5407 18.0008L11.54 18.0004L11.4064 18.269ZM12.7986 18.8326L12.8888 18.5465L12.8887 18.5464L12.7986 18.8326ZM14.1689 19.1089L14.1412 19.4076L14.1431 19.4078L14.1689 19.1089ZM15.5595 19.0649L15.5176 18.7679L15.5149 18.7683L15.5595 19.0649ZM16.497 18.8797L16.4239 18.5887L16.4228 18.589L16.497 18.8797ZM17.3611 18.5783V18.2783H17.2963L17.2374 18.305L17.3611 18.5783ZM17.3751 18.5783V18.8783H17.4389L17.4972 18.8524L17.3751 18.5783ZM18.1439 18.0948L18.338 18.3235L18.3395 18.3222L18.1439 18.0948ZM18.722 17.39L18.4613 17.2415L18.4608 17.2425L18.722 17.39ZM19.0345 16.6632L19.3216 16.7502L19.3217 16.75L19.0345 16.6632ZM19.1376 16.0054L18.8377 15.9989L18.8377 16.0002L19.1376 16.0054ZM19.0298 15.4811L19.3028 15.3567L19.3009 15.3527L19.0298 15.4811ZM18.747 15.1515L18.5719 15.3952L18.579 15.4L18.747 15.1515ZM15.4658 13.2504L15.6166 12.9907L15.6041 12.9842L15.4658 13.2504ZM15.4204 13.2269L15.5588 12.9607L15.551 12.9566L15.543 12.9531L15.4204 13.2269ZM13.8486 14.2441L13.609 14.0632L13.6034 14.0713L13.8486 14.2441ZM13.822 14.2818L14.0621 14.4619L14.0672 14.4547L13.822 14.2818ZM13.3845 14.8187L13.597 15.0305L13.5971 15.0303L13.3845 14.8187ZM13.1173 15.0557L13.2986 15.2947L13.3023 15.2919L13.1173 15.0557ZM12.772 15.2503L12.8823 15.5293L12.8826 15.5292L12.772 15.2503ZM12.4048 15.31L12.3844 15.6093L12.3885 15.6096L12.4048 15.31ZM12.0923 15.2331L12.2131 14.9585L12.213 14.9584L12.0923 15.2331ZM12.0423 15.2111L11.9065 15.4786L11.914 15.4824L11.9216 15.4857L12.0423 15.2111ZM8.91359 11.9591C9.38086 12.4599 9.89129 12.9183 10.4389 13.3288L10.7988 12.8487C10.2795 12.4594 9.79545 12.0248 9.3523 11.5498L8.91359 11.9591ZM10.4394 13.3291C11.0296 13.7699 11.6552 14.161 12.3096 14.4982L12.5844 13.9649C11.9595 13.6428 11.3621 13.2694 10.7984 12.8484L10.4394 13.3291ZM12.6206 14.4763L12.6471 14.4574L12.3 13.968L12.2735 13.9869L12.6206 14.4763ZM12.6615 14.4466C12.7191 14.4003 12.7799 14.3442 12.8394 14.2861L12.4202 13.8568C12.3672 13.9086 12.3218 13.9498 12.2856 13.9789L12.6615 14.4466ZM12.8394 14.2861C12.9034 14.2236 12.9606 14.1547 12.9954 14.1164L12.5517 13.7125C12.4866 13.7841 12.4687 13.8094 12.4202 13.8568L12.8394 14.2861ZM13.0118 14.0968L13.1884 13.866L12.7119 13.5014L12.5353 13.7322L13.0118 14.0968ZM13.2022 13.8464C13.2076 13.838 13.2138 13.8302 13.2206 13.823L12.7859 13.4094C12.7532 13.4438 12.7238 13.4812 12.6981 13.521L13.2022 13.8464ZM13.2427 13.797C13.5852 13.3435 13.9332 12.8974 14.3444 12.6299C14.5442 12.4999 14.7508 12.4182 14.9717 12.3975C15.1913 12.3769 15.4438 12.4149 15.7392 12.5523L15.9923 12.0083C15.6128 11.8318 15.2541 11.7684 14.9157 11.8001C14.5784 11.8317 14.2801 11.956 14.0172 12.127C13.503 12.4615 13.0948 12.9973 12.7639 13.4354L13.2427 13.797ZM15.7505 12.5573C15.7654 12.5635 15.7798 12.5707 15.7936 12.579L16.1004 12.0633C16.0621 12.0405 16.0222 12.0205 15.981 12.0033L15.7505 12.5573ZM15.7938 12.579C16.8893 13.23 18.0173 13.863 19.1157 14.4976L19.4158 13.9781C18.308 13.338 17.1922 12.712 16.1003 12.0632L15.7938 12.579ZM19.1263 14.5034C19.1382 14.5097 19.1495 14.517 19.1601 14.5252L19.5276 14.0509C19.4892 14.0212 19.4483 13.9948 19.4052 13.9722L19.1263 14.5034ZM19.1748 14.5359C19.4043 14.6925 19.5888 14.9073 19.7093 15.1587L20.2503 14.8993C20.0842 14.5529 19.8299 14.2565 19.5129 14.0402L19.1748 14.5359ZM19.7073 15.1544C19.8307 15.4225 19.8939 15.7147 19.8923 16.0101L20.4923 16.0133C20.4943 15.6302 20.4124 15.2514 20.2523 14.9036L19.7073 15.1544ZM19.8923 16.0086C19.8893 16.3048 19.8442 16.599 19.7583 16.8823L20.3326 17.0563C20.4349 16.7185 20.4887 16.3678 20.4923 16.0148L19.8923 16.0086ZM19.758 16.8834C19.6654 17.1932 19.5381 17.4914 19.3784 17.7723L19.9 18.0688C20.0821 17.7485 20.2273 17.4084 20.3329 17.0551L19.758 16.8834ZM19.3778 17.7734C19.184 18.1176 18.9319 18.4251 18.6328 18.6819L19.0237 19.1371C19.3759 18.8347 19.6727 18.4727 19.9006 18.0677L19.3778 17.7734ZM18.6331 18.6817C18.3477 18.9262 18.0286 19.128 17.6859 19.2807L17.93 19.8287C18.3258 19.6524 18.6941 19.4195 19.0235 19.1373L18.6331 18.6817ZM17.8079 19.2547H17.8001V19.8547H17.8079V19.2547ZM17.6762 19.2815C17.357 19.4262 17.0256 19.5422 16.686 19.628L16.833 20.2097C17.2072 20.1152 17.5723 19.9874 17.924 19.8279L17.6762 19.2815ZM16.685 19.6283C16.3488 19.7144 16.0083 19.7825 15.6649 19.8323L15.751 20.4261C16.1156 20.3733 16.4771 20.3009 16.834 20.2095L16.685 19.6283ZM15.6633 19.8326C15.1454 19.9104 14.6201 19.9266 14.0983 19.8806L14.0457 20.4783C14.6147 20.5284 15.1876 20.5108 15.7526 20.4259L15.6633 19.8326ZM14.0988 19.8807C13.5807 19.8343 13.0689 19.7332 12.5718 19.579L12.3941 20.152C12.9315 20.3188 13.485 20.4281 14.0453 20.4783L14.0988 19.8807ZM12.574 19.5796C12.0583 19.4155 11.5561 19.2114 11.0718 18.9693L10.8035 19.5059C11.3156 19.762 11.8466 19.9778 12.3919 20.1514L12.574 19.5796ZM11.0709 18.9688C10.5362 18.7038 10.0152 18.4116 9.50993 18.0936L9.19033 18.6014C9.7128 18.9303 10.2515 19.2323 10.8044 19.5064L11.0709 18.9688ZM9.50857 18.0928L9.37732 18.0112L9.06045 18.5207L9.1917 18.6023L9.50857 18.0928ZM9.37789 18.0115C8.89881 17.7121 8.39031 17.3893 7.87714 17.0092L7.52 17.4913C8.0537 17.8867 8.57959 18.2201 9.05988 18.5203L9.37789 18.0115ZM7.88037 17.0116C6.81683 16.2014 5.83698 15.2859 4.95557 14.2789L4.50408 14.674C5.41194 15.7113 6.42123 16.6543 7.51677 17.4889L7.88037 17.0116ZM4.95497 14.2782C4.10152 13.309 3.35437 12.2504 2.72642 11.1205L2.20197 11.412C2.85078 12.5794 3.62279 13.6733 4.50468 14.6747L4.95497 14.2782ZM2.72581 11.1194C2.17157 10.1319 1.76097 9.06971 1.50654 7.96515L0.921854 8.09984C1.18909 9.25999 1.62037 10.3757 2.20259 11.4131L2.72581 11.1194ZM1.50638 7.96445C1.28045 6.99432 1.23958 5.98994 1.38594 5.00451L0.792453 4.91636C0.635001 5.97644 0.678963 7.05689 0.922017 8.10054L1.50638 7.96445ZM1.38578 5.00557C1.47307 4.432 1.65393 3.87686 1.92106 3.36252L1.38859 3.08598C1.09113 3.65872 0.88978 4.27679 0.792612 4.9153L1.38578 5.00557ZM1.92095 3.36273C2.1657 2.89238 2.50338 2.47727 2.91325 2.14277L2.53389 1.67792C2.06069 2.0641 1.67103 2.54318 1.3887 3.08577L1.92095 3.36273ZM2.91175 2.14399C3.31649 1.81801 3.78475 1.58108 4.28622 1.44845L4.1328 0.868392C3.54981 1.02259 3.00561 1.29799 2.5354 1.6767L2.91175 2.14399ZM4.28407 1.44901C4.82321 1.31067 5.38226 1.2682 5.93594 1.3235L5.99558 0.726473C5.3719 0.664181 4.74219 0.712026 4.13495 0.867832L4.28407 1.44901ZM5.94643 1.32436C6.05199 1.33118 6.15415 1.365 6.24322 1.42273L6.56955 0.919229C6.39445 0.80574 6.19325 0.739052 5.98509 0.725611L5.94643 1.32436ZM6.243 1.42258C6.33166 1.48016 6.40512 1.5587 6.4569 1.6515L6.98087 1.35918C6.88162 1.18127 6.74053 1.03026 6.56977 0.919371L6.243 1.42258ZM6.46026 1.65738L8.56339 5.23491L9.08063 4.93084L6.97751 1.35331L6.46026 1.65738ZM8.5845 5.26615C8.73853 5.46575 8.83924 5.70176 8.87692 5.95173L9.47022 5.86229C9.41735 5.51156 9.27601 5.18015 9.05952 4.8996L8.5845 5.26615ZM8.8759 5.94429C8.90657 6.18925 8.87025 6.43795 8.77088 6.66363L9.32001 6.9054C9.46314 6.58032 9.5154 6.2223 9.47125 5.86973L8.8759 5.94429ZM8.77079 6.66385C8.68402 6.86134 8.56508 7.04285 8.41893 7.20091L8.85946 7.60826C9.05091 7.40121 9.20658 7.16359 9.32011 6.90519L8.77079 6.66385ZM8.41874 7.20111C8.26506 7.36763 8.09552 7.5186 7.91257 7.65186L8.26583 8.13684C8.48051 7.98047 8.6794 7.80336 8.85965 7.60805L8.41874 7.20111ZM7.89267 7.66769C7.78988 7.75681 7.65722 7.85412 7.5041 7.9663L7.85867 8.45032C8.00555 8.34272 8.16039 8.22969 8.28572 8.12102L7.89267 7.66769ZM7.49667 7.97192L7.4826 7.98291L7.85204 8.45569L7.8661 8.4447L7.49667 7.97192ZM7.49702 7.97232C7.30672 8.10354 7.12641 8.2488 6.95758 8.40689L7.36769 8.84485C7.51478 8.70712 7.67186 8.58057 7.83762 8.46627L7.49702 7.97232ZM6.97354 8.39297C6.87315 8.47447 6.79467 8.57968 6.74502 8.69902L7.299 8.92947C7.31054 8.90173 7.32871 8.87747 7.35173 8.85878L6.97354 8.39297ZM6.72201 8.81425C6.72201 8.83365 6.72357 8.87115 6.73833 8.91499C6.75525 8.96523 6.78741 9.01727 6.83922 9.05794C6.88545 9.09422 6.93045 9.10778 6.94814 9.11261C6.9577 9.11523 6.96545 9.11684 6.96764 9.1173C6.96836 9.11745 6.96895 9.11757 6.96929 9.11764C6.96945 9.11768 6.96961 9.11771 6.96969 9.11772C6.96979 9.11774 6.9698 9.11775 6.96982 9.11775C6.96991 9.11777 6.96904 9.11759 6.96786 9.11734C6.95367 9.11428 6.91372 9.10469 6.87114 9.07558C6.83042 9.04774 6.80608 9.01518 6.79281 8.99251L7.31059 8.68935C7.2895 8.65334 7.25755 8.61294 7.20979 8.58028C7.16018 8.54637 7.11378 8.53501 7.09413 8.53078C7.09344 8.53063 7.08549 8.52897 7.09044 8.53C7.09139 8.5302 7.09797 8.53156 7.10642 8.53387C7.12192 8.53811 7.16502 8.55091 7.20968 8.58596C7.23287 8.60416 7.25375 8.62618 7.27113 8.65161C7.28824 8.67666 7.29954 8.70148 7.30696 8.72352C7.32089 8.7649 7.32201 8.79916 7.32201 8.81425H6.72201ZM6.79885 9.00238L6.85197 9.08558L7.35767 8.76268L7.30455 8.67948L6.79885 9.00238ZM6.85162 9.08503C7.02901 9.36418 7.37197 9.89843 7.76419 10.4666L8.25795 10.1257C7.87205 9.5667 7.53376 9.03978 7.35802 8.76323L6.85162 9.08503ZM7.76187 10.4631C8.11139 10.9846 8.49396 11.483 8.9072 11.9552L9.3587 11.56C8.9624 11.1072 8.5955 10.6292 8.26028 10.1291L7.76187 10.4631ZM9.43295 11.7576V11.7544H8.83295V11.7576H9.43295ZM10.1646 13.6965C9.59719 13.2707 9.06745 12.7964 8.58127 12.279L8.144 12.6898C8.65383 13.2324 9.20937 13.7298 9.80443 14.1764L10.1646 13.6965ZM8.58735 12.2856C8.15388 11.7956 7.75392 11.2766 7.3902 10.7322L6.89132 11.0656C7.27005 11.6324 7.68653 12.1728 8.13792 12.6832L8.58735 12.2856ZM7.38774 10.7286C7.00325 10.171 6.6496 9.62089 6.46744 9.32776L5.95783 9.64446C6.14442 9.94471 6.50327 10.5029 6.89378 11.0692L7.38774 10.7286ZM6.46172 9.3189L6.4164 9.2514L5.91824 9.58582L5.96355 9.65332L6.46172 9.3189ZM6.40047 9.22982C6.34709 9.16389 6.30721 9.0879 6.28322 9.00622L5.70753 9.17528C5.75382 9.3329 5.83084 9.47979 5.93418 9.60741L6.40047 9.22982ZM6.28322 9.00622C6.25923 8.92454 6.25163 8.83885 6.26087 8.75415L5.6644 8.6891C5.64659 8.85242 5.66125 9.01767 5.70753 9.17528L6.28322 9.00622ZM6.26032 8.75886C6.2928 8.49912 6.41768 8.26024 6.61152 8.08617L6.21063 7.63975C5.909 7.91062 5.71532 8.2817 5.66496 8.68439L6.26032 8.75886ZM6.61799 8.08018C6.80395 7.90304 7.00339 7.74077 7.21448 7.59484L6.87329 7.10129C6.63647 7.26501 6.41274 7.44704 6.20416 7.64574L6.61799 8.08018ZM7.22051 7.59056C7.34533 7.49965 7.47297 7.4054 7.59094 7.30406L7.19996 6.84894C7.1023 6.93283 6.99244 7.01439 6.86726 7.10558L7.22051 7.59056ZM7.57779 7.31472L7.61061 7.2896L7.24591 6.81316L7.2131 6.83828L7.57779 7.31472ZM7.60075 7.29684C7.77 7.1779 7.92604 7.04108 8.06621 6.88876L7.62469 6.48249C7.51355 6.60326 7.38987 6.71169 7.25577 6.80593L7.60075 7.29684ZM8.06503 6.89003C8.17719 6.76954 8.26913 6.63164 8.3373 6.4817L7.7911 6.23338C7.74968 6.32447 7.69387 6.40816 7.62587 6.48121L8.06503 6.89003ZM8.33676 6.48288C8.40441 6.33577 8.43111 6.17308 8.4141 6.01207L7.81742 6.0751C7.8231 6.1289 7.81417 6.1832 7.79163 6.2322L8.33676 6.48288ZM8.41042 5.98721C8.37759 5.81562 8.3019 5.65509 8.19032 5.52071L7.7287 5.904C7.77544 5.96029 7.80728 6.0277 7.8211 6.09996L8.41042 5.98721ZM8.18557 5.51514C8.18099 5.50988 8.17698 5.50411 8.17364 5.4979L7.64538 5.78239C7.6699 5.82793 7.69944 5.87059 7.73345 5.90957L8.18557 5.51514ZM8.16853 5.48879L6.08728 1.92696L5.56924 2.22966L7.65049 5.7915L8.16853 5.48879ZM5.85556 1.77956C5.37002 1.7352 4.88051 1.77461 4.40822 1.89608L4.55768 2.47717C4.96341 2.37282 5.3839 2.33896 5.80096 2.37707L5.85556 1.77956ZM4.40679 1.89646C3.96603 2.01214 3.55483 2.22049 3.20036 2.50765L3.57804 2.97387C3.86645 2.74023 4.20085 2.57083 4.55911 2.4768L4.40679 1.89646ZM3.199 2.50876C2.83823 2.80452 2.54087 3.17052 2.32479 3.58467L2.85673 3.86222C3.03546 3.51968 3.28131 3.21713 3.57939 2.97276L3.199 2.50876ZM2.32407 3.58606C2.08255 4.0549 1.91935 4.56036 1.84096 5.08227L2.43431 5.17139C2.50298 4.71416 2.64595 4.27141 2.85745 3.86083L2.32407 3.58606ZM1.84088 5.08285C1.70367 6.00866 1.74234 6.95222 1.95485 7.86358L2.53917 7.72733C2.3438 6.88947 2.30825 6.02199 2.43439 5.17081L1.84088 5.08285ZM1.95489 7.86374C2.20299 8.92511 2.6006 9.9455 3.13572 10.8941L3.6583 10.5992C3.15116 9.70029 2.7743 8.73318 2.53914 7.72717L1.95489 7.86374ZM3.13483 10.8925C3.74525 11.99 4.47239 13.0178 5.30351 13.9578L5.75301 13.5603C4.95062 12.6528 4.24857 11.6605 3.65919 10.6008L3.13483 10.8925ZM5.30259 13.9567C6.16349 14.9396 7.12042 15.8331 8.15901 16.624L8.52251 16.1466C7.5159 15.3801 6.58839 14.514 5.75393 13.5614L5.30259 13.9567ZM8.15921 16.6241C8.64108 16.9904 9.16283 17.3134 9.62902 17.6038L9.94625 17.0945C9.47494 16.8009 8.97794 16.4928 8.52231 16.1465L8.15921 16.6241ZM9.62623 17.602L9.75904 17.6868L10.0819 17.181L9.94904 17.0963L9.62623 17.602ZM9.76047 17.6877C10.2501 17.9963 10.7548 18.28 11.2728 18.5376L11.54 18.0004C11.0401 17.7518 10.5529 17.478 10.0804 17.1801L9.76047 17.6877ZM11.2721 18.5373C11.7348 18.769 12.2151 18.9634 12.7085 19.1187L12.8887 18.5464C12.4257 18.4007 11.975 18.2182 11.5407 18.0008L11.2721 18.5373ZM12.7083 19.1187C13.1744 19.2657 13.6547 19.3625 14.1412 19.4076L14.1965 18.8102C13.7526 18.769 13.3142 18.6807 12.8888 18.5465L12.7083 19.1187ZM14.1431 19.4078C14.6302 19.4498 15.1206 19.4343 15.6041 19.3616L15.5149 18.7683C15.078 18.8339 14.6349 18.8479 14.1947 18.81L14.1431 19.4078ZM15.6014 19.362C15.9279 19.3159 16.2517 19.2519 16.5712 19.1704L16.4228 18.589C16.1245 18.6651 15.8223 18.7249 15.5176 18.7679L15.6014 19.362ZM16.5701 19.1706C16.8838 19.0918 17.19 18.9851 17.4848 18.8516L17.2374 18.305C16.9751 18.4237 16.7029 18.5186 16.4239 18.5887L16.5701 19.1706ZM17.3611 18.8783H17.3751V18.2783H17.3611V18.8783ZM17.4972 18.8524C17.8011 18.7171 18.0842 18.539 18.338 18.3235L17.9497 17.8661C17.7394 18.0446 17.5048 18.1922 17.2531 18.3042L17.4972 18.8524ZM18.3395 18.3222C18.5978 18.1 18.8156 17.8344 18.9833 17.5374L18.4608 17.2425C18.3272 17.4791 18.1538 17.6906 17.9482 17.8674L18.3395 18.3222ZM18.9827 17.5385C19.1247 17.2893 19.2383 17.0248 19.3216 16.7502L18.7474 16.5761C18.6771 16.808 18.5812 17.0311 18.4613 17.2415L18.9827 17.5385ZM19.3217 16.75C19.3942 16.5101 19.4332 16.2613 19.4376 16.0107L18.8377 16.0002C18.8343 16.1955 18.8039 16.3894 18.7474 16.5763L19.3217 16.75ZM19.4376 16.012C19.4425 15.7862 19.3964 15.5621 19.3028 15.3567L18.7568 15.6055C18.813 15.7288 18.8407 15.8632 18.8377 15.9989L19.4376 16.012ZM19.3009 15.3527C19.2148 15.1709 19.0816 15.0155 18.915 14.9029L18.579 15.4C18.6564 15.4523 18.7185 15.5246 18.7587 15.6095L19.3009 15.3527ZM18.9221 14.9078C18.4836 14.5927 17.8871 14.248 17.2917 13.918C16.6883 13.5834 16.0892 13.2656 15.6164 12.991L15.3151 13.5099C15.7938 13.7879 16.4128 14.1168 17.0008 14.4427C17.5968 14.7731 18.1651 15.1027 18.5719 15.3951L18.9221 14.9078ZM15.6041 12.9842L15.5588 12.9607L15.2821 13.4931L15.3274 13.5166L15.6041 12.9842ZM15.543 12.9531C15.0971 12.7536 14.6917 12.9419 14.3919 13.1844C14.094 13.4254 13.8261 13.7761 13.6092 14.0633L14.088 14.4249C14.3133 14.1266 14.5383 13.8377 14.7693 13.6509C14.9984 13.4656 15.1578 13.4381 15.2979 13.5007L15.543 12.9531ZM13.6034 14.0713L13.5768 14.1089L14.0672 14.4547L14.0938 14.417L13.6034 14.0713ZM13.582 14.1017C13.5218 14.1821 13.4179 14.3134 13.3618 14.3895L13.8447 14.7455C13.9136 14.6521 13.9691 14.5856 14.062 14.4618L13.582 14.1017ZM13.3618 14.3895C13.3109 14.4585 13.2279 14.5507 13.1719 14.607L13.5971 15.0303C13.6661 14.961 13.7706 14.846 13.8447 14.7455L13.3618 14.3895ZM13.1721 14.6068C13.0965 14.6826 13.0165 14.7536 12.9323 14.8195L13.3023 15.2919C13.4057 15.2109 13.5041 15.1236 13.597 15.0305L13.1721 14.6068ZM12.936 14.8167C12.8518 14.8805 12.7595 14.9326 12.6614 14.9715L12.8826 15.5292C13.0312 15.4703 13.1712 15.3914 13.2986 15.2947L12.936 14.8167ZM12.6617 14.9714C12.5852 15.0016 12.5032 15.0149 12.4212 15.0104L12.3885 15.6096C12.5569 15.6187 12.7254 15.5914 12.8823 15.5293L12.6617 14.9714ZM12.4252 15.0107C12.3521 15.0057 12.2803 14.9881 12.2131 14.9585L11.9715 15.5077C12.1023 15.5652 12.2419 15.5996 12.3844 15.6093L12.4252 15.0107ZM12.213 14.9584L12.163 14.9365L11.9216 15.4857L11.9716 15.5077L12.213 14.9584ZM12.1781 14.9436C11.4727 14.5856 10.7988 14.1681 10.1635 13.6957L9.80548 14.1772C10.468 14.6698 11.1708 15.1052 11.9065 15.4786L12.1781 14.9436Z" fill="#FFEDED" mask="url(#path-1-outside-1_291_954)"/>
</svg>
