<svg width="58" height="50" viewBox="0 0 58 50" fill="none" xmlns="http://www.w3.org/2000/svg">
<path d="M49.7394 8.11681H39.3028L36.5802 1.4716C36.2195 0.586342 35.3469 0 34.3812 0H23.6421C22.6764 0 21.8037 0.574845 21.443 1.4716L18.7204 8.11681H8.27219C3.97887 8.11681 0.5 11.5659 0.5 15.7967V42.3201C0.5 46.5624 3.99051 50 8.27219 50H49.7278C54.0211 50 57.5 46.5509 57.5 42.3201V15.7967C57.5116 11.5659 54.0211 8.11681 49.7394 8.11681ZM25.2361 4.69073H32.7756L34.1718 8.10531H23.8282L25.2361 4.69073ZM52.7645 42.3201C52.7645 43.9641 51.4032 45.3093 49.7394 45.3093H8.27219C6.60839 45.3093 5.24709 43.9641 5.24709 42.3201V15.7967C5.24709 14.1527 6.60839 12.8075 8.27219 12.8075H49.7278C51.3916 12.8075 52.7529 14.1527 52.7529 15.7967V42.3201H52.7645Z" fill="#FFEDED"/>
<path d="M29.0057 16.2334C21.8501 16.2334 16.021 21.9933 16.021 29.0639C16.021 36.146 21.8501 41.8945 29.0057 41.8945C36.1612 41.8945 41.9904 36.1345 41.9904 29.0639C41.9904 21.9818 36.1612 16.2334 29.0057 16.2334ZM29.0057 37.2037C24.468 37.2037 20.7681 33.5477 20.7681 29.0639C20.7681 24.5801 24.468 20.9241 29.0057 20.9241C33.5433 20.9241 37.2433 24.5801 37.2433 29.0639C37.2433 33.5477 33.5433 37.2037 29.0057 37.2037Z" fill="#FFEDED"/>
</svg>
