<svg width="60" height="81" viewBox="0 0 60 81" fill="none" xmlns="http://www.w3.org/2000/svg">
<rect y="41" width="60" height="40" rx="6" fill="#750033"/>
<path d="M15.8505 72.812C15.6825 72.996 15.4865 73.176 15.2625 73.352C15.0465 73.52 14.7945 73.672 14.5065 73.808C14.2265 73.936 13.9145 74.036 13.5705 74.108C13.2345 74.188 12.8625 74.228 12.4545 74.228C11.8545 74.228 11.3145 74.14 10.8345 73.964C10.3545 73.788 9.9465 73.54 9.6105 73.22C9.2745 72.892 9.0145 72.5 8.8305 72.044C8.6465 71.588 8.5545 71.084 8.5545 70.532C8.5545 69.804 8.6825 69.12 8.9385 68.48C9.1945 67.84 9.5465 67.284 9.9945 66.812C10.4505 66.332 10.9865 65.956 11.6025 65.684C12.2185 65.412 12.8865 65.276 13.6065 65.276C14.2785 65.276 14.8825 65.396 15.4185 65.636C15.9545 65.868 16.3585 66.168 16.6305 66.536L15.1545 67.856C15.0185 67.648 14.8145 67.464 14.5425 67.304C14.2785 67.144 13.9465 67.064 13.5465 67.064C13.1225 67.064 12.7345 67.156 12.3825 67.34C12.0385 67.516 11.7385 67.756 11.4825 68.06C11.2345 68.356 11.0385 68.7 10.8945 69.092C10.7585 69.476 10.6905 69.876 10.6905 70.292C10.6905 70.58 10.7345 70.856 10.8225 71.12C10.9185 71.376 11.0545 71.6 11.2305 71.792C11.4065 71.984 11.6225 72.136 11.8785 72.248C12.1425 72.36 12.4425 72.416 12.7785 72.416C13.1545 72.416 13.5105 72.336 13.8465 72.176C14.1825 72.016 14.4785 71.788 14.7345 71.492L15.8505 72.812ZM18.165 71.528C18.157 71.56 18.153 71.596 18.153 71.636C18.153 71.804 18.189 71.956 18.261 72.092C18.341 72.22 18.441 72.332 18.561 72.428C18.689 72.516 18.829 72.584 18.981 72.632C19.141 72.68 19.305 72.704 19.473 72.704C19.777 72.704 20.045 72.648 20.277 72.536C20.509 72.424 20.717 72.272 20.901 72.08L22.113 73.028C21.729 73.436 21.301 73.732 20.829 73.916C20.357 74.092 19.849 74.18 19.305 74.18C18.889 74.18 18.501 74.12 18.141 74C17.789 73.888 17.481 73.72 17.217 73.496C16.953 73.264 16.745 72.98 16.593 72.644C16.441 72.308 16.365 71.924 16.365 71.492C16.365 70.98 16.453 70.504 16.629 70.064C16.813 69.616 17.061 69.228 17.373 68.9C17.693 68.572 18.073 68.316 18.513 68.132C18.953 67.94 19.437 67.844 19.965 67.844C20.357 67.844 20.713 67.9 21.033 68.012C21.361 68.124 21.641 68.288 21.873 68.504C22.105 68.712 22.285 68.972 22.413 69.284C22.541 69.596 22.605 69.956 22.605 70.364C22.605 70.508 22.589 70.692 22.557 70.916C22.533 71.132 22.497 71.336 22.449 71.528H18.165ZM20.889 70.352C20.897 70.312 20.901 70.272 20.901 70.232C20.901 70.192 20.901 70.152 20.901 70.112C20.901 69.848 20.805 69.628 20.613 69.452C20.429 69.276 20.161 69.188 19.809 69.188C19.593 69.188 19.397 69.228 19.221 69.308C19.053 69.38 18.905 69.472 18.777 69.584C18.649 69.696 18.545 69.82 18.465 69.956C18.385 70.092 18.329 70.224 18.297 70.352H20.889ZM26.06 68.888C26.252 68.592 26.508 68.348 26.828 68.156C27.148 67.964 27.516 67.868 27.932 67.868C28.268 67.868 28.556 67.916 28.796 68.012C29.036 68.108 29.232 68.24 29.384 68.408C29.544 68.576 29.66 68.772 29.732 68.996C29.804 69.212 29.84 69.44 29.84 69.68C29.84 69.792 29.836 69.904 29.828 70.016C29.82 70.12 29.804 70.224 29.78 70.328L29.132 74H27.212L27.776 70.76C27.816 70.576 27.836 70.408 27.836 70.256C27.836 70.032 27.776 69.844 27.656 69.692C27.544 69.532 27.34 69.452 27.044 69.452C26.868 69.452 26.708 69.488 26.564 69.56C26.428 69.624 26.304 69.716 26.192 69.836C26.088 69.956 26 70.096 25.928 70.256C25.864 70.416 25.816 70.584 25.784 70.76L25.208 74H23.288L24.116 69.26C24.148 69.108 24.18 68.912 24.212 68.672C24.252 68.432 24.28 68.216 24.296 68.024H26.132C26.124 68.12 26.108 68.256 26.084 68.432C26.068 68.608 26.052 68.76 26.036 68.888H26.06ZM30.6708 69.476L30.9348 68.024H31.8828L32.1588 66.44H34.0308L33.7548 68.024H35.0268L34.7628 69.476H33.5268L33.0948 71.816C33.0868 71.872 33.0788 71.932 33.0708 71.996C33.0708 72.052 33.0708 72.1 33.0708 72.14C33.0708 72.34 33.1268 72.476 33.2388 72.548C33.3508 72.62 33.5028 72.656 33.6948 72.656C33.7908 72.656 33.8828 72.648 33.9708 72.632C34.0668 72.616 34.1508 72.6 34.2228 72.584L34.0428 73.964C33.9308 74.012 33.7708 74.052 33.5628 74.084C33.3628 74.124 33.1708 74.144 32.9868 74.144C32.4108 74.144 31.9548 74.028 31.6188 73.796C31.2908 73.564 31.1268 73.196 31.1268 72.692C31.1268 72.596 31.1308 72.488 31.1388 72.368C31.1548 72.24 31.1748 72.12 31.1988 72.008L31.6548 69.476H30.6708ZM37.7899 68.9C37.9819 68.596 38.2099 68.348 38.4739 68.156C38.7459 67.964 39.0699 67.868 39.4459 67.868C39.5179 67.868 39.5899 67.872 39.6619 67.88C39.7419 67.888 39.8059 67.9 39.8539 67.916L39.5419 69.62C39.4539 69.596 39.3699 69.58 39.2899 69.572C39.2099 69.564 39.1339 69.56 39.0619 69.56C38.7819 69.56 38.5459 69.608 38.3539 69.704C38.1619 69.8 38.0019 69.92 37.8739 70.064C37.7539 70.2 37.6619 70.348 37.5979 70.508C37.5419 70.668 37.5019 70.808 37.4779 70.928L36.9379 74H35.0179L35.8699 69.26C35.9019 69.108 35.9339 68.912 35.9659 68.672C36.0059 68.432 36.0339 68.216 36.0499 68.024H37.8739C37.8739 68.064 37.8699 68.124 37.8619 68.204C37.8539 68.276 37.8419 68.356 37.8259 68.444C37.8179 68.524 37.8059 68.608 37.7899 68.696C37.7819 68.776 37.7739 68.844 37.7659 68.9H37.7899ZM41.3681 71.528C41.3601 71.56 41.3561 71.596 41.3561 71.636C41.3561 71.804 41.3921 71.956 41.4641 72.092C41.5441 72.22 41.6441 72.332 41.7641 72.428C41.8921 72.516 42.0321 72.584 42.1841 72.632C42.3441 72.68 42.5081 72.704 42.6761 72.704C42.9801 72.704 43.2481 72.648 43.4801 72.536C43.7121 72.424 43.9201 72.272 44.1041 72.08L45.3161 73.028C44.9321 73.436 44.5041 73.732 44.0321 73.916C43.5601 74.092 43.0521 74.18 42.5081 74.18C42.0921 74.18 41.7041 74.12 41.3441 74C40.9921 73.888 40.6841 73.72 40.4201 73.496C40.1561 73.264 39.9481 72.98 39.7961 72.644C39.6441 72.308 39.5681 71.924 39.5681 71.492C39.5681 70.98 39.6561 70.504 39.8321 70.064C40.0161 69.616 40.2641 69.228 40.5761 68.9C40.8961 68.572 41.2761 68.316 41.7161 68.132C42.1561 67.94 42.6401 67.844 43.1681 67.844C43.5601 67.844 43.9161 67.9 44.2361 68.012C44.5641 68.124 44.8441 68.288 45.0761 68.504C45.3081 68.712 45.4881 68.972 45.6161 69.284C45.7441 69.596 45.8081 69.956 45.8081 70.364C45.8081 70.508 45.7921 70.692 45.7601 70.916C45.7361 71.132 45.7001 71.336 45.6521 71.528H41.3681ZM44.0921 70.352C44.1001 70.312 44.1041 70.272 44.1041 70.232C44.1041 70.192 44.1041 70.152 44.1041 70.112C44.1041 69.848 44.0081 69.628 43.8161 69.452C43.6321 69.276 43.3641 69.188 43.0121 69.188C42.7961 69.188 42.6001 69.228 42.4241 69.308C42.2561 69.38 42.1081 69.472 41.9801 69.584C41.8521 69.696 41.7481 69.82 41.6681 69.956C41.5881 70.092 41.5321 70.224 41.5001 70.352H44.0921ZM47.1871 72.092C47.3391 72.316 47.5391 72.488 47.7871 72.608C48.0431 72.72 48.3031 72.776 48.5671 72.776C48.8231 72.776 49.0271 72.728 49.1791 72.632C49.3391 72.536 49.4191 72.404 49.4191 72.236C49.4191 72.076 49.3471 71.952 49.2031 71.864C49.0591 71.776 48.8471 71.688 48.5671 71.6C48.2871 71.52 48.0391 71.432 47.8231 71.336C47.6151 71.232 47.4391 71.116 47.2951 70.988C47.1511 70.852 47.0431 70.7 46.9711 70.532C46.8991 70.356 46.8631 70.152 46.8631 69.92C46.8631 69.592 46.9351 69.3 47.0791 69.044C47.2311 68.788 47.4271 68.572 47.6671 68.396C47.9151 68.212 48.2031 68.076 48.5311 67.988C48.8591 67.892 49.2031 67.844 49.5631 67.844C50.0271 67.844 50.4591 67.924 50.8591 68.084C51.2671 68.236 51.5911 68.464 51.8311 68.768L50.6191 69.788C50.5071 69.628 50.3511 69.496 50.1511 69.392C49.9591 69.288 49.7271 69.236 49.4551 69.236C49.2471 69.236 49.0551 69.276 48.8791 69.356C48.7111 69.436 48.6271 69.572 48.6271 69.764C48.6271 69.9 48.6911 70.008 48.8191 70.088C48.9471 70.16 49.1431 70.232 49.4071 70.304C49.9671 70.456 50.4071 70.668 50.7271 70.94C51.0551 71.204 51.2191 71.592 51.2191 72.104C51.2191 72.464 51.1391 72.78 50.9791 73.052C50.8271 73.316 50.6231 73.536 50.3671 73.712C50.1191 73.88 49.8311 74.004 49.5031 74.084C49.1831 74.172 48.8551 74.216 48.5191 74.216C47.9671 74.216 47.4751 74.124 47.0431 73.94C46.6111 73.756 46.2591 73.504 45.9871 73.184L47.1871 72.092Z" fill="#FFEDED"/>
<rect width="60" height="60" rx="6" fill="#FF0070"/>
<path d="M34.7591 40.2438L34.7582 40.2442C31.7707 41.4853 28.4161 41.5078 25.4123 40.3067L25.2905 40.258L25.2866 40.1269C25.2593 39.2078 24.8745 38.3355 24.2142 37.6956C23.5538 37.0556 22.6699 36.6985 21.7504 36.7H21.75C19.7815 36.7 18.2 38.2814 18.2 40.25C18.2 42.2185 19.7815 43.8 21.75 43.8C22.729 43.8 23.6132 43.4081 24.2534 42.7707L24.347 42.6776L24.4694 42.727C26.2269 43.4364 28.1046 43.8007 29.9999 43.8H30.0004C32.9108 43.8056 35.758 42.9515 38.1848 41.3449C40.6116 39.7383 42.5098 37.4507 43.6412 34.7692C44.3842 33.0047 44.7772 31.1132 44.7991 29.2H42.1988C42.1767 30.7668 41.8527 32.3154 41.2438 33.7606M41.2438 33.7606C41.2438 33.7606 41.2438 33.7606 41.2438 33.7606L41.0595 33.683L41.2438 33.7606ZM25.2403 17.7558L25.2396 17.7561C23.7898 18.3648 22.4729 19.2507 21.3626 20.3641C20.2499 21.4743 19.3641 22.7906 18.7547 24.2394C18.1472 25.6826 17.8265 27.2157 17.8016 28.8H15.201C15.2223 26.9234 15.6012 25.0674 16.3179 23.3315C17.06 21.5342 18.1496 19.9012 19.5244 18.526C20.8862 17.1656 22.4696 16.1003 24.2305 15.3604L24.2307 15.3603C27.7997 13.8555 31.933 13.833 35.5312 15.2732L35.6534 15.3221L35.7466 15.2292C36.3868 14.5919 37.271 14.2 38.25 14.2C40.2186 14.2 41.8 15.7815 41.8 17.75C41.8 19.7185 40.2186 21.3 38.25 21.3L38.2498 21.3C37.3301 21.3012 36.4462 20.9439 35.7857 20.304C35.1252 19.6642 34.74 18.7921 34.7119 17.8729L34.7079 17.7419L34.5863 17.6933C31.5824 16.4922 28.2278 16.5146 25.2403 17.7558Z" fill="#750033" stroke="#750033" stroke-width="0.4"/>
<path d="M27.2 29C27.2 27.4564 28.4564 26.2 30 26.2C31.5436 26.2 32.8 27.4564 32.8 29C32.8 30.5436 31.5436 31.8 30 31.8C28.4564 31.8 27.2 30.5436 27.2 29Z" fill="#750033" stroke="#750033" stroke-width="0.4"/>
</svg>
