<svg width="40" height="41" viewBox="0 0 40 41" fill="none" xmlns="http://www.w3.org/2000/svg">
<rect width="40" height="40" rx="6" fill="#750033"/>
<g filter="url(#filter0_d_1452_294)">
<path d="M15.866 10.2304L15.8653 10.2307C14.6054 10.7593 13.461 11.5292 12.4965 12.4969C11.5119 13.4822 10.7315 14.6522 10.2002 15.9398C9.69429 17.1657 9.42357 18.4752 9.40147 19.8H7.20118C7.22349 18.1546 7.56272 16.5282 8.20098 15.0101C8.84081 13.4888 9.77111 12.1068 10.9398 10.9415L10.9402 10.9412C12.1061 9.77297 13.4885 8.84311 15.0101 8.20357L15.0103 8.20349C18.0968 6.90207 21.6718 6.88262 24.7838 8.12818L24.9059 8.17708L24.9992 8.08423C25.5492 7.53669 26.3088 7.2 27.15 7.2C28.8413 7.2 30.2 8.55865 30.2 10.25C30.2 11.9413 28.8413 13.3 27.15 13.3L27.1497 13.3C26.3596 13.3013 25.6003 12.9944 25.033 12.4447C24.4656 11.8949 24.1351 11.1455 24.1116 10.3558L24.1077 10.2248L23.9859 10.1761C21.3762 9.13257 18.4616 9.15206 15.866 10.2304ZM24.134 29.7695L24.1349 29.7692L29.5849 24.0586L29.7692 24.1362C29.7692 24.1362 29.7692 24.1362 29.7692 24.1362C30.2948 22.8886 30.5761 21.5524 30.5985 20.2H32.7988C32.7765 21.8455 32.4368 23.4719 31.7977 24.9897C30.8192 27.3088 29.1775 29.2872 27.0788 30.6766C24.9799 32.0661 22.5175 32.8048 20.0004 32.7999H19.9999C18.3607 32.8009 16.7367 32.4858 15.2168 31.872L15.0944 31.8226L15.0008 31.9157C14.4508 32.4632 13.6912 32.7999 12.85 32.7999C11.1587 32.7999 9.80002 31.4413 9.80002 29.75C9.80002 28.0586 11.1587 26.7 12.85 26.7L12.8503 26.7C13.6404 26.6987 14.3997 27.0055 14.967 27.5553C15.5344 28.1051 15.8649 28.8544 15.8884 29.6441L15.8923 29.7752L16.0141 29.8239C18.6238 30.8674 21.5384 30.8479 24.134 29.7695Z" fill="#FFEDED" stroke="#750033" stroke-width="0.4"/>
<path d="M14.3006 20C14.3006 16.8578 16.8578 14.3006 20 14.3006C23.1421 14.3006 25.6994 16.8578 25.6994 20C25.6994 23.1421 23.1421 25.6994 20 25.6994C16.8578 25.6994 14.3006 23.1421 14.3006 20ZM16.5006 20C16.5006 21.9291 18.0708 23.4994 20 23.4994C21.9291 23.4994 23.4994 21.9291 23.4994 20C23.4994 18.0708 21.9291 16.5006 20 16.5006C18.0708 16.5006 16.5006 18.0708 16.5006 20Z" fill="#FFEDED" stroke="#750033" stroke-width="0.4"/>
</g>
<defs>
<filter id="filter0_d_1452_294" x="3" y="7" width="34" height="34" filterUnits="userSpaceOnUse" color-interpolation-filters="sRGB">
<feFlood flood-opacity="0" result="BackgroundImageFix"/>
<feColorMatrix in="SourceAlpha" type="matrix" values="0 0 0 0 0 0 0 0 0 0 0 0 0 0 0 0 0 0 127 0" result="hardAlpha"/>
<feOffset dy="4"/>
<feGaussianBlur stdDeviation="2"/>
<feComposite in2="hardAlpha" operator="out"/>
<feColorMatrix type="matrix" values="0 0 0 0 0 0 0 0 0 0 0 0 0 0 0 0 0 0 0.25 0"/>
<feBlend mode="normal" in2="BackgroundImageFix" result="effect1_dropShadow_1452_294"/>
<feBlend mode="normal" in="SourceGraphic" in2="effect1_dropShadow_1452_294" result="shape"/>
</filter>
</defs>
</svg>
