<svg width="20" height="20" viewBox="0 0 20 20" fill="none" xmlns="http://www.w3.org/2000/svg">
<rect width="20" height="20" rx="6" fill="#750033"/>
<path d="M4.31234 15.8199H15.6877C16.4113 15.8199 17 15.2312 17 14.5075V6.60894C17 5.88529 16.4113 5.2966 15.6877 5.2966H13.1612V4.31234C13.1612 3.58869 12.5726 3 11.8489 3H8.15111C7.42746 3 6.83877 3.58869 6.83877 4.31234V5.2966H4.31234C3.58869 5.2966 3 5.88526 3 6.60894V14.5075C3 15.2312 3.58869 15.8199 4.31234 15.8199ZM15.6877 14.945H4.31234C4.07097 14.945 3.87489 14.7489 3.87489 14.5076V9.53137H5.55889V10.3697H6.43377V9.53137H13.5662V10.3697H14.4411V9.53137H16.1251V14.5075C16.1251 14.7489 15.929 14.945 15.6877 14.945ZM7.71366 4.31234C7.71366 4.0712 7.90974 3.87489 8.15111 3.87489H11.8489C12.0903 3.87489 12.2864 4.07117 12.2864 4.31234V5.2966H7.71366V4.31234ZM4.31234 6.17149H15.6877C15.929 6.17149 16.1251 6.36777 16.1251 6.60894V8.65649H14.4411V7.81834H13.5662V8.65649H6.4338V7.81834H5.55889V8.65649H3.87489V6.60894C3.87489 6.3678 4.07097 6.17149 4.31234 6.17149Z" fill="#FFEDED"/>
</svg>
