<svg width="20" height="20" viewBox="0 0 20 20" fill="none" xmlns="http://www.w3.org/2000/svg">
<rect width="20" height="20" rx="6" fill="#750033"/>
<path d="M4.62069 14.4545H6.48276V16.3636C6.48276 16.7151 6.76066 17 7.10345 17H15.3793C15.7221 17 16 16.7151 16 16.3636V6.18182C16 5.83038 15.7221 5.54545 15.3793 5.54545H13.5172V3.63636C13.5172 3.28492 13.2393 3 12.8966 3H4.62069C4.2779 3 4 3.28492 4 3.63636V13.8182C4 14.1696 4.2779 14.4545 4.62069 14.4545ZM14.7586 15.7273H7.72414V6.81818H14.7586V15.7273ZM5.24138 4.27273H12.2759V5.54545H7.10345C6.76066 5.54545 6.48276 5.83038 6.48276 6.18182V13.1818H5.24138V4.27273Z" fill="#FFEDED"/>
<path d="M9.58627 8.09082C9.24348 8.09082 8.96558 8.37574 8.96558 8.72718C8.96558 9.07863 9.24348 9.36355 9.58627 9.36355H12.8966C13.2394 9.36355 13.5173 9.07863 13.5173 8.72718C13.5173 8.37574 13.2394 8.09082 12.8966 8.09082H9.58627Z" fill="#FFEDED"/>
<path d="M12.8966 10.6367H9.58627C9.24348 10.6367 8.96558 10.9216 8.96558 11.2731C8.96558 11.6245 9.24348 11.9094 9.58627 11.9094H12.8966C13.2394 11.9094 13.5173 11.6245 13.5173 11.2731C13.5173 10.9216 13.2394 10.6367 12.8966 10.6367Z" fill="#FFEDED"/>
<path d="M12.8966 13.1816H9.58627C9.24348 13.1816 8.96558 13.4666 8.96558 13.818C8.96558 14.1694 9.24348 14.4544 9.58627 14.4544H12.8966C13.2394 14.4544 13.5173 14.1694 13.5173 13.818C13.5173 13.4666 13.2394 13.1816 12.8966 13.1816Z" fill="#FFEDED"/>
</svg>
