<svg width="40" height="40" viewBox="0 0 40 40" fill="none" xmlns="http://www.w3.org/2000/svg">
<rect width="40" height="40" rx="6" fill="#750033"/>
<path d="M15.8647 10.2304L15.864 10.2307C14.6043 10.7596 13.4601 11.5293 12.4954 12.4967C11.5286 13.4613 10.759 14.605 10.2295 15.8638C9.70505 17.1098 9.42656 18.4328 9.40183 19.8H7.20117C7.22296 18.1861 7.55042 16.5904 8.16683 15.0975C8.80862 13.5431 9.75102 12.1307 10.94 10.9414C12.1178 9.76482 13.4872 8.84346 15.0101 8.20358L15.0103 8.20349C18.0968 6.90207 21.6718 6.88262 24.7838 8.12818L24.9059 8.17708L24.9992 8.08423C25.5492 7.53669 26.3088 7.2 27.15 7.2C28.8413 7.2 30.2 8.55865 30.2 10.25C30.2 11.9413 28.8413 13.3 27.15 13.3L27.1497 13.3C26.3597 13.301 25.6003 12.9941 25.0328 12.4443C24.4653 11.8946 24.1344 11.1454 24.1103 10.3557L24.1063 10.2247L23.9846 10.1761C21.3749 9.13257 18.4603 9.15206 15.8647 10.2304ZM24.134 29.7695L24.1349 29.7692L29.5849 24.0586L29.7692 24.1362C29.7692 24.1362 29.7692 24.1362 29.7692 24.1362C30.2948 22.8886 30.5761 21.5524 30.5985 20.2H32.7988C32.7765 21.8455 32.4368 23.4719 31.7977 24.9897C30.8192 27.3088 29.1775 29.2872 27.0788 30.6766C24.9799 32.0661 22.5175 32.8048 20.0004 32.7999H19.9999C18.3607 32.8006 16.7368 32.4855 15.2168 31.872L15.0944 31.8226L15.0008 31.9157C14.4508 32.4632 13.6912 32.7999 12.85 32.7999C11.1587 32.7999 9.80002 31.4413 9.80002 29.7499C9.80002 28.0586 11.1587 26.7 12.85 26.7L12.8503 26.7C13.6404 26.6987 14.3997 27.0055 14.967 27.5553C15.5344 28.1051 15.8649 28.8544 15.8884 29.6441L15.8923 29.7752L16.0141 29.8239C18.6238 30.8674 21.5384 30.8479 24.134 29.7695Z" fill="#FFEDED" stroke="#750033" stroke-width="0.4"/>
<path d="M14.3006 20C14.3006 16.8578 16.8578 14.3006 20 14.3006C23.1421 14.3006 25.6994 16.8578 25.6994 20C25.6994 23.1421 23.1421 25.6994 20 25.6994C16.8578 25.6994 14.3006 23.1421 14.3006 20Z" fill="#FFEDED" stroke="#750033" stroke-width="0.4"/>
</svg>
