<svg width="21" height="20" viewBox="0 0 21 20" fill="none" xmlns="http://www.w3.org/2000/svg">
<rect x="0.5" width="20" height="20" rx="6" fill="#750033"/>
<path d="M15.9185 4.6602H12.9802L12.6808 3.40677C12.6242 3.1697 12.3868 3 12.1118 3H8.88833C8.6133 3 8.37584 3.1697 8.31925 3.40674L8.01988 4.66018H5.08153C4.76037 4.66018 4.5 4.88951 4.5 5.17238V6.83258C4.5 7.11545 4.76037 7.34479 5.08153 7.34479H5.62523V16.4878C5.62523 16.7707 5.8856 17 6.20676 17H14.7932C15.1144 17 15.3748 16.7707 15.3748 16.4878V7.34479H15.9185C16.2396 7.34479 16.5 7.11545 16.5 6.83258V5.17238C16.5001 4.88954 16.2397 4.6602 15.9185 4.6602ZM9.36025 4.02438H11.6398L11.7917 4.66018H9.20834L9.36025 4.02438ZM14.2118 15.9756H6.78833V7.34479H14.2118V15.9756ZM15.337 6.32038C15.0907 6.32038 6.04458 6.32038 5.66307 6.32038V5.68458C6.20167 5.68458 14.805 5.68458 15.337 5.68458V6.32038Z" fill="#FFEDED"/>
<path d="M10.5 14.8273C10.8212 14.8273 11.0815 14.5979 11.0815 14.3151V9.00537C11.0815 8.7225 10.8212 8.49316 10.5 8.49316C10.1788 8.49316 9.91846 8.7225 9.91846 9.00537V14.3151C9.91849 14.5979 10.1788 14.8273 10.5 14.8273Z" fill="#FFEDED"/>
<path d="M8.51806 14.8273C8.83922 14.8273 9.09959 14.5979 9.09959 14.3151V9.00537C9.09959 8.7225 8.83922 8.49316 8.51806 8.49316C8.1969 8.49316 7.93652 8.7225 7.93652 9.00537V14.3151C7.93652 14.5979 8.1969 14.8273 8.51806 14.8273Z" fill="#FFEDED"/>
<path d="M12.4819 14.8273C12.8031 14.8273 13.0635 14.5979 13.0635 14.3151V9.00537C13.0635 8.7225 12.8031 8.49316 12.4819 8.49316C12.1608 8.49316 11.9004 8.7225 11.9004 9.00537V14.3151C11.9004 14.5979 12.1608 14.8273 12.4819 14.8273Z" fill="#FFEDED"/>
</svg>
