<svg width="20" height="20" viewBox="0 0 20 20" fill="none" xmlns="http://www.w3.org/2000/svg">
<rect width="20" height="20" rx="6" fill="#750033"/>
<path d="M16.475 14.5C16.7649 14.5 17 14.7351 17 15.025C17 15.2908 16.8025 15.5104 16.5462 15.5452L16.475 15.55H3.525C3.23505 15.55 3 15.3149 3 15.025C3 14.7592 3.19751 14.5396 3.45376 14.5048L3.525 14.5H16.475ZM16.475 9.95C16.7649 9.95 17 10.1851 17 10.475C17 10.7649 16.7649 11 16.475 11H3.525C3.23505 11 3 10.7649 3 10.475C3 10.1851 3.23505 9.95 3.525 9.95H16.475ZM3.50377 4.15377C3.69015 3.96738 3.98182 3.95044 4.18735 4.10294L4.24623 4.15377L5.64623 5.55377C5.83262 5.74015 5.84956 6.03182 5.69706 6.23735L5.64623 6.29623L4.24623 7.69623C4.04121 7.90125 3.70879 7.90125 3.50377 7.69623C3.31738 7.50984 3.30044 7.21818 3.45294 7.01265L3.50377 6.95377L4.53254 5.925L3.50377 4.89623C3.29875 4.69121 3.29875 4.35879 3.50377 4.15377ZM16.475 5.4C16.7649 5.4 17 5.63505 17 5.925C17 6.19078 16.8025 6.41044 16.5462 6.44521L16.475 6.45H8.425C8.13505 6.45 7.9 6.21495 7.9 5.925C7.9 5.65921 8.09751 5.43956 8.35376 5.40479L8.425 5.4H16.475Z" fill="#FFEDED"/>
</svg>
