<svg width="14" height="15" viewBox="0 0 14 15" fill="none" xmlns="http://www.w3.org/2000/svg">
<path d="M13.375 2.69957H11.4687C11.3125 1.42145 10.5 0.5 9.46876 0.5C8.43751 0.5 7.59376 1.42145 7.46875 2.69957H6.53125C6.40624 1.42145 5.56249 0.5 4.53124 0.5C3.49999 0.5 2.65623 1.42145 2.53122 2.69957H0.624991C0.28125 2.69957 0 2.96708 0 3.29404V13.9055C0 14.2325 0.28125 14.5 0.624991 14.5H13.375C13.7187 14.5 14 14.2325 14 13.9055V3.29404C14 2.99682 13.7187 2.69957 13.375 2.69957ZM9.4375 1.71867C9.75001 1.71867 10.0938 2.1348 10.2188 2.7293H8.6875C8.78125 2.1051 9.12499 1.71867 9.4375 1.71867ZM4.50001 1.71867C4.81252 1.71867 5.15626 2.1348 5.28127 2.7293H3.75001C3.84376 2.1051 4.1875 1.71867 4.50001 1.71867ZM1.24998 13.3705V3.91827H2.59374C2.84373 4.9586 3.59374 5.70171 4.53124 5.70171C4.87498 5.70171 5.125 5.43419 5.125 5.10724C5.125 4.78028 4.84375 4.51274 4.50001 4.51274C4.28125 4.51274 4 4.27496 3.84376 3.91827H7.53127C7.78126 4.9586 8.53126 5.70171 9.46876 5.70171C9.8125 5.70171 10.0625 5.43419 10.0625 5.10724C10.0625 4.78028 9.78124 4.51274 9.4375 4.51274C9.21874 4.51274 8.93749 4.27496 8.78125 3.91827H12.7812V13.3705H1.24998V13.3705Z" fill="#FFEDED"/>
<path d="M6.0895 11.3252H3.61793C3.65043 11.3252 3.78052 11.1626 3.94315 11C4.10574 10.8699 4.30086 10.7399 4.49598 10.5772C4.69111 10.4472 4.91876 10.2846 5.14638 10.1545C5.37404 9.99188 5.56916 9.82925 5.76428 9.66666C6.18706 9.27642 6.41468 8.85364 6.41468 8.43089C6.41468 8.00815 6.25209 7.6504 5.92688 7.39025C5.63419 7.13009 5.24395 7 4.78867 7C4.23583 7 3.71549 7.13009 3.22768 7.35772C3.13012 7.42275 3.06509 7.48781 3.06509 7.58537C3.06509 7.68293 3.09762 7.74796 3.13012 7.81302C3.19515 7.87805 3.22768 7.87805 3.29272 7.87805C3.35775 7.87805 3.42281 7.87805 3.45531 7.84552C3.84555 7.68293 4.2358 7.58537 4.65858 7.58537C5.04882 7.58537 5.34151 7.68293 5.53663 7.84552C5.63419 7.91055 5.69922 8.00812 5.73175 8.10568C5.76428 8.20324 5.79678 8.33333 5.79678 8.49592C5.79678 8.65852 5.73175 8.82114 5.60166 8.98373C5.47157 9.14632 5.27645 9.30895 5.08132 9.43901C4.8862 9.6016 4.65855 9.73169 4.39839 9.89428C4.13824 10.0569 3.91058 10.2195 3.71546 10.3821C3.52034 10.5447 3.32522 10.7398 3.19512 10.9349C3.06503 11.1301 3 11.3577 3 11.6179C3 11.7154 3.03253 11.813 3.09756 11.878C3.16259 11.943 3.26015 11.9756 3.35772 11.9756H6.08944C6.187 11.9756 6.25203 11.943 6.31709 11.878C6.38212 11.813 6.41465 11.7479 6.41465 11.6504C6.41465 11.5528 6.38212 11.4878 6.31709 11.4227C6.25212 11.3577 6.18706 11.3252 6.0895 11.3252Z" fill="#FFEDED"/>
<path d="M10.5766 9.40614C10.284 9.11346 9.86119 8.95087 9.34088 8.95087C8.8856 8.95087 8.49536 9.04843 8.13761 9.24355L8.36526 7.7476H10.4141C10.5116 7.7476 10.5766 7.71507 10.6417 7.65004C10.7067 7.58501 10.7393 7.51994 10.7393 7.42238C10.7393 7.32482 10.7067 7.25979 10.6417 7.19473C10.5767 7.1297 10.5116 7.09717 10.4141 7.09717H8.13761C8.04005 7.09717 7.94249 7.1622 7.87743 7.22726C7.81237 7.29232 7.77986 7.38985 7.74733 7.48741L7.42212 9.37361C7.42212 9.40615 7.42212 9.47118 7.42212 9.53621C7.42212 9.6663 7.45465 9.76386 7.55221 9.82889C7.64977 9.89392 7.74733 9.92645 7.8449 9.92645C7.94246 9.92645 8.04002 9.89392 8.13758 9.82889C8.4628 9.63377 8.85304 9.53621 9.30832 9.53621C9.601 9.53621 9.82866 9.63377 10.0238 9.79636C10.2189 9.95895 10.3165 10.1866 10.3165 10.4793C10.3165 10.6744 10.2839 10.837 10.2189 10.9671C10.0238 11.3248 9.601 11.4874 8.9506 11.4874C8.56036 11.4874 8.23514 11.3899 7.90996 11.2273C7.8124 11.1623 7.71483 11.1623 7.6498 11.1623C7.58477 11.1623 7.51971 11.1948 7.45468 11.2598C7.38965 11.3248 7.38965 11.3899 7.38965 11.4875C7.38965 11.585 7.42218 11.6501 7.51974 11.7151C7.94252 11.9753 8.46283 12.1379 9.0482 12.1379C9.37341 12.1379 9.6661 12.1054 9.92625 12.0078C10.6417 11.7802 10.9994 11.2923 10.9994 10.5444C10.9994 10.0565 10.8693 9.69883 10.5766 9.40614Z" fill="#FFEDED"/>
</svg>
