<svg width="20" height="20" viewBox="0 0 20 20" fill="none" xmlns="http://www.w3.org/2000/svg">
<rect width="20" height="20" rx="6" fill="#750033"/>
<path d="M16.9988 5.8428C16.9939 5.77384 16.9728 5.70701 16.9372 5.64776C16.9016 5.5885 16.8525 5.53851 16.7939 5.50186L12.8911 3.06637C12.7324 2.96762 12.5294 2.97988 12.384 3.0977L9.99977 5.02651L7.61598 3.0977C7.47103 2.98055 7.26652 2.96721 7.10887 3.0664L3.20613 5.50188C3.14752 5.53853 3.0984 5.58852 3.06278 5.64777C3.02716 5.70702 3.00605 5.77385 3.00117 5.8428C2.99088 5.98272 3.04869 6.11869 3.15598 6.20888L5.41695 8.1086L3.48004 9.63013C3.36925 9.71662 3.30728 9.85151 3.31275 9.99165C3.31823 10.1318 3.3905 10.2607 3.50742 10.3387L5.29982 11.5336C5.2118 11.6135 5.15553 11.728 5.15553 11.8565V13.6128C5.15553 13.765 5.23457 13.9062 5.3642 13.9861L9.77032 16.4827C9.84039 16.5258 9.92009 16.5473 9.99957 16.5473C10.0791 16.5473 10.1588 16.5254 10.2293 16.4823L14.5841 13.9857C14.6478 13.9465 14.7003 13.8916 14.7368 13.8263C14.7732 13.7611 14.7924 13.6876 14.7924 13.6128V11.5528C14.7924 11.5246 14.7891 11.497 14.7841 11.4703L16.4816 10.3387C16.5392 10.3004 16.5868 10.249 16.6206 10.1888C16.6544 10.1285 16.6735 10.0611 16.6763 9.99207C16.6818 9.85172 16.6203 9.71728 16.5099 9.63057L14.5815 8.10947L16.8438 6.2089C16.9513 6.11869 17.0091 5.9827 16.9988 5.8428ZM13.0747 8.11317L9.99984 10.0398L6.925 8.11317L9.99984 6.1121L13.0747 8.11317ZM4.18122 5.92621L7.30774 3.97485L9.25604 5.55114L6.14484 7.57607L4.18122 5.92621ZM6.13981 8.65467L9.23218 10.5925L7.47963 11.934L4.49631 9.94543L6.13981 8.65467ZM6.03165 12.0212L7.25432 12.8363C7.40957 12.9399 7.61451 12.9329 7.76317 12.8197L9.53412 11.4644V15.3345L6.03164 13.3682L6.03165 12.0212ZM13.9168 13.3682L10.41 15.3618V11.4236L12.2253 12.8191C12.3035 12.8793 12.3981 12.9097 12.4923 12.9097C12.5787 12.9098 12.6632 12.8842 12.7351 12.8361L13.9166 12.0483L13.9168 13.3682ZM15.494 9.94456L12.5102 11.9334L10.7662 10.5931L13.859 8.65487L15.494 9.94456ZM13.8546 7.57605L10.7434 5.55111L12.6922 3.97482L15.8187 5.92619L13.8546 7.57605Z" fill="#FFEDED"/>
</svg>
