<svg width="60" height="80" viewBox="0 0 60 80" fill="none" xmlns="http://www.w3.org/2000/svg">
<rect y="40" width="60" height="40" rx="6" fill="#750033"/>
<rect width="60" height="60" rx="6" fill="#FF0070"/>
<path d="M44.538 22.2588L37.7417 15.4616C37.4461 15.166 37.0452 15 36.6272 15C36.2093 15 35.8084 15.166 35.513 15.4614L28.7154 22.259C28.7146 22.2598 28.7137 22.2611 28.7127 22.2619L15.6748 35.2998C15.3909 35.5839 15.2262 35.965 15.214 36.3664L15.0007 43.3764C14.9875 43.8107 15.1543 44.2312 15.4615 44.5386C15.7576 44.8344 16.1585 45 16.5758 45C16.5918 45 16.608 44.9998 16.624 44.9992L23.6337 44.7852C24.0349 44.7731 24.4162 44.6083 24.7001 44.3247L44.538 24.4872C45.1535 23.8721 45.1535 22.8742 44.538 22.2588ZM36.6266 27.941L32.0585 23.3735L36.6272 18.8047L41.195 23.3731L36.6266 27.941ZM22.9132 41.6544L18.202 41.7983L18.3453 37.0869L29.8297 25.6023L34.398 30.17L22.9132 41.6544Z" fill="#750033"/>
<path d="M20.3078 74L21.8078 65.504H27.2438L26.9438 67.208H23.4158L23.1278 68.852H26.4878L26.1998 70.46H22.8398L22.5278 72.284H26.3918L26.0918 74H20.3078ZM33.2188 64.928H35.1388L33.5308 74H31.7668L31.9108 73.184H31.8748C31.6668 73.488 31.3868 73.724 31.0348 73.892C30.6828 74.06 30.2868 74.144 29.8468 74.144C29.4628 74.144 29.1148 74.08 28.8028 73.952C28.4988 73.824 28.2388 73.648 28.0228 73.424C27.8148 73.192 27.6548 72.92 27.5428 72.608C27.4308 72.296 27.3748 71.952 27.3748 71.576C27.3748 71.064 27.4548 70.584 27.6148 70.136C27.7828 69.688 28.0108 69.296 28.2988 68.96C28.5948 68.624 28.9428 68.36 29.3428 68.168C29.7508 67.968 30.1948 67.868 30.6748 67.868C31.1148 67.868 31.4948 67.952 31.8148 68.12C32.1348 68.288 32.3748 68.512 32.5348 68.792H32.5588L33.2188 64.928ZM29.2828 71.324C29.2828 71.684 29.3868 71.984 29.5948 72.224C29.8028 72.464 30.1108 72.584 30.5188 72.584C30.7588 72.584 30.9828 72.536 31.1908 72.44C31.3988 72.336 31.5788 72.196 31.7308 72.02C31.8828 71.844 31.9988 71.64 32.0788 71.408C32.1668 71.176 32.2108 70.932 32.2108 70.676C32.2108 70.308 32.0988 70.008 31.8748 69.776C31.6508 69.536 31.3468 69.416 30.9628 69.416C30.7068 69.416 30.4748 69.468 30.2668 69.572C30.0588 69.668 29.8828 69.804 29.7388 69.98C29.5948 70.148 29.4828 70.348 29.4028 70.58C29.3228 70.812 29.2828 71.06 29.2828 71.324ZM35.1418 74L36.1858 68.024H38.1178L37.0498 74H35.1418ZM38.5258 66.02C38.5258 66.18 38.4978 66.328 38.4418 66.464C38.3858 66.6 38.3058 66.724 38.2018 66.836C38.1058 66.94 37.9898 67.024 37.8538 67.088C37.7178 67.144 37.5698 67.172 37.4098 67.172C37.1058 67.172 36.8538 67.084 36.6538 66.908C36.4618 66.724 36.3658 66.492 36.3658 66.212C36.3658 65.884 36.4738 65.612 36.6898 65.396C36.9138 65.172 37.1858 65.06 37.5058 65.06C37.8018 65.06 38.0458 65.152 38.2378 65.336C38.4298 65.52 38.5258 65.748 38.5258 66.02ZM38.6571 69.476L38.9211 68.024H39.8691L40.1451 66.44H42.0171L41.7411 68.024H43.0131L42.7491 69.476H41.5131L41.0811 71.816C41.0731 71.872 41.0651 71.932 41.0571 71.996C41.0571 72.052 41.0571 72.1 41.0571 72.14C41.0571 72.34 41.1131 72.476 41.2251 72.548C41.3371 72.62 41.4891 72.656 41.6811 72.656C41.7771 72.656 41.8691 72.648 41.9571 72.632C42.0531 72.616 42.1371 72.6 42.2091 72.584L42.0291 73.964C41.9171 74.012 41.7571 74.052 41.5491 74.084C41.3491 74.124 41.1571 74.144 40.9731 74.144C40.3971 74.144 39.9411 74.028 39.6051 73.796C39.2771 73.564 39.1131 73.196 39.1131 72.692C39.1131 72.596 39.1171 72.488 39.1251 72.368C39.1411 72.24 39.1611 72.12 39.1851 72.008L39.6411 69.476H38.6571Z" fill="#FFEDED"/>
</svg>
