<svg width="30" height="30" viewBox="0 0 30 30" fill="none" xmlns="http://www.w3.org/2000/svg">
<rect width="30" height="30" rx="6" fill="#750033"/>
<path d="M23.7228 10.3553L19.645 6.27699C19.4677 6.0996 19.2271 6 18.9763 6C18.7256 6 18.485 6.0996 18.3078 6.27686L14.2292 10.3554C14.2287 10.3559 14.2282 10.3567 14.2276 10.3572L6.40489 18.1799C6.23456 18.3503 6.13572 18.579 6.12841 18.8198L6.00044 23.0258C5.9925 23.2864 6.0926 23.5387 6.27692 23.7231C6.45456 23.9007 6.69511 24 6.9455 24C6.95508 24 6.96479 23.9999 6.97437 23.9995L11.1802 23.8712C11.4209 23.8638 11.6497 23.765 11.8201 23.5948L23.7228 11.6923C24.0921 11.3233 24.0921 10.7245 23.7228 10.3553ZM18.976 13.7646L16.2351 11.0241L18.9763 8.28284L21.717 11.0238L18.976 13.7646ZM10.7479 21.9926L7.92119 22.079L8.00718 19.2521L14.8978 12.3614L17.6388 15.102L10.7479 21.9926Z" fill="#FFEDED"/>
</svg>
