<svg width="20" height="20" viewBox="0 0 20 20" fill="none" xmlns="http://www.w3.org/2000/svg">
<rect width="20" height="20" rx="6" fill="#750033"/>
<rect x="3" y="5" width="14" height="10.5" rx="1" fill="#FFEDED"/>
<path d="M15.2845 5.95459H4.50375C4.15658 5.95459 3.875 6.26172 3.875 6.6405V13.8596C3.875 14.2383 4.15658 14.5455 4.50375 14.5455H15.2845C15.6317 14.5455 15.9132 14.2383 15.9132 13.8596V6.6405C15.9133 6.26172 15.6317 5.95459 15.2845 5.95459ZM14.8722 12.7624C15.0427 12.917 15.0662 13.1929 14.9247 13.3789C14.8454 13.4832 14.731 13.5371 14.6158 13.5371C14.5254 13.5371 14.4345 13.5039 14.3597 13.4362L11.5298 10.8738L10.1504 12.1227C10.0761 12.19 9.98506 12.2235 9.89413 12.2235C9.80323 12.2235 9.7121 12.19 9.63784 12.1227L8.25847 10.8738L5.42858 13.4362C5.2583 13.5907 5.00537 13.5653 4.86347 13.3789C4.72206 13.1929 4.74554 12.917 4.91602 12.7624L7.63013 10.3048L4.91602 7.8471C4.74554 7.69257 4.72206 7.41659 4.86347 7.23064C5.00537 7.04469 5.2583 7.01926 5.42858 7.17336L9.89411 11.2168L14.3597 7.17334C14.5301 7.01923 14.7833 7.04467 14.9247 7.23062C15.0662 7.41659 15.0427 7.69254 14.8722 7.84707L12.1581 10.3047L14.8722 12.7624Z" fill="#750033"/>
</svg>
