<svg width="16" height="12" viewBox="0 0 16 12" fill="none" xmlns="http://www.w3.org/2000/svg">
<path d="M15.1 2.69036C15.1031 1.70301 14.2893 0.9 13.2909 0.9H2.71198C1.71379 0.9 0.9 1.69993 0.9 2.68719V9.81281C0.9 10.8001 1.71379 11.6 2.71198 11.6H13.288C14.2862 11.6 15.1 10.8001 15.1 9.81281V2.69036ZM15.1 2.69036L15 2.69005H15.1V2.69036ZM14.1179 9.81281V9.88126C14.0824 10.2983 13.7262 10.6292 13.2909 10.6292H2.71198C2.2531 10.6292 1.88212 10.2615 1.88212 9.81281V2.69005C1.88212 2.24135 2.2531 1.87365 2.71198 1.87365H13.288C13.7469 1.87365 14.1179 2.24135 14.1179 2.69005V9.81281Z" fill="#FFEDED" stroke="#FFEDED" stroke-width="0.2"/>
<path d="M9.82952 6.16165L13.2535 3.13554C13.4128 2.9928 13.4273 2.75014 13.2824 2.59028C13.1376 2.43326 12.8914 2.41899 12.7292 2.56173L8.00747 6.73832L7.0863 5.92755C7.0834 5.9247 7.08051 5.92184 7.08051 5.91899C7.06023 5.899 7.03995 5.88187 7.01678 5.86475L3.26838 2.55887C3.10616 2.41613 2.85994 2.43041 2.7151 2.59028C2.57027 2.75014 2.58475 2.9928 2.74697 3.13554L6.21148 6.18734L2.76145 9.37046C2.60503 9.51605 2.59634 9.75871 2.74407 9.91572C2.82228 9.99566 2.92657 10.0385 3.03085 10.0385C3.12644 10.0385 3.22203 10.0042 3.29735 9.93571L6.79952 6.70692L7.74965 7.54338C7.82497 7.60904 7.91767 7.64044 8.01036 7.64044C8.10306 7.64044 8.19865 7.60618 8.27107 7.54052L9.24727 6.67837L12.7292 9.93856C12.8045 10.0099 12.903 10.0442 12.9986 10.0442C13.1028 10.0442 13.2042 10.0042 13.2824 9.92429C13.4302 9.77013 13.4244 9.52462 13.268 9.37902L9.82952 6.16165Z" fill="#FFEDED"/>
</svg>
