<svg width="20" height="20" viewBox="0 0 20 20" fill="none" xmlns="http://www.w3.org/2000/svg">
<rect width="20" height="20" rx="6" fill="#750033"/>
<path d="M16.5116 8.36958H15.2093C14.9396 8.36958 14.7209 8.58858 14.7209 8.85872C14.7209 9.12884 14.9396 9.34787 15.2093 9.34787H15.3721V11.7935C15.3721 12.0632 15.153 12.2827 14.8837 12.2827H14.3114C14.1098 11.7133 13.5669 11.3044 12.9302 11.3044H11.4651V10.3261H11.9535C12.9409 10.3261 13.7442 9.52154 13.7442 8.53262V4.29347C13.7442 3.30455 12.9409 2.5 11.9535 2.5H8.04652C7.05913 2.5 6.25583 3.30455 6.25583 4.29347V8.53262C6.25583 9.52154 7.05913 10.3261 8.04652 10.3261H8.5349V11.3043H7.06978C6.43309 11.3043 5.89028 11.7133 5.68867 12.2826H5.11631C4.84702 12.2826 4.62793 12.0632 4.62793 11.7935V9.34781H4.79071C5.06041 9.34781 5.2791 9.12881 5.2791 8.85866C5.2791 8.58855 5.06044 8.36952 4.79071 8.36952H3.48838C3.21868 8.36952 3 8.58852 3 8.85866C3 9.12878 3.21865 9.34781 3.48838 9.34781H3.65117V11.7935C3.65117 12.6026 4.30842 13.2609 5.11628 13.2609H5.68865C5.89025 13.8302 6.43309 14.2391 7.06975 14.2391H9.5116V15.5435H6.09299C5.82329 15.5435 5.60461 15.7625 5.60461 16.0326V17.0109C5.60461 17.281 5.82326 17.5 6.09299 17.5C6.36269 17.5 6.58137 17.281 6.58137 17.0109V16.5217H9.5116V17.0109C9.5116 17.281 9.73026 17.5 9.99999 17.5C10.2697 17.5 10.4884 17.281 10.4884 17.0109V16.5217H13.4186V17.0109C13.4186 17.281 13.6373 17.5 13.907 17.5C14.1767 17.5 14.3954 17.281 14.3954 17.0109V16.0326C14.3954 15.7625 14.1767 15.5435 13.907 15.5435H10.4884V14.2391H12.9302C13.5669 14.2391 14.1098 13.8301 14.3114 13.2609H14.8837C15.6916 13.2609 16.3488 12.6026 16.3488 11.7935V9.34781H16.5116C16.7813 9.34781 17 9.12881 17 8.85866C17 8.58858 16.7813 8.36958 16.5116 8.36958ZM8.04652 9.34784C7.59771 9.34784 7.23257 8.98212 7.23257 8.53262V4.29347C7.23257 3.84397 7.59771 3.47825 8.04652 3.47825H11.9535C12.4023 3.47825 12.7674 3.84397 12.7674 4.29347V8.53262C12.7674 8.98212 12.4023 9.34784 11.9535 9.34784H11.4651H8.5349H8.04652ZM10.4884 10.3261V11.3043H9.51166V10.3261H10.4884ZM12.9302 13.2609H7.06978C6.80049 13.2609 6.5814 13.0414 6.5814 12.7717C6.5814 12.502 6.80049 12.2826 7.06978 12.2826H8.5349H11.4651H12.9302C13.1995 12.2826 13.4186 12.502 13.4186 12.7717C13.4186 13.0414 13.1995 13.2609 12.9302 13.2609Z" fill="#FFEDED"/>
</svg>
