<svg width="21" height="21" viewBox="0 0 21 21" fill="none" xmlns="http://www.w3.org/2000/svg">
<path fill-rule="evenodd" clip-rule="evenodd" d="M9.10417 10.6446V16.2095C9.10417 16.248 9.11944 16.2848 9.14662 16.312C9.1738 16.3392 9.21067 16.3545 9.24911 16.3545H11.3158C11.3543 16.3545 11.3911 16.3392 11.4183 16.312C11.4455 16.2848 11.4608 16.248 11.4608 16.2095V10.5551H12.9585C12.9947 10.5548 13.0296 10.5412 13.0564 10.5167C13.0831 10.4923 13.0999 10.4588 13.1034 10.4227L13.2466 8.71742C13.2483 8.6976 13.2459 8.67763 13.2395 8.65879C13.2331 8.63995 13.2228 8.62265 13.2093 8.608C13.1959 8.59335 13.1795 8.58167 13.1613 8.57371C13.143 8.56575 13.1233 8.56167 13.1034 8.56175H11.4608V7.35213C11.4608 7.21593 11.5149 7.0853 11.6112 6.989C11.7075 6.89269 11.8381 6.83858 11.9743 6.83858H13.1285C13.1669 6.83858 13.2038 6.82331 13.231 6.79613C13.2581 6.76895 13.2734 6.73208 13.2734 6.69364V4.99015C13.2734 4.95171 13.2581 4.91485 13.231 4.88767C13.2038 4.86049 13.1669 4.84521 13.1285 4.84521H11.1781C10.9057 4.84521 10.636 4.89886 10.3844 5.00308C10.1328 5.1073 9.90417 5.26006 9.71159 5.45264C9.51902 5.64522 9.36626 5.87384 9.26203 6.12546C9.15781 6.37707 9.10417 6.64675 9.10417 6.9191V8.56175H8.0717C8.03326 8.56175 7.99639 8.57702 7.96921 8.6042C7.94203 8.63138 7.92676 8.66825 7.92676 8.70669V10.4102C7.92676 10.4486 7.94203 10.4855 7.96921 10.5127C7.99639 10.5398 8.03326 10.5551 8.0717 10.5551H9.10417V10.6446Z" fill="#FFEDED"/>
<path d="M16.834 2.35788C16.834 2.35788 16.834 2.35788 16.834 2.35788C17.3663 2.35879 17.8766 2.57064 18.253 2.94704C18.6294 3.32344 18.8412 3.83371 18.8421 4.36602V16.834C18.8412 17.3663 18.6294 17.8766 18.253 18.253C17.8766 18.6294 17.3663 18.8412 16.834 18.8421H4.36602C3.83371 18.8412 3.32344 18.6294 2.94704 18.253C2.57064 17.8766 2.35879 17.3663 2.35788 16.834C2.35788 16.834 2.35788 16.834 2.35788 16.834V4.36602C2.35788 4.366 2.35788 4.36598 2.35788 4.36595C2.35879 3.83366 2.57064 3.32343 2.94704 2.94704C3.32343 2.57064 3.83366 2.35879 4.36595 2.35788C4.36598 2.35788 4.366 2.35788 4.36602 2.35788H16.834ZM16.8342 0.875H4.36582C3.43999 0.875 2.55209 1.24278 1.89744 1.89744C1.24278 2.55209 0.875 3.43999 0.875 4.36582V16.8342C0.875 17.76 1.24278 18.6479 1.89744 19.3026C2.55209 19.9572 3.43999 20.325 4.36582 20.325H16.8342C17.76 20.325 18.6479 19.9572 19.3026 19.3026C19.9572 18.6479 20.325 17.76 20.325 16.8342V4.36582C20.325 3.43999 19.9572 2.55209 19.3026 1.89744C18.6479 1.24278 17.76 0.875 16.8342 0.875Z" fill="#FFEDED" stroke="#FFEDED" stroke-width="0.25"/>
</svg>
