<svg width="20" height="20" viewBox="0 0 20 20" fill="none" xmlns="http://www.w3.org/2000/svg">
<rect width="20" height="20" rx="6" fill="#750033"/>
<path d="M10.2352 9.45898C10.0369 9.45898 9.87251 9.52735 9.73254 9.66797C9.60977 9.79144 9.54235 9.93288 9.52759 10.0986L10.5521 9.53025C10.4569 9.48246 10.3521 9.45898 10.2352 9.45898Z" fill="#FFEDED"/>
<path d="M12.8761 9.45898C12.6778 9.45898 12.5134 9.52735 12.3734 9.66797C12.2559 9.78615 12.1891 9.9208 12.1707 10.0774L13.1877 9.52766C13.0939 9.4816 12.9909 9.45898 12.8761 9.45898Z" fill="#FFEDED"/>
<path d="M16.0702 11.1332C16.506 10.8519 17 10.5331 17 10C17 9.46685 16.506 9.14809 16.0702 8.8668C15.9205 8.77013 15.6469 8.59358 15.5837 8.50094C15.5885 8.38429 15.7496 8.06904 15.8285 7.91449C16.06 7.46135 16.3224 6.94779 16.0626 6.49875C15.8 6.0449 15.2191 6.01599 14.7067 5.99044C14.5236 5.98134 14.1888 5.96465 14.087 5.91294C14.0354 5.81117 14.0187 5.47633 14.0096 5.29324C13.984 4.78078 13.9551 4.19998 13.5012 3.93739C13.3783 3.86631 13.2385 3.83024 13.0858 3.83024C12.7533 3.83024 12.4138 4.00371 12.0855 4.17146C11.8898 4.27143 11.624 4.40722 11.4981 4.41565C11.4053 4.35135 11.2295 4.07905 11.1332 3.92975C10.8519 3.49394 10.5331 3 10 3C9.46685 3 9.14803 3.49394 8.86677 3.92972C8.77031 4.0792 8.59428 4.3519 8.50152 4.41584C8.37885 4.40872 8.11125 4.27198 7.91446 4.17146C7.58617 4.00371 7.24662 3.83024 6.91417 3.83024C6.76143 3.83024 6.62164 3.86631 6.49878 3.93739C6.04493 4.19995 6.01599 4.78078 5.99044 5.29324C5.98137 5.47636 5.96465 5.8112 5.91297 5.91297C5.8112 5.96465 5.47639 5.98134 5.29327 5.99047C4.78081 6.01599 4.20004 6.04493 3.93745 6.49875C3.67762 6.94779 3.94002 7.46138 4.1715 7.91452C4.25041 8.06904 4.41153 8.38432 4.41623 8.50097C4.35309 8.59361 4.0795 8.77016 3.92975 8.86683C3.49394 9.14809 3 9.46688 3 10C3 10.5332 3.49394 10.8519 3.92975 11.1332C4.0795 11.2299 4.35309 11.4065 4.41623 11.4991C4.41153 11.6157 4.25041 11.931 4.1715 12.0855C3.93996 12.5386 3.67762 13.0522 3.93739 13.5013C4.19998 13.9551 4.78084 13.984 5.29327 14.0095C5.47633 14.0187 5.8112 14.0354 5.91297 14.0871C5.96465 14.1888 5.9813 14.5236 5.99044 14.7068C6.01599 15.2192 6.04487 15.8 6.49878 16.0626C6.62164 16.1337 6.76143 16.1698 6.91417 16.1698C7.24666 16.1697 7.58617 15.9963 7.91446 15.8285C8.11018 15.7286 8.37595 15.5928 8.50177 15.5843C8.59465 15.6486 8.77044 15.921 8.86677 16.0703C9.14803 16.5061 9.46685 17 10 17C10.5331 17 10.8519 16.5061 11.1332 16.0703C11.2296 15.9208 11.4057 15.6481 11.4984 15.5842C11.6211 15.5913 11.8887 15.728 12.0855 15.8285C12.4138 15.9963 12.7534 16.1697 13.0858 16.1697C13.2385 16.1697 13.3783 16.1337 13.5012 16.0626C13.9551 15.8 13.9839 15.2192 14.0095 14.7067C14.0186 14.5236 14.0353 14.1888 14.087 14.0871C14.1887 14.0354 14.5235 14.0187 14.7066 14.0095C15.2191 13.984 15.7999 13.9551 16.0625 13.5013C16.3223 13.0522 16.0599 12.5386 15.8284 12.0855C15.7495 11.931 15.5884 11.6157 15.5837 11.4991C15.6469 11.4064 15.9204 11.2299 16.0702 11.1332ZM7.36514 7.87996C7.36514 8.03671 7.23804 8.16378 7.08132 8.16378H6.98474C6.83508 8.16378 6.71451 8.2188 6.62634 8.32726C6.53301 8.44217 6.4857 8.55339 6.4857 8.65779V8.84941H6.92765C7.0844 8.84941 7.21148 8.97648 7.21148 9.13327V9.20041C7.21148 9.35716 7.0844 9.48424 6.92765 9.48424H6.4857V11.2062C6.4857 11.363 6.35856 11.4901 6.20184 11.4901H6.12464C5.96789 11.4901 5.84081 11.363 5.84081 11.2062V8.72838C5.84081 8.37466 5.9468 8.08558 6.1559 7.8692C6.36571 7.65187 6.64462 7.54164 6.98474 7.54164H7.08132C7.23804 7.54164 7.36514 7.66871 7.36514 7.82547V7.87996ZM8.72273 9.4351C8.50586 9.44567 8.34603 9.52116 8.23417 9.66587C8.1088 9.82797 8.04527 10.0204 8.04527 10.2377V11.2062C8.04527 11.3629 7.91816 11.49 7.76144 11.49H7.68424C7.52755 11.49 7.40053 11.3631 7.40041 11.2064L7.39858 9.13348C7.39852 9.05815 7.42838 8.9859 7.48165 8.93263C7.53485 8.87933 7.60707 8.84938 7.68241 8.84938H7.76144C7.89047 8.84938 7.99939 8.93547 8.0339 9.05341C8.23597 8.90292 8.45556 8.81851 8.6889 8.80204C8.76756 8.79623 8.84479 8.82383 8.90243 8.87749C8.96004 8.93119 8.99274 9.0064 8.99274 9.08513V9.15154C8.99274 9.30298 8.87398 9.4277 8.72273 9.4351ZM11.4977 10.6818C11.4322 10.8449 11.3301 10.9959 11.1942 11.1306C10.9309 11.3939 10.608 11.5279 10.2351 11.5279C9.86235 11.5279 9.5394 11.3944 9.27529 11.1311C9.01105 10.8677 8.87704 10.5443 8.87704 10.1697C8.87704 9.79692 9.01099 9.47394 9.27517 9.20976C9.53937 8.94556 9.86235 8.81166 10.2351 8.81166C10.5655 8.81166 10.8419 8.90179 11.0801 9.08724C11.2333 9.20655 11.3154 9.31801 11.3596 9.37791C11.408 9.44359 11.4258 9.52699 11.4084 9.60673C11.3911 9.68647 11.3402 9.75489 11.2688 9.7945L9.71617 10.6559C9.72146 10.6616 9.72687 10.6671 9.73234 10.6726C9.87222 10.8125 10.0367 10.8805 10.2351 10.8805C10.4335 10.8805 10.5984 10.8121 10.7391 10.6714C10.8055 10.6051 10.8561 10.5315 10.8898 10.4527C10.9402 10.3345 11.0637 10.2649 11.1912 10.2832L11.2745 10.2952C11.3607 10.3076 11.4365 10.3589 11.48 10.4343C11.5236 10.5096 11.5301 10.6009 11.4977 10.6818ZM14.1387 10.6818C14.0732 10.8449 13.9712 10.9959 13.8353 11.1306C13.572 11.3939 13.249 11.5279 12.8761 11.5279C12.5034 11.5279 12.1804 11.3944 11.9163 11.1311C11.6521 10.8677 11.5181 10.5443 11.5181 10.1697C11.5181 9.79692 11.652 9.47394 11.9162 9.20976C12.1804 8.94556 12.5034 8.81166 12.8761 8.81166C13.1863 8.81166 13.4514 8.89666 13.7103 9.0792C13.8671 9.18978 13.9414 9.29448 13.9857 9.3571L14.0006 9.37788C14.0494 9.44402 14.067 9.528 14.0491 9.60814C14.0312 9.68833 13.9795 9.75679 13.9072 9.79588L12.3992 10.612C12.3797 10.6226 12.3595 10.6305 12.3391 10.6362C12.3499 10.6485 12.3614 10.6607 12.3733 10.6726C12.5132 10.8125 12.6777 10.8805 12.8761 10.8805C13.0745 10.8805 13.2394 10.8121 13.3801 10.6714C13.4465 10.6051 13.4971 10.5315 13.5308 10.4527C13.5812 10.3345 13.7045 10.2649 13.8321 10.2832L13.9155 10.2952C14.0017 10.3076 14.0775 10.3589 14.121 10.4343C14.1647 10.5096 14.1712 10.6009 14.1387 10.6818Z" fill="#FFEDED"/>
</svg>
