<svg width="14" height="16" viewBox="0 0 14 16" fill="none" xmlns="http://www.w3.org/2000/svg">
<path d="M7 8.05C7.70212 8.05 8.38848 7.8418 8.97227 7.45172C9.55607 7.06164 10.0111 6.50721 10.2798 5.85853C10.5485 5.20985 10.6188 4.49606 10.4818 3.80743C10.3448 3.1188 10.0067 2.48625 9.51023 1.98977C9.01375 1.4933 8.3812 1.15519 7.69257 1.01821C7.00394 0.881236 6.29015 0.951538 5.64147 1.22023C4.9928 1.48892 4.43836 1.94393 4.04828 2.52773C3.6582 3.11152 3.45 3.79788 3.45 4.5C3.45 5.44152 3.82402 6.34448 4.48977 7.01023C5.15553 7.67598 6.05848 8.05 7 8.05ZM7 2.05C7.48456 2.05 7.95825 2.19369 8.36115 2.4629C8.76405 2.73211 9.07807 3.11475 9.2635 3.56243C9.44894 4.01011 9.49746 4.50272 9.40292 4.97797C9.30839 5.45323 9.07505 5.88977 8.73241 6.23241C8.38977 6.57505 7.95322 6.80839 7.47797 6.90293C7.00272 6.99746 6.5101 6.94894 6.06243 6.76351C5.61475 6.57807 5.23211 6.26405 4.9629 5.86115C4.69369 5.45825 4.55 4.98457 4.55 4.5C4.55 3.85022 4.80812 3.22705 5.26759 2.76759C5.72705 2.30813 6.35022 2.05 7 2.05Z" fill="#FFEDED" stroke="#FFEDED" stroke-width="0.1"/>
<path d="M11.9137 13.95C11.781 12.8839 11.2668 11.9011 10.4653 11.1839C9.6499 10.4542 8.59423 10.0505 7.5 10.05L11.9137 13.95ZM11.9137 13.95H2.08625C2.21902 12.8839 2.73316 11.9011 3.53468 11.1839C4.3501 10.4542 5.40577 10.0505 6.5 10.05C6.50001 10.05 6.50001 10.05 6.50002 10.05H7.49998L11.9137 13.95ZM7.5 8.95H6.5C5.02805 8.95 3.61638 9.53473 2.57556 10.5756C1.53473 11.6164 0.95 13.028 0.95 14.5C0.95 14.6459 1.00795 14.7858 1.11109 14.8889C1.21424 14.9921 1.35413 15.05 1.5 15.05H12.5C12.6459 15.05 12.7858 14.9921 12.8889 14.8889C12.9921 14.7858 13.05 14.6459 13.05 14.5C13.05 13.028 12.4653 11.6164 11.4244 10.5756C10.3836 9.53473 8.97195 8.95 7.5 8.95Z" fill="#FFEDED" stroke="#FFEDED" stroke-width="0.1"/>
</svg>
