<svg width="20" height="20" viewBox="0 0 20 20" fill="none" xmlns="http://www.w3.org/2000/svg">
<rect width="20" height="20" rx="6" fill="#750033"/>
<path d="M10 3C6.1339 3 3 6.1339 3 10C3 13.8661 6.1339 17 10 17C13.8661 17 17 13.8661 17 10C17 6.1339 13.8661 3 10 3ZM10 15.6L11.4 14.2L12.1 13.5V12.1H10.7V11.4L10 10.7H7.9V12.8L9.3 14.2V15.551C6.542 15.2052 4.4 12.8504 4.4 10L5.1 10.7H6.5V9.3H7.9L10 7.2V5.8H8.6L7.9 5.1V4.813C8.5489 4.547 9.258 4.4 10 4.4C10.742 4.4 11.4511 4.5484 12.1 4.813V5.8L11.4 6.5V7.9L12.1 8.6L14.291 6.409C14.8174 7.0369 15.2038 7.7838 15.4152 8.6H14.2L12.8 10V11.4L13.5 12.1H14.9L15.1002 12.3002C14.221 14.242 12.268 15.6 10 15.6Z" fill="#FFEDED"/>
</svg>
