<svg width="20" height="20" viewBox="0 0 20 20" fill="none" xmlns="http://www.w3.org/2000/svg">
<rect width="20" height="20" rx="6" fill="#750033"/>
<path d="M12.3101 4.06781L12.3103 4.06773L12.3071 4.06303C12.2444 3.96891 12.1442 3.9 12.0106 3.9H7.74418C7.6135 3.9 7.51844 3.96581 7.46016 4.02409L7.45129 4.03296L7.44488 4.04375L2.94139 11.6286L2.93591 11.6378L2.93251 11.648C2.91996 11.6856 2.90484 11.7367 2.90096 11.791C2.89717 11.8441 2.90361 11.9077 2.94037 11.9662L5.03073 16.1469C5.03822 16.187 5.05353 16.2264 5.0774 16.2622L5.07741 16.2623C5.10437 16.3027 5.14001 16.3351 5.17679 16.3598C5.23337 16.4035 5.30035 16.4253 5.37395 16.4253H14.6179C14.7515 16.4253 14.8517 16.3564 14.9145 16.2622L14.9147 16.2624L14.9184 16.2558L17.05 12.4664C17.1169 12.363 17.1167 12.2277 17.0493 12.1245L12.3101 4.06781ZM7.0447 12.1219L7.0442 12.1216L7.03914 12.1313L5.37346 15.3423L3.61535 11.8261L7.73378 4.92367L8.61175 6.49479L8.61207 6.49535L9.31364 7.77006L7.06798 12.0907C7.06022 12.1001 7.05231 12.1105 7.0447 12.1219ZM11.8113 4.57405L16.173 11.9589H12.4485L10.0528 7.67605C10.045 7.64118 10.031 7.60646 10.0103 7.57456L8.32762 4.57405H11.8113ZM9.71307 8.46554L11.6652 11.9589H7.90208L9.71307 8.46554ZM16.1769 12.6329L14.4173 15.7512H5.93604L7.55263 12.6329H12.2476H16.1769Z" fill="#FFEDED" stroke="#FFEDED" stroke-width="0.2"/>
</svg>
