<svg width="53" height="35" viewBox="0 0 53 35" fill="none" xmlns="http://www.w3.org/2000/svg">
<path d="M0 17.5V0H26.1154H52.2308V17.5V35H26.1154H0V17.5Z" fill="#FBFBFB"/>
<path d="M0.134644 17.5V0.134644H26.1154H52.0962V17.5V34.8654H26.1154H0.134644V17.5ZM51.9616 17.5V11.8462H26.1154H0.269259V17.4102C0.269259 20.4705 0.309644 23.0147 0.359003 23.0641C0.408353 23.1139 12.039 23.1543 26.2052 23.1543H51.9611V17.5004L51.9616 17.5ZM24.9173 22.8167C22.7593 22.3344 21.1087 20.5749 20.7144 18.3367C20.0917 14.8018 23.4168 11.4767 26.9516 12.0994C29.9382 12.6255 31.9569 15.4034 31.4844 18.3371C30.9847 21.4401 27.9673 23.4982 24.9172 22.8167H24.9173ZM26.3173 21.9417C26.3631 21.8676 26.6319 21.8071 26.9146 21.8071C27.2073 21.8071 27.5008 21.7201 27.5962 21.6051C27.6884 21.4941 27.9057 21.4032 28.0791 21.4032C28.2525 21.4032 28.4555 21.289 28.5302 21.1495C28.6049 21.0099 28.8181 20.8575 29.0041 20.8109C29.2152 20.7579 29.374 20.5991 29.4269 20.388C29.4736 20.2021 29.626 19.9888 29.7655 19.9141C29.9051 19.8395 30.0193 19.6364 30.0193 19.463C30.0193 19.2896 30.1101 19.0723 30.2212 18.9801C30.3337 18.8867 30.4231 18.5933 30.4231 18.3175C30.4231 18.0452 30.4932 17.7523 30.579 17.6666C30.697 17.5486 30.6932 17.4607 30.5635 17.3044C30.4693 17.1908 30.419 16.9156 30.4517 16.6927C30.4925 16.4146 30.434 16.2175 30.2652 16.0648C30.1293 15.9423 30.0189 15.6744 30.0189 15.4685C30.0189 15.2282 29.9332 15.0674 29.7793 15.0185C29.6475 14.9767 29.471 14.7606 29.3871 14.5383C29.3023 14.3162 29.1489 14.1345 29.0452 14.1345C28.9411 14.1345 28.722 13.9805 28.5585 13.7924C28.3949 13.6043 28.1996 13.4883 28.1244 13.5348C28.0493 13.5812 27.8239 13.5101 27.6235 13.3767C27.2789 13.1474 26.8858 13.0666 26.1145 13.0666C25.3375 13.0666 24.9269 13.1392 24.7166 13.3137C24.5939 13.4156 24.3328 13.5166 24.1366 13.5381C23.9404 13.5596 23.7247 13.6757 23.6574 13.796C23.5901 13.9163 23.3874 14.0708 23.2069 14.1394C23.0265 14.208 22.8227 14.4118 22.7541 14.5922C22.6855 14.7727 22.5309 14.9754 22.4106 15.0427C22.2904 15.11 22.1743 15.3257 22.1528 15.5219C22.1312 15.7182 22.0302 15.9792 21.9283 16.102C21.7539 16.3122 21.6813 16.7228 21.6813 17.4998C21.6813 18.2713 21.762 18.664 21.9912 19.0083C22.1246 19.2087 22.1958 19.4341 22.1494 19.5092C22.1029 19.5843 22.2189 19.7796 22.407 19.9432C22.5951 20.1068 22.749 20.3259 22.749 20.43C22.749 20.5341 22.9309 20.688 23.1532 20.7719C23.3755 20.8558 23.5916 21.0323 23.6335 21.164C23.6823 21.318 23.8431 21.4036 24.0834 21.4036C24.2891 21.4036 24.5591 21.5161 24.6835 21.6535C24.8264 21.8115 25.0279 21.8808 25.2308 21.8421C25.4075 21.8083 25.6634 21.8454 25.7996 21.9246C26.1128 22.1067 26.2125 22.1101 26.3164 21.9421L26.3173 21.9417ZM25.086 20.4946C25.1784 19.6499 25.2039 19.6455 24.5015 20.5953C24.1273 21.1011 24.0375 20.8344 24.3466 20.1355C24.4967 19.7962 24.5775 19.5203 24.5261 19.5223C24.4748 19.5244 24.1952 19.7058 23.9048 19.9255C23.6145 20.1452 23.3469 20.2949 23.3102 20.2583C23.2735 20.2216 23.4415 19.9453 23.6834 19.6442C23.9253 19.3432 24.1005 19.0742 24.0728 19.0465C24.0451 19.0187 23.7561 19.1152 23.4307 19.2609C22.6079 19.6293 22.4361 19.5069 23.1154 19.0363C23.4271 18.8203 23.6845 18.5976 23.6873 18.5414C23.6901 18.4853 23.344 18.4705 22.9183 18.5087L22.1443 18.5781L22.8847 18.2121L23.6251 17.846L22.9856 17.7254C22.217 17.5805 22.1632 17.4075 22.851 17.2925C23.1287 17.2461 23.4164 17.1926 23.4905 17.1736C23.5645 17.1547 23.3373 17.0116 22.9856 16.8557C22.634 16.6997 22.3462 16.5301 22.3462 16.4788C22.3462 16.4274 22.6945 16.4234 23.1203 16.47C23.9649 16.5623 23.9693 16.5878 23.0196 15.8854C22.518 15.5145 22.7613 15.4368 23.4714 15.7412C23.815 15.8885 24.0962 15.9744 24.0962 15.9322C24.0962 15.8899 23.9072 15.6167 23.6761 15.325C23.138 14.6456 23.2617 14.5219 23.9411 15.06C24.2328 15.2911 24.5061 15.4801 24.5483 15.4801C24.5905 15.4801 24.5042 15.1981 24.3564 14.8533C23.9762 13.9663 24.1014 13.8425 24.6319 14.5811C24.8806 14.9275 25.1047 15.2109 25.1298 15.2109C25.1549 15.2109 25.1363 14.8777 25.0885 14.4705C25.0406 14.0633 25.0435 13.7301 25.0949 13.7301C25.1462 13.7301 25.3159 14.0179 25.4718 14.3695C25.6277 14.7212 25.7708 14.9484 25.7897 14.8743C25.8087 14.8003 25.8622 14.5126 25.9086 14.2349C26.0227 13.5526 26.2138 13.5984 26.3242 14.3345C26.4217 14.9844 26.5693 15.0277 26.7146 14.4491C26.7643 14.2508 26.8987 13.9625 27.0131 13.8084C27.2067 13.5477 27.2155 13.5821 27.1383 14.3022C27.0927 14.728 27.1014 15.0755 27.1575 15.0746C27.2137 15.0737 27.3965 14.8617 27.5638 14.6035C27.8503 14.1612 28.2448 13.9371 28.094 14.3022C28.0558 14.3948 27.9273 14.6977 27.8086 14.9753C27.6898 15.253 27.6273 15.4801 27.6696 15.4801C27.712 15.4801 27.9853 15.2883 28.2771 15.0538C28.5689 14.8193 28.8377 14.6575 28.8743 14.6942C28.911 14.7308 28.7613 14.9984 28.5416 15.2888C28.3219 15.5791 28.1405 15.8587 28.1384 15.91C28.1364 15.9614 28.4123 15.8806 28.7516 15.7305C29.4322 15.4295 29.7373 15.5173 29.2189 15.865C29.0378 15.9865 28.7652 16.1913 28.6131 16.3201C28.3461 16.5463 28.3633 16.5515 29.1106 16.4699C29.5364 16.4234 29.8847 16.4274 29.8847 16.4788C29.8847 16.5301 29.5969 16.6997 29.2453 16.8557C28.8936 17.0116 28.6664 17.1547 28.7404 17.1736C28.8145 17.1926 29.1101 17.2475 29.3974 17.2958C30.0122 17.399 29.9106 17.5755 29.142 17.7395L28.6058 17.8539L29.2453 18.1402C29.5969 18.2977 29.8847 18.4672 29.8847 18.5169C29.8847 18.5666 29.5364 18.5682 29.1106 18.5204L28.3366 18.4336L28.6731 18.6973C28.8582 18.8423 29.1307 19.0512 29.2787 19.1615C29.7152 19.4868 29.4331 19.5443 28.7974 19.2597C28.4735 19.1147 28.1858 19.0188 28.158 19.0466C28.1302 19.0743 28.2561 19.2979 28.4377 19.5434C28.6194 19.7889 28.8166 20.0748 28.876 20.1788C29.0045 20.4038 28.826 20.3148 28.1595 19.8217C27.914 19.64 27.6904 19.5141 27.6626 19.5419C27.6349 19.5697 27.7308 19.8574 27.8758 20.1813C28.3104 21.152 28.0408 21.0913 27.2923 20.0497C27.0584 19.7243 27.0567 19.7294 27.1395 20.4946C27.1856 20.9203 27.1827 21.2686 27.133 21.2686C27.0833 21.2686 26.9138 20.9808 26.7563 20.6292L26.47 19.9897L26.3556 20.5259C26.1916 21.2945 26.0151 21.3961 25.9119 20.7813C25.8636 20.494 25.8086 20.1984 25.7897 20.1244C25.7707 20.0503 25.6277 20.2775 25.4717 20.6292C25.3158 20.9808 25.1462 21.2686 25.0948 21.2686C25.0435 21.2686 25.0395 20.9203 25.086 20.4946H25.086Z" fill="#97A7CE"/>
<path d="M0.134644 17.5V0.134644H26.1154H52.0962V17.5V34.8654H26.1154H0.134644V17.5ZM51.9616 17.5V11.8462H26.1154H0.269259V17.5V23.1539H26.1154H51.9616V17.5ZM24.4879 22.559C23.1021 22.0313 21.9865 21.0762 21.4008 19.916C19.7543 16.6544 21.6459 12.9141 25.2746 12.2561C27.5291 11.8473 29.9157 13.1357 30.9357 15.3121C31.2578 15.9994 31.2986 16.2459 31.2986 17.5029C31.2986 18.8279 31.2705 18.9762 30.8623 19.8055C30.3365 20.8735 29.3732 21.8189 28.2991 22.321C27.6591 22.6202 27.3138 22.6861 26.2505 22.7121C25.4225 22.7322 24.8011 22.6783 24.4879 22.559L24.4879 22.559ZM26.4599 22.0648C26.5132 21.9786 26.7292 21.9516 26.9838 21.9994C27.3099 22.0606 27.4743 22.0173 27.6491 21.8242C27.7818 21.6775 27.9883 21.5957 28.1313 21.6331C28.296 21.6761 28.4568 21.5835 28.6019 21.3621C28.7232 21.177 28.9697 20.9887 29.1498 20.9435C29.3467 20.894 29.5099 20.7308 29.5593 20.5339C29.6045 20.3538 29.7929 20.1073 29.978 19.986C30.1994 19.841 30.292 19.6801 30.249 19.5154C30.2114 19.3718 30.2941 19.1652 30.4433 19.0302C30.6303 18.861 30.6804 18.6924 30.6224 18.4281C30.5767 18.22 30.6176 17.9397 30.717 17.7806C30.8608 17.5502 30.8608 17.4498 30.717 17.2194C30.6176 17.0603 30.5767 16.78 30.6224 16.5719C30.6804 16.3076 30.6303 16.139 30.4433 15.9698C30.2941 15.8348 30.2114 15.6282 30.249 15.4846C30.2924 15.3184 30.1972 15.1576 29.9651 15.0056C29.7726 14.879 29.6151 14.6744 29.6151 14.5492C29.6151 14.2598 29.3553 14 29.0659 14C28.9411 14 28.7399 13.8485 28.6186 13.6634C28.4867 13.4622 28.2706 13.3269 28.0811 13.3269C27.9068 13.3269 27.6844 13.2308 27.587 13.1134C27.4669 12.9687 27.2861 12.9246 27.0265 12.9765C26.8158 13.0186 26.5247 12.979 26.3796 12.8884C26.1716 12.7585 26.06 12.7585 25.8521 12.8884C25.707 12.979 25.4158 13.0186 25.2051 12.9765C24.9455 12.9246 24.7647 12.9687 24.6447 13.1134C24.5464 13.2308 24.327 13.3269 24.156 13.3269C23.8437 13.3269 23.4224 13.6419 23.4224 13.8748C23.4224 13.9434 23.3133 14 23.1801 14C22.8699 14 22.6147 14.2552 22.6147 14.5653C22.6147 14.6986 22.5584 14.8077 22.4897 14.8077C22.2566 14.8077 21.9416 15.2292 21.9416 15.5412C21.9416 15.7119 21.8455 15.9314 21.7281 16.0288C21.5834 16.1489 21.5393 16.3297 21.5912 16.5892C21.6333 16.8 21.5937 17.0911 21.5031 17.2362C21.3732 17.4442 21.3732 17.5557 21.5031 17.7637C21.5937 17.9088 21.6333 18.1999 21.5912 18.4107C21.5393 18.6703 21.5834 18.8511 21.7281 18.9711C21.8455 19.0686 21.9416 19.2909 21.9416 19.4653C21.9416 19.6548 22.0769 19.8708 22.2782 20.0027C22.4633 20.124 22.6147 20.3253 22.6147 20.45C22.6147 20.5748 22.6874 20.7496 22.7762 20.8384C22.8651 20.9273 23.0398 20.9999 23.1646 20.9999C23.2894 20.9999 23.4944 21.1571 23.6203 21.3492C23.7723 21.5812 23.9331 21.6765 24.0992 21.633C24.2423 21.5956 24.4488 21.6775 24.5815 21.8241C24.7563 22.0173 24.9207 22.0605 25.2468 21.9993C25.5014 21.9516 25.7174 21.9786 25.7707 22.0648C25.8206 22.1455 25.9754 22.2115 26.1147 22.2115C26.254 22.2115 26.4088 22.1455 26.4587 22.0648L26.4599 22.0648ZM25.9807 19.8114C25.9807 19.4142 25.8063 19.3521 25.6222 19.6838L25.4517 19.9909L25.447 19.688C25.4412 19.3235 25.3477 19.3096 24.9925 19.6207C24.7354 19.8458 24.7275 19.8453 24.8136 19.6097C24.8632 19.474 24.9037 19.2706 24.9037 19.1576C24.9037 18.9991 24.9884 18.9748 25.2739 19.0514C25.6064 19.1405 26.2646 19.1498 26.9774 19.0753C27.1561 19.0567 27.266 19.1657 27.3404 19.4355L27.4471 19.8224L27.1177 19.513L26.7883 19.2036L26.7842 19.5972C26.7808 19.9297 26.7588 19.9543 26.6429 19.7553C26.4585 19.4403 26.2498 19.4578 26.2498 19.7903C26.2498 19.9384 26.1893 20.0595 26.1152 20.0595C26.0412 20.0595 25.9806 19.9485 25.9806 19.8127L25.9807 19.8114ZM24.377 19.0768C24.562 18.6707 24.9475 18.4566 24.8799 18.7974C24.856 18.9178 24.6972 19.1087 24.527 19.2215C24.2227 19.4233 24.2202 19.4208 24.377 19.0768L24.377 19.0768ZM27.5457 19.1051C27.3499 18.9511 27.226 18.7664 27.2703 18.6947C27.3651 18.5414 27.6818 18.7729 27.8775 19.1384C28.0472 19.4556 27.9832 19.4492 27.5457 19.1051L27.5457 19.1051ZM24.1029 18.5029L24.4123 18.1735L24.0187 18.1695C23.6862 18.166 23.6616 18.144 23.8606 18.0281C24.1743 17.8437 24.1568 17.6351 23.8243 17.6351C23.6762 17.6351 23.555 17.5745 23.555 17.5005C23.555 17.4264 23.6762 17.3658 23.8243 17.3658C24.1563 17.3658 24.1742 17.157 23.8579 16.9728C23.6475 16.8502 23.6547 16.8351 23.9252 16.8315C24.2887 16.8266 24.3041 16.7306 23.9962 16.3904C23.7726 16.1434 23.7775 16.1374 24.1308 16.2261C24.5336 16.3272 24.5688 16.2701 24.3525 15.866C24.222 15.6222 24.2345 15.6098 24.4783 15.7403C24.8823 15.9565 24.9395 15.9213 24.8384 15.5185C24.7497 15.1652 24.7557 15.1604 25.0027 15.3839C25.3429 15.6918 25.4388 15.6764 25.4437 15.313C25.4474 15.0425 25.4625 15.0353 25.585 15.2456C25.7693 15.562 25.9781 15.5441 25.9781 15.212C25.9781 15.0639 26.0387 14.9428 26.1127 14.9428C26.1868 14.9428 26.2473 15.0639 26.2473 15.212C26.2473 15.5441 26.4562 15.562 26.6404 15.2456C26.7563 15.0467 26.7782 15.0712 26.7817 15.4037L26.7858 15.7974L27.1152 15.488L27.4446 15.1785L27.3453 15.5496C27.2479 15.9137 27.2259 15.9209 26.1649 15.9365C24.7055 15.9579 24.5702 16.0933 24.5488 17.5526C24.5333 18.6136 24.526 18.6356 24.1619 18.733L23.7909 18.8322L24.1003 18.5029L24.1029 18.5029ZM27.9518 18.7294C27.7371 18.6449 27.6991 18.4656 27.6826 17.4599C27.6693 16.6456 27.7114 16.2889 27.8207 16.2889C27.9072 16.2889 28.0889 16.249 28.2246 16.2001C28.4231 16.1285 28.4076 16.181 28.1448 16.4693L27.8177 16.8274L28.2113 16.8322C28.6013 16.8369 28.6022 16.8385 28.2979 17.0074C27.9663 17.1915 28.0283 17.3658 28.4255 17.3658C28.5612 17.3658 28.6723 17.4264 28.6723 17.5005C28.6723 17.5745 28.5511 17.6351 28.4031 17.6351C28.071 17.6351 28.0531 17.8439 28.3694 18.0281C28.5684 18.144 28.5438 18.166 28.2113 18.1694L27.8183 18.1735L28.1346 18.51C28.4545 18.8506 28.4066 18.9081 27.9518 18.7293L27.9518 18.7294ZM25.2677 18.4085C24.9692 18.1688 24.8866 17.9848 24.8684 17.5191C24.8484 17.0088 24.9045 16.8792 25.2969 16.5285C25.6761 16.1898 25.8253 16.1376 26.2276 16.2028C27.4441 16.4002 27.7812 17.7796 26.7986 18.5395C26.4512 18.8081 25.6837 18.7424 25.2677 18.4085L25.2677 18.4085ZM27.2675 16.115C27.3083 16.0086 27.4992 15.8498 27.6916 15.7621C28.0357 15.6053 28.0381 15.6078 27.8364 15.9122C27.6035 16.2636 27.1482 16.4259 27.2675 16.115Z" fill="#A7A7A7"/>
<path d="M0.269251 29.0096V23.2884H26.1168H51.9643L51.9291 28.9759L51.8941 34.6634L26.0816 34.6971L0.269135 34.7321V29.0096H0.269251ZM24.4879 22.5587C23.102 22.031 21.9865 21.0759 21.4008 19.9156C19.7543 16.654 21.6459 12.9138 25.2746 12.2558C27.5291 11.847 29.9157 13.1353 30.9357 15.3118C31.2578 15.999 31.2986 16.2456 31.2986 17.5025C31.2986 18.8276 31.2705 18.9759 30.8623 19.8051C30.3365 20.8731 29.3732 21.8186 28.2991 22.3207C27.6591 22.6199 27.3138 22.6858 26.2505 22.7117C25.4224 22.7319 24.8011 22.678 24.4879 22.5587L24.4879 22.5587ZM26.4599 22.0645C26.5132 21.9783 26.7292 21.9513 26.9837 21.9991C27.3099 22.0603 27.4743 22.017 27.6491 21.8238C27.7818 21.6772 27.9883 21.5954 28.1313 21.6327C28.296 21.6758 28.4568 21.5832 28.6019 21.3617C28.7232 21.1767 28.9697 20.9883 29.1498 20.9431C29.3467 20.8937 29.5099 20.7305 29.5593 20.5335C29.6045 20.3535 29.7929 20.1069 29.9779 19.9857C30.1994 19.8406 30.292 19.6798 30.249 19.5151C30.2114 19.3714 30.2941 19.1649 30.4433 19.0299C30.6302 18.8607 30.6804 18.692 30.6224 18.4278C30.5767 18.2197 30.6176 17.9393 30.717 17.7802C30.8608 17.5498 30.8608 17.4495 30.717 17.2191C30.6176 17.06 30.5767 16.7797 30.6224 16.5715C30.6804 16.3073 30.6302 16.1386 30.4433 15.9694C30.2941 15.8344 30.2114 15.6279 30.249 15.4842C30.2924 15.318 30.1972 15.1573 29.9651 15.0052C29.7726 14.8787 29.6151 14.6741 29.6151 14.5489C29.6151 14.2595 29.3553 13.9997 29.0659 13.9997C28.9411 13.9997 28.7398 13.8482 28.6186 13.6631C28.4867 13.4619 28.2706 13.3266 28.0811 13.3266C27.9068 13.3266 27.6844 13.2305 27.5869 13.113C27.4669 12.9684 27.2861 12.9242 27.0265 12.9762C26.8158 13.0183 26.5247 12.9787 26.3796 12.8881C26.1716 12.7582 26.06 12.7582 25.852 12.8881C25.707 12.9787 25.4158 13.0183 25.2051 12.9762C24.9455 12.9242 24.7647 12.9684 24.6447 13.113C24.5464 13.2304 24.327 13.3265 24.156 13.3265C23.8437 13.3265 23.4224 13.6415 23.4224 13.8744C23.4224 13.9431 23.3133 13.9996 23.1801 13.9996C22.8699 13.9996 22.6147 14.2549 22.6147 14.565C22.6147 14.6983 22.5584 14.8073 22.4897 14.8073C22.2566 14.8073 21.9416 15.2289 21.9416 15.5408C21.9416 15.7116 21.8455 15.931 21.7281 16.0285C21.5834 16.1485 21.5393 16.3293 21.5912 16.5889C21.6333 16.7997 21.5937 17.0908 21.5031 17.2359C21.3732 17.4438 21.3732 17.5554 21.5031 17.7634C21.5937 17.9085 21.6333 18.1996 21.5912 18.4104C21.5393 18.6699 21.5834 18.8507 21.7281 18.9708C21.8455 19.0682 21.9416 19.2906 21.9416 19.4649C21.9416 19.6545 22.0769 19.8705 22.2781 20.0024C22.4632 20.1237 22.6147 20.325 22.6147 20.4497C22.6147 20.5745 22.6874 20.7492 22.7762 20.8381C22.8651 20.9269 23.0398 20.9996 23.1646 20.9996C23.2893 20.9996 23.4944 21.1568 23.6202 21.3489C23.7723 21.5809 23.933 21.6761 24.0992 21.6327C24.2423 21.5953 24.4488 21.6771 24.5815 21.8238C24.7563 22.0169 24.9206 22.0602 25.2468 21.999C25.5014 21.9513 25.7174 21.9782 25.7707 22.0644C25.8205 22.1451 25.9753 22.2112 26.1147 22.2112C26.254 22.2112 26.4088 22.1451 26.4587 22.0644L26.4599 22.0645ZM25.9807 19.811C25.9807 19.4139 25.8063 19.3518 25.6222 19.6834L25.4517 19.9905L25.447 19.6876C25.4412 19.3232 25.3477 19.3093 24.9925 19.6203C24.7354 19.8454 24.7275 19.8449 24.8136 19.6093C24.8632 19.4737 24.9037 19.2703 24.9037 19.1572C24.9037 18.9987 24.9884 18.9744 25.2739 19.051C25.6064 19.1402 26.2646 19.1495 26.9773 19.075C27.1561 19.0563 27.266 19.1653 27.3404 19.4352L27.4471 19.8221L27.1177 19.5127L26.7883 19.2032L26.7842 19.5969C26.7807 19.9294 26.7588 19.9539 26.6429 19.755C26.4585 19.44 26.2498 19.4575 26.2498 19.79C26.2498 19.938 26.1892 20.0592 26.1152 20.0592C26.0412 20.0592 25.9806 19.9481 25.9806 19.8124L25.9807 19.811ZM24.377 19.0764C24.562 18.6704 24.9475 18.4562 24.8799 18.797C24.856 18.9175 24.6972 19.1084 24.527 19.2212C24.2227 19.4229 24.2202 19.4205 24.377 19.0764L24.377 19.0764ZM27.5457 19.1047C27.3499 18.9507 27.226 18.7661 27.2703 18.6944C27.365 18.541 27.6818 18.7726 27.8775 19.1381C28.0472 19.4553 27.9832 19.4489 27.5457 19.1047L27.5457 19.1047ZM24.1029 18.5026L24.4123 18.1732L24.0187 18.1691C23.6862 18.1657 23.6616 18.1437 23.8606 18.0278C24.1743 17.8434 24.1568 17.6347 23.8243 17.6347C23.6762 17.6347 23.555 17.5742 23.555 17.5001C23.555 17.4261 23.6762 17.3655 23.8243 17.3655C24.1563 17.3655 24.1742 17.1567 23.8579 16.9724C23.6475 16.8499 23.6547 16.8348 23.9252 16.8311C24.2887 16.8262 24.3041 16.7303 23.9962 16.3901C23.7726 16.143 23.7775 16.1371 24.1308 16.2258C24.5336 16.3269 24.5687 16.2697 24.3525 15.8657C24.222 15.6219 24.2344 15.6094 24.4783 15.7399C24.8823 15.9562 24.9395 15.921 24.8384 15.5182C24.7497 15.1649 24.7556 15.16 25.0026 15.3836C25.3429 15.6915 25.4388 15.6761 25.4437 15.3126C25.4474 15.0421 25.4625 15.0349 25.585 15.2453C25.7693 15.5616 25.9781 15.5437 25.9781 15.2117C25.9781 15.0636 26.0387 14.9424 26.1127 14.9424C26.1868 14.9424 26.2473 15.0636 26.2473 15.2117C26.2473 15.5437 26.4562 15.5616 26.6404 15.2453C26.7563 15.0463 26.7782 15.0709 26.7817 15.4034L26.7858 15.797L27.1152 15.4876L27.4445 15.1782L27.3453 15.5492C27.2479 15.9134 27.2259 15.9206 26.1649 15.9362C24.7055 15.9576 24.5702 16.093 24.5488 17.5522C24.5332 18.6132 24.526 18.6353 24.1619 18.7327L23.7908 18.8319L24.1003 18.5025L24.1029 18.5026ZM27.9518 18.729C27.7371 18.6446 27.699 18.4653 27.6826 17.4596C27.6693 16.6453 27.7113 16.2885 27.8207 16.2886C27.9072 16.2886 28.0889 16.2486 28.2245 16.1997C28.4231 16.1282 28.4076 16.1806 28.1448 16.469L27.8177 16.827L28.2113 16.8318C28.6013 16.8365 28.6021 16.8382 28.2979 17.0071C27.9663 17.1912 28.0283 17.3655 28.4255 17.3655C28.5612 17.3655 28.6723 17.4261 28.6723 17.5001C28.6723 17.5742 28.5511 17.6347 28.4031 17.6347C28.071 17.6347 28.0531 17.8436 28.3694 18.0278C28.5684 18.1437 28.5438 18.1657 28.2113 18.1691L27.8182 18.1731L28.1346 18.5097C28.4545 18.8502 28.4065 18.9078 27.9518 18.729L27.9518 18.729ZM25.2677 18.4081C24.9692 18.1684 24.8865 17.9844 24.8683 17.5188C24.8484 17.0085 24.9045 16.8788 25.2969 16.5282C25.6761 16.1894 25.8253 16.1372 26.2276 16.2025C27.4441 16.3999 27.7812 17.7792 26.7985 18.5391C26.4512 18.8078 25.6837 18.7421 25.2677 18.4081L25.2677 18.4081ZM27.2674 16.1147C27.3083 16.0083 27.4992 15.8495 27.6916 15.7618C28.0357 15.605 28.0381 15.6075 27.8364 15.9118C27.6035 16.2632 27.1481 16.4256 27.2674 16.1147ZM0.268982 5.99026V0.268433L26.0815 0.30241L51.894 0.336413V5.99026V11.6441L26.0815 11.6782L0.268982 11.7121V5.99026Z" fill="#E6914F"/>
<path d="M0.26922 29.0096V23.2885H26.1167H51.9642L51.9291 28.976L51.8941 34.6635L26.0816 34.6971L0.269104 34.7321V29.0096H0.26922ZM24.4879 22.5587C23.102 22.031 21.9865 21.0759 21.4007 19.9157C19.7543 16.6541 21.6458 12.9138 25.2746 12.2558C27.5291 11.847 29.9157 13.1354 30.9357 15.3118C31.2577 15.9991 31.2986 16.2456 31.2986 17.5026C31.2986 18.8276 31.2705 18.9759 30.8623 19.8051C30.3365 20.8732 29.3731 21.8186 28.2991 22.3207C27.6591 22.6199 27.3137 22.6858 26.2505 22.7117C25.4224 22.7319 24.8011 22.678 24.4878 22.5587L24.4879 22.5587ZM26.4599 22.0645C26.5131 21.9783 26.7292 21.9513 26.9837 21.9991C27.3099 22.0603 27.4742 22.017 27.649 21.8239C27.7817 21.6772 27.9883 21.5954 28.1313 21.6328C28.2959 21.6758 28.4568 21.5832 28.6019 21.3618C28.7231 21.1767 28.9697 20.9883 29.1497 20.9432C29.3466 20.8937 29.5099 20.7305 29.5593 20.5336C29.6045 20.3535 29.7929 20.107 29.9779 19.9857C30.1993 19.8406 30.292 19.6798 30.2489 19.5151C30.2114 19.3715 30.2941 19.1649 30.4432 19.0299C30.6302 18.8607 30.6804 18.6921 30.6224 18.4278C30.5766 18.2197 30.6176 17.9393 30.7169 17.7802C30.8608 17.5499 30.8608 17.4495 30.7169 17.2191C30.6176 17.06 30.5766 16.7797 30.6224 16.5715C30.6804 16.3073 30.6302 16.1387 30.4432 15.9695C30.2941 15.8344 30.2114 15.6279 30.2489 15.4842C30.2924 15.318 30.1971 15.1573 29.9651 15.0053C29.7726 14.8787 29.6151 14.6741 29.6151 14.5489C29.6151 14.2595 29.3553 13.9997 29.0659 13.9997C28.9411 13.9997 28.7398 13.8482 28.6185 13.6631C28.4867 13.4619 28.2706 13.3266 28.0811 13.3266C27.9067 13.3266 27.6844 13.2305 27.5869 13.1131C27.4669 12.9684 27.2861 12.9243 27.0265 12.9762C26.8158 13.0183 26.5246 12.9787 26.3795 12.8881C26.1716 12.7582 26.06 12.7582 25.852 12.8881C25.7069 12.9787 25.4158 13.0183 25.205 12.9762C24.9455 12.9243 24.7647 12.9684 24.6446 13.1131C24.5464 13.2305 24.327 13.3266 24.156 13.3266C23.8437 13.3266 23.4223 13.6416 23.4223 13.8745C23.4223 13.9431 23.3133 13.9997 23.18 13.9997C22.8699 13.9997 22.6146 14.2549 22.6146 14.565C22.6146 14.6983 22.5584 14.8073 22.4896 14.8073C22.2566 14.8073 21.9416 15.2289 21.9416 15.5409C21.9416 15.7116 21.8455 15.931 21.728 16.0285C21.5834 16.1486 21.5392 16.3293 21.5912 16.5889C21.6333 16.7997 21.5937 17.0908 21.5031 17.2359C21.3732 17.4439 21.3732 17.5554 21.5031 17.7634C21.5937 17.9085 21.6333 18.1996 21.5912 18.4104C21.5392 18.67 21.5834 18.8507 21.728 18.9708C21.8455 19.0682 21.9416 19.2906 21.9416 19.4649C21.9416 19.6545 22.0769 19.8705 22.2781 20.0024C22.4632 20.1237 22.6147 20.325 22.6147 20.4497C22.6147 20.5745 22.6873 20.7493 22.7762 20.8381C22.865 20.9269 23.0398 20.9996 23.1646 20.9996C23.2893 20.9996 23.4944 21.1568 23.6202 21.3489C23.7722 21.5809 23.933 21.6762 24.0992 21.6327C24.2422 21.5953 24.4488 21.6771 24.5815 21.8238C24.7563 22.0169 24.9206 22.0602 25.2468 21.999C25.5013 21.9513 25.7174 21.9783 25.7706 22.0645C25.8205 22.1452 25.9753 22.2112 26.1147 22.2112C26.254 22.2112 26.4088 22.1452 26.4587 22.0645L26.4599 22.0645ZM25.9806 19.8111C25.9806 19.4139 25.8063 19.3518 25.6222 19.6834L25.4517 19.9906L25.4469 19.6877C25.4412 19.3232 25.3476 19.3093 24.9924 19.6204C24.7354 19.8455 24.7274 19.845 24.8136 19.6094C24.8631 19.4737 24.9037 19.2703 24.9037 19.1573C24.9037 18.9987 24.9883 18.9745 25.2739 19.0511C25.6064 19.1402 26.2645 19.1495 26.9773 19.075C27.1561 19.0564 27.2659 19.1654 27.3403 19.4352L27.447 19.8221L27.1176 19.5127L26.7883 19.2033L26.7842 19.5969C26.7807 19.9294 26.7588 19.954 26.6429 19.755C26.4584 19.44 26.2498 19.4575 26.2498 19.79C26.2498 19.9381 26.1892 20.0592 26.1152 20.0592C26.0411 20.0592 25.9806 19.9482 25.9806 19.8124L25.9806 19.8111ZM24.377 19.0764C24.562 18.6704 24.9475 18.4562 24.8799 18.7971C24.856 18.9175 24.6972 19.1084 24.527 19.2212C24.2227 19.423 24.2202 19.4205 24.3769 19.0765L24.377 19.0764ZM27.5457 19.1048C27.3499 18.9508 27.226 18.7661 27.2703 18.6944C27.365 18.5411 27.6818 18.7726 27.8774 19.1381C28.0472 19.4553 27.9831 19.4489 27.5457 19.1048L27.5457 19.1048ZM24.1029 18.5026L24.4123 18.1732L24.0186 18.1691C23.6861 18.1657 23.6616 18.1437 23.8606 18.0278C24.1742 17.8434 24.1567 17.6348 23.8242 17.6348C23.6761 17.6348 23.555 17.5742 23.555 17.5001C23.555 17.4261 23.6761 17.3655 23.8242 17.3655C24.1563 17.3655 24.1742 17.1567 23.8579 16.9725C23.6475 16.8499 23.6547 16.8348 23.9252 16.8312C24.2886 16.8262 24.3041 16.7303 23.9961 16.3901C23.7726 16.1431 23.7775 16.1371 24.1308 16.2258C24.5335 16.3269 24.5687 16.2698 24.3525 15.8657C24.222 15.6219 24.2344 15.6095 24.4783 15.74C24.8823 15.9562 24.9394 15.921 24.8383 15.5182C24.7497 15.1649 24.7556 15.1601 25.0026 15.3836C25.3429 15.6915 25.4388 15.6761 25.4437 15.3126C25.4474 15.0422 25.4625 15.0349 25.585 15.2453C25.7692 15.5616 25.9781 15.5438 25.9781 15.2117C25.9781 15.0636 26.0386 14.9425 26.1127 14.9425C26.1867 14.9425 26.2473 15.0636 26.2473 15.2117C26.2473 15.5438 26.4561 15.5616 26.6404 15.2453C26.7563 15.0464 26.7782 15.0709 26.7817 15.4034L26.7858 15.7971L27.1151 15.4876L27.4445 15.1782L27.3453 15.5493C27.2479 15.9134 27.2259 15.9206 26.1648 15.9362C24.7055 15.9576 24.5702 16.093 24.5488 17.5523C24.5332 18.6133 24.526 18.6353 24.1619 18.7327L23.7908 18.8319L24.1002 18.5025L24.1029 18.5026ZM27.9518 18.729C27.737 18.6446 27.699 18.4653 27.6826 17.4596C27.6692 16.6453 27.7113 16.2886 27.8207 16.2886C27.9072 16.2886 28.0889 16.2486 28.2245 16.1998C28.4231 16.1282 28.4075 16.1807 28.1448 16.469L27.8176 16.8271L28.2113 16.8318C28.6013 16.8366 28.6021 16.8382 28.2978 17.0071C27.9662 17.1912 28.0283 17.3655 28.4255 17.3655C28.5612 17.3655 28.6723 17.4261 28.6723 17.5002C28.6723 17.5742 28.5511 17.6348 28.403 17.6348C28.0709 17.6348 28.0531 17.8436 28.3694 18.0278C28.5683 18.1437 28.5438 18.1657 28.2113 18.1691L27.8182 18.1732L28.1346 18.5097C28.4545 18.8503 28.4065 18.9078 27.9518 18.729L27.9518 18.729ZM25.2677 18.4082C24.9691 18.1685 24.8865 17.9845 24.8683 17.5188C24.8484 17.0085 24.9045 16.8789 25.2969 16.5282C25.676 16.1895 25.8252 16.1372 26.2275 16.2025C27.444 16.3999 27.7811 17.7793 26.7985 18.5392C26.4512 18.8078 25.6837 18.7421 25.2677 18.4082L25.2677 18.4082ZM27.2674 16.1147C27.3082 16.0083 27.4991 15.8495 27.6916 15.7618C28.0357 15.605 28.0381 15.6075 27.8364 15.9118C27.6034 16.2632 27.1481 16.4256 27.2674 16.1147ZM0.493758 11.4874C0.44422 11.4379 0.403674 8.92369 0.403674 5.90023V0.403076L26.0816 0.437053L51.7594 0.471057V5.99029V11.5095L26.1718 11.5435C12.0991 11.5621 0.543674 11.5369 0.493866 11.4874L0.493758 11.4874Z" fill="#659BA4"/>
<path d="M0.40387 29.0096V23.423H26.1154H51.8269V29.0096V34.5961H26.1154H0.40387V29.0096ZM24.8702 22.6113C23.3693 22.2344 22.046 21.1292 21.3594 19.6807C20.9731 18.8649 20.9327 18.6576 20.9327 17.4999C20.9327 16.3456 20.9739 16.1343 21.3552 15.3295C21.945 14.0846 22.5955 13.418 23.8026 12.8214C24.7658 12.3454 24.8942 12.3173 26.1084 12.3173C27.2737 12.3173 27.4788 12.3574 28.2963 12.7446C29.4479 13.2902 30.3284 14.1719 30.8671 15.3191C31.2364 16.1057 31.2911 16.3676 31.2944 17.3654C31.299 18.7611 31.1206 19.3852 30.4148 20.4422C29.8338 21.3122 28.659 22.2156 27.7545 22.4881C27.0652 22.6956 25.4748 22.7638 24.8697 22.6118L24.8702 22.6113ZM26.5852 22.0955C26.6582 22.0547 26.9076 22.0377 27.1396 22.0577C27.4227 22.0821 27.5878 22.0248 27.6421 21.8833C27.6899 21.7588 27.8835 21.6726 28.1155 21.6726C28.3826 21.6726 28.5766 21.5682 28.7222 21.3459C28.84 21.1662 29.0741 20.9996 29.2425 20.9757C29.4416 20.9474 29.5639 20.8251 29.5921 20.626C29.616 20.4576 29.7826 20.2235 29.9623 20.1058C30.1846 19.9601 30.2891 19.7662 30.2891 19.4991C30.2891 19.267 30.3752 19.0734 30.4998 19.0256C30.6446 18.9701 30.6985 18.8052 30.672 18.4986C30.6509 18.2532 30.6772 18.0088 30.7306 17.9555C30.7844 17.903 30.8275 17.6984 30.8275 17.5005C30.8275 17.3031 30.7839 17.0979 30.7305 17.0445C30.6772 16.9912 30.6516 16.7387 30.6736 16.4834C30.7016 16.1583 30.6499 15.9948 30.5013 15.9377C30.3761 15.8893 30.2886 15.6981 30.2886 15.4706C30.2886 15.2071 30.1816 15.0142 29.9521 14.8638C29.767 14.7425 29.6155 14.5276 29.6155 14.3862C29.6155 14.231 29.472 14.0746 29.2536 13.9915C29.0545 13.9158 28.8087 13.7356 28.7075 13.591C28.6065 13.4455 28.3965 13.3271 28.239 13.3271C28.0825 13.3271 27.8424 13.2258 27.7056 13.102C27.4928 12.9094 26.8949 12.7933 26.1158 12.7933C25.3368 12.7933 24.7388 12.9094 24.526 13.102C24.3887 13.2259 24.1491 13.3271 23.9929 13.3271C23.8364 13.3271 23.6254 13.4454 23.5241 13.59C23.4229 13.7346 23.1771 13.9148 22.978 13.9905C22.779 14.0662 22.6161 14.2209 22.6161 14.3343C22.6161 14.4477 22.4646 14.6721 22.2795 14.833C22.0944 14.994 21.943 15.2463 21.943 15.3937C21.943 15.5411 21.8417 15.7736 21.7179 15.9104C21.3008 16.3713 21.3011 18.7431 21.7183 19.0483C21.8419 19.1387 21.943 19.3691 21.943 19.5603C21.943 19.7526 22.0605 19.9903 22.2059 20.0922C22.3505 20.1935 22.5307 20.4392 22.6064 20.6383C22.6895 20.8568 22.8459 21.0002 23.0011 21.0002C23.1425 21.0002 23.3574 21.1517 23.4787 21.3368C23.6291 21.5663 23.822 21.6733 24.0855 21.6733C24.3131 21.6733 24.5054 21.7605 24.5533 21.8856C24.609 22.0307 24.7733 22.0862 25.0725 22.0609C25.3133 22.0406 25.6278 22.0902 25.7714 22.1712C26.0121 22.3068 26.2468 22.2852 26.5853 22.0962L26.5852 22.0955ZM25.3318 18.2649C24.5628 17.4463 25.321 16.1173 26.3831 16.422C26.9429 16.5825 27.1833 16.9071 27.1886 17.5097C27.1972 18.4726 25.9887 18.9641 25.3318 18.2649H25.3318ZM26.4371 18.2897C26.6207 18.2061 26.8427 17.9641 26.9306 17.7521C27.2459 16.9907 26.3527 16.283 25.6541 16.7407C24.922 17.2203 25.1471 18.1229 26.076 18.4327C26.091 18.4377 26.2535 18.3733 26.4371 18.2897V18.2897ZM25.6497 17.9088C25.1009 17.3024 25.9188 16.4844 26.5253 17.0333C26.8554 17.332 26.8617 17.6612 26.5429 17.9498C26.218 18.2438 25.9415 18.2311 25.6497 17.9088L25.6497 17.9088ZM0.49417 11.4884C0.444631 11.4389 0.404085 8.92467 0.404085 5.90121V0.404053L26.082 0.43803L51.7598 0.472034V5.99126V11.5105L26.1722 11.5445C12.0995 11.5631 0.544085 11.5379 0.494277 11.4884L0.49417 11.4884Z" fill="#ED7A20"/>
<path d="M0.40387 29.0097V23.4231H26.1154H51.8269V29.0097V34.5962H26.1154H0.40387V29.0097ZM24.8702 22.6114C23.3693 22.2345 22.046 21.1293 21.3594 19.6808C20.9731 18.865 20.9327 18.6577 20.9327 17.5C20.9327 16.3457 20.9739 16.1344 21.3552 15.3296C21.945 14.0847 22.5955 13.4181 23.8026 12.8215C24.7658 12.3455 24.8942 12.3174 26.1084 12.3174C27.2737 12.3174 27.4788 12.3575 28.2963 12.7447C29.4479 13.2903 30.3284 14.172 30.8671 15.3192C31.2364 16.1058 31.2911 16.3677 31.2944 17.3655C31.299 18.7612 31.1206 19.3853 30.4148 20.4423C29.8338 21.3123 28.659 22.2157 27.7545 22.4882C27.0652 22.6957 25.4748 22.7639 24.8697 22.6119L24.8702 22.6114ZM26.5852 22.0956C26.6582 22.0548 26.9076 22.0378 27.1396 22.0578C27.4227 22.0822 27.5878 22.0249 27.6421 21.8834C27.6899 21.7589 27.8835 21.6727 28.1155 21.6727C28.3826 21.6727 28.5766 21.5683 28.7222 21.346C28.84 21.1663 29.0741 20.9997 29.2425 20.9758C29.4416 20.9475 29.5639 20.8252 29.5921 20.6261C29.616 20.4577 29.7826 20.2236 29.9623 20.1059C30.1846 19.9602 30.2891 19.7663 30.2891 19.4992C30.2891 19.2671 30.3752 19.0735 30.4998 19.0257C30.6446 18.9702 30.6985 18.8053 30.672 18.4987C30.6509 18.2533 30.6772 18.0089 30.7306 17.9556C30.7844 17.9031 30.8275 17.6985 30.8275 17.5006C30.8275 17.3032 30.7839 17.098 30.7305 17.0447C30.6772 16.9913 30.6516 16.7388 30.6736 16.4835C30.7016 16.1584 30.6499 15.9949 30.5013 15.9378C30.3761 15.8894 30.2886 15.6982 30.2886 15.4707C30.2886 15.2072 30.1816 15.0143 29.9521 14.8639C29.767 14.7426 29.6155 14.5277 29.6155 14.3863C29.6155 14.2311 29.472 14.0747 29.2536 13.9916C29.0545 13.9159 28.8087 13.7357 28.7075 13.5911C28.6065 13.4456 28.3965 13.3272 28.239 13.3272C28.0825 13.3272 27.8424 13.2259 27.7056 13.1021C27.4928 12.9095 26.8949 12.7934 26.1158 12.7934C25.3368 12.7934 24.7388 12.9095 24.526 13.1021C24.3887 13.226 24.1491 13.3272 23.9929 13.3272C23.8364 13.3272 23.6254 13.4455 23.5241 13.5901C23.4229 13.7347 23.1771 13.9149 22.978 13.9906C22.779 14.0663 22.6161 14.221 22.6161 14.3344C22.6161 14.4478 22.4646 14.6722 22.2795 14.8331C22.0944 14.9941 21.943 15.2464 21.943 15.3938C21.943 15.5412 21.8417 15.7737 21.7179 15.9105C21.3008 16.3714 21.3011 18.7432 21.7183 19.0484C21.8419 19.1388 21.943 19.3692 21.943 19.5604C21.943 19.7527 22.0605 19.9904 22.2059 20.0923C22.3505 20.1936 22.5307 20.4393 22.6064 20.6384C22.6895 20.8569 22.8459 21.0003 23.0011 21.0003C23.1425 21.0003 23.3574 21.1518 23.4787 21.3369C23.6291 21.5664 23.822 21.6734 24.0855 21.6734C24.3131 21.6734 24.5054 21.7606 24.5533 21.8857C24.609 22.0308 24.7733 22.0863 25.0725 22.061C25.3133 22.0407 25.6278 22.0903 25.7714 22.1713C26.0121 22.3069 26.2468 22.2853 26.5853 22.0963L26.5852 22.0956ZM25.3318 18.265C24.5628 17.4464 25.321 16.1174 26.3831 16.4221C26.9429 16.5826 27.1833 16.9072 27.1886 17.5098C27.1972 18.4727 25.9887 18.9642 25.3318 18.265H25.3318ZM26.4371 18.2898C26.6207 18.2062 26.8427 17.9642 26.9306 17.7522C27.2459 16.9908 26.3527 16.2831 25.6541 16.7408C24.922 17.2204 25.1471 18.123 26.076 18.4328C26.091 18.4378 26.2535 18.3734 26.4371 18.2898V18.2898ZM25.6497 17.9089C25.1009 17.3025 25.9188 16.4845 26.5253 17.0334C26.8554 17.3321 26.8617 17.6613 26.5429 17.9499C26.218 18.2439 25.9415 18.2312 25.6497 17.9089L25.6497 17.9089Z" fill="#3050A0"/>
<path d="M0.40387 29.0096V23.4231H26.1154H51.8269V29.0096V34.5962H26.1154H0.40387V29.0096Z" fill="#109352"/>
</svg>
