<svg width="21" height="21" viewBox="0 0 21 21" fill="none" xmlns="http://www.w3.org/2000/svg">
<path d="M16.834 2.35788C16.834 2.35788 16.834 2.35788 16.834 2.35788C17.3663 2.35879 17.8766 2.57064 18.253 2.94704C18.6294 3.32344 18.8412 3.83371 18.8421 4.36602V16.834C18.8412 17.3663 18.6294 17.8766 18.253 18.253C17.8766 18.6294 17.3663 18.8412 16.834 18.8421H4.36602C3.83371 18.8412 3.32344 18.6294 2.94704 18.253C2.57064 17.8766 2.35879 17.3663 2.35788 16.834C2.35788 16.834 2.35788 16.834 2.35788 16.834V4.36602C2.35788 4.366 2.35788 4.36598 2.35788 4.36595C2.35879 3.83366 2.57064 3.32343 2.94704 2.94704C3.32343 2.57064 3.83366 2.35879 4.36595 2.35788C4.36598 2.35788 4.366 2.35788 4.36602 2.35788H16.834ZM16.8342 0.875H4.36582C3.43999 0.875 2.55209 1.24278 1.89744 1.89744C1.24278 2.55209 0.875 3.43999 0.875 4.36582V16.8342C0.875 17.76 1.24278 18.6479 1.89744 19.3026C2.55209 19.9572 3.43999 20.325 4.36582 20.325H16.8342C17.76 20.325 18.6479 19.9572 19.3026 19.3026C19.9572 18.6479 20.325 17.76 20.325 16.8342V4.36582C20.325 3.43999 19.9572 2.55209 19.3026 1.89744C18.6479 1.24278 17.76 0.875 16.8342 0.875Z" fill="#FFEDED" stroke="#FFEDED" stroke-width="0.25"/>
<path d="M10.6001 15.0801C13.0744 15.0801 15.0801 13.0744 15.0801 10.6001C15.0801 8.12588 13.0744 6.12012 10.6001 6.12012C8.12588 6.12012 6.12012 8.12588 6.12012 10.6001C6.12012 13.0744 8.12588 15.0801 10.6001 15.0801Z" stroke="#FFEDED" stroke-width="1.6" stroke-miterlimit="10" stroke-linecap="round" stroke-linejoin="round"/>
<path d="M15.7201 5.4802C16.0735 5.4802 16.3601 5.19366 16.3601 4.8402C16.3601 4.48673 16.0735 4.2002 15.7201 4.2002C15.3666 4.2002 15.0801 4.48673 15.0801 4.8402C15.0801 5.19366 15.3666 5.4802 15.7201 5.4802Z" stroke="#FFEDED" stroke-miterlimit="10" stroke-linecap="round" stroke-linejoin="round"/>
</svg>
