<svg width="20" height="30" viewBox="0 0 20 30" fill="none" xmlns="http://www.w3.org/2000/svg">
<path d="M18.5 0H1.49999C0.673005 0 0 0.673005 0 1.49999V29.4999C0 29.7764 0.224003 29.9999 0.499978 29.9999H0.999957C1.13244 29.9999 1.25994 29.9474 1.35345 29.8534L2.49995 28.7069L3.64645 29.8534C3.84192 30.0489 4.15797 30.0489 4.35344 29.8534L5.49994 28.7069L6.64644 29.8534C6.84197 30.0489 7.15796 30.0489 7.35343 29.8534L8.49993 28.7069L9.64643 29.8534C9.84195 30.0489 10.1579 30.0489 10.3534 29.8534L11.4999 28.7069L12.6464 29.8534C12.8419 30.0489 13.1579 30.0489 13.3534 29.8534L14.4999 28.7069L15.6464 29.8534C15.8419 30.0489 16.1579 30.0489 16.3534 29.8534L17.4999 28.7069L18.6464 29.8534C18.7399 29.9474 18.8669 29.9999 18.9999 29.9999H19.4999C19.7764 29.9999 19.9998 29.7764 19.9998 29.4999V1.49999C20 0.673005 19.327 0 18.5 0ZM11 21.9999C11.276 21.9999 11.5 22.2234 11.5 22.4999C11.5 22.7764 11.276 22.9999 11 22.9999H6.00003C5.72406 22.9999 5.50006 22.7764 5.50006 22.4999C5.50006 22.2234 5.72406 21.9999 6.00003 21.9999H11ZM9.5 20.4999C9.5 20.2234 9.724 20 9.99998 20H13.4999C13.7759 20 13.9999 20.2234 13.9999 20.4999C13.9999 20.7764 13.7759 20.9999 13.4999 20.9999H9.99998C9.724 20.9999 9.5 20.7764 9.5 20.4999ZM8.00001 20.9999H2.50001C2.22403 20.9999 2.00003 20.7764 2.00003 20.4999C2.00003 20.2234 2.22403 20 2.50001 20H8.00001C8.27598 20 8.49999 20.2234 8.49999 20.4999C8.49999 20.7764 8.27598 20.9999 8.00001 20.9999ZM2.50001 21.9999H4C4.27598 21.9999 4.49998 22.2234 4.49998 22.4999C4.49998 22.7764 4.27598 22.9999 4 22.9999H2.50001C2.22403 22.9999 2.00003 22.7764 2.00003 22.4999C2.00003 22.2234 2.22403 21.9999 2.50001 21.9999ZM8.00001 24.9999H2.50001C2.22403 24.9999 2.00003 24.7764 2.00003 24.4999C2.00003 24.2234 2.22403 24 2.50001 24H8.00001C8.27598 24 8.49999 24.2234 8.49999 24.4999C8.49999 24.7764 8.27598 24.9999 8.00001 24.9999ZM13.4999 24.9999H9.99998C9.724 24.9999 9.5 24.7764 9.5 24.4999C9.5 24.2234 9.724 24 9.99998 24H13.4999C13.7759 24 13.9999 24.2234 13.9999 24.4999C13.9999 24.7764 13.776 24.9999 13.4999 24.9999ZM17.5 24.9999H15.5C15.224 24.9999 15 24.7764 15 24.4999C15 24.2234 15.224 24 15.5 24H17.5C17.7759 24 17.9999 24.2234 17.9999 24.4999C17.9999 24.7764 17.7759 24.9999 17.5 24.9999ZM17.5 22.9999H13C12.724 22.9999 12.5 22.7764 12.5 22.4999C12.5 22.2234 12.724 21.9999 13 21.9999H17.5C17.7759 21.9999 17.9999 22.2234 17.9999 22.4999C17.9999 22.7764 17.7759 22.9999 17.5 22.9999ZM17.5 20.9999H15.5C15.224 20.9999 15 20.7764 15 20.4999C15 20.2234 15.224 20 15.5 20H17.5C17.7759 20 17.9999 20.2234 17.9999 20.4999C17.9999 20.7764 17.7759 20.9999 17.5 20.9999ZM17.9999 17.5C17.9999 17.7765 17.7759 17.9999 17.5 17.9999H2.50001C2.22403 17.9999 2.00003 17.7765 2.00003 17.5V2.50001C2.00003 2.22351 2.22403 2.00003 2.50001 2.00003H17.5C17.7759 2.00003 17.9999 2.22351 17.9999 2.50001V17.5Z" fill="#FFEDED"/>
<rect x="3" y="3" width="14" height="14" rx="0.6" fill="#750033"/>
<path d="M8.87 15L6.966 10.744L7.26 9.442H8.198C8.69267 9.442 9.094 9.35333 9.402 9.176C9.71 8.99867 9.91533 8.74667 10.018 8.42H7.372L7.61 7.384H10.046C9.99 7.11333 9.864 6.894 9.668 6.726C9.48133 6.54867 9.18733 6.46 8.786 6.46H7.806L8.1 5.004H13.994L13.77 6.04H11.446C11.6607 6.19867 11.8287 6.39467 11.95 6.628C12.0713 6.86133 12.146 7.11333 12.174 7.384H13.476L13.266 8.42H12.104C12.02 8.82133 11.8613 9.18533 11.628 9.512C11.3947 9.82933 11.068 10.0953 10.648 10.31C10.228 10.5247 9.696 10.674 9.052 10.758L11.11 15H8.87Z" fill="#FFEDED"/>
</svg>
