<svg width="20" height="20" viewBox="0 0 20 20" fill="none" xmlns="http://www.w3.org/2000/svg">
<rect width="20" height="20" rx="6" fill="#750033"/>
<path d="M16.2631 10H14.7894C14.594 10 14.4066 10.0738 14.2684 10.205C14.1302 10.3363 14.0526 10.5143 14.0526 10.7C14.0526 10.8857 14.1302 11.0637 14.2684 11.195C14.4066 11.3263 14.594 11.4 14.7894 11.4V12.8H13.9168C14.0042 12.5758 14.0501 12.339 14.0526 12.1C14.0526 11.6377 13.8921 11.1883 13.5959 10.8215C13.2997 10.4548 12.8843 10.1911 12.4143 10.0715C11.9442 9.95188 11.4457 9.98297 10.9962 10.16C10.5466 10.3369 10.1711 10.6499 9.9279 11.0503C9.87905 11.13 9.84725 11.218 9.83431 11.3094C9.82137 11.4007 9.82756 11.4936 9.85251 11.5827C9.87746 11.6718 9.9207 11.7553 9.97972 11.8285C10.0387 11.9016 10.1124 11.963 10.1965 12.0091C10.2805 12.0551 10.3733 12.0849 10.4696 12.0968C10.5658 12.1087 10.6635 12.1024 10.7572 12.0783C10.8508 12.0542 10.9386 12.0128 11.0153 11.9564C11.0921 11.9 11.1563 11.8297 11.2044 11.7496C11.2692 11.6434 11.3621 11.5552 11.474 11.4939C11.5859 11.4325 11.7128 11.4001 11.842 11.4C12.0374 11.4 12.2249 11.4738 12.363 11.605C12.5012 11.7363 12.5789 11.9143 12.5789 12.1C12.5789 12.2857 12.5012 12.4637 12.363 12.595C12.2249 12.7263 12.0374 12.8 11.842 12.8C11.6466 12.8 11.4592 12.8737 11.321 13.005C11.1828 13.1363 11.1051 13.3143 11.1051 13.5C11.1051 13.6857 11.1828 13.8637 11.321 13.995C11.4592 14.1263 11.6466 14.2 11.842 14.2C12.0374 14.2 12.2249 14.2738 12.363 14.405C12.5012 14.5363 12.5789 14.7143 12.5789 14.9C12.5789 15.0857 12.5012 15.2637 12.363 15.395C12.2249 15.5263 12.0374 15.6 11.842 15.6C11.7128 15.5999 11.5859 15.5675 11.474 15.5061C11.3621 15.4448 11.2692 15.3566 11.2045 15.2503C11.1564 15.1703 11.0921 15.1 11.0153 15.0436C10.9386 14.9872 10.8509 14.9458 10.7572 14.9217C10.6635 14.8976 10.5658 14.8913 10.4696 14.9032C10.3733 14.9151 10.2805 14.9449 10.1965 14.9909C10.1124 15.037 10.0388 15.0983 9.97973 15.1715C9.9207 15.2447 9.87747 15.3282 9.85252 15.4173C9.82756 15.5064 9.82138 15.5992 9.83432 15.6906C9.84725 15.782 9.87906 15.87 9.92791 15.9496C10.1711 16.3501 10.5466 16.663 10.9962 16.84C11.4457 17.017 11.9442 17.0481 12.4142 16.9285C12.8843 16.8089 13.2997 16.5452 13.5959 16.1784C13.8921 15.8117 14.0526 15.3623 14.0526 14.9C14.0501 14.661 14.0042 14.4242 13.9168 14.2H14.7894V16.3C14.7894 16.4857 14.8671 16.6637 15.0052 16.795C15.1434 16.9263 15.3309 17 15.5263 17C15.7217 17 15.9091 16.9263 16.0473 16.795C16.1855 16.6637 16.2631 16.4857 16.2631 16.3V11.4C16.4586 11.4 16.646 11.3263 16.7842 11.195C16.9224 11.0637 17 10.8857 17 10.7C17 10.5143 16.9224 10.3363 16.7842 10.205C16.646 10.0738 16.4586 10 16.2631 10ZM7.44318 9.46988C7.4906 9.64991 7.61137 9.80467 7.77891 9.90011C7.86187 9.94737 7.95381 9.97864 8.04949 9.99215C8.14517 10.0056 8.24271 10.0011 8.33655 9.97881C8.43038 9.9565 8.51867 9.91685 8.59638 9.86213C8.67409 9.80741 8.73969 9.73868 8.78943 9.65987C8.83918 9.58106 8.8721 9.49372 8.88631 9.40282C8.90053 9.31193 8.89576 9.21927 8.87227 9.13013L7.57773 4.20928C7.48687 3.86388 7.27707 3.55725 6.98168 3.33813C6.6863 3.11902 6.32228 3 5.94751 3C5.57274 3 5.20873 3.11902 4.91334 3.33813C4.61796 3.55725 4.40816 3.86388 4.31729 4.20928L3.02204 9.13013C2.97461 9.31016 3.00441 9.50071 3.10488 9.65987C3.20535 9.81903 3.36826 9.93375 3.55777 9.97881C3.74728 10.0239 3.94786 9.99555 4.1154 9.90011C4.28294 9.80467 4.40371 9.64991 4.45113 9.46988L4.86436 7.9H7.03018L7.44318 9.46988ZM5.23287 6.5L5.74639 4.54903C5.76196 4.51034 5.78952 4.47706 5.82543 4.45358C5.86135 4.4301 5.90392 4.41752 5.94751 4.41752C5.99111 4.41752 6.03368 4.4301 6.06959 4.45358C6.1055 4.47706 6.13307 4.51034 6.14864 4.54903L6.66188 6.5H5.23287ZM11.1051 6.5H11.842C12.0374 6.50019 12.2247 6.574 12.3628 6.70523C12.501 6.83647 12.5787 7.01441 12.5789 7.2V7.9C12.5789 8.08565 12.6565 8.2637 12.7947 8.39498C12.9329 8.52625 13.1203 8.6 13.3157 8.6C13.5111 8.6 13.6986 8.52625 13.8368 8.39498C13.9749 8.2637 14.0526 8.08565 14.0526 7.9V7.2C14.0519 6.64323 13.8188 6.10944 13.4044 5.71575C12.99 5.32206 12.4281 5.10061 11.842 5.1H11.1051C10.9097 5.1 10.7223 5.17375 10.5841 5.30503C10.4459 5.4363 10.3683 5.61435 10.3683 5.8C10.3683 5.98565 10.4459 6.1637 10.5841 6.29498C10.7223 6.42625 10.9097 6.5 11.1051 6.5ZM8.15772 12.8H7.42087C7.2255 12.7998 7.03819 12.726 6.90004 12.5948C6.7619 12.4635 6.6842 12.2856 6.68401 12.1V11.4C6.68401 11.2143 6.60638 11.0363 6.46819 10.905C6.33 10.7738 6.14258 10.7 5.94715 10.7C5.75173 10.7 5.5643 10.7738 5.42612 10.905C5.28793 11.0363 5.2103 11.2143 5.2103 11.4V12.1C5.21094 12.6568 5.44404 13.1906 5.85846 13.5843C6.27289 13.9779 6.83478 14.1994 7.42087 14.2H8.15772C8.35315 14.2 8.54057 14.1263 8.67876 13.995C8.81695 13.8637 8.89458 13.6857 8.89458 13.5C8.89458 13.3143 8.81695 13.1363 8.67876 13.005C8.54057 12.8737 8.35315 12.8 8.15772 12.8Z" fill="#FFEDED"/>
</svg>
