<svg width="52" height="52" viewBox="0 0 52 52" fill="none" xmlns="http://www.w3.org/2000/svg">
<g clip-path="url(#clip0_224_2)">
<path d="M51.911 16.242C51.152 7.88799 45.239 1.82699 37.839 1.82699C32.909 1.82699 28.395 4.47999 25.855 8.73199C23.338 4.42499 19.009 1.82599 14.158 1.82599C6.75901 1.82599 0.845007 7.88699 0.0870074 16.241C0.0270074 16.61 -0.218993 18.552 0.529007 21.719C1.60701 26.287 4.09701 30.442 7.72801 33.732L25.843 50.171L44.269 33.733C47.9 30.442 50.39 26.288 51.468 21.719C52.216 18.553 51.97 16.611 51.911 16.242ZM49.521 21.261C48.537 25.433 46.256 29.234 42.931 32.246L25.855 47.481L9.07201 32.25C5.74101 29.232 3.46101 25.432 2.47601 21.26C1.76801 18.263 2.05901 16.57 2.06001 16.559L2.07501 16.458C2.72501 9.13899 7.80601 3.82599 14.158 3.82599C18.845 3.82599 22.971 6.70599 24.929 11.341L25.85 13.524L26.771 11.341C28.698 6.77699 33.042 3.82699 37.84 3.82699C44.191 3.82699 49.273 9.13999 49.936 16.554C49.938 16.57 50.229 18.264 49.521 21.261Z" fill="white"/>
</g>
<defs>
<clipPath id="clip0_224_2">
<rect width="51.997" height="51.997" fill="white"/>
</clipPath>
</defs>
</svg>
