<svg width="40" height="40" viewBox="0 0 40 40" fill="none" xmlns="http://www.w3.org/2000/svg">
<rect width="40" height="40" rx="6" fill="#750033"/>
<path d="M12.0852 15.4927C12.0852 18.9115 17.3451 25.6015 19.9997 28.6214C22.6542 25.6006 27.9143 18.9092 27.9143 15.4927C27.9142 11.1286 24.3638 7.57812 19.9997 7.57812C15.6356 7.57812 12.0852 11.1286 12.0852 15.4927ZM19.9997 10.9761C22.2354 10.9761 24.0543 12.795 24.0543 15.0308C24.0543 17.2665 22.2354 19.0854 19.9997 19.0854C17.7639 19.0854 15.945 17.2665 15.945 15.0308C15.945 12.795 17.7639 10.9761 19.9997 10.9761Z" fill="#750033"/>
<path d="M32.4677 28.7044L24.2663 25.8837C24.5048 25.5701 24.7464 25.2472 24.9886 24.9159C27.9769 20.8272 29.4922 17.6567 29.4922 15.4923C29.4922 10.2582 25.234 6 19.9999 6C14.7659 6 10.5077 10.2582 10.5077 15.4924C10.5077 17.6567 12.023 20.8273 15.0114 24.916C15.2556 25.25 15.4992 25.5755 15.7395 25.8914L7.53302 28.7042C7.21431 28.8134 7.0002 29.1131 7 29.4501C6.9998 29.787 7.21372 30.0869 7.5323 30.1965L19.7224 34.3891C19.8055 34.4177 19.8923 34.432 19.9789 34.432C20.0653 34.432 20.1519 34.4178 20.2348 34.3894L32.467 30.1967C32.7857 30.0876 32.9998 29.7878 33 29.4509C33.0001 29.1139 32.7863 28.814 32.4677 28.7044ZM27.9145 15.4924C27.9145 18.9089 22.6544 25.6003 19.9999 28.6211C17.3453 25.6011 12.0854 18.9112 12.0854 15.4924C12.0855 11.1283 15.6358 7.57777 19.9999 7.57777C24.364 7.57777 27.9145 11.1283 27.9145 15.4924ZM19.9794 32.8091L10.2181 29.4517L16.7664 27.2071C18.2148 29.0184 19.353 30.265 19.4181 30.3361C19.5676 30.4993 19.7786 30.5922 19.9999 30.5922C20.2212 30.5922 20.4323 30.4993 20.5818 30.3361C20.647 30.2649 21.7884 29.0145 23.2399 27.1991L29.7819 29.4491L19.9794 32.8091Z" fill="#FFEDED"/>
<path d="M19.9992 19.0849C22.235 19.0849 24.0539 17.266 24.0539 15.0302C24.0539 12.7945 22.235 10.9756 19.9992 10.9756C17.7635 10.9756 15.9446 12.7945 15.9446 15.0302C15.9446 17.266 17.7635 19.0849 19.9992 19.0849Z" fill="#FFEDED"/>
</svg>
