<svg width="37" height="40" viewBox="0 0 37 40" fill="none" xmlns="http://www.w3.org/2000/svg">
<path d="M7.1543 13.3555C7.1543 18.1653 14.5543 27.5771 18.2889 31.8258C22.0234 27.5759 29.4237 18.1621 29.4237 13.3555C29.4236 7.21578 24.4286 2.2207 18.2889 2.2207C12.1492 2.2207 7.1543 7.21578 7.1543 13.3555ZM18.2889 7.00121C21.4343 7.00121 23.9933 9.56016 23.9933 12.7056C23.9933 15.851 21.4343 18.4099 18.2889 18.4099C15.1435 18.4099 12.5845 15.851 12.5845 12.7056C12.5845 9.56016 15.1435 7.00121 18.2889 7.00121Z" fill="#750033"/>
<path d="M35.8296 31.9421L24.2913 27.9736C24.6269 27.5326 24.9668 27.0783 25.3075 26.6121C29.5117 20.86 31.6436 16.3994 31.6436 13.3544C31.6436 5.99071 25.6528 0 18.2892 0C10.9256 0 4.93487 5.99071 4.93487 13.3545C4.93487 16.3995 7.06671 20.86 11.2709 26.6122C11.6145 27.0822 11.9572 27.5402 12.2953 27.9845L0.749891 31.9417C0.30151 32.0954 0.000277655 32.517 1.91692e-07 32.9911C-0.000277271 33.4651 0.300678 33.887 0.748873 34.0412L17.8987 39.9397C18.0157 39.9798 18.1377 40 18.2596 40C18.3812 40 18.5029 39.98 18.6195 39.9401L35.8286 34.0416C36.277 33.888 36.5782 33.4663 36.5785 32.9923C36.5787 32.5182 36.2778 32.0963 35.8296 31.9421ZM29.4238 13.3545C29.4238 18.1611 22.0236 27.5749 18.2891 31.8248C14.5545 27.5761 7.15448 18.1643 7.15448 13.3545C7.15457 7.21478 12.1495 2.2197 18.2892 2.2197C24.4289 2.2197 29.4238 7.21478 29.4238 13.3545ZM18.2602 37.7168L4.52736 32.9934L13.7401 29.8356C15.7778 32.3837 17.379 34.1376 17.4706 34.2376C17.6809 34.4672 17.9778 34.5979 18.2892 34.5979C18.6005 34.5979 18.8975 34.4672 19.1078 34.2376C19.1995 34.1374 20.8053 32.3784 22.8474 29.8242L32.0511 32.9898L18.2602 37.7168Z" fill="#FFEDED"/>
<path d="M18.2883 18.4087C21.4338 18.4087 23.9927 15.8498 23.9927 12.7044C23.9927 9.55895 21.4338 7 18.2883 7C15.1429 7 12.584 9.55895 12.584 12.7044C12.584 15.8498 15.1429 18.4087 18.2883 18.4087Z" fill="#FFEDED"/>
</svg>
