<svg width="30" height="30" viewBox="0 0 30 30" fill="none" xmlns="http://www.w3.org/2000/svg">
<rect width="30" height="30" rx="6" fill="#750033"/>
<path d="M13.25 5C11.875 5 10.75 6.125 10.75 7.5C10.75 8.625 11.5 9.625 12.625 9.875V10C12.125 10 11.75 10.25 11.375 10.625L9.75 12.25C9.625 12.375 9.375 12.5 9.125 12.5H7V5H13.25Z" fill="#FFEDED"/>
<path d="M11 23.125L15.75 17.5V20.625C15.75 21.625 16.625 22.5 17.625 22.5H22C22.75 22.5 23.25 22 23.25 21.25C23.25 20.5 22.75 20 22 20H18.875C18.5 20 18.25 19.75 18.25 19.375V16.875C18.25 16 18.125 15.25 17.75 14.375L16.875 12.5H17.875C18.5 12.5 19 12.75 19.375 13.25L20 14.125C20.25 14.625 20.875 14.75 21.5 14.5C22 14.125 22.25 13.375 21.75 12.875L21 11.875C20.125 10.625 18.625 10 17.125 10H14.625L14.5 9.625C15.25 9.25 15.75 8.375 15.75 7.5C15.75 6.125 14.625 5 13.25 5H22V11.125L22.75 12.125C23.125 12.625 23.375 13.25 23.25 14C23.125 14.625 22.75 15.25 22.125 15.625V18.75C23.5 18.75 24.625 19.875 24.625 21.25C24.625 22.625 23.5 23.75 22.125 23.75V25H7.625C9 25 10.25 24.25 11 23.125Z" fill="#FFEDED"/>
<path d="M11.5006 14.125L12.3756 13.125L13.1256 15C13.3756 15.625 13.5006 16.125 13.1256 16.625L7.00063 24.25V15H9.62563C10.3756 15 11.0006 14.75 11.5006 14.125Z" fill="#FFEDED"/>
</svg>
