<svg width="20" height="20" viewBox="0 0 20 20" fill="none" xmlns="http://www.w3.org/2000/svg">
<rect width="20" height="20" rx="6" fill="#750033"/>
<path d="M10 10.5329C11.2887 10.5329 12.3334 9.48821 12.3334 8.19954C12.3334 6.91088 11.2887 5.86621 10 5.86621C8.71136 5.86621 7.66669 6.91088 7.66669 8.19954C7.66669 9.48821 8.71136 10.5329 10 10.5329Z" stroke="#FFEDED" stroke-linecap="round" stroke-linejoin="round"/>
<path d="M13.2667 15.2003C13.2667 14.3339 12.9225 13.503 12.3099 12.8904C11.6973 12.2778 10.8664 11.9336 10 11.9336C9.13363 11.9336 8.30274 12.2778 7.69012 12.8904C7.0775 13.503 6.73334 14.3339 6.73334 15.2003H13.2667Z" stroke="#FFEDED" stroke-linecap="round" stroke-linejoin="round"/>
<path d="M13.7333 8.66667C14.131 8.66667 14.5222 8.565 14.8696 8.37132C15.2169 8.17764 15.5091 7.89837 15.7182 7.56004C15.9273 7.22171 16.0464 6.83554 16.0643 6.43821C16.0822 6.04088 15.9982 5.64558 15.8203 5.28984C15.6424 4.93409 15.3766 4.62972 15.048 4.40563C14.7194 4.18153 14.339 4.04515 13.9429 4.00943C13.5467 3.97371 13.148 4.03984 12.7847 4.20154C12.4213 4.36324 12.1053 4.61515 11.8666 4.93333" stroke="#FFEDED" stroke-linecap="round" stroke-linejoin="round"/>
<path d="M14.2 13.3331H17C17 12.4667 16.6558 11.6358 16.0432 11.0232C15.4306 10.4106 14.5997 10.0664 13.7333 10.0664" stroke="#FFEDED" stroke-linecap="round" stroke-linejoin="round"/>
<path d="M8.13335 4.93333C7.89471 4.61515 7.5787 4.36324 7.21532 4.20154C6.85194 4.03984 6.45326 3.97371 6.05714 4.00943C5.66101 4.04515 5.28059 4.18153 4.952 4.40563C4.62341 4.62972 4.35756 4.93409 4.17969 5.28984C4.00182 5.64558 3.91783 6.04088 3.93571 6.43821C3.95359 6.83554 4.07273 7.22171 4.28183 7.56004C4.49093 7.89837 4.78304 8.17764 5.13043 8.37132C5.47782 8.565 5.86895 8.66667 6.26668 8.66667" stroke="#FFEDED" stroke-linecap="round" stroke-linejoin="round"/>
<path d="M6.26667 10.0664C5.40029 10.0664 4.5694 10.4106 3.95678 11.0232C3.34417 11.6358 3 12.4667 3 13.3331H5.8" stroke="#FFEDED" stroke-linecap="round" stroke-linejoin="round"/>
</svg>
