<svg width="14" height="14" viewBox="0 0 14 14" fill="none" xmlns="http://www.w3.org/2000/svg">
<mask id="path-1-outside-1_922_71" maskUnits="userSpaceOnUse" x="0" y="0" width="14" height="14" fill="black">
<rect fill="white" width="14" height="14"/>
<path d="M6.08146 7.71938C6.36588 8.02421 6.67656 8.30319 7.00988 8.55306C7.37038 8.82229 7.75242 9.06111 8.15209 9.26708L8.16869 9.25531C8.19797 9.23177 8.23117 9.20137 8.26631 9.16704C8.30146 9.13271 8.32489 9.10329 8.35613 9.06896L8.46644 8.92478C8.47617 8.90971 8.48728 8.89559 8.49964 8.88261C8.9204 8.32551 9.44465 7.65562 10.2881 8.04794C10.3056 8.05523 10.3226 8.06375 10.3389 8.07345C11.0223 8.4795 11.7232 8.8728 12.4124 9.271C12.4296 9.28001 12.4459 9.29051 12.4613 9.30239C12.632 9.41885 12.769 9.57855 12.8586 9.76533C12.9471 9.95772 12.9925 10.1673 12.9914 10.3793C12.9893 10.5821 12.9584 10.7836 12.8996 10.9776C12.8377 11.1847 12.7525 11.3842 12.6458 11.572C12.514 11.806 12.3426 12.0152 12.1391 12.1899C11.9471 12.3544 11.7323 12.4902 11.5016 12.593H11.4967C11.2871 12.688 11.0695 12.7642 10.8465 12.8205C10.63 12.876 10.4107 12.9199 10.1895 12.9519C9.85123 13.0028 9.50814 13.0133 9.16739 12.9833C8.8305 12.9532 8.49771 12.8874 8.17455 12.7872C7.8431 12.6817 7.5203 12.5505 7.20903 12.3948C6.86928 12.2264 6.53823 12.0408 6.21716 11.8387L6.13516 11.7877C5.83545 11.6004 5.51231 11.3954 5.18527 11.1532C4.51077 10.6393 3.88936 10.0587 3.33039 9.42008C2.78828 8.80447 2.31369 8.13202 1.91483 7.41435C1.5598 6.78179 1.2968 6.1014 1.13383 5.3939C0.98732 4.7648 0.960819 4.1135 1.05573 3.47448C1.11335 3.09582 1.23276 2.72932 1.40913 2.38971C1.57379 2.07327 1.80102 1.79392 2.07689 1.56878C2.35023 1.34864 2.66652 1.18858 3.0053 1.09898C3.36343 1.00709 3.7348 0.978876 4.10261 1.01561C4.20061 1.02194 4.29538 1.05334 4.37791 1.10683C4.45895 1.15945 4.52598 1.23117 4.57316 1.31574L5.88719 3.55098C6.00294 3.70098 6.07856 3.87824 6.10685 4.0659C6.13022 4.25257 6.10255 4.44211 6.0268 4.61417C5.96422 4.75659 5.87844 4.88752 5.77297 5.00158C5.66865 5.11462 5.55355 5.21711 5.42933 5.30759C5.35806 5.36938 5.26825 5.4351 5.17453 5.50375L5.16574 5.51062C5.05451 5.58732 4.94911 5.67223 4.85041 5.76464C4.81186 5.79595 4.78167 5.83639 4.76255 5.88234C4.76255 5.89313 4.77134 5.88234 4.7811 5.89901L4.81429 5.951C4.92461 6.1246 5.13743 6.45611 5.38052 6.80821C5.59443 7.12738 5.82856 7.43238 6.08146 7.72134V7.71938ZM6.61352 9.08269C6.25037 8.81015 5.91133 8.50661 5.60017 8.17545C5.32375 7.86293 5.06869 7.53197 4.83675 7.18484C4.59464 6.83372 4.37205 6.48749 4.25685 6.30212L4.22854 6.25995C4.17958 6.19949 4.14307 6.12986 4.12111 6.0551C4.09916 5.98034 4.0922 5.90195 4.10065 5.82447C4.12654 5.61753 4.22606 5.42697 4.38084 5.28798C4.5041 5.17057 4.63629 5.063 4.77622 4.96627C4.85432 4.90939 4.92851 4.85446 4.99588 4.7966L5.01638 4.7809C5.11114 4.71431 5.19853 4.63769 5.27704 4.55238C5.33332 4.49192 5.37948 4.42269 5.41371 4.34739C5.44188 4.28612 5.45302 4.21834 5.44593 4.15123C5.43135 4.07505 5.39776 4.00385 5.3483 3.94428C5.33624 3.93046 5.32577 3.91533 5.31706 3.89916L4.0167 1.67373C3.73472 1.64797 3.45044 1.67086 3.17615 1.7414C2.92653 1.80692 2.69361 1.92493 2.49277 2.08763C2.28694 2.25636 2.11725 2.46522 1.99391 2.70161C1.85238 2.97634 1.75674 3.27256 1.71079 3.57844C1.62852 4.13357 1.65171 4.69934 1.77913 5.2458C1.9301 5.89165 2.17205 6.51254 2.49765 7.0897C2.87247 7.76362 3.31895 8.3947 3.82926 8.97186C4.35888 9.57651 4.94759 10.1262 5.58651 10.6127C5.87938 10.8354 6.19764 11.0325 6.49051 11.2149L6.5735 11.2679C6.87406 11.4574 7.18392 11.6315 7.50191 11.7897C7.78212 11.93 8.07298 12.0477 8.37175 12.1418C8.65025 12.2296 8.93725 12.2875 9.22792 12.3144C9.51761 12.3394 9.80922 12.3302 10.0968 12.287C10.294 12.2591 10.4895 12.2205 10.6825 12.1712C10.8677 12.1247 11.0484 12.0617 11.2224 11.9829H11.2312C11.4048 11.9056 11.5665 11.8039 11.7115 11.6808C11.8564 11.5562 11.9786 11.4072 12.0727 11.2404C12.1545 11.0969 12.22 10.9446 12.268 10.7863C12.3083 10.653 12.33 10.5147 12.3324 10.3754C12.3349 10.2625 12.3118 10.1505 12.265 10.0478C12.2256 9.96447 12.1645 9.89334 12.0883 9.84183C11.5602 9.46226 10.6327 8.99932 10.0382 8.65408L10.0099 8.63937C9.6438 8.47557 9.30407 8.90909 9.02779 9.27493L9.01119 9.29846C8.96335 9.36222 8.91357 9.42401 8.87452 9.47697C8.83547 9.52993 8.77689 9.59467 8.73784 9.6339C8.68525 9.68664 8.6295 9.7361 8.5709 9.782C8.50479 9.83215 8.43221 9.87306 8.35515 9.90362C8.28223 9.93245 8.20398 9.94516 8.12573 9.94089C8.05838 9.93629 7.99232 9.92003 7.93048 9.89283L7.89924 9.8791C7.44904 9.65061 7.01892 9.38418 6.61352 9.08269Z"/>
</mask>
<path d="M6.08146 7.71938C6.36588 8.02421 6.67656 8.30319 7.00988 8.55306C7.37038 8.82229 7.75242 9.06111 8.15209 9.26708L8.16869 9.25531C8.19797 9.23177 8.23117 9.20137 8.26631 9.16704C8.30146 9.13271 8.32489 9.10329 8.35613 9.06896L8.46644 8.92478C8.47617 8.90971 8.48728 8.89559 8.49964 8.88261C8.9204 8.32551 9.44465 7.65562 10.2881 8.04794C10.3056 8.05523 10.3226 8.06375 10.3389 8.07345C11.0223 8.4795 11.7232 8.8728 12.4124 9.271C12.4296 9.28001 12.4459 9.29051 12.4613 9.30239C12.632 9.41885 12.769 9.57855 12.8586 9.76533C12.9471 9.95772 12.9925 10.1673 12.9914 10.3793C12.9893 10.5821 12.9584 10.7836 12.8996 10.9776C12.8377 11.1847 12.7525 11.3842 12.6458 11.572C12.514 11.806 12.3426 12.0152 12.1391 12.1899C11.9471 12.3544 11.7323 12.4902 11.5016 12.593H11.4967C11.2871 12.688 11.0695 12.7642 10.8465 12.8205C10.63 12.876 10.4107 12.9199 10.1895 12.9519C9.85123 13.0028 9.50814 13.0133 9.16739 12.9833C8.8305 12.9532 8.49771 12.8874 8.17455 12.7872C7.8431 12.6817 7.5203 12.5505 7.20903 12.3948C6.86928 12.2264 6.53823 12.0408 6.21716 11.8387L6.13516 11.7877C5.83545 11.6004 5.51231 11.3954 5.18527 11.1532C4.51077 10.6393 3.88936 10.0587 3.33039 9.42008C2.78828 8.80447 2.31369 8.13202 1.91483 7.41435C1.5598 6.78179 1.2968 6.1014 1.13383 5.3939C0.98732 4.7648 0.960819 4.1135 1.05573 3.47448C1.11335 3.09582 1.23276 2.72932 1.40913 2.38971C1.57379 2.07327 1.80102 1.79392 2.07689 1.56878C2.35023 1.34864 2.66652 1.18858 3.0053 1.09898C3.36343 1.00709 3.7348 0.978876 4.10261 1.01561C4.20061 1.02194 4.29538 1.05334 4.37791 1.10683C4.45895 1.15945 4.52598 1.23117 4.57316 1.31574L5.88719 3.55098C6.00294 3.70098 6.07856 3.87824 6.10685 4.0659C6.13022 4.25257 6.10255 4.44211 6.0268 4.61417C5.96422 4.75659 5.87844 4.88752 5.77297 5.00158C5.66865 5.11462 5.55355 5.21711 5.42933 5.30759C5.35806 5.36938 5.26825 5.4351 5.17453 5.50375L5.16574 5.51062C5.05451 5.58732 4.94911 5.67223 4.85041 5.76464C4.81186 5.79595 4.78167 5.83639 4.76255 5.88234C4.76255 5.89313 4.77134 5.88234 4.7811 5.89901L4.81429 5.951C4.92461 6.1246 5.13743 6.45611 5.38052 6.80821C5.59443 7.12738 5.82856 7.43238 6.08146 7.72134V7.71938ZM6.61352 9.08269C6.25037 8.81015 5.91133 8.50661 5.60017 8.17545C5.32375 7.86293 5.06869 7.53197 4.83675 7.18484C4.59464 6.83372 4.37205 6.48749 4.25685 6.30212L4.22854 6.25995C4.17958 6.19949 4.14307 6.12986 4.12111 6.0551C4.09916 5.98034 4.0922 5.90195 4.10065 5.82447C4.12654 5.61753 4.22606 5.42697 4.38084 5.28798C4.5041 5.17057 4.63629 5.063 4.77622 4.96627C4.85432 4.90939 4.92851 4.85446 4.99588 4.7966L5.01638 4.7809C5.11114 4.71431 5.19853 4.63769 5.27704 4.55238C5.33332 4.49192 5.37948 4.42269 5.41371 4.34739C5.44188 4.28612 5.45302 4.21834 5.44593 4.15123C5.43135 4.07505 5.39776 4.00385 5.3483 3.94428C5.33624 3.93046 5.32577 3.91533 5.31706 3.89916L4.0167 1.67373C3.73472 1.64797 3.45044 1.67086 3.17615 1.7414C2.92653 1.80692 2.69361 1.92493 2.49277 2.08763C2.28694 2.25636 2.11725 2.46522 1.99391 2.70161C1.85238 2.97634 1.75674 3.27256 1.71079 3.57844C1.62852 4.13357 1.65171 4.69934 1.77913 5.2458C1.9301 5.89165 2.17205 6.51254 2.49765 7.0897C2.87247 7.76362 3.31895 8.3947 3.82926 8.97186C4.35888 9.57651 4.94759 10.1262 5.58651 10.6127C5.87938 10.8354 6.19764 11.0325 6.49051 11.2149L6.5735 11.2679C6.87406 11.4574 7.18392 11.6315 7.50191 11.7897C7.78212 11.93 8.07298 12.0477 8.37175 12.1418C8.65025 12.2296 8.93725 12.2875 9.22792 12.3144C9.51761 12.3394 9.80922 12.3302 10.0968 12.287C10.294 12.2591 10.4895 12.2205 10.6825 12.1712C10.8677 12.1247 11.0484 12.0617 11.2224 11.9829H11.2312C11.4048 11.9056 11.5665 11.8039 11.7115 11.6808C11.8564 11.5562 11.9786 11.4072 12.0727 11.2404C12.1545 11.0969 12.22 10.9446 12.268 10.7863C12.3083 10.653 12.33 10.5147 12.3324 10.3754C12.3349 10.2625 12.3118 10.1505 12.265 10.0478C12.2256 9.96447 12.1645 9.89334 12.0883 9.84183C11.5602 9.46226 10.6327 8.99932 10.0382 8.65408L10.0099 8.63937C9.6438 8.47557 9.30407 8.90909 9.02779 9.27493L9.01119 9.29846C8.96335 9.36222 8.91357 9.42401 8.87452 9.47697C8.83547 9.52993 8.77689 9.59467 8.73784 9.6339C8.68525 9.68664 8.6295 9.7361 8.5709 9.782C8.50479 9.83215 8.43221 9.87306 8.35515 9.90362C8.28223 9.93245 8.20398 9.94516 8.12573 9.94089C8.05838 9.93629 7.99232 9.92003 7.93048 9.89283L7.89924 9.8791C7.44904 9.65061 7.01892 9.38418 6.61352 9.08269Z" fill="#FFEDED"/>
<path d="M9.94256 8.7734L9.95427 8.77929L10.0889 8.51122L10.0772 8.50533L9.94256 8.7734ZM6.08146 7.71938L6.30082 7.51472L5.78146 6.95807V7.71938H6.08146ZM7.00988 8.55306L6.82994 8.7931L6.83037 8.79342L7.00988 8.55306ZM8.15209 9.26708L8.01466 9.53375L8.17683 9.61732L8.32564 9.51179L8.15209 9.26708ZM8.16869 9.25531L8.34223 9.50002L8.34959 9.4948L8.35663 9.48914L8.16869 9.25531ZM8.35613 9.06896L8.578 9.27088L8.58661 9.26142L8.59439 9.25126L8.35613 9.06896ZM8.46644 8.92478L8.7047 9.10708L8.71199 9.09756L8.71849 9.08749L8.46644 8.92478ZM8.49964 8.88261L8.717 9.08937L8.72875 9.07702L8.73903 9.06341L8.49964 8.88261ZM10.2881 8.04794L10.1615 8.32019L10.1729 8.32492L10.2881 8.04794ZM10.3389 8.07345L10.1855 8.33127L10.1856 8.33135L10.3389 8.07345ZM12.4124 9.271L12.2622 9.53098L12.273 9.53661L12.4124 9.271ZM12.4613 9.30239L12.2775 9.53953L12.2847 9.54509L12.2922 9.55021L12.4613 9.30239ZM12.8586 9.76533L13.1311 9.63988L13.1291 9.63563L12.8586 9.76533ZM12.9914 10.3793L13.2914 10.3824L13.2914 10.3809L12.9914 10.3793ZM12.8996 10.9776L12.6125 10.8906L12.6122 10.8917L12.8996 10.9776ZM12.6458 11.572L12.385 11.4237L12.3843 11.4248L12.6458 11.572ZM12.1391 12.1899L12.3343 12.4177L12.3345 12.4175L12.1391 12.1899ZM11.5016 12.593V12.893H11.5654L11.6237 12.867L11.5016 12.593ZM11.4967 12.593V12.293H11.4319L11.3728 12.3197L11.4967 12.593ZM10.8465 12.8205L10.773 12.5297L10.7721 12.5299L10.8465 12.8205ZM10.1895 12.9519L10.1465 12.655L10.1449 12.6553L10.1895 12.9519ZM9.16739 12.9833L9.14065 13.2821L9.14107 13.2822L9.16739 12.9833ZM8.17455 12.7872L8.08354 13.073L8.08565 13.0737L8.17455 12.7872ZM7.20903 12.3948L7.3432 12.1265L7.34228 12.1261L7.20903 12.3948ZM6.21716 11.8387L6.37697 11.5848L6.3756 11.584L6.21716 11.8387ZM6.13516 11.7877L5.97615 12.0421L5.97672 12.0425L6.13516 11.7877ZM5.18527 11.1532L5.00345 11.3918L5.0067 11.3942L5.18527 11.1532ZM3.33039 9.42008L3.55614 9.2225L3.55554 9.22182L3.33039 9.42008ZM1.91483 7.41435L2.17706 7.26861L2.17644 7.26752L1.91483 7.41435ZM1.13383 5.3939L1.42618 5.32656L1.42601 5.32586L1.13383 5.3939ZM1.05573 3.47448L0.759144 3.42934L0.758986 3.4304L1.05573 3.47448ZM1.40913 2.38971L1.14301 2.25123L1.1429 2.25144L1.40913 2.38971ZM2.07689 1.56878L1.88871 1.33514L1.88721 1.33636L2.07689 1.56878ZM3.0053 1.09898L2.93074 0.808386L2.92859 0.808953L3.0053 1.09898ZM4.10261 1.01561L4.07277 1.31431L4.08328 1.31499L4.10261 1.01561ZM4.37791 1.10683L4.54129 0.85522L4.54107 0.855078L4.37791 1.10683ZM4.57316 1.31574L4.31111 1.46194L4.31454 1.46777L4.57316 1.31574ZM5.88719 3.55098L5.62857 3.70302L5.63814 3.7193L5.64969 3.73426L5.88719 3.55098ZM6.10685 4.0659L6.40462 4.02861L6.4035 4.02118L6.10685 4.0659ZM6.0268 4.61417L5.75223 4.49328L5.75213 4.49349L6.0268 4.61417ZM5.77297 5.00158L5.5527 4.79791L5.55251 4.79812L5.77297 5.00158ZM5.42933 5.30759L5.2527 5.0651L5.24242 5.07259L5.2328 5.08093L5.42933 5.30759ZM5.17453 5.50375L4.99716 5.26162L4.98982 5.26736L5.17453 5.50375ZM5.16574 5.51062L5.33604 5.75759L5.34341 5.75252L5.35046 5.74701L5.16574 5.51062ZM4.85041 5.76464L5.03951 5.99755L5.04773 5.99087L5.05547 5.98363L4.85041 5.76464ZM4.76255 5.88234L4.48556 5.76711L4.46255 5.82243L4.46255 5.88234L4.76255 5.88234ZM4.7811 5.89901L4.52202 6.05071L4.52825 6.06047L4.7811 5.89901ZM4.81429 5.951L5.0675 5.7901L5.06714 5.78954L4.81429 5.951ZM5.38052 6.80821L5.62974 6.64117L5.6274 6.63777L5.38052 6.80821ZM6.08146 7.72134L5.85572 7.91892L6.38146 8.51962V7.72134H6.08146ZM6.61352 9.08269L6.43344 9.32263L6.4345 9.32342L6.61352 9.08269ZM5.60017 8.17545L5.37536 8.3743L5.38154 8.38088L5.60017 8.17545ZM4.83675 7.18484L5.08621 7.01815L5.08373 7.01454L4.83675 7.18484ZM4.25685 6.30212L4.51182 6.14368L4.50594 6.13492L4.25685 6.30212ZM4.22854 6.25995L4.47763 6.09274L4.47014 6.08159L4.46169 6.07115L4.22854 6.25995ZM4.10065 5.82447L3.80294 5.78724L3.80242 5.79195L4.10065 5.82447ZM4.38084 5.28798L4.58137 5.51128L4.58776 5.5052L4.38084 5.28798ZM4.77622 4.96627L4.94686 5.21312L4.95285 5.20877L4.77622 4.96627ZM4.99588 4.7966L4.81353 4.55838L4.80681 4.56352L4.80039 4.56903L4.99588 4.7966ZM5.01638 4.7809L4.84375 4.53524L4.83403 4.54268L5.01638 4.7809ZM5.27704 4.55238L5.05745 4.34796L5.05627 4.34924L5.27704 4.55238ZM5.41371 4.34739L5.14115 4.22205L5.14061 4.22323L5.41371 4.34739ZM5.44593 4.15123L5.74427 4.11971L5.74295 4.10721L5.74058 4.09485L5.44593 4.15123ZM5.3483 3.94428L5.57918 3.75258L5.57437 3.74706L5.3483 3.94428ZM5.31706 3.89916L5.58135 3.75683L5.57608 3.74781L5.31706 3.89916ZM4.0167 1.67373L4.27572 1.52238L4.1978 1.38903L4.04399 1.37497L4.0167 1.67373ZM3.17615 1.7414L3.10142 1.45086L3.09998 1.45123L3.17615 1.7414ZM2.49277 2.08763L2.30393 1.85452L2.30258 1.85562L2.49277 2.08763ZM1.99391 2.70161L1.72793 2.56283L1.72721 2.56422L1.99391 2.70161ZM1.71079 3.57844L1.41412 3.53388L1.41404 3.53446L1.71079 3.57844ZM1.77913 5.2458L1.48697 5.31393L1.48701 5.31409L1.77913 5.2458ZM2.49765 7.0897L2.75983 6.94388L2.75894 6.9423L2.49765 7.0897ZM3.82926 8.97186L4.05493 8.77419L4.05401 8.77314L3.82926 8.97186ZM5.58651 10.6127L5.40476 10.8514L5.40495 10.8516L5.58651 10.6127ZM6.49051 11.2149L6.65193 10.9621L6.64913 10.9603L6.49051 11.2149ZM6.5735 11.2679L6.41209 11.5208L6.41352 11.5217L6.5735 11.2679ZM7.50191 11.7897L7.63623 11.5214L7.63552 11.5211L7.50191 11.7897ZM8.37175 12.1418L8.46198 11.8557L8.46184 11.8556L8.37175 12.1418ZM9.22792 12.3144L9.20025 12.6132L9.20215 12.6133L9.22792 12.3144ZM10.0968 12.287L10.0549 11.9899L10.0522 11.9903L10.0968 12.287ZM10.6825 12.1712L10.6094 11.8803L10.6083 11.8805L10.6825 12.1712ZM11.2224 11.9829V11.6829H11.1577L11.0987 11.7096L11.2224 11.9829ZM11.2312 11.9829V12.2829H11.2949L11.3532 12.257L11.2312 11.9829ZM11.7115 11.6808L11.9056 11.9095L11.9072 11.9082L11.7115 11.6808ZM12.0727 11.2404L11.812 11.0919L11.8115 11.093L12.0727 11.2404ZM12.268 10.7863L12.5551 10.8734L12.5551 10.8732L12.268 10.7863ZM12.3324 10.3754L12.0325 10.3688L12.0324 10.3701L12.3324 10.3754ZM12.265 10.0478L12.538 9.92336L12.5362 9.91937L12.265 10.0478ZM12.0883 9.84183L11.9132 10.0855L11.9203 10.0904L12.0883 9.84183ZM10.0382 8.65408L10.189 8.39436L10.1765 8.38788L10.0382 8.65408ZM10.0099 8.63937L10.1482 8.37316L10.1404 8.36911L10.1324 8.36553L10.0099 8.63937ZM9.02779 9.27493L8.78826 9.09403L8.7826 9.10205L9.02779 9.27493ZM9.01119 9.29846L9.25126 9.4786L9.25637 9.47134L9.01119 9.29846ZM8.73784 9.6339L8.95028 9.84572L8.95047 9.84554L8.73784 9.6339ZM8.5709 9.782L8.75222 10.0211L8.75589 10.0182L8.5709 9.782ZM8.35515 9.90362L8.46544 10.1826L8.46575 10.1825L8.35515 9.90362ZM8.12573 9.94089L8.10531 10.2402L8.10939 10.2404L8.12573 9.94089ZM7.93048 9.89283L8.05128 9.61823L8.0512 9.61819L7.93048 9.89283ZM7.89924 9.8791L7.76347 10.1466L7.7709 10.1504L7.77853 10.1537L7.89924 9.8791ZM5.86211 7.92403C6.15858 8.24179 6.48245 8.53262 6.82994 8.7931L7.18982 8.31301C6.87067 8.07377 6.57317 7.80663 6.30082 7.51472L5.86211 7.92403ZM6.83037 8.79342C7.20413 9.07256 7.60025 9.32018 8.01466 9.53375L8.28952 9.00041C7.90458 8.80203 7.53662 8.57201 7.18939 8.31269L6.83037 8.79342ZM8.32564 9.51179L8.34223 9.50002L7.99514 9.0106L7.97854 9.02237L8.32564 9.51179ZM8.35663 9.48914C8.3966 9.45702 8.43754 9.41915 8.47593 9.38165L8.05669 8.95243C8.02479 8.98358 7.99935 9.00652 7.98075 9.02147L8.35663 9.48914ZM8.47593 9.38165C8.51879 9.33979 8.56186 9.28861 8.578 9.27088L8.13425 8.86704C8.08791 8.91796 8.08413 8.92563 8.05669 8.95243L8.47593 9.38165ZM8.59439 9.25126L8.7047 9.10708L8.22819 8.74248L8.11787 8.88666L8.59439 9.25126ZM8.71849 9.08749C8.71807 9.08814 8.71758 9.08877 8.717 9.08937L8.28227 8.67584C8.25699 8.70241 8.23427 8.73129 8.2144 8.76207L8.71849 9.08749ZM8.73903 9.06341C8.95524 8.77715 9.16139 8.51526 9.39896 8.36072C9.51199 8.28718 9.62387 8.24408 9.73999 8.2332C9.85495 8.22243 9.99276 8.24143 10.1616 8.31996L10.4146 7.77593C10.1618 7.6583 9.91773 7.61392 9.68401 7.63582C9.45146 7.65761 9.24783 7.74324 9.07177 7.85777C8.73115 8.07936 8.4648 8.43096 8.26024 8.7018L8.73903 9.06341ZM10.1729 8.32492C10.1772 8.32673 10.1814 8.32885 10.1855 8.33127L10.4923 7.81562C10.4637 7.79865 10.434 7.78373 10.4034 7.77097L10.1729 8.32492ZM10.1856 8.33135C10.8708 8.73847 11.5778 9.13527 12.2624 9.53076L12.5625 9.01124C11.8686 8.61032 11.1737 8.22052 10.4921 7.81554L10.1856 8.33135ZM12.273 9.53661C12.2745 9.53743 12.2761 9.53841 12.2775 9.53953L12.645 9.06525C12.6158 9.04262 12.5847 9.02259 12.5519 9.0054L12.273 9.53661ZM12.2922 9.55021C12.4192 9.63684 12.5213 9.75575 12.5881 9.89502L13.1291 9.63563C13.0168 9.40135 12.8448 9.20086 12.6303 9.05456L12.2922 9.55021ZM12.5861 9.89076C12.6563 10.0433 12.6922 10.2096 12.6914 10.3777L13.2914 10.3809C13.2927 10.1251 13.238 9.87214 13.1311 9.63989L12.5861 9.89076ZM12.6914 10.3762C12.6896 10.5506 12.663 10.7238 12.6125 10.8906L13.1867 11.0646C13.2537 10.8433 13.289 10.6136 13.2913 10.3824L12.6914 10.3762ZM12.6122 10.8917C12.5567 11.0771 12.4805 11.2556 12.385 11.4237L12.9066 11.7202C13.0246 11.5127 13.1187 11.2924 13.187 11.0635L12.6122 10.8917ZM12.3843 11.4248C12.2697 11.6285 12.1206 11.8104 11.9437 11.9623L12.3345 12.4175C12.5646 12.2199 12.7584 11.9836 12.9072 11.7191L12.3843 11.4248ZM11.9439 11.9621C11.7738 12.1078 11.5837 12.228 11.3795 12.3189L11.6237 12.867C11.8809 12.7524 12.1203 12.6011 12.3343 12.4177L11.9439 11.9621ZM11.5016 12.293H11.4967V12.893H11.5016V12.293ZM11.3728 12.3197C11.1795 12.4074 10.9787 12.4777 10.773 12.5297L10.92 13.1114C11.1603 13.0506 11.3948 12.9686 11.6206 12.8662L11.3728 12.3197ZM10.7721 12.5299C10.5659 12.5827 10.3571 12.6245 10.1465 12.655L10.2326 13.2488C10.4643 13.2152 10.6941 13.1693 10.921 13.1111L10.7721 12.5299ZM10.1449 12.6553C9.8301 12.7026 9.51082 12.7124 9.19371 12.6845L9.14107 13.2822C9.50547 13.3143 9.87236 13.303 10.2341 13.2486L10.1449 12.6553ZM9.19413 12.6845C8.87834 12.6563 8.56639 12.5946 8.26344 12.5006L8.08565 13.0737C8.42904 13.1802 8.78266 13.2501 9.14065 13.2821L9.19413 12.6845ZM8.26555 12.5013C7.94894 12.4005 7.64056 12.2752 7.3432 12.1265L7.07487 12.6632C7.40004 12.8258 7.73727 12.9628 8.08354 13.073L8.26555 12.5013ZM7.34228 12.1261C7.01163 11.9621 6.68944 11.7815 6.37696 11.5848L6.05736 12.0926C6.38702 12.3001 6.72693 12.4907 7.07579 12.6636L7.34228 12.1261ZM6.3756 11.584L6.29359 11.533L5.97672 12.0425L6.05873 12.0935L6.3756 11.584ZM6.29417 11.5333C5.99506 11.3464 5.68062 11.1467 5.36384 10.9121L5.0067 11.3942C5.34401 11.6441 5.67584 11.8544 5.97615 12.0421L6.29417 11.5333ZM5.36707 10.9145C4.70857 10.4129 4.10188 9.84602 3.55614 9.2225L3.10465 9.61767C3.67684 10.2714 4.31297 10.8658 5.00347 11.3918L5.36707 10.9145ZM3.55554 9.22182C3.02764 8.62235 2.56548 7.96751 2.17705 7.26861L1.65261 7.56008C2.0619 8.29652 2.54891 8.98659 3.10525 9.61835L3.55554 9.22182ZM2.17644 7.26752C1.8354 6.65988 1.58274 6.00626 1.42618 5.32656L0.841486 5.46124C1.01086 6.19654 1.28421 6.9037 1.65322 7.56118L2.17644 7.26752ZM1.42601 5.32586C1.28806 4.73351 1.26311 4.12025 1.35248 3.51855L0.758986 3.4304C0.65853 4.10674 0.686578 4.79609 0.84165 5.46195L1.42601 5.32586ZM1.35232 3.51961C1.405 3.17343 1.51416 2.83839 1.67537 2.52798L1.1429 2.25144C0.951358 2.62024 0.82171 3.01822 0.759145 3.42934L1.35232 3.51961ZM1.67526 2.52819C1.82113 2.24787 2.02236 2.00051 2.26657 1.80121L1.88721 1.33636C1.57967 1.58734 1.32646 1.89867 1.14301 2.25123L1.67526 2.52819ZM2.26507 1.80243C2.50567 1.60865 2.78399 1.46783 3.08201 1.38901L2.92859 0.808953C2.54904 0.909338 2.19479 1.08863 1.88871 1.33514L2.26507 1.80243ZM3.07986 1.38957C3.40394 1.30641 3.73998 1.28089 4.07279 1.31413L4.13242 0.717098C3.72962 0.676866 3.32292 0.707767 2.93074 0.808393L3.07986 1.38957ZM4.08328 1.31499C4.12998 1.318 4.17524 1.33297 4.21475 1.35858L4.54107 0.855078C4.41553 0.773709 4.27125 0.725876 4.12194 0.716236L4.08328 1.31499ZM4.21453 1.35843C4.25452 1.3844 4.28773 1.41988 4.31117 1.4619L4.83514 1.16957C4.76422 1.04245 4.66339 0.934505 4.54129 0.85522L4.21453 1.35843ZM4.31454 1.46777L5.62857 3.70302L6.14581 3.39894L4.83178 1.1637L4.31454 1.46777ZM5.64969 3.73426C5.7342 3.84378 5.78951 3.97334 5.8102 4.11062L6.4035 4.02118C6.36761 3.78315 6.27168 3.55817 6.1247 3.3677L5.64969 3.73426ZM5.80917 4.10318C5.82581 4.23604 5.8061 4.37092 5.75223 4.49328L6.30136 4.73505C6.399 4.5133 6.43464 4.26909 6.40452 4.02862L5.80917 4.10318ZM5.75213 4.49349C5.70294 4.60546 5.63552 4.70834 5.5527 4.79791L5.99324 5.20526C6.12135 5.06671 6.2255 4.90771 6.30146 4.73484L5.75213 4.49349ZM5.55251 4.79812C5.46148 4.89675 5.36106 4.98617 5.2527 5.0651L5.60596 5.55008C5.74604 5.44805 5.87582 5.33248 5.99343 5.20505L5.55251 4.79812ZM5.2328 5.08093C5.17281 5.13295 5.09409 5.1908 4.99724 5.26174L5.35182 5.74576C5.44241 5.67939 5.54332 5.60582 5.62586 5.53426L5.2328 5.08093ZM4.98982 5.26736L4.98103 5.27423L5.35046 5.74701L5.35924 5.74014L4.98982 5.26736ZM4.99544 5.26364C4.87193 5.3488 4.75492 5.44307 4.64536 5.54566L5.05547 5.98363C5.1433 5.90138 5.23708 5.82583 5.33604 5.75759L4.99544 5.26364ZM4.66132 5.53174C4.58409 5.59445 4.52373 5.67536 4.48556 5.76711L5.03954 5.99757L5.03951 5.99755L4.66132 5.53174ZM4.46255 5.88234C4.46255 5.90093 4.46403 5.93782 4.47863 5.98121C4.4954 6.03098 4.52733 6.08271 4.57885 6.12314C4.62478 6.15919 4.66942 6.17261 4.68671 6.17733C4.69605 6.17989 4.70358 6.18146 4.70554 6.18187C4.70655 6.18208 4.70785 6.18234 4.70736 6.18224C4.70733 6.18224 4.70634 6.18203 4.70503 6.18175C4.68982 6.17848 4.64865 6.16855 4.60476 6.13854C4.56272 6.10979 4.53695 6.07577 4.52221 6.05059L5.03999 5.74743C5.02037 5.71392 4.98984 5.67499 4.94341 5.64324C4.89512 5.61023 4.84993 5.5992 4.8313 5.59519C4.83087 5.5951 4.82316 5.59348 4.82834 5.59457C4.82953 5.59482 4.83633 5.59622 4.84499 5.59859C4.8609 5.60294 4.90435 5.61588 4.9493 5.65116C4.97264 5.66948 4.99365 5.69163 5.01115 5.71724C5.02836 5.74244 5.03976 5.76746 5.04726 5.78973C5.06135 5.83158 5.06255 5.86644 5.06255 5.88234H4.46255ZM4.52825 6.06047L4.56144 6.11245L5.06714 5.78954L5.03395 5.73756L4.52825 6.06047ZM4.56109 6.1119C4.67223 6.2868 4.88739 6.62197 5.13364 6.97866L5.6274 6.63777C5.38747 6.29024 5.17699 5.9624 5.0675 5.7901L4.56109 6.1119ZM5.13131 6.97524C5.35238 7.30507 5.59435 7.62028 5.85572 7.91892L6.30721 7.52376C6.06278 7.24448 5.83648 6.94968 5.62972 6.64119L5.13131 6.97524ZM6.38146 7.72134V7.71938H5.78146V7.72134H6.38146ZM6.7936 8.84274C6.44428 8.58059 6.11814 8.2886 5.81881 7.97002L5.38154 8.38088C5.70452 8.72462 6.05646 9.03971 6.43345 9.32263L6.7936 8.84274ZM5.82488 7.97669C5.55742 7.6743 5.31062 7.35406 5.08619 7.01817L4.58731 7.35151C4.82675 7.70987 5.09007 8.05155 5.37546 8.37421L5.82488 7.97669ZM5.08373 7.01454C4.84462 6.66778 4.62464 6.32558 4.51166 6.14378L4.00205 6.46047C4.11946 6.6494 4.34465 6.99965 4.58977 7.35514L5.08373 7.01454ZM4.50594 6.13492L4.47763 6.09274L3.97946 6.42716L4.00777 6.46933L4.50594 6.13492ZM4.46169 6.07115C4.43771 6.04154 4.41976 6.00736 4.40896 5.97057L3.83327 6.13963C3.86637 6.25236 3.92146 6.35744 3.9954 6.44874L4.46169 6.07115ZM4.40896 5.97057C4.39815 5.93378 4.39472 5.89517 4.39889 5.857L3.80242 5.79195C3.78969 5.90874 3.80016 6.02691 3.83327 6.13963L4.40896 5.97057ZM4.39833 5.86171C4.41528 5.72624 4.48039 5.60179 4.58128 5.51118L4.18039 5.06477C3.97172 5.25216 3.8378 5.50882 3.80297 5.78724L4.39833 5.86171ZM4.58776 5.5052C4.6997 5.39856 4.81975 5.30088 4.94681 5.21305L4.60563 4.7195C4.45283 4.82513 4.30849 4.94257 4.17392 5.07075L4.58776 5.5052ZM4.95285 5.20877C5.03076 5.15202 5.11385 5.09075 5.19136 5.02416L4.80039 4.56903C4.74318 4.61818 4.67788 4.66676 4.59959 4.72378L4.95285 5.20877ZM5.17822 5.03482L5.19873 5.01912L4.83403 4.54268L4.81353 4.55838L5.17822 5.03482ZM5.18886 5.02636C5.30121 4.94741 5.40478 4.85661 5.4978 4.75551L5.05627 4.34924C4.99228 4.41878 4.92108 4.4812 4.84389 4.53545L5.18886 5.02636ZM5.49662 4.75679C5.57498 4.67261 5.6392 4.57627 5.68681 4.47155L5.14061 4.22323C5.11975 4.26911 5.09166 4.31122 5.05746 4.34796L5.49662 4.75679ZM5.68627 4.47273C5.737 4.36241 5.75702 4.24043 5.74427 4.11971L5.14759 4.18274C5.14901 4.19624 5.14676 4.20984 5.14115 4.22205L5.68627 4.47273ZM5.74058 4.09485C5.71651 3.96901 5.66099 3.85125 5.57911 3.75263L5.1175 4.13593C5.13453 4.15645 5.1462 4.1811 5.15127 4.2076L5.74058 4.09485ZM5.57437 3.74706C5.57702 3.75011 5.57931 3.75341 5.58119 3.75692L5.05293 4.04141C5.07222 4.07724 5.09547 4.11081 5.12224 4.1415L5.57437 3.74706ZM5.57608 3.74781L4.27572 1.52238L3.75767 1.82508L5.05804 4.05052L5.57608 3.74781ZM4.04399 1.37497C3.72778 1.34608 3.40899 1.37175 3.10142 1.45086L3.25087 2.03195C3.49189 1.96996 3.74166 1.94985 3.9894 1.97248L4.04399 1.37497ZM3.09998 1.45123C2.80912 1.52758 2.5378 1.66506 2.30393 1.85452L2.68161 2.32073C2.84941 2.1848 3.04394 2.08627 3.25231 2.03158L3.09998 1.45123ZM2.30258 1.85562C2.0654 2.05006 1.86995 2.29064 1.72793 2.56283L2.25988 2.84038C2.36454 2.6398 2.50848 2.46267 2.68297 2.31963L2.30258 1.85562ZM1.72721 2.56422C1.57069 2.86808 1.46492 3.19566 1.41412 3.53388L2.00747 3.623C2.04855 3.34946 2.13408 3.0846 2.2606 2.83899L1.72721 2.56422ZM1.41404 3.53446C1.32623 4.12691 1.35098 4.73072 1.48697 5.31393L2.07129 5.17768C1.95244 4.66797 1.93081 4.14024 2.00755 3.62242L1.41404 3.53446ZM1.48701 5.31409C1.64445 5.98761 1.89677 6.63515 2.23636 7.23711L2.75894 6.9423C2.44733 6.38994 2.21576 5.79569 2.07126 5.17751L1.48701 5.31409ZM2.23547 7.23552C2.62081 7.92835 3.07984 8.57717 3.60451 9.17057L4.05401 8.77314C3.55806 8.21223 3.12413 7.59889 2.75983 6.94389L2.23547 7.23552ZM3.60359 9.16953C4.14643 9.78927 4.74985 10.3527 5.40476 10.8514L5.76825 10.3741C5.14532 9.89972 4.57133 9.36375 4.05493 8.77419L3.60359 9.16953ZM5.40495 10.8516C5.71096 11.0842 6.04159 11.2888 6.3319 11.4696L6.64913 10.9603C6.35369 10.7763 6.04781 10.5866 5.76806 10.3739L5.40495 10.8516ZM6.32911 11.4678L6.41209 11.5208L6.7349 11.015L6.65192 10.9621L6.32911 11.4678ZM6.41352 11.5217C6.72261 11.7165 7.04128 11.8956 7.3683 12.0583L7.63552 11.5211C7.32657 11.3674 7.0255 11.1982 6.73348 11.0141L6.41352 11.5217ZM7.36759 12.0579C7.66204 12.2054 7.96769 12.3291 8.28166 12.428L8.46184 11.8556C8.17828 11.7664 7.90221 11.6546 7.63623 11.5214L7.36759 12.0579ZM8.28151 12.4279C8.58035 12.5222 8.88833 12.5843 9.20025 12.6131L9.25558 12.0157C8.98617 11.9908 8.72014 11.9371 8.46198 11.8557L8.28151 12.4279ZM9.20215 12.6133C9.5153 12.6403 9.83053 12.6304 10.1414 12.5836L10.0522 11.9903C9.78791 12.03 9.51992 12.0385 9.25369 12.0155L9.20215 12.6133ZM10.1387 12.584C10.3468 12.5547 10.5531 12.5139 10.7567 12.4619L10.6083 11.8805C10.426 11.9271 10.2412 11.9636 10.0549 11.9899L10.1387 12.584ZM10.7556 12.4622C10.9582 12.4113 11.1558 12.3424 11.3461 12.2562L11.0987 11.7096C10.941 11.781 10.7772 11.8381 10.6094 11.8803L10.7556 12.4622ZM11.2224 12.2829H11.2312V11.6829H11.2224V12.2829ZM11.3532 12.257C11.5529 12.1681 11.7389 12.0511 11.9056 11.9095L11.5174 11.4521C11.3941 11.5568 11.2566 11.6432 11.1092 11.7088L11.3532 12.257ZM11.9072 11.9082C12.0784 11.7609 12.2228 11.5848 12.334 11.3879L11.8115 11.093C11.7344 11.2295 11.6344 11.3514 11.5158 11.4534L11.9072 11.9082ZM12.3334 11.389C12.4262 11.2259 12.5006 11.053 12.5551 10.8734L11.9809 10.6993C11.9394 10.8361 11.8828 10.9678 11.812 11.0919L12.3334 11.389ZM12.5551 10.8732C12.6034 10.7134 12.6294 10.5476 12.6323 10.3806L12.0324 10.3701C12.0305 10.4818 12.0131 10.5927 11.9808 10.6995L12.5551 10.8732ZM12.6323 10.3819C12.6358 10.2239 12.6036 10.0672 12.538 9.92337L11.9921 10.1722C12.0201 10.2338 12.0339 10.301 12.0325 10.3688L12.6323 10.3819ZM12.5362 9.91937C12.4737 9.78762 12.3772 9.67495 12.2563 9.59328L11.9203 10.0904C11.9519 10.1117 11.9774 10.1413 11.9939 10.1762L12.5362 9.91937ZM12.2634 9.59822C11.9835 9.39703 11.6055 9.17886 11.2336 8.9727C10.8537 8.76209 10.4832 8.56556 10.1889 8.39465L9.88756 8.91351C10.1878 9.08784 10.5782 9.2954 10.9427 9.49746C11.3152 9.70397 11.665 9.90706 11.9133 10.0854L12.2634 9.59822ZM10.1765 8.38788L10.1482 8.37316L9.87156 8.90557L9.89987 8.92028L10.1765 8.38788ZM10.1324 8.36553C9.7965 8.21523 9.49706 8.36308 9.29651 8.52528C9.09776 8.68602 8.92232 8.91678 8.78839 9.09413L9.26719 9.45572C9.40954 9.26723 9.5421 9.09832 9.67381 8.99179C9.80373 8.88672 9.8572 8.89971 9.88738 8.91321L10.1324 8.36553ZM8.7826 9.10205L8.76601 9.12559L9.25637 9.47134L9.27297 9.4478L8.7826 9.10205ZM8.77123 9.11841C8.73967 9.16048 8.66569 9.25467 8.63305 9.29894L9.11598 9.655C9.16144 9.59334 9.18704 9.56396 9.25115 9.47852L8.77123 9.11841ZM8.63305 9.29894C8.60558 9.33619 8.55782 9.38951 8.52522 9.42226L8.95047 9.84554C8.99596 9.79983 9.06535 9.72367 9.11598 9.655L8.63305 9.29894ZM8.5254 9.42208C8.48145 9.46615 8.43487 9.50748 8.38591 9.54582L8.75589 10.0182C8.82414 9.96472 8.88905 9.90713 8.95028 9.84572L8.5254 9.42208ZM8.38961 9.54297C8.34512 9.57672 8.29632 9.60422 8.24456 9.62475L8.46575 10.1825C8.56809 10.1419 8.66445 10.0876 8.7522 10.021L8.38961 9.54297ZM8.24486 9.62463C8.21215 9.63756 8.1771 9.64325 8.14208 9.64133L8.10939 10.2404C8.23087 10.2471 8.35231 10.2273 8.46544 10.1826L8.24486 9.62463ZM8.14616 9.64159C8.11347 9.63935 8.08137 9.63146 8.05128 9.61823L7.80968 10.1674C7.90328 10.2086 8.00329 10.2332 8.10531 10.2402L8.14616 9.64159ZM8.0512 9.61819L8.01996 9.60446L7.77853 10.1537L7.80977 10.1675L8.0512 9.61819ZM8.03502 9.61158C7.59997 9.39078 7.18433 9.13332 6.79255 8.84196L6.4345 9.32342C6.85352 9.63504 7.29811 9.91043 7.76347 10.1466L8.03502 9.61158Z" fill="#FFEDED" mask="url(#path-1-outside-1_922_71)"/>
</svg>
