<svg width="20" height="20" viewBox="0 0 20 20" fill="none" xmlns="http://www.w3.org/2000/svg">
<rect width="20" height="20" rx="6" fill="#750033"/>
<mask id="path-2-outside-1_935_445" maskUnits="userSpaceOnUse" x="2" y="2" width="9" height="16" fill="black">
<rect fill="white" x="2" y="2" width="9" height="16"/>
<path d="M8.47495 14.9014H7.32504C7.09707 14.9014 6.91225 15.085 6.91225 15.3115V16.1797H6.09785V15.3115C6.09785 15.085 5.91303 14.9014 5.68506 14.9014H4.53512V14.0923H5.68506C5.91303 14.0923 6.09785 13.9086 6.09785 13.6821V9.44574C6.09785 9.26103 5.97357 9.09911 5.79431 9.05021C4.63516 8.73404 3.82557 7.67827 3.82557 6.48277C3.82557 5.01469 5.02761 3.82031 6.50505 3.82031C7.98249 3.82031 9.1845 5.01469 9.1845 6.48277C9.1845 7.67827 8.37492 8.73404 7.21576 9.05021C7.0365 9.09911 6.91225 9.26103 6.91225 9.44574V13.6821C6.91225 13.9086 7.09707 14.0923 7.32504 14.0923H8.47495V14.9014ZM8.88773 13.272H7.73782V9.74346C9.09027 9.23845 10.0101 7.93992 10.0101 6.48277C10.0101 4.56237 8.43771 3 6.50505 3C4.57236 3 3 4.56237 3 6.48277C3 7.93992 3.9198 9.23845 5.27228 9.74346V13.272H4.12234C3.89437 13.272 3.70955 13.4556 3.70955 13.6821V15.3115C3.70955 15.538 3.89437 15.7217 4.12234 15.7217H5.27228V16.5898C5.27228 16.8164 5.45707 17 5.68506 17H7.32504C7.553 17 7.73782 16.8164 7.73782 16.5898V15.7217H8.88773C9.1157 15.7217 9.30052 15.538 9.30052 15.3115V13.6821C9.30052 13.4556 9.1157 13.272 8.88773 13.272Z"/>
</mask>
<path d="M8.47495 14.9014H7.32504C7.09707 14.9014 6.91225 15.085 6.91225 15.3115V16.1797H6.09785V15.3115C6.09785 15.085 5.91303 14.9014 5.68506 14.9014H4.53512V14.0923H5.68506C5.91303 14.0923 6.09785 13.9086 6.09785 13.6821V9.44574C6.09785 9.26103 5.97357 9.09911 5.79431 9.05021C4.63516 8.73404 3.82557 7.67827 3.82557 6.48277C3.82557 5.01469 5.02761 3.82031 6.50505 3.82031C7.98249 3.82031 9.1845 5.01469 9.1845 6.48277C9.1845 7.67827 8.37492 8.73404 7.21576 9.05021C7.0365 9.09911 6.91225 9.26103 6.91225 9.44574V13.6821C6.91225 13.9086 7.09707 14.0923 7.32504 14.0923H8.47495V14.9014ZM8.88773 13.272H7.73782V9.74346C9.09027 9.23845 10.0101 7.93992 10.0101 6.48277C10.0101 4.56237 8.43771 3 6.50505 3C4.57236 3 3 4.56237 3 6.48277C3 7.93992 3.9198 9.23845 5.27228 9.74346V13.272H4.12234C3.89437 13.272 3.70955 13.4556 3.70955 13.6821V15.3115C3.70955 15.538 3.89437 15.7217 4.12234 15.7217H5.27228V16.5898C5.27228 16.8164 5.45707 17 5.68506 17H7.32504C7.553 17 7.73782 16.8164 7.73782 16.5898V15.7217H8.88773C9.1157 15.7217 9.30052 15.538 9.30052 15.3115V13.6821C9.30052 13.4556 9.1157 13.272 8.88773 13.272Z" fill="#FFEDED"/>
<path d="M8.47495 14.9014V14.9514H8.52495V14.9014H8.47495ZM6.91225 16.1797V16.2297H6.96225V16.1797H6.91225ZM6.09785 16.1797H6.04785V16.2297H6.09785V16.1797ZM4.53512 14.9014H4.48512V14.9514H4.53512V14.9014ZM4.53512 14.0923V14.0423H4.48512V14.0923H4.53512ZM5.79431 9.05021L5.78116 9.09845L5.78116 9.09845L5.79431 9.05021ZM7.21576 9.05021L7.22891 9.09845L7.22892 9.09845L7.21576 9.05021ZM8.47495 14.0923H8.52495V14.0423H8.47495V14.0923ZM7.73782 13.272H7.68782V13.322H7.73782V13.272ZM7.73782 9.74346L7.72033 9.69662L7.68782 9.70876V9.74346H7.73782ZM5.27228 9.74346H5.32228V9.70876L5.28977 9.69662L5.27228 9.74346ZM5.27228 13.272V13.322H5.32228V13.272H5.27228ZM5.27228 15.7217H5.32228V15.6717H5.27228V15.7217ZM7.73782 15.7217V15.6717H7.68782V15.7217H7.73782ZM8.47495 14.8514H7.32504V14.9514H8.47495V14.8514ZM7.32504 14.8514C7.06976 14.8514 6.86225 15.0571 6.86225 15.3115H6.96225C6.96225 15.1129 7.12438 14.9514 7.32504 14.9514V14.8514ZM6.86225 15.3115V16.1797H6.96225V15.3115H6.86225ZM6.91225 16.1297H6.09785V16.2297H6.91225V16.1297ZM6.14785 16.1797V15.3115H6.04785V16.1797H6.14785ZM6.14785 15.3115C6.14785 15.0571 5.94034 14.8514 5.68506 14.8514V14.9514C5.88572 14.9514 6.04785 15.1129 6.04785 15.3115H6.14785ZM5.68506 14.8514H4.53512V14.9514H5.68506V14.8514ZM4.58512 14.9014V14.0923H4.48512V14.9014H4.58512ZM4.53512 14.1423H5.68506V14.0423H4.53512V14.1423ZM5.68506 14.1423C5.94034 14.1423 6.14785 13.9365 6.14785 13.6821H6.04785C6.04785 13.8807 5.88572 14.0423 5.68506 14.0423V14.1423ZM6.14785 13.6821V9.44574H6.04785V13.6821H6.14785ZM6.14785 9.44574C6.14785 9.2383 6.0083 9.05675 5.80747 9.00198L5.78116 9.09845C5.93885 9.14146 6.04785 9.28377 6.04785 9.44574H6.14785ZM5.80747 9.00198C4.66991 8.69169 3.87557 7.65556 3.87557 6.48277H3.77557C3.77557 7.70098 4.6004 8.77639 5.78116 9.09845L5.80747 9.00198ZM3.87557 6.48277C3.87557 5.0426 5.05492 3.87031 6.50505 3.87031V3.77031C5.00029 3.77031 3.77557 4.98677 3.77557 6.48277H3.87557ZM6.50505 3.87031C7.95518 3.87031 9.1345 5.0426 9.1345 6.48277H9.2345C9.2345 4.98677 8.00981 3.77031 6.50505 3.77031V3.87031ZM9.1345 6.48277C9.1345 7.65556 8.34016 8.69169 7.2026 9.00198L7.22892 9.09845C8.40967 8.77639 9.2345 7.70098 9.2345 6.48277H9.1345ZM7.2026 9.00198C7.00177 9.05675 6.86225 9.2383 6.86225 9.44574H6.96225C6.96225 9.28377 7.07123 9.14146 7.22891 9.09845L7.2026 9.00198ZM6.86225 9.44574V13.6821H6.96225V9.44574H6.86225ZM6.86225 13.6821C6.86225 13.9365 7.06976 14.1423 7.32504 14.1423V14.0423C7.12438 14.0423 6.96225 13.8807 6.96225 13.6821H6.86225ZM7.32504 14.1423H8.47495V14.0423H7.32504V14.1423ZM8.42495 14.0923V14.9014H8.52495V14.0923H8.42495ZM8.88773 13.222H7.73782V13.322H8.88773V13.222ZM7.78782 13.272V9.74346H7.68782V13.272H7.78782ZM7.75531 9.7903C9.127 9.27811 10.0601 7.96112 10.0601 6.48277H9.96007C9.96007 7.91872 9.05355 9.19879 7.72033 9.69662L7.75531 9.7903ZM10.0601 6.48277C10.0601 4.53445 8.46503 2.95 6.50505 2.95V3.05C8.4104 3.05 9.96007 4.59028 9.96007 6.48277H10.0601ZM6.50505 2.95C4.54504 2.95 2.95 4.53445 2.95 6.48277H3.05C3.05 4.59028 4.59967 3.05 6.50505 3.05V2.95ZM2.95 6.48277C2.95 7.96112 3.88307 9.27811 5.25479 9.7903L5.28977 9.69662C3.95652 9.19879 3.05 7.91872 3.05 6.48277H2.95ZM5.22228 9.74346V13.272H5.32228V9.74346H5.22228ZM5.27228 13.222H4.12234V13.322H5.27228V13.222ZM4.12234 13.222C3.86706 13.222 3.65955 13.4277 3.65955 13.6821H3.75955C3.75955 13.4835 3.92168 13.322 4.12234 13.322V13.222ZM3.65955 13.6821V15.3115H3.75955V13.6821H3.65955ZM3.65955 15.3115C3.65955 15.566 3.86706 15.7717 4.12234 15.7717V15.6717C3.92168 15.6717 3.75955 15.5101 3.75955 15.3115H3.65955ZM4.12234 15.7717H5.27228V15.6717H4.12234V15.7717ZM5.22228 15.7217V16.5898H5.32228V15.7217H5.22228ZM5.22228 16.5898C5.22228 16.8443 5.42975 17.05 5.68506 17.05V16.95C5.48438 16.95 5.32228 16.7884 5.32228 16.5898H5.22228ZM5.68506 17.05H7.32504V16.95H5.68506V17.05ZM7.32504 17.05C7.58032 17.05 7.78782 16.8443 7.78782 16.5898H7.68782C7.68782 16.7884 7.52569 16.95 7.32504 16.95V17.05ZM7.78782 16.5898V15.7217H7.68782V16.5898H7.78782ZM7.73782 15.7717H8.88773V15.6717H7.73782V15.7717ZM8.88773 15.7717C9.14301 15.7717 9.35052 15.566 9.35052 15.3115H9.25052C9.25052 15.5101 9.08839 15.6717 8.88773 15.6717V15.7717ZM9.35052 15.3115V13.6821H9.25052V15.3115H9.35052ZM9.35052 13.6821C9.35052 13.4277 9.14301 13.222 8.88773 13.222V13.322C9.08839 13.322 9.25052 13.4835 9.25052 13.6821H9.35052Z" fill="#FFEDED" mask="url(#path-2-outside-1_935_445)"/>
<mask id="path-4-outside-2_935_445" maskUnits="userSpaceOnUse" x="3.71582" y="3.70557" width="5" height="5" fill="black">
<rect fill="white" x="3.71582" y="3.70557" width="5" height="5"/>
<path d="M6.50437 7.43939C5.97339 7.43939 5.54139 7.01018 5.54139 6.48264C5.54139 5.95507 5.97339 5.52588 6.50437 5.52588C7.03532 5.52588 7.46731 5.95507 7.46731 6.48264C7.46731 7.01018 7.03532 7.43939 6.50437 7.43939ZM8.29289 6.48264C8.29289 5.50275 7.49054 4.70557 6.50437 4.70557C5.51817 4.70557 4.71582 5.50275 4.71582 6.48264C4.71582 7.46253 5.51817 8.25971 6.50437 8.25971C7.49054 8.25971 8.29289 7.46253 8.29289 6.48264Z"/>
</mask>
<path d="M6.50437 7.43939C5.97339 7.43939 5.54139 7.01018 5.54139 6.48264C5.54139 5.95507 5.97339 5.52588 6.50437 5.52588C7.03532 5.52588 7.46731 5.95507 7.46731 6.48264C7.46731 7.01018 7.03532 7.43939 6.50437 7.43939ZM8.29289 6.48264C8.29289 5.50275 7.49054 4.70557 6.50437 4.70557C5.51817 4.70557 4.71582 5.50275 4.71582 6.48264C4.71582 7.46253 5.51817 8.25971 6.50437 8.25971C7.49054 8.25971 8.29289 7.46253 8.29289 6.48264Z" fill="#FFEDED"/>
<path d="M6.50437 7.38939C6.0007 7.38939 5.59139 6.98226 5.59139 6.48264H5.49139C5.49139 7.0381 5.94608 7.48939 6.50437 7.48939V7.38939ZM5.59139 6.48264C5.59139 5.98299 6.00069 5.57588 6.50437 5.57588V5.47588C5.94608 5.47588 5.49139 5.92715 5.49139 6.48264H5.59139ZM6.50437 5.57588C7.00801 5.57588 7.41732 5.98299 7.41732 6.48264H7.51732C7.51732 5.92715 7.06263 5.47588 6.50437 5.47588V5.57588ZM7.41732 6.48264C7.41732 6.98226 7.00801 7.38939 6.50437 7.38939V7.48939C7.06263 7.48939 7.51732 7.0381 7.51732 6.48264H7.41732ZM8.34289 6.48264C8.34289 5.47483 7.51785 4.65557 6.50437 4.65557V4.75557C7.46323 4.75557 8.24289 5.53066 8.24289 6.48264H8.34289ZM6.50437 4.65557C5.49086 4.65557 4.66582 5.47483 4.66582 6.48264H4.76582C4.76582 5.53066 5.54548 4.75557 6.50437 4.75557V4.65557ZM4.66582 6.48264C4.66582 7.49044 5.49086 8.30971 6.50437 8.30971V8.20971C5.54548 8.20971 4.76582 7.43461 4.76582 6.48264H4.66582ZM6.50437 8.30971C7.51785 8.30971 8.34289 7.49044 8.34289 6.48264H8.24289C8.24289 7.43461 7.46323 8.20971 6.50437 8.20971V8.30971Z" fill="#FFEDED" mask="url(#path-4-outside-2_935_445)"/>
<mask id="path-6-outside-3_935_445" maskUnits="userSpaceOnUse" x="10.707" y="10.7402" width="5" height="5" fill="black">
<rect fill="white" x="10.707" y="10.7402" width="5" height="5"/>
<path d="M13.4956 14.4743C12.9646 14.4743 12.5326 14.045 12.5326 13.5173C12.5326 12.9898 12.9646 12.5605 13.4956 12.5605C14.0265 12.5605 14.4585 12.9898 14.4585 13.5173C14.4585 14.045 14.0265 14.4743 13.4956 14.4743ZM13.4956 11.7402C12.5094 11.7402 11.707 12.5374 11.707 13.5173C11.707 14.4973 12.5094 15.2946 13.4956 15.2946C14.4818 15.2946 15.2841 14.4973 15.2841 13.5173C15.2841 12.5374 14.4818 11.7402 13.4956 11.7402Z"/>
</mask>
<path d="M13.4956 14.4743C12.9646 14.4743 12.5326 14.045 12.5326 13.5173C12.5326 12.9898 12.9646 12.5605 13.4956 12.5605C14.0265 12.5605 14.4585 12.9898 14.4585 13.5173C14.4585 14.045 14.0265 14.4743 13.4956 14.4743ZM13.4956 11.7402C12.5094 11.7402 11.707 12.5374 11.707 13.5173C11.707 14.4973 12.5094 15.2946 13.4956 15.2946C14.4818 15.2946 15.2841 14.4973 15.2841 13.5173C15.2841 12.5374 14.4818 11.7402 13.4956 11.7402Z" fill="#FFEDED"/>
<path d="M13.4956 14.4243C12.9919 14.4243 12.5826 14.0171 12.5826 13.5173H12.4826C12.4826 14.0729 12.9373 14.5243 13.4956 14.5243V14.4243ZM12.5826 13.5173C12.5826 13.0177 12.9919 12.6105 13.4956 12.6105V12.5105C12.9373 12.5105 12.4826 12.9618 12.4826 13.5173H12.5826ZM13.4956 12.6105C13.9992 12.6105 14.4085 13.0177 14.4085 13.5173H14.5085C14.5085 12.9618 14.0538 12.5105 13.4956 12.5105V12.6105ZM14.4085 13.5173C14.4085 14.0171 13.9992 14.4243 13.4956 14.4243V14.5243C14.0539 14.5243 14.5085 14.0729 14.5085 13.5173H14.4085ZM13.4956 11.6902C12.4821 11.6902 11.657 12.5095 11.657 13.5173H11.757C11.757 12.5653 12.5367 11.7902 13.4956 11.7902V11.6902ZM11.657 13.5173C11.657 14.5252 12.4821 15.3446 13.4956 15.3446V15.2446C12.5367 15.2446 11.757 14.4694 11.757 13.5173H11.657ZM13.4956 15.3446C14.5091 15.3446 15.3341 14.5252 15.3341 13.5173H15.2341C15.2341 14.4694 14.4544 15.2446 13.4956 15.2446V15.3446ZM15.3341 13.5173C15.3341 12.5095 14.5091 11.6902 13.4956 11.6902V11.7902C14.4544 11.7902 15.2341 12.5653 15.2341 13.5173H15.3341Z" fill="#FFEDED" mask="url(#path-6-outside-3_935_445)"/>
<mask id="path-8-outside-4_935_445" maskUnits="userSpaceOnUse" x="8.98926" y="2.08936" width="9" height="15" fill="black">
<rect fill="white" x="8.98926" y="2.08936" width="9" height="15"/>
<path d="M13.4943 16.1799C12.0168 16.1799 10.8148 14.9855 10.8148 13.5174C10.8148 12.322 11.6244 11.2662 12.7836 10.95C12.9629 10.9011 13.0871 10.7392 13.0871 10.5545V6.28146C13.0871 6.1156 12.9866 5.96605 12.8323 5.90256C12.7812 5.88151 12.7276 5.87131 12.6744 5.87131C12.567 5.87131 12.4615 5.91295 12.3825 5.99137L12.0192 6.35212C11.9424 6.42844 11.8402 6.47049 11.7313 6.47049C11.6225 6.47049 11.5202 6.42844 11.4434 6.35212C11.2847 6.19435 11.2847 5.93764 11.4434 5.7799L13.2064 4.0282C13.2833 3.95178 13.3856 3.90967 13.4943 3.90967C13.603 3.90967 13.7053 3.95178 13.7822 4.02826L15.5452 5.77987C15.7039 5.93764 15.7039 6.19435 15.5452 6.35212C15.4684 6.42844 15.3661 6.47049 15.2573 6.47049C15.1484 6.47049 15.0461 6.42844 14.9692 6.35204L14.6061 5.99137C14.488 5.87415 14.3105 5.83907 14.1563 5.90256C14.0021 5.96603 13.9015 6.1156 13.9015 6.28146V10.5545C13.9015 10.7392 14.0258 10.9011 14.205 10.95C15.3642 11.2662 16.1738 12.322 16.1738 13.5174C16.1738 14.9855 14.9718 16.1799 13.4943 16.1799ZM14.7271 10.2568V7.17252C14.8905 7.24995 15.0707 7.2908 15.2573 7.2908C15.5867 7.2908 15.8963 7.16341 16.129 6.93214C16.6095 6.45455 16.6095 5.67747 16.129 5.19983L14.3661 3.44827C14.1332 3.21683 13.8236 3.08936 13.4943 3.08936C13.165 3.08936 12.8554 3.2168 12.6226 3.44819L10.8596 5.19986C10.379 5.67744 10.379 6.45455 10.8596 6.93211C11.0923 7.16341 11.4019 7.2908 11.7313 7.2908C11.9179 7.2908 12.0981 7.24995 12.2615 7.17252V10.2568C10.9091 10.7618 9.98926 12.0603 9.98926 13.5174C9.98926 15.4378 11.5616 17.0002 13.4943 17.0002C15.427 17.0002 16.9993 15.4378 16.9993 13.5174C16.9993 12.0603 16.0795 10.7618 14.7271 10.2568Z"/>
</mask>
<path d="M13.4943 16.1799C12.0168 16.1799 10.8148 14.9855 10.8148 13.5174C10.8148 12.322 11.6244 11.2662 12.7836 10.95C12.9629 10.9011 13.0871 10.7392 13.0871 10.5545V6.28146C13.0871 6.1156 12.9866 5.96605 12.8323 5.90256C12.7812 5.88151 12.7276 5.87131 12.6744 5.87131C12.567 5.87131 12.4615 5.91295 12.3825 5.99137L12.0192 6.35212C11.9424 6.42844 11.8402 6.47049 11.7313 6.47049C11.6225 6.47049 11.5202 6.42844 11.4434 6.35212C11.2847 6.19435 11.2847 5.93764 11.4434 5.7799L13.2064 4.0282C13.2833 3.95178 13.3856 3.90967 13.4943 3.90967C13.603 3.90967 13.7053 3.95178 13.7822 4.02826L15.5452 5.77987C15.7039 5.93764 15.7039 6.19435 15.5452 6.35212C15.4684 6.42844 15.3661 6.47049 15.2573 6.47049C15.1484 6.47049 15.0461 6.42844 14.9692 6.35204L14.6061 5.99137C14.488 5.87415 14.3105 5.83907 14.1563 5.90256C14.0021 5.96603 13.9015 6.1156 13.9015 6.28146V10.5545C13.9015 10.7392 14.0258 10.9011 14.205 10.95C15.3642 11.2662 16.1738 12.322 16.1738 13.5174C16.1738 14.9855 14.9718 16.1799 13.4943 16.1799ZM14.7271 10.2568V7.17252C14.8905 7.24995 15.0707 7.2908 15.2573 7.2908C15.5867 7.2908 15.8963 7.16341 16.129 6.93214C16.6095 6.45455 16.6095 5.67747 16.129 5.19983L14.3661 3.44827C14.1332 3.21683 13.8236 3.08936 13.4943 3.08936C13.165 3.08936 12.8554 3.2168 12.6226 3.44819L10.8596 5.19986C10.379 5.67744 10.379 6.45455 10.8596 6.93211C11.0923 7.16341 11.4019 7.2908 11.7313 7.2908C11.9179 7.2908 12.0981 7.24995 12.2615 7.17252V10.2568C10.9091 10.7618 9.98926 12.0603 9.98926 13.5174C9.98926 15.4378 11.5616 17.0002 13.4943 17.0002C15.427 17.0002 16.9993 15.4378 16.9993 13.5174C16.9993 12.0603 16.0795 10.7618 14.7271 10.2568Z" fill="#FFEDED"/>
<path d="M12.7836 10.95L12.7704 10.9018L12.7704 10.9018L12.7836 10.95ZM12.8323 5.90256L12.8133 5.94879L12.8133 5.9488L12.8323 5.90256ZM12.3825 5.99137L12.4177 6.02685L12.4177 6.02685L12.3825 5.99137ZM12.0192 6.35212L11.984 6.31664L11.984 6.31665L12.0192 6.35212ZM11.4434 6.35212L11.4082 6.38759L11.4082 6.38759L11.4434 6.35212ZM11.4434 5.7799L11.4082 5.74443L11.4081 5.74443L11.4434 5.7799ZM13.2064 4.0282L13.2416 4.06367L13.2416 4.06367L13.2064 4.0282ZM13.7822 4.02826L13.747 4.06372L13.747 4.06373L13.7822 4.02826ZM15.5452 5.77987L15.5804 5.74441L15.5804 5.7444L15.5452 5.77987ZM15.5452 6.35212L15.5804 6.38759L15.5804 6.38759L15.5452 6.35212ZM14.9692 6.35204L15.0045 6.31657L15.0045 6.31656L14.9692 6.35204ZM14.6061 5.99137L14.6413 5.9559L14.6413 5.95589L14.6061 5.99137ZM14.1563 5.90256L14.1753 5.9488L14.1753 5.9488L14.1563 5.90256ZM14.205 10.95L14.2182 10.9018L14.2182 10.9018L14.205 10.95ZM14.7271 7.17252L14.7485 7.12733L14.6771 7.0935V7.17252H14.7271ZM16.129 6.93214L16.1642 6.9676L16.1642 6.9676L16.129 6.93214ZM16.129 5.19983L16.1642 5.16436L16.1642 5.16436L16.129 5.19983ZM14.3661 3.44827L14.3308 3.48373L14.3308 3.48374L14.3661 3.44827ZM12.6226 3.44819L12.6578 3.48366L12.6578 3.48365L12.6226 3.44819ZM10.8596 5.19986L10.8244 5.16439L10.8244 5.16439L10.8596 5.19986ZM10.8596 6.93211L10.8949 6.89665L10.8948 6.89664L10.8596 6.93211ZM12.2615 7.17252H12.3115V7.0935L12.2401 7.12733L12.2615 7.17252ZM12.2615 10.2568L12.279 10.3036L12.3115 10.2915V10.2568H12.2615ZM13.4943 16.1299C12.0441 16.1299 10.8648 14.9576 10.8648 13.5174H10.7648C10.7648 15.0134 11.9895 16.2299 13.4943 16.2299V16.1299ZM10.8648 13.5174C10.8648 12.3447 11.6592 11.3085 12.7967 10.9982L12.7704 10.9018C11.5897 11.2238 10.7648 12.2993 10.7648 13.5174H10.8648ZM12.7967 10.9982C12.9976 10.9435 13.1371 10.7619 13.1371 10.5545H13.0371C13.0371 10.7164 12.9281 10.8588 12.7704 10.9018L12.7967 10.9982ZM13.1371 10.5545V6.28146H13.0371V10.5545H13.1371ZM13.1371 6.28146C13.1371 6.09519 13.0242 5.92748 12.8514 5.85633L12.8133 5.9488C12.9489 6.00463 13.0371 6.13601 13.0371 6.28146H13.1371ZM12.8514 5.85633C12.7941 5.83274 12.734 5.82131 12.6744 5.82131V5.92131C12.7212 5.92131 12.7683 5.93028 12.8133 5.94879L12.8514 5.85633ZM12.6744 5.82131C12.5542 5.82131 12.4358 5.86794 12.3473 5.9559L12.4177 6.02685C12.4871 5.95796 12.5799 5.92131 12.6744 5.92131V5.82131ZM12.3473 5.9559L11.984 6.31664L12.0545 6.3876L12.4177 6.02685L12.3473 5.9559ZM11.984 6.31665C11.9166 6.38361 11.8271 6.42049 11.7313 6.42049V6.52049C11.8533 6.52049 11.9682 6.47326 12.0545 6.38759L11.984 6.31665ZM11.7313 6.42049C11.6356 6.42049 11.5461 6.38361 11.4787 6.31665L11.4082 6.38759C11.4944 6.47326 11.6093 6.52049 11.7313 6.52049V6.42049ZM11.4787 6.31666C11.3396 6.17843 11.3396 5.95356 11.4786 5.81536L11.4081 5.74443C11.2297 5.92173 11.2297 6.21026 11.4082 6.38759L11.4787 6.31666ZM11.4786 5.81537L13.2416 4.06367L13.1712 3.99273L11.4082 5.74443L11.4786 5.81537ZM13.2416 4.06367C13.3092 3.99658 13.3987 3.95967 13.4943 3.95967V3.85967C13.3724 3.85967 13.2575 3.90698 13.1712 3.99273L13.2416 4.06367ZM13.4943 3.95967C13.5899 3.95967 13.6794 3.99657 13.747 4.06372L13.8175 3.9928C13.7311 3.90698 13.6162 3.85967 13.4943 3.85967V3.95967ZM13.747 4.06373L15.5099 5.81534L15.5804 5.7444L13.8175 3.99279L13.747 4.06373ZM15.5099 5.81534C15.649 5.95356 15.649 6.17843 15.5099 6.31666L15.5804 6.38759C15.7588 6.21026 15.7588 5.92173 15.5804 5.74441L15.5099 5.81534ZM15.5099 6.31665C15.4425 6.38361 15.353 6.42049 15.2573 6.42049V6.52049C15.3793 6.52049 15.4942 6.47326 15.5804 6.38759L15.5099 6.31665ZM15.2573 6.42049C15.1615 6.42049 15.072 6.38361 15.0045 6.31657L14.934 6.38751C15.0203 6.47326 15.1353 6.52049 15.2573 6.52049V6.42049ZM15.0045 6.31656L14.6413 5.9559L14.5709 6.02685L14.934 6.38752L15.0045 6.31656ZM14.6413 5.95589C14.509 5.82446 14.31 5.7852 14.1372 5.85633L14.1753 5.9488C14.311 5.89294 14.4671 5.92385 14.5709 6.02686L14.6413 5.95589ZM14.1373 5.85632C13.9644 5.92745 13.8515 6.09519 13.8515 6.28146H13.9515C13.9515 6.136 14.0397 6.00461 14.1753 5.9488L14.1373 5.85632ZM13.8515 6.28146V10.5545H13.9515V6.28146H13.8515ZM13.8515 10.5545C13.8515 10.7619 13.991 10.9435 14.1919 10.9982L14.2182 10.9018C14.0605 10.8588 13.9515 10.7164 13.9515 10.5545H13.8515ZM14.1919 10.9982C15.3294 11.3085 16.1238 12.3447 16.1238 13.5174H16.2238C16.2238 12.2993 15.3989 11.2238 14.2182 10.9018L14.1919 10.9982ZM16.1238 13.5174C16.1238 14.9576 14.9444 16.1299 13.4943 16.1299V16.2299C14.9991 16.2299 16.2238 15.0134 16.2238 13.5174H16.1238ZM14.7771 10.2568V7.17252H14.6771V10.2568H14.7771ZM14.7057 7.2177C14.8759 7.29833 15.0634 7.3408 15.2573 7.3408V7.2408C15.0781 7.2408 14.9052 7.20157 14.7485 7.12733L14.7057 7.2177ZM15.2573 7.3408C15.5998 7.3408 15.9221 7.20823 16.1642 6.9676L16.0937 6.89667C15.8704 7.1186 15.5735 7.2408 15.2573 7.2408V7.3408ZM16.1642 6.9676C16.6645 6.47046 16.6645 5.66155 16.1642 5.16436L16.0937 5.23529C16.5546 5.69338 16.5546 6.43864 16.0937 6.89667L16.1642 6.9676ZM16.1642 5.16436L14.4013 3.4128L14.3308 3.48374L16.0937 5.2353L16.1642 5.16436ZM14.4013 3.41281C14.1591 3.17203 13.8368 3.03936 13.4943 3.03936V3.13936C13.8105 3.13936 14.1074 3.26164 14.3308 3.48373L14.4013 3.41281ZM13.4943 3.03936C13.1518 3.03936 12.8295 3.172 12.5873 3.41273L12.6578 3.48365C12.8812 3.26161 13.1781 3.13936 13.4943 3.13936V3.03936ZM12.5873 3.41272L10.8244 5.16439L10.8949 5.23532L12.6578 3.48366L12.5873 3.41272ZM10.8244 5.16439C10.3241 5.66153 10.3241 6.47047 10.8244 6.96758L10.8948 6.89664C10.4339 6.43864 10.4339 5.69336 10.8949 5.23532L10.8244 5.16439ZM10.8244 6.96757C11.0665 7.20822 11.3888 7.3408 11.7313 7.3408V7.2408C11.4151 7.2408 11.1182 7.1186 10.8949 6.89665L10.8244 6.96757ZM11.7313 7.3408C11.9252 7.3408 12.1127 7.29833 12.2829 7.2177L12.2401 7.12733C12.0834 7.20157 11.9105 7.2408 11.7313 7.2408V7.3408ZM12.2115 7.17252V10.2568H12.3115V7.17252H12.2115ZM12.244 10.2099C10.8723 10.7221 9.93926 12.0391 9.93926 13.5174H10.0393C10.0393 12.0815 10.9458 10.8014 12.279 10.3036L12.244 10.2099ZM9.93926 13.5174C9.93926 15.4658 11.5343 17.0502 13.4943 17.0502V16.9502C11.5889 16.9502 10.0393 15.4099 10.0393 13.5174H9.93926ZM13.4943 17.0502C15.4543 17.0502 17.0493 15.4658 17.0493 13.5174H16.9493C16.9493 15.4099 15.3997 16.9502 13.4943 16.9502V17.0502ZM17.0493 13.5174C17.0493 12.0391 16.1163 10.7221 14.7446 10.2099L14.7096 10.3036C16.0428 10.8014 16.9493 12.0815 16.9493 13.5174H17.0493Z" fill="#FFEDED" mask="url(#path-8-outside-4_935_445)"/>
</svg>
