<svg width="16" height="18" viewBox="0 0 16 18" fill="none" xmlns="http://www.w3.org/2000/svg">
<path d="M13.3036 2.16633C10.3839 -0.72211 5.65923 -0.72211 2.68641 2.16633C1.44802 3.39405 0.684633 5.01292 0.529404 6.74053C0.374175 8.46814 0.836961 10.1948 1.83703 11.6194L5.3938 16.661C5.69234 17.0751 6.08656 17.4127 6.54363 17.6456C7.00071 17.8785 7.50741 18 8.02155 18C8.5357 18 9.0424 17.8785 9.49947 17.6456C9.95655 17.4127 10.3508 17.0751 10.6493 16.661L14.2061 11.6194C15.1856 10.1841 15.6311 8.45702 15.4665 6.73294C15.3019 5.00886 14.5374 3.39478 13.3036 2.16633ZM12.4011 10.4115L8.84439 15.4531C8.74243 15.5877 8.6102 15.6969 8.45816 15.7722C8.30612 15.8474 8.13846 15.8866 7.96847 15.8866C7.79847 15.8866 7.63081 15.8474 7.47877 15.7722C7.32674 15.6969 7.1945 15.5877 7.09255 15.4531L3.53579 10.4115C2.81491 9.39015 2.48333 8.14907 2.59996 6.90872C2.71659 5.66838 3.27388 4.5091 4.17282 3.63681C6.29626 1.53612 9.69376 1.53612 11.7641 3.63681C12.6621 4.50965 13.2187 5.66882 13.3353 6.90887C13.4519 8.14893 13.121 9.38978 12.4011 10.4115ZM7.99501 3.37422C7.26005 3.37422 6.5416 3.58983 5.9305 3.99377C5.3194 4.39772 4.84311 4.97186 4.56186 5.6436C4.2806 6.31533 4.20701 7.05449 4.35039 7.7676C4.49378 8.48072 4.84769 9.13575 5.36739 9.64988C5.88708 10.164 6.54921 10.5141 7.27005 10.656C7.99089 10.7978 8.73806 10.725 9.41707 10.4468C10.0961 10.1685 10.6764 9.69735 11.0848 9.0928C11.4931 8.48825 11.711 7.7775 11.711 7.05042C11.7141 6.56679 11.6201 6.08738 11.4345 5.63997C11.2488 5.19257 10.9752 4.78609 10.6295 4.44411C10.2839 4.10213 9.87298 3.83146 9.42073 3.6478C8.96848 3.46414 8.48387 3.37115 7.99501 3.37422ZM7.99501 8.62593C7.68003 8.62593 7.37212 8.53353 7.11022 8.36041C6.84832 8.18729 6.6442 7.94122 6.52366 7.65334C6.40312 7.36545 6.37158 7.04867 6.43303 6.74305C6.49448 6.43743 6.64616 6.1567 6.86889 5.93636C7.09161 5.71602 7.37538 5.56597 7.68431 5.50518C7.99324 5.44439 8.31346 5.47559 8.60446 5.59483C8.89547 5.71408 9.1442 5.91602 9.31919 6.17511C9.49419 6.4342 9.58759 6.73881 9.58759 7.05042C9.59148 7.25837 9.55294 7.46497 9.47429 7.65786C9.39563 7.85075 9.27846 8.02597 9.1298 8.17304C8.98113 8.32012 8.80401 8.43602 8.60904 8.51384C8.41406 8.59165 8.20522 8.62978 7.99501 8.62593Z" fill="#750033"/>
</svg>
