<svg width="20" height="20" viewBox="0 0 20 20" fill="none" xmlns="http://www.w3.org/2000/svg">
<rect width="20" height="20" rx="6" fill="#750033"/>
<path d="M10 10.05C10.7021 10.05 11.3885 9.8418 11.9723 9.45172C12.5561 9.06164 13.0111 8.50721 13.2798 7.85853C13.5485 7.20985 13.6188 6.49606 13.4818 5.80743C13.3448 5.1188 13.0067 4.48625 12.5102 3.98977C12.0138 3.4933 11.3812 3.15519 10.6926 3.01821C10.0039 2.88124 9.29015 2.95154 8.64147 3.22023C7.9928 3.48892 7.43836 3.94393 7.04828 4.52773C6.6582 5.11152 6.45 5.79788 6.45 6.5C6.45 7.44152 6.82402 8.34448 7.48977 9.01023C8.15552 9.67598 9.05848 10.05 10 10.05ZM10 4.05C10.4846 4.05 10.9582 4.19369 11.3611 4.4629C11.764 4.73211 12.0781 5.11475 12.2635 5.56243C12.4489 6.01011 12.4975 6.50272 12.4029 6.97797C12.3084 7.45323 12.075 7.88977 11.7324 8.23241C11.3898 8.57505 10.9532 8.80839 10.478 8.90293C10.0027 8.99746 9.5101 8.94894 9.06243 8.76351C8.61475 8.57807 8.23211 8.26405 7.9629 7.86115C7.69369 7.45825 7.55 6.98457 7.55 6.5C7.55 5.85022 7.80812 5.22705 8.26759 4.76759C8.72705 4.30813 9.35022 4.05 10 4.05Z" fill="#FFEDED" stroke="#FFEDED" stroke-width="0.1"/>
<path d="M14.9137 15.95C14.781 14.8839 14.2668 13.9011 13.4653 13.1839C12.6499 12.4542 11.5942 12.0505 10.5 12.05L14.9137 15.95ZM14.9137 15.95H5.08625C5.21902 14.8839 5.73316 13.9011 6.53468 13.1839C7.3501 12.4542 8.40577 12.0505 9.5 12.05C9.50001 12.05 9.50001 12.05 9.50002 12.05H10.5L14.9137 15.95ZM10.5 10.95H9.5C8.02805 10.95 6.61638 11.5347 5.57556 12.5756C4.53473 13.6164 3.95 15.028 3.95 16.5C3.95 16.6459 4.00795 16.7858 4.11109 16.8889C4.21424 16.9921 4.35413 17.05 4.5 17.05H15.5C15.6459 17.05 15.7858 16.9921 15.8889 16.8889C15.9921 16.7858 16.05 16.6459 16.05 16.5C16.05 15.028 15.4653 13.6164 14.4244 12.5756C13.3836 11.5347 11.972 10.95 10.5 10.95Z" fill="#FFEDED" stroke="#FFEDED" stroke-width="0.1"/>
</svg>
