<svg width="60" height="80" viewBox="0 0 60 80" fill="none" xmlns="http://www.w3.org/2000/svg">
<rect y="40" width="60" height="40" rx="6" fill="#750033"/>
<rect width="60" height="60" rx="6" fill="#FF0070"/>
<path d="M27.116 16.8746C27.3485 16.3207 27.7471 15.8464 28.261 15.5124C28.7748 15.1784 29.3803 15 30 15C30.6197 15 31.2252 15.1784 31.739 15.5124C32.2529 15.8464 32.6515 16.3207 32.884 16.8746C35.1842 17.4846 37.2132 18.8058 38.6593 20.6352C40.1054 22.4647 40.8886 24.7013 40.8887 27.0016V34.0463L43.7384 38.1679C43.8947 38.3938 43.9845 38.6563 43.9982 38.9275C44.0118 39.1987 43.9489 39.4684 43.816 39.7079C43.6832 39.9473 43.4854 40.1474 43.2438 40.287C43.0022 40.4265 42.7259 40.5002 42.4442 40.5001H35.3899C35.2026 41.7497 34.5547 42.8923 33.5648 43.7187C32.5749 44.5451 31.3094 45 30 45C28.6906 45 27.4251 44.5451 26.4352 43.7187C25.4453 42.8923 24.7974 41.7497 24.6101 40.5001H17.5558C17.2741 40.5002 16.9978 40.4265 16.7562 40.287C16.5146 40.1474 16.3168 39.9473 16.184 39.7079C16.0511 39.4684 15.9882 39.1987 16.0018 38.9275C16.0155 38.6563 16.1053 38.3938 16.2616 38.1679L19.1113 34.0463V27.0016C19.1113 22.1661 22.5023 18.0925 27.116 16.8746ZM27.8005 40.5001C27.9611 40.9391 28.259 41.3191 28.6531 41.588C29.0472 41.8568 29.518 42.0012 30.0008 42.0012C30.4835 42.0012 30.9544 41.8568 31.3485 41.588C31.7425 41.3191 32.0404 40.9391 32.2011 40.5001H27.7989H27.8005ZM30 19.5023C27.9372 19.5023 25.959 20.2924 24.5004 21.6988C23.0418 23.1052 22.2224 25.0126 22.2224 27.0016V34.5008C22.2224 34.797 22.1315 35.0867 21.961 35.3332L20.463 37.5005H39.5354L38.0374 35.3332C37.8675 35.0865 37.7771 34.7969 37.7776 34.5008V27.0016C37.7776 25.0126 36.9582 23.1052 35.4996 21.6988C34.041 20.2924 32.0628 19.5023 30 19.5023Z" fill="#750033"/>
<path d="M8.57701 73L6.82201 68.77H6.79501L6.07501 73H4.59901L5.72401 66.628H7.40701L9.15301 70.831H9.17101L9.89101 66.628H11.367L10.242 73H8.57701ZM13.9956 73.126C13.6716 73.126 13.3686 73.081 13.0866 72.991C12.8106 72.901 12.5706 72.772 12.3666 72.604C12.1686 72.43 12.0096 72.223 11.8896 71.983C11.7756 71.737 11.7186 71.461 11.7186 71.155C11.7186 70.783 11.7816 70.429 11.9076 70.093C12.0336 69.757 12.2136 69.463 12.4476 69.211C12.6876 68.959 12.9756 68.758 13.3116 68.608C13.6476 68.458 14.0286 68.383 14.4546 68.383C14.7846 68.383 15.0906 68.428 15.3726 68.518C15.6546 68.608 15.8976 68.74 16.1016 68.914C16.3056 69.082 16.4646 69.289 16.5786 69.535C16.6986 69.775 16.7586 70.048 16.7586 70.354C16.7586 70.732 16.6956 71.089 16.5696 71.425C16.4436 71.761 16.2606 72.055 16.0206 72.307C15.7806 72.559 15.4896 72.76 15.1476 72.91C14.8116 73.054 14.4276 73.126 13.9956 73.126ZM15.3366 70.507C15.3366 70.237 15.2526 70.012 15.0846 69.832C14.9226 69.652 14.6916 69.562 14.3916 69.562C14.1996 69.562 14.0256 69.601 13.8696 69.679C13.7136 69.757 13.5816 69.862 13.4736 69.994C13.3656 70.126 13.2816 70.279 13.2216 70.453C13.1616 70.627 13.1316 70.81 13.1316 71.002C13.1316 71.272 13.2126 71.497 13.3746 71.677C13.5366 71.851 13.7676 71.938 14.0676 71.938C14.2596 71.938 14.4336 71.902 14.5896 71.83C14.7456 71.752 14.8776 71.647 14.9856 71.515C15.0996 71.383 15.1866 71.23 15.2466 71.056C15.3066 70.882 15.3366 70.699 15.3366 70.507ZM17.2624 69.607L17.4604 68.518H18.1714L18.3784 67.33H19.7824L19.5754 68.518H20.5294L20.3314 69.607H19.4044L19.0804 71.362C19.0744 71.404 19.0684 71.449 19.0624 71.497C19.0624 71.539 19.0624 71.575 19.0624 71.605C19.0624 71.755 19.1044 71.857 19.1884 71.911C19.2724 71.965 19.3864 71.992 19.5304 71.992C19.6024 71.992 19.6714 71.986 19.7374 71.974C19.8094 71.962 19.8724 71.95 19.9264 71.938L19.7914 72.973C19.7074 73.009 19.5874 73.039 19.4314 73.063C19.2814 73.093 19.1374 73.108 18.9994 73.108C18.5674 73.108 18.2254 73.021 17.9734 72.847C17.7274 72.673 17.6044 72.397 17.6044 72.019C17.6044 71.947 17.6074 71.866 17.6134 71.776C17.6254 71.68 17.6404 71.59 17.6584 71.506L18.0004 69.607H17.2624ZM20.5497 73L21.3327 68.518H22.7817L21.9807 73H20.5497ZM23.0877 67.015C23.0877 67.135 23.0667 67.246 23.0247 67.348C22.9827 67.45 22.9227 67.543 22.8447 67.627C22.7727 67.705 22.6857 67.768 22.5837 67.816C22.4817 67.858 22.3707 67.879 22.2507 67.879C22.0227 67.879 21.8337 67.813 21.6837 67.681C21.5397 67.543 21.4677 67.369 21.4677 67.159C21.4677 66.913 21.5487 66.709 21.7107 66.547C21.8787 66.379 22.0827 66.295 22.3227 66.295C22.5447 66.295 22.7277 66.364 22.8717 66.502C23.0157 66.64 23.0877 66.811 23.0877 67.015ZM29.0182 67.015C29.0182 67.135 28.9972 67.246 28.9552 67.348C28.9132 67.45 28.8532 67.543 28.7752 67.627C28.7032 67.705 28.6162 67.768 28.5142 67.816C28.4122 67.858 28.3012 67.879 28.1812 67.879C27.9532 67.879 27.7672 67.813 27.6232 67.681C27.4792 67.543 27.4072 67.369 27.4072 67.159C27.4072 66.913 27.4882 66.709 27.6502 66.547C27.8122 66.379 28.0132 66.295 28.2532 66.295C28.4752 66.295 28.6582 66.364 28.8022 66.502C28.9462 66.64 29.0182 66.811 29.0182 67.015ZM27.9202 73H26.4802L27.2632 68.518H28.7122L27.9202 73ZM26.8222 67.267C26.7082 67.219 26.5822 67.195 26.4442 67.195C26.3122 67.195 26.2012 67.219 26.1112 67.267C26.0272 67.315 25.9552 67.381 25.8952 67.465C25.8352 67.543 25.7872 67.633 25.7512 67.735C25.7212 67.837 25.6972 67.939 25.6792 68.041L25.5982 68.518H26.6062L26.4172 69.598H25.4272L24.8242 73H23.4112L24.0142 69.598H23.1952L23.3842 68.518H24.1762L24.2662 68.059C24.3142 67.801 24.3832 67.549 24.4732 67.303C24.5692 67.057 24.6982 66.841 24.8602 66.655C25.0222 66.463 25.2292 66.31 25.4812 66.196C25.7332 66.082 26.0422 66.025 26.4082 66.025C26.5282 66.025 26.6482 66.034 26.7682 66.052C26.8882 66.064 26.9932 66.085 27.0832 66.115L26.8222 67.267ZM32.7098 69.94C32.6438 69.838 32.5388 69.748 32.3948 69.67C32.2568 69.592 32.1008 69.553 31.9268 69.553C31.7348 69.553 31.5578 69.592 31.3958 69.67C31.2338 69.742 31.0928 69.844 30.9728 69.976C30.8588 70.108 30.7688 70.261 30.7028 70.435C30.6368 70.603 30.6038 70.78 30.6038 70.966C30.6038 71.092 30.6218 71.215 30.6578 71.335C30.6998 71.449 30.7598 71.551 30.8378 71.641C30.9158 71.725 31.0148 71.794 31.1348 71.848C31.2608 71.902 31.4078 71.929 31.5758 71.929C31.7918 71.929 31.9748 71.89 32.1248 71.812C32.2748 71.734 32.4038 71.638 32.5118 71.524L33.1958 72.442C32.9618 72.652 32.6978 72.82 32.4038 72.946C32.1098 73.066 31.7708 73.126 31.3868 73.126C31.0628 73.126 30.7658 73.081 30.4958 72.991C30.2258 72.895 29.9948 72.76 29.8028 72.586C29.6168 72.412 29.4698 72.205 29.3618 71.965C29.2598 71.725 29.2088 71.455 29.2088 71.155C29.2088 70.789 29.2748 70.441 29.4068 70.111C29.5388 69.775 29.7248 69.481 29.9648 69.229C30.2048 68.971 30.4928 68.767 30.8288 68.617C31.1708 68.461 31.5488 68.383 31.9628 68.383C32.3048 68.383 32.6228 68.44 32.9168 68.554C33.2168 68.668 33.4508 68.842 33.6188 69.076L32.7098 69.94ZM38.0558 69.832C38.0558 69.916 38.0498 70.006 38.0378 70.102C38.0318 70.198 38.0198 70.291 38.0018 70.381L37.6958 72.127C37.6658 72.283 37.6418 72.442 37.6238 72.604C37.6118 72.766 37.6058 72.898 37.6058 73H36.3278C36.3278 72.934 36.3308 72.859 36.3368 72.775C36.3428 72.685 36.3518 72.601 36.3638 72.523H36.3458C36.0158 72.913 35.5598 73.108 34.9778 73.108C34.8218 73.108 34.6598 73.087 34.4918 73.045C34.3298 73.009 34.1798 72.946 34.0418 72.856C33.9098 72.76 33.8018 72.637 33.7178 72.487C33.6338 72.331 33.5918 72.142 33.5918 71.92C33.5918 71.56 33.6818 71.266 33.8618 71.038C34.0418 70.81 34.2758 70.633 34.5638 70.507C34.8578 70.381 35.1878 70.294 35.5538 70.246C35.9258 70.198 36.2978 70.174 36.6698 70.174C36.6818 70.12 36.6878 70.078 36.6878 70.048C36.6878 70.018 36.6878 69.991 36.6878 69.967C36.6878 69.793 36.6248 69.667 36.4988 69.589C36.3788 69.505 36.2078 69.463 35.9858 69.463C35.7818 69.463 35.5748 69.502 35.3648 69.58C35.1608 69.658 34.9748 69.76 34.8068 69.886L34.2128 69.058C34.4828 68.842 34.7918 68.677 35.1398 68.563C35.4938 68.443 35.8418 68.383 36.1838 68.383C36.4538 68.383 36.7028 68.413 36.9308 68.473C37.1588 68.527 37.3538 68.614 37.5158 68.734C37.6838 68.854 37.8158 69.004 37.9118 69.184C38.0078 69.364 38.0558 69.58 38.0558 69.832ZM36.4628 71.038C36.2828 71.038 36.0998 71.047 35.9138 71.065C35.7278 71.077 35.5598 71.107 35.4098 71.155C35.2658 71.203 35.1458 71.269 35.0498 71.353C34.9538 71.437 34.9058 71.548 34.9058 71.686C34.9058 71.866 34.9658 71.989 35.0858 72.055C35.2118 72.115 35.3498 72.145 35.4998 72.145C35.7758 72.145 36.0068 72.061 36.1928 71.893C36.3788 71.719 36.4958 71.506 36.5438 71.254L36.5888 71.038H36.4628ZM38.5583 69.607L38.7563 68.518H39.4673L39.6743 67.33H41.0783L40.8713 68.518H41.8253L41.6273 69.607H40.7003L40.3763 71.362C40.3703 71.404 40.3643 71.449 40.3583 71.497C40.3583 71.539 40.3583 71.575 40.3583 71.605C40.3583 71.755 40.4003 71.857 40.4843 71.911C40.5683 71.965 40.6823 71.992 40.8263 71.992C40.8983 71.992 40.9673 71.986 41.0333 71.974C41.1053 71.962 41.1683 71.95 41.2223 71.938L41.0873 72.973C41.0033 73.009 40.8833 73.039 40.7273 73.063C40.5773 73.093 40.4333 73.108 40.2953 73.108C39.8633 73.108 39.5213 73.021 39.2693 72.847C39.0233 72.673 38.9003 72.397 38.9003 72.019C38.9003 71.947 38.9033 71.866 38.9093 71.776C38.9213 71.68 38.9363 71.59 38.9543 71.506L39.2963 69.607H38.5583ZM41.8456 73L42.6286 68.518H44.0776L43.2766 73H41.8456ZM44.3836 67.015C44.3836 67.135 44.3626 67.246 44.3206 67.348C44.2786 67.45 44.2186 67.543 44.1406 67.627C44.0686 67.705 43.9816 67.768 43.8796 67.816C43.7776 67.858 43.6666 67.879 43.5466 67.879C43.3186 67.879 43.1296 67.813 42.9796 67.681C42.8356 67.543 42.7636 67.369 42.7636 67.159C42.7636 66.913 42.8446 66.709 43.0066 66.547C43.1746 66.379 43.3786 66.295 43.6186 66.295C43.8406 66.295 44.0236 66.364 44.1676 66.502C44.3116 66.64 44.3836 66.811 44.3836 67.015ZM46.8491 73.126C46.5251 73.126 46.2221 73.081 45.9401 72.991C45.6641 72.901 45.4241 72.772 45.2201 72.604C45.0221 72.43 44.8631 72.223 44.7431 71.983C44.6291 71.737 44.5721 71.461 44.5721 71.155C44.5721 70.783 44.6351 70.429 44.7611 70.093C44.8871 69.757 45.0671 69.463 45.3011 69.211C45.5411 68.959 45.8291 68.758 46.1651 68.608C46.5011 68.458 46.8821 68.383 47.3081 68.383C47.6381 68.383 47.9441 68.428 48.2261 68.518C48.5081 68.608 48.7511 68.74 48.9551 68.914C49.1591 69.082 49.3181 69.289 49.4321 69.535C49.5521 69.775 49.6121 70.048 49.6121 70.354C49.6121 70.732 49.5491 71.089 49.4231 71.425C49.2971 71.761 49.1141 72.055 48.8741 72.307C48.6341 72.559 48.3431 72.76 48.0011 72.91C47.6651 73.054 47.2811 73.126 46.8491 73.126ZM48.1901 70.507C48.1901 70.237 48.1061 70.012 47.9381 69.832C47.7761 69.652 47.5451 69.562 47.2451 69.562C47.0531 69.562 46.8791 69.601 46.7231 69.679C46.5671 69.757 46.4351 69.862 46.3271 69.994C46.2191 70.126 46.1351 70.279 46.0751 70.453C46.0151 70.627 45.9851 70.81 45.9851 71.002C45.9851 71.272 46.0661 71.497 46.2281 71.677C46.3901 71.851 46.6211 71.938 46.9211 71.938C47.1131 71.938 47.2871 71.902 47.4431 71.83C47.5991 71.752 47.7311 71.647 47.8391 71.515C47.9531 71.383 48.0401 71.23 48.1001 71.056C48.1601 70.882 48.1901 70.699 48.1901 70.507ZM52.1949 69.166C52.3389 68.944 52.5309 68.761 52.7709 68.617C53.0109 68.473 53.2869 68.401 53.5989 68.401C53.8509 68.401 54.0669 68.437 54.2469 68.509C54.4269 68.581 54.5739 68.68 54.6879 68.806C54.8079 68.932 54.8949 69.079 54.9489 69.247C55.0029 69.409 55.0299 69.58 55.0299 69.76C55.0299 69.844 55.0269 69.928 55.0209 70.012C55.0149 70.09 55.0029 70.168 54.9849 70.246L54.4989 73H53.0589L53.4819 70.57C53.5119 70.432 53.5269 70.306 53.5269 70.192C53.5269 70.024 53.4819 69.883 53.3919 69.769C53.3079 69.649 53.1549 69.589 52.9329 69.589C52.8009 69.589 52.6809 69.616 52.5729 69.67C52.4709 69.718 52.3779 69.787 52.2939 69.877C52.2159 69.967 52.1499 70.072 52.0959 70.192C52.0479 70.312 52.0119 70.438 51.9879 70.57L51.5559 73H50.1159L50.7369 69.445C50.7609 69.331 50.7849 69.184 50.8089 69.004C50.8389 68.824 50.8599 68.662 50.8719 68.518H52.2489C52.2429 68.59 52.2309 68.692 52.2129 68.824C52.2009 68.956 52.1889 69.07 52.1769 69.166H52.1949Z" fill="#FFEDED"/>
</svg>
