<svg width="20" height="20" viewBox="0 0 20 20" fill="none" xmlns="http://www.w3.org/2000/svg">
<rect width="20" height="20" rx="6" fill="#750033"/>
<path d="M16.8675 9.67787L15.6795 8.47817L16.1085 6.84518C16.1723 6.60234 16.0285 6.35343 15.7864 6.28728L14.1576 5.84232L13.7127 4.21362C13.6465 3.97143 13.3977 3.82771 13.1548 3.89151L11.5218 4.32053L10.3221 3.1325C10.1437 2.95583 9.85626 2.95583 9.67787 3.1325L8.47817 4.32053L6.84518 3.89153C6.60228 3.82774 6.35345 3.97146 6.28728 4.21364L5.84232 5.84234L4.21362 6.28731C3.97143 6.35348 3.82771 6.60239 3.89151 6.8452L4.3205 8.4782L3.1325 9.67787C2.95583 9.85629 2.95583 10.1437 3.1325 10.3221L4.32053 11.5218L3.89153 13.1548C3.82774 13.3976 3.97146 13.6465 4.21364 13.7127L5.84234 14.1576L6.28731 15.7864C6.35348 16.0285 6.60234 16.1723 6.8452 16.1085L8.4782 15.6795L9.6779 16.8675C9.7671 16.9558 9.88355 17 10 17C10.1165 17 10.2329 16.9558 10.3221 16.8675L11.5218 15.6795L13.1548 16.1085C13.3977 16.1722 13.6465 16.0285 13.7127 15.7864L14.1577 14.1576L15.7864 13.7127C16.0286 13.6465 16.1723 13.3976 16.1085 13.1548L15.6795 11.5218L16.8675 10.3221C17.0441 10.1437 17.0441 9.85629 16.8675 9.67787ZM14.845 11.0632C14.7311 11.1783 14.6864 11.345 14.7275 11.5017L15.1077 12.949L13.6643 13.3433C13.508 13.386 13.386 13.508 13.3433 13.6643L12.9489 15.1078L11.5016 14.7276C11.345 14.6864 11.1783 14.7311 11.0632 14.8451L9.99998 15.8979L8.93672 14.8451C8.84991 14.7591 8.73372 14.7126 8.61459 14.7126C8.57584 14.7126 8.53677 14.7175 8.49832 14.7276L7.05102 15.1078L6.65667 13.6643C6.61401 13.5081 6.49195 13.386 6.33571 13.3434L4.89223 12.949L5.27242 11.5017C5.31357 11.3451 5.26889 11.1784 5.15492 11.0633L4.10205 10L5.15492 8.93675C5.26889 8.82166 5.31357 8.65497 5.27242 8.49832L4.89223 7.05096L6.33571 6.65661C6.49192 6.61396 6.61398 6.49189 6.65667 6.33565L7.05102 4.89218L8.49832 5.27236C8.65497 5.31354 8.82166 5.26884 8.93675 5.15487L9.99998 4.102L11.0632 5.15487C11.1783 5.26878 11.345 5.31357 11.5017 5.27236L12.949 4.89218L13.3433 6.33565C13.386 6.49187 13.508 6.61393 13.6643 6.65661L15.1078 7.05096L14.7276 8.49827C14.6864 8.65489 14.7311 8.82161 14.8451 8.9367L15.8979 9.99996L14.845 11.0632Z" fill="#FFEDED"/>
<path d="M8.16874 6.64355C7.32734 6.64355 6.64282 7.32808 6.64282 8.16947C6.64282 9.01086 7.32734 9.69539 8.16874 9.69539C9.01013 9.69539 9.69465 9.01086 9.69465 8.16947C9.69465 7.32808 9.01013 6.64355 8.16874 6.64355ZM8.16874 8.77984C7.83219 8.77984 7.55837 8.50599 7.55837 8.16947C7.55837 7.83292 7.83219 7.5591 8.16874 7.5591C8.50528 7.5591 8.7791 7.83292 8.7791 8.16947C8.7791 8.50602 8.50528 8.77984 8.16874 8.77984Z" fill="#FFEDED"/>
<path d="M11.8311 10.3047C10.9897 10.3047 10.3052 10.9892 10.3052 11.8306C10.3052 12.672 10.9897 13.3565 11.8311 13.3565C12.6725 13.3565 13.357 12.672 13.357 11.8306C13.357 10.9892 12.6725 10.3047 11.8311 10.3047ZM11.8311 12.441C11.4945 12.441 11.2207 12.1671 11.2207 11.8306C11.2207 11.4941 11.4945 11.2202 11.8311 11.2202C12.1676 11.2202 12.4415 11.4941 12.4415 11.8306C12.4415 12.1672 12.1676 12.441 11.8311 12.441Z" fill="#FFEDED"/>
<path d="M12.4598 7.53935C12.281 7.36058 11.9912 7.36058 11.8124 7.53935L7.53984 11.8119C7.36107 11.9907 7.36107 12.2805 7.53984 12.4593C7.62923 12.5487 7.7464 12.5934 7.86351 12.5934C7.98062 12.5934 8.09782 12.5487 8.18718 12.4593L12.4597 8.18674C12.6386 8.00797 12.6386 7.71813 12.4598 7.53935Z" fill="#FFEDED"/>
</svg>
