<svg width="25" height="30" viewBox="0 0 25 30" fill="none" xmlns="http://www.w3.org/2000/svg">
<path d="M1.53039 7.14529L11.0965 13.9377C11.6977 14.3651 12.7535 14.3651 13.3554 13.9377L22.9215 7.14529C23.1316 6.99632 23.2511 6.82783 23.2419 6.69423C23.2324 6.56092 23.0906 6.41078 22.8624 6.29284L13.5599 1.48613C13.2046 1.30257 12.7154 1.21094 12.2259 1.21094C11.7367 1.21094 11.2473 1.30257 10.892 1.48613L1.5895 6.29283C1.36219 6.41046 1.22092 6.56062 1.21146 6.69481C1.20199 6.82842 1.32111 6.99691 1.53039 7.14529Z" fill="#750033"/>
<path d="M0.82906 8.13272L10.3952 14.9251C10.9086 15.2896 11.5669 15.4717 12.2257 15.4717C12.8843 15.4717 13.5428 15.2893 14.0562 14.9251L23.6221 8.13272C24.1875 7.73162 24.489 7.17623 24.4494 6.60959C24.4095 6.04297 24.0336 5.53575 23.4179 5.2177L14.1154 0.411004C13.0563 -0.137001 11.3957 -0.137001 10.3361 0.411004L1.03361 5.21772C0.418801 5.53547 0.04341 6.04297 0.00351758 6.6102C-0.0363899 7.17682 0.264801 7.73192 0.82906 8.13272ZM1.5893 6.29303L10.8918 1.48631C11.2471 1.30276 11.7366 1.21112 12.2258 1.21112C12.7152 1.21112 13.2044 1.30276 13.5597 1.48631L22.8622 6.29303C23.0904 6.41096 23.2323 6.56112 23.2417 6.69442C23.2509 6.82802 23.1315 6.9965 22.9213 7.14548L13.3552 13.9379C12.7534 14.3653 11.6976 14.3653 11.0964 13.9379L1.53019 7.14549C1.32092 6.99711 1.2018 6.82862 1.21126 6.69502C1.2207 6.56083 1.36199 6.41068 1.5893 6.29303Z" fill="#FFEDED"/>
<path d="M23.4179 10.0605L22.8622 11.1359C23.0904 11.2538 23.2322 11.404 23.2417 11.5373C23.2509 11.6709 23.1314 11.8393 22.9213 11.9883L13.3551 18.7807C12.7533 19.2081 11.6975 19.2081 11.0963 18.7807L1.53019 11.9883C1.32092 11.8399 1.2018 11.6715 1.21126 11.5379C1.22072 11.4037 1.36201 11.2535 1.5893 11.1359L1.03361 10.0605C0.418801 10.3783 0.0434098 10.8858 0.00351743 11.453C-0.0363901 12.0196 0.264815 12.5748 0.829075 12.9756L10.3952 19.768C10.9086 20.1324 11.5669 20.3145 12.2257 20.3145C12.8843 20.3145 13.5428 20.1321 14.0563 19.768L23.6221 12.9756C24.1875 12.5744 24.489 12.0191 24.4494 11.4524C24.4095 10.8858 24.0336 10.3786 23.4179 10.0605Z" fill="#FFEDED"/>
<path d="M23.4179 14.9033L22.8622 15.9786C23.0904 16.0966 23.2322 16.2467 23.2417 16.38C23.2509 16.5136 23.1314 16.6821 22.9213 16.8311L13.3551 23.6235C12.7533 24.0509 11.6975 24.0509 11.0963 23.6235L1.53019 16.8311C1.32092 16.6827 1.2018 16.5142 1.21126 16.3806C1.22072 16.2464 1.36201 16.0963 1.5893 15.9786L1.03361 14.9033C0.418801 15.2211 0.0434098 15.7286 0.00351743 16.2958C-0.0363901 16.8624 0.264815 17.4175 0.829075 17.8183L10.3952 24.6107C10.9086 24.9752 11.5669 25.1573 12.2257 25.1573C12.8843 25.1573 13.5428 24.9749 14.0563 24.6107L23.6221 17.8183C24.1875 17.4172 24.489 16.8618 24.4494 16.2952C24.4095 15.7286 24.0336 15.2214 23.4179 14.9033Z" fill="#FFEDED"/>
<path d="M23.4179 19.7461L22.8622 20.8214C23.0904 20.9394 23.2322 21.0895 23.2417 21.2228C23.2509 21.3564 23.1314 21.5249 22.9213 21.6739L13.3551 28.4663C12.7533 28.8937 11.6975 28.8937 11.0963 28.4663L1.53019 21.6739C1.32092 21.5255 1.2018 21.357 1.21126 21.2234C1.22072 21.0892 1.36201 20.9391 1.5893 20.8214L1.03361 19.7461C0.418801 20.0638 0.0434098 20.5713 0.00351743 21.1386C-0.0363901 21.7052 0.264815 22.2603 0.829075 22.6611L10.3952 29.4535C10.9086 29.818 11.5669 30 12.2257 30C12.8843 30 13.5428 29.8177 14.0563 29.4535L23.6221 22.6611C24.1875 22.26 24.489 21.7046 24.4494 21.138C24.4095 20.5713 24.0336 20.0641 23.4179 19.7461Z" fill="#FFEDED"/>
</svg>
