<svg width="21" height="20" viewBox="0 0 21 20" fill="none" xmlns="http://www.w3.org/2000/svg">
<rect x="0.833496" width="19.3333" height="20" rx="6" fill="#750033"/>
<path d="M18 9.9832C18 13.8334 14.8675 16.9664 11.0168 16.9664C7.17757 16.9664 4.05306 13.852 4.03488 10.0162H3L4.5521 7.68803L6.10336 10.0162H5.19917C5.21735 13.2096 7.81913 15.8025 11.0172 15.8025C14.2255 15.8025 16.8366 13.1923 16.8366 9.9832C16.8366 6.77411 14.2255 4.16387 11.0172 4.16387C10.695 4.16387 10.4349 3.90335 10.4349 3.58193C10.4349 3.26052 10.695 3 11.0172 3C14.8675 2.99958 18 6.13296 18 9.9832ZM8.77704 12.8142C8.89123 12.9288 9.03967 12.9851 9.18938 12.9851C9.33867 12.9851 9.48669 12.9271 9.60088 12.8142L11.4287 10.9868C11.5387 10.8777 11.5996 10.7296 11.5996 10.5749V7.28288C11.5996 6.96146 11.3386 6.70094 11.0172 6.70094C10.6958 6.70094 10.4357 6.96146 10.4357 7.28288V10.3338L8.77704 11.9916C8.54993 12.2192 8.54993 12.5875 8.77704 12.8142Z" fill="#FFEDED"/>
</svg>
