<svg width="20" height="20" viewBox="0 0 20 20" fill="none" xmlns="http://www.w3.org/2000/svg">
<rect width="20" height="20" rx="6" fill="#750033"/>
<path d="M16.6104 12.303C16.8625 11.5814 17 10.8066 17 10.0001C17 9.19356 16.8625 8.4187 16.6104 7.69715C16.6042 7.67547 16.5969 7.65434 16.5881 7.634C15.6158 4.93505 13.0298 3 10 3C6.97018 3 4.38409 4.93505 3.41188 7.634C3.40305 7.6544 3.39569 7.67547 3.38961 7.69715C3.13754 8.4187 3 9.19356 3 10.0001C3 10.8066 3.13754 11.5814 3.38961 12.303C3.39576 12.3247 3.40305 12.3458 3.41188 12.3661C4.38416 15.0651 6.97018 17.0001 10 17.0001C13.0298 17.0001 15.6158 15.0651 16.5881 12.3661C16.5969 12.3458 16.6042 12.3247 16.6104 12.303ZM10 15.9968C9.73342 15.9968 9.30361 15.5143 8.94437 14.4365C8.77097 13.9163 8.63216 13.3184 8.53102 12.668H11.469C11.3678 13.3184 11.229 13.9163 11.0557 14.4365C10.6964 15.5143 10.2666 15.9968 10 15.9968ZM8.40926 11.6645C8.36103 11.1295 8.33554 10.5713 8.33554 10.0001C8.33554 9.42884 8.36103 8.87065 8.40926 8.33561H11.5907C11.6389 8.87065 11.6644 9.42884 11.6644 10.0001C11.6644 10.5713 11.6389 11.1295 11.5907 11.6645H8.40926ZM4.00338 10.0001C4.00338 9.42282 4.0856 8.86436 4.23859 8.33568H7.4028C7.35591 8.88176 7.33209 9.44141 7.33209 10.0001C7.33209 10.5589 7.35584 11.1185 7.4028 11.6646H4.23859C4.0856 11.1358 4.00338 10.5775 4.00338 10.0001ZM10 4.00345C10.2666 4.00345 10.6965 4.48591 11.0557 5.56375C11.229 6.08387 11.3679 6.68179 11.469 7.33216H8.53095C8.6321 6.68172 8.77091 6.08387 8.9443 5.56375C9.30361 4.48591 9.73342 4.00345 10 4.00345ZM12.5971 8.33568H15.7613C15.9143 8.86436 15.9965 9.42282 15.9965 10.0001C15.9965 10.5775 15.9143 11.1359 15.7613 11.6646H12.5971C12.644 11.1185 12.6678 10.5589 12.6678 10.0001C12.6678 9.44141 12.644 8.88176 12.5971 8.33568ZM15.3693 7.33223H12.482C12.3035 6.10153 11.9973 4.9974 11.5678 4.2119C13.2332 4.66339 14.6129 5.81608 15.3693 7.33223ZM8.43214 4.21183C8.0026 4.99733 7.69641 6.10146 7.51793 7.33223H4.63067C5.38707 5.81608 6.76675 4.66339 8.43214 4.21183ZM4.63067 12.668H7.51793C7.69641 13.8987 8.0026 15.0028 8.43214 15.7884C6.76675 15.3368 5.38707 14.1842 4.63067 12.668ZM11.5678 15.7884C11.9973 15.0029 12.3035 13.8987 12.482 12.668H15.3693C14.6129 14.1842 13.2332 15.3368 11.5678 15.7884Z" fill="#FFEDED"/>
</svg>
