<svg width="22" height="20" viewBox="0 0 22 20" fill="none" xmlns="http://www.w3.org/2000/svg">
<path d="M10.9999 12.4624C10.4463 12.4624 9.99756 12.0136 9.99756 11.46V6.61941C9.99756 6.06582 10.4463 5.61707 10.9999 5.61707C11.5535 5.61707 12.0022 6.06582 12.0022 6.61941V11.46C12.0022 12.0136 11.5535 12.4624 10.9999 12.4624Z" fill="#FFEDED"/>
<path d="M11 15.3742C11.5401 15.3742 11.9779 14.9364 11.9779 14.3963C11.9779 13.8562 11.5401 13.4184 11 13.4184C10.4599 13.4184 10.0221 13.8562 10.0221 14.3963C10.0221 14.9364 10.4599 15.3742 11 15.3742Z" fill="#FFEDED"/>
<path d="M1.03779 16.2986L1.03779 16.2986C0.720737 16.8478 0.720737 17.5059 1.03779 18.0551C1.35485 18.6043 1.92483 18.9333 2.55893 18.9333H19.4411C20.0753 18.9333 20.6452 18.6042 20.9622 18.0551L20.9623 18.055C21.2792 17.5059 21.2792 16.8478 20.9622 16.2986L12.5211 1.67824C12.204 1.12906 11.6341 0.8 11 0.8C10.3659 0.8 9.79596 1.12906 9.4789 1.6782L1.03779 16.2986ZM2.2311 17.3661L2.23107 17.3661C2.19556 17.3046 2.13301 17.1574 2.23108 16.9876L10.6721 2.3672C10.6721 2.3672 10.6721 2.36719 10.6721 2.36719C10.7702 2.19736 10.9289 2.17793 10.9999 2.17793C11.0709 2.17793 11.2297 2.19736 11.3277 2.36719C11.3277 2.36719 11.3277 2.3672 11.3277 2.3672L19.7688 16.9876L19.7688 16.9876C19.8668 17.1573 19.8044 17.3044 19.7689 17.3661C19.7334 17.4276 19.6372 17.5553 19.4411 17.5553H2.55889C2.36274 17.5553 2.26656 17.4276 2.2311 17.3661Z" fill="#FFEDED" stroke="#FFEDED" stroke-width="0.4"/>
</svg>
