<svg width="11" height="27" viewBox="0 0 11 27" fill="none" xmlns="http://www.w3.org/2000/svg">
<path d="M4.75868 19L2.18468 13.132L2.38268 12.268H3.26468C4.24868 12.268 5.00468 12.1 5.53268 11.764C6.06068 11.416 6.40268 10.948 6.55868 10.36H2.68868L2.94068 9.208H6.64868C6.60068 8.572 6.36668 8.098 5.94668 7.786C5.53868 7.462 4.89068 7.3 4.00268 7.3H3.35468L3.58868 6.148H10.9687L10.7347 7.3H7.31468C7.55468 7.444 7.77668 7.684 7.98068 8.02C8.19668 8.344 8.31068 8.74 8.32268 9.208H10.3027L10.0507 10.36H8.21468C8.10668 10.84 7.89668 11.302 7.58468 11.746C7.27268 12.178 6.81668 12.538 6.21668 12.826C5.62868 13.114 4.84268 13.282 3.85868 13.33L6.52268 19H4.75868Z" fill="#FFEDED"/>
</svg>
