<svg width="21" height="22" viewBox="0 0 21 22" fill="none" xmlns="http://www.w3.org/2000/svg">
<path d="M19.8261 0.574707H11.3457C11.148 0.574707 10.9584 0.653216 10.8186 0.79304L0.218309 11.3935C-0.0727696 11.6846 -0.0727696 12.1565 0.218309 12.4475L8.69863 20.9278C8.84422 21.0733 9.03503 21.1461 9.22574 21.1461C9.41644 21.1461 9.60725 21.0734 9.75284 20.9278L20.3532 10.3274C20.4929 10.1876 20.5714 9.99802 20.5714 9.80036V1.32004C20.5714 0.908418 20.2378 0.574707 19.8261 0.574707ZM19.0808 9.49169L9.22564 19.3468L1.79931 11.9205L11.6544 2.06538H19.0809V9.49169H19.0808Z" fill="#FFEDED"/>
<path d="M15.5862 7.80472C16.1857 7.80472 16.7493 7.57128 17.1734 7.14733C18.0484 6.27221 18.0483 4.84833 17.1732 3.9732C16.7492 3.54936 16.1856 3.31592 15.5861 3.31592C14.9867 3.31592 14.423 3.54936 13.999 3.9733C13.124 4.84842 13.124 6.27231 13.999 7.14743C14.423 7.57128 14.9867 7.80472 15.5862 7.80472ZM15.0532 5.02721C15.1956 4.8849 15.3849 4.80649 15.5861 4.80649C15.7874 4.80649 15.9769 4.8849 16.1191 5.02721C16.413 5.32117 16.413 5.79937 16.1193 6.09323C15.9769 6.23564 15.7875 6.31405 15.5862 6.31405C15.3849 6.31405 15.1955 6.23564 15.0532 6.09333C14.7594 5.79937 14.7594 5.32117 15.0532 5.02721Z" fill="#FFEDED"/>
<path d="M12.26 14.4043L9.14858 13.2168L8.63936 12.4107L9.11307 11.9369C9.36288 11.687 9.52077 11.4395 9.58674 11.1944C9.6527 10.9493 9.6291 10.7183 9.51594 10.5014L8.17967 11.838L7.77654 11.1946L9.00676 9.96411C8.84175 9.8557 8.66733 9.80858 8.48348 9.82275C8.29963 9.82749 8.10637 9.93122 7.90369 10.1339L7.40878 10.629L6.82177 9.74517L9.79832 6.76788L10.2085 7.40423L9.03487 8.57817C9.22343 8.54987 9.40728 8.56398 9.58642 8.62053C9.76556 8.67708 9.93056 8.76662 10.0814 8.88917L10.739 8.23148L11.1562 8.86075L10.5694 9.44772C10.7297 9.69283 10.8334 9.95681 10.8806 10.2396C10.9231 10.5178 10.8925 10.8171 10.7888 11.1377C10.6851 11.4583 10.4919 11.8024 10.2091 12.1701L13.3912 13.2728L12.26 14.4043Z" fill="#FFEDED"/>
</svg>
