<svg width="20" height="20" viewBox="0 0 20 20" fill="none" xmlns="http://www.w3.org/2000/svg">
<rect width="20" height="20" rx="6" fill="#FF0070"/>
<path d="M16.8012 5.97678C16.6725 5.60218 16.1891 5.41059 15.8488 5.73944L13.9413 7.64675L12.3626 6.06829L14.2702 4.16097C14.6477 3.80353 14.3874 3.30883 14.0328 3.20875C13.6152 3.06005 13.1977 3 12.7515 3C11.619 3 10.5466 3.44609 9.74293 4.24962C8.81918 5.17325 8.37304 6.48292 8.52175 7.764L3.7829 12.4994C2.73903 13.5117 2.73903 15.1788 3.7829 16.2225C4.80102 17.2434 6.48264 17.2748 7.50649 16.2225L12.2425 11.5157C13.8011 11.6701 14.8707 11.1125 15.7573 10.2947C16.8898 9.16231 17.2759 7.4952 16.8012 5.97678ZM14.9823 9.46256C14.3874 10.0288 13.3321 10.5206 12.1824 10.2975C11.9737 10.2375 11.7963 10.2975 11.6476 10.4462L6.70286 15.3875C6.21095 15.8908 5.26147 15.9766 4.61799 15.3875C4.05173 14.8213 4.05173 13.8691 4.61799 13.3029L9.53416 8.35878C9.65427 8.21008 9.71147 8.00134 9.68287 7.82405C9.50556 6.81177 9.83159 5.76804 10.5466 5.05315C11.1128 4.51842 11.8564 4.18957 12.6314 4.16097L11.1414 5.67939C10.8726 5.96248 10.9298 6.31135 11.1414 6.51438L13.5237 8.89637C13.7611 9.10512 14.15 9.10512 14.3588 8.89637L15.8774 7.37796C15.846 8.15003 15.5485 8.89637 14.9823 9.46256Z" fill="#FFEDED"/>
<path d="M5.92718 13.8689C5.68981 13.6316 5.33232 13.6316 5.09209 13.8689C4.85472 14.1063 4.85472 14.4637 5.09209 14.7039L5.26941 14.8812C5.50106 15.1185 5.87284 15.1185 6.1045 14.8812C6.34187 14.6439 6.34187 14.2864 6.1045 14.0462L5.92718 13.8689Z" fill="#FFEDED"/>
</svg>
