<svg width="30" height="30" viewBox="0 0 30 30" fill="none" xmlns="http://www.w3.org/2000/svg">
<path d="M0 6C0 2.68629 2.68629 0 6 0H24C27.3137 0 30 2.68629 30 6V24C30 27.3137 27.3137 30 24 30H6C2.68629 30 0 27.3137 0 24V6Z" fill="white"/>
<path d="M20.833 22.859L21.8345 23.9818L24.11 21.7057L22.9876 20.7046L20.833 22.859Z" fill="#FF0070"/>
<path d="M22.4452 20.2215L15.304 13.8522C15.1773 13.7392 15.1462 13.5532 15.2293 13.4049C16.3328 11.4339 15.9867 8.94012 14.3874 7.34067C13.2015 6.15475 11.5286 5.64124 9.90458 5.93321L13.3622 9.39062C13.5037 9.53218 13.5037 9.76151 13.3622 9.90306L9.7747 13.4907C9.63881 13.6266 9.39816 13.6266 9.26226 13.4907L5.80466 10.0331C5.51305 11.6575 6.02621 13.3299 7.21212 14.5158C8.90057 16.2039 11.5743 16.4835 13.5699 15.1799C13.6308 15.1402 13.6994 15.1209 13.7681 15.1209C13.8682 15.1209 13.9677 15.1625 14.0385 15.2422L20.3491 22.3174L22.4452 20.2215ZM10.7196 14.8835C10.5193 14.8835 10.3572 14.7212 10.3572 14.5211C10.3572 14.321 10.5193 14.1587 10.7196 14.1587C12.6179 14.1587 14.1623 12.6143 14.1623 10.716C14.1623 10.5158 14.3244 10.3536 14.5247 10.3536C14.725 10.3536 14.8871 10.5158 14.8871 10.716C14.8871 13.014 13.0175 14.8835 10.7196 14.8835Z" fill="#FF0070"/>
<path d="M24.8788 21.4203L15.9985 13.4999C17.0913 11.2912 16.6585 8.58671 14.9003 6.8282C13.3761 5.30396 11.1476 4.75222 9.08647 5.38765C8.96508 5.42517 8.87236 5.52337 8.84157 5.64671C8.81114 5.77004 8.84723 5.90027 8.93712 5.99016L12.594 9.64682L9.51893 12.722L5.86209 9.06519C5.7722 8.97548 5.64197 8.93937 5.51845 8.96963C5.3953 9.00025 5.29692 9.09315 5.2594 9.21471C4.6238 11.2764 5.17588 13.504 6.70012 15.0282C8.55525 16.8833 11.4523 17.2489 13.6999 15.9508L21.5486 24.7505C21.6148 24.825 21.7089 24.8687 21.8087 24.8715C21.8123 24.8717 21.8155 24.8717 21.819 24.8717C21.9149 24.8717 22.0073 24.8337 22.0752 24.7655L24.8937 21.9469C24.9641 21.8765 25.0027 21.7801 24.9999 21.6804C24.997 21.5806 24.9531 21.4867 24.8788 21.4203ZM13.7685 15.1209C13.6999 15.1209 13.6312 15.1402 13.5704 15.1798C11.5747 16.4834 8.90102 16.2038 7.21257 14.5158C6.02665 13.3298 5.51351 11.6575 5.80511 10.0331L9.26271 13.4907C9.3986 13.6266 9.63925 13.6266 9.77515 13.4907L13.3626 9.90305C13.5042 9.76149 13.5042 9.53216 13.3626 9.39061L9.90503 5.93319C11.5291 5.64122 13.2019 6.15473 14.3879 7.34065C15.9871 8.94009 16.3332 11.4338 15.2298 13.4049C15.1466 13.5532 15.1778 13.7391 15.3045 13.8522L22.4456 20.2214L20.3496 22.3174L14.0389 15.2421C13.9681 15.1625 13.8687 15.1209 13.7685 15.1209ZM21.8342 23.9818L20.8328 22.859L22.9873 20.7046L24.1098 21.7057L21.8342 23.9818Z" fill="#FF0070"/>
<path d="M14.5249 10.3535C14.3246 10.3535 14.1625 10.5158 14.1625 10.7159C14.1625 12.6142 12.6181 14.1586 10.7198 14.1586C10.5195 14.1586 10.3574 14.3209 10.3574 14.521C10.3574 14.7212 10.5195 14.8834 10.7198 14.8834C13.0177 14.8834 14.8873 13.0139 14.8873 10.7159C14.8873 10.5158 14.7252 10.3535 14.5249 10.3535Z" fill="white"/>
</svg>
