<svg width="20" height="20" viewBox="0 0 20 20" fill="none" xmlns="http://www.w3.org/2000/svg">
<rect width="20" height="20" rx="6" fill="#750033"/>
<path d="M16.6442 9.51369C16.9669 9.18574 17.0809 8.70449 16.9416 8.25767C16.8023 7.81085 16.4388 7.49133 15.9928 7.42376L12.59 6.90829C12.5838 6.90736 12.5784 6.90327 12.5757 6.89744L11.054 3.68309C10.8546 3.26179 10.4507 3 9.99997 3C9.54925 3 9.14543 3.26179 8.94602 3.68309L7.42427 6.89744C7.4215 6.90327 7.41617 6.90729 7.40994 6.90829L4.00719 7.42376C3.56123 7.49133 3.19769 7.81085 3.05841 8.25767C2.91913 8.70449 3.0331 9.18574 3.35578 9.51369L5.81803 12.0157C5.82253 12.0203 5.82459 12.0269 5.8235 12.0333L5.24224 15.5663C5.16605 16.0293 5.34528 16.4885 5.70985 16.7646C6.07449 17.0409 6.54878 17.0765 6.94766 16.8579L9.99117 15.1899C9.99669 15.1868 10.0034 15.1869 10.0089 15.1899L13.0524 16.8579C13.2259 16.953 13.4136 17 13.6005 17C13.8431 17 14.0842 16.9207 14.2901 16.7646C14.6547 16.4885 14.8339 16.0293 14.7578 15.5662L14.1765 12.0333C14.1754 12.0269 14.1775 12.0203 14.182 12.0157L16.6442 9.51369ZM13.0367 12.237L13.618 15.7699C13.6195 15.7793 13.62 15.7821 13.6104 15.7894C13.6008 15.7966 13.5984 15.7953 13.5904 15.7908L10.5468 14.1228C10.2044 13.9352 9.79549 13.9352 9.45295 14.1228L6.40944 15.7908C6.40141 15.7951 6.39897 15.7965 6.3894 15.7893C6.37983 15.7821 6.38028 15.7793 6.38182 15.7699L6.96308 12.2369C7.02847 11.8394 6.90211 11.434 6.62504 11.1524L4.16291 8.65045C4.15643 8.64382 4.15443 8.64187 4.1581 8.63015C4.16176 8.61843 4.16446 8.61803 4.17345 8.61663L7.5762 8.10116C7.95914 8.04316 8.28999 7.79263 8.46119 7.43093L9.98294 4.21651C9.98699 4.20807 9.98815 4.20546 9.99997 4.20546C10.0118 4.20546 10.013 4.20807 10.017 4.21651L11.5387 7.43093C11.71 7.79263 12.0408 8.04323 12.4237 8.10116L15.8265 8.61663C15.8355 8.61803 15.8382 8.61843 15.8418 8.63015C15.8455 8.64187 15.8435 8.64388 15.837 8.65045L13.3748 11.1525C13.0978 11.434 12.9714 11.8395 13.0367 12.237Z" fill="#FFEDED"/>
</svg>
