<svg width="15" height="14" viewBox="0 0 15 14" fill="none" xmlns="http://www.w3.org/2000/svg">
<path d="M7.58322 11.2967L7.32497 11.1406L7.06645 11.2963L3.51419 13.4362L3.5133 13.4367C3.24315 13.6003 2.91234 13.3607 2.98382 13.0533L3.92532 9.01338L3.9938 8.71957L3.7658 8.52201L0.624409 5.80005L0.624234 5.79989C0.384006 5.59194 0.51637 5.20293 0.824531 5.17841L0.824531 5.17842L0.827174 5.1782L4.96148 4.82725L5.26164 4.80177L5.3794 4.5245L6.99718 0.715459L6.99718 0.715461L6.998 0.713518C7.1175 0.428827 7.53141 0.428827 7.65091 0.713519L7.65157 0.715088L9.26935 4.53269L9.38699 4.81031L9.68742 4.83581L13.8217 5.18676L13.8217 5.18676L13.8244 5.18697C14.1325 5.21149 14.2649 5.6005 14.0247 5.80845L14.0245 5.80861L10.8831 8.53057L10.6551 8.72813L10.7236 9.02194L11.6651 13.0619C11.7366 13.3692 11.4058 13.6088 11.1356 13.4453L11.1355 13.4452L7.58322 11.2967Z" stroke="white"/>
</svg>
