<svg width="20" height="20" viewBox="0 0 20 20" fill="none" xmlns="http://www.w3.org/2000/svg">
<rect width="20" height="20" rx="6" fill="#750033"/>
<path d="M5.14237 8.27059C4.65243 8.28108 4.22704 8.6418 4.22996 9.21776C4.23165 9.55219 4.48994 9.81654 4.74265 10.0954C5.13274 10.5258 5.24723 10.4499 5.22927 10.8862C5.22267 11.0458 4.95777 11.2953 4.67313 11.2946C4.25142 11.2938 3.95666 10.889 4.07354 10.3996H3.95189L3.63037 11.564H3.75203C3.78758 11.4444 4.0279 11.4552 4.12568 11.451C4.30987 11.4432 4.41498 11.5915 4.79479 11.59C5.31445 11.5881 5.82512 11.2482 5.82017 10.6168C5.81763 10.2892 5.61656 10.0665 5.35093 9.80866C4.9423 9.4121 4.78301 9.22251 4.85562 8.90493C4.91568 8.64215 5.10342 8.5685 5.2901 8.56604C5.6398 8.56156 5.79031 8.93025 5.83755 9.31335H5.95051L6.23727 8.3401H6.11562C6.08894 8.45507 5.94834 8.46085 5.83755 8.45307C5.78764 8.44951 5.75948 8.45953 5.63769 8.41831C5.50786 8.37429 5.30315 8.2672 5.14237 8.27059ZM6.36762 8.40093L6.33286 8.5921C6.52484 8.59295 6.5941 8.58864 6.59355 8.94838V11.564C6.59355 11.564 6.64418 11.6788 6.71521 11.564C6.78628 11.4491 7.94045 9.53928 7.94045 9.53928V9.60011L7.93176 11.564C7.93176 11.564 8.00524 11.6788 8.07949 11.564C8.15373 11.4491 9.7479 8.81804 9.7479 8.81804C9.82059 8.68748 9.87583 8.59659 10.0607 8.5921L10.1042 8.40093H9.12225L9.08749 8.5921C9.30245 8.59252 9.4456 8.55866 9.45245 8.68769C9.45533 8.7418 9.44554 8.78523 9.40901 8.85279L8.60087 10.1736L8.58349 10.1476V8.94838C8.58425 8.89445 8.58455 8.84129 8.58349 8.80066C8.57816 8.59703 8.6341 8.59252 8.79204 8.5921L8.8268 8.40093H7.7319L7.69714 8.5921C7.86202 8.59659 7.93409 8.6444 7.93176 8.79197V9.06135L7.2279 10.1997L7.20183 10.2171V8.93969C7.20187 8.89474 7.20225 8.82421 7.20183 8.77459C7.20115 8.705 7.18595 8.59252 7.38431 8.5921L7.43645 8.40093H6.36762ZM10.2519 8.40093L10.2171 8.5921C10.3069 8.58744 10.3985 8.62136 10.4083 8.72245C10.4126 8.76647 10.3865 8.83108 10.3649 8.91362L9.76528 11.1469C9.72989 11.2952 9.55145 11.3747 9.31342 11.3728L9.27866 11.564H10.556L10.5995 11.3728C10.3739 11.3682 10.3881 11.3058 10.3909 11.2251C10.3927 11.1746 10.4171 11.1283 10.4344 11.0687L11.0427 8.82673C11.1052 8.61702 11.2561 8.59676 11.4858 8.5921L11.5293 8.40093H10.2519ZM11.7031 8.40093L11.6596 8.5921C11.85 8.6065 12.1201 8.6044 12.0507 8.82673C12.0355 8.87533 12.0522 8.85303 12.0333 8.931L11.4511 11.1034C11.4058 11.3051 11.2647 11.3682 11.0948 11.3728L11.0427 11.564H12.3983L12.4504 11.3728C12.1539 11.372 12.034 11.3323 12.0941 11.1034C12.1069 11.0547 12.1312 10.9683 12.1463 10.8949L12.4243 9.939H12.4852C12.7501 9.93799 12.8249 9.97099 12.8327 10.1128C12.8376 10.2039 12.8352 10.2778 12.8414 10.33H12.9892L13.2151 9.40024L13.0934 9.38286C12.9681 9.70315 12.7009 9.70768 12.6068 9.70438H12.4852L12.6763 8.93969C12.7595 8.65717 12.7864 8.67285 12.9978 8.67031C13.3661 8.66591 13.5847 8.72627 13.554 9.24383H13.6756L13.9016 8.40093H11.7031ZM14.0754 8.40093L13.8407 9.24383H13.9798C14.0477 9.00838 14.0495 8.96881 14.1883 8.8441C14.3309 8.71948 14.4841 8.67031 14.7271 8.67031L14.0927 10.9905C14.0488 11.3694 13.8307 11.3681 13.554 11.3728L13.5105 11.564H14.9443L14.9791 11.3902C14.7956 11.4072 14.6827 11.2866 14.7184 11.1469C14.7321 11.0931 14.7574 11.0133 14.7792 10.9209L15.3701 8.67031C15.8202 8.67004 15.9104 8.85074 15.8828 9.24383H16.0132L16.2391 8.40093H14.0754ZM8.64431 11.2077C8.569 11.2074 8.48982 11.3014 8.47052 11.4162C8.45117 11.5311 8.49949 11.6245 8.5748 11.6248C8.65002 11.6251 8.72924 11.5311 8.74859 11.4162C8.76794 11.3015 8.71953 11.208 8.64431 11.2077ZM10.8689 11.2077C10.7936 11.2074 10.7144 11.3014 10.6951 11.4162C10.6757 11.5311 10.7241 11.6245 10.7994 11.6248C10.8746 11.6251 10.9538 11.5311 10.9731 11.4162C10.9925 11.3015 10.9441 11.208 10.8689 11.2077ZM12.7806 11.2077C12.7053 11.2074 12.6261 11.3014 12.6068 11.4162C12.5874 11.5311 12.6271 11.6245 12.7024 11.6248C12.7777 11.6251 12.8569 11.5311 12.8762 11.4162C12.8956 11.3015 12.8559 11.208 12.7806 11.2077ZM5.93314 11.2164C5.85792 11.216 5.78734 11.3101 5.76803 11.4249C5.74869 11.5397 5.7884 11.6332 5.86362 11.6335C5.93889 11.6338 6.01811 11.5397 6.03741 11.4249C6.05676 11.3101 6.0084 11.2167 5.93314 11.2164ZM15.3354 11.2164C15.2601 11.2161 15.1809 11.3101 15.1616 11.4249C15.1422 11.5398 15.1906 11.6332 15.2658 11.6335C15.3411 11.6338 15.4203 11.5397 15.4396 11.4249C15.459 11.3102 15.4106 11.2167 15.3354 11.2164Z" fill="#FFEDED" stroke="#FFEDED" stroke-width="0.1"/>
<path d="M3.38949 7.70804H16.6213M3.38949 12.3029H16.6213M4.79828 14.687H15.2017M4.79828 5.32392H15.2017M9.98915 7.70804V3.00483M9.98915 12.3029V16.9953M10.1816 3.01286C10.1816 3.01286 13.0317 4.5517 13.5952 7.6944M9.81187 3.01532C9.81187 3.01532 6.90682 4.53367 6.31951 7.67205M9.80032 16.9737C9.80031 16.9737 6.92854 15.4507 6.36502 12.308M10.2052 16.974C10.2052 16.974 13.067 15.4714 13.6542 12.333M9.99999 3C6.13406 3 3 6.13406 3 10C3 13.8659 6.13406 17 9.99999 17C13.8659 17 17.0001 13.8659 17.0001 10C17.0001 6.13406 13.8659 3 9.99999 3Z" stroke="#FFEDED" stroke-width="0.6"/>
</svg>
