<svg width="50" height="50" viewBox="0 0 50 50" fill="none" xmlns="http://www.w3.org/2000/svg">
<rect width="50" height="50" rx="6" fill="#FF0070"/>
<path d="M12.657 13.92C12.9037 13.92 13.1504 13.9467 13.397 14C13.6437 14.0533 13.8637 14.1433 14.057 14.27C14.257 14.39 14.417 14.55 14.537 14.75C14.6637 14.9433 14.727 15.1833 14.727 15.47C14.727 15.95 14.587 16.3433 14.307 16.65C14.027 16.9567 13.6637 17.1667 13.217 17.28V17.3C13.577 17.36 13.877 17.5233 14.117 17.79C14.3637 18.05 14.487 18.39 14.487 18.81C14.487 19.17 14.4104 19.4867 14.257 19.76C14.1104 20.0333 13.9037 20.2633 13.637 20.45C13.3704 20.63 13.0504 20.7667 12.677 20.86C12.3037 20.9533 11.897 21 11.457 21H8.63703L9.88703 13.92H12.657ZM11.227 15.25L10.967 16.77H11.987C12.107 16.77 12.2304 16.7567 12.357 16.73C12.4904 16.7033 12.6104 16.6567 12.717 16.59C12.8237 16.5233 12.9104 16.4333 12.977 16.32C13.0504 16.2067 13.087 16.0667 13.087 15.9C13.087 15.6667 12.997 15.5 12.817 15.4C12.637 15.3 12.4104 15.25 12.137 15.25H11.227ZM10.747 17.97L10.457 19.66H11.427C11.6137 19.66 11.7904 19.6433 11.957 19.61C12.1237 19.5767 12.2704 19.5233 12.397 19.45C12.5304 19.3767 12.6337 19.2767 12.707 19.15C12.787 19.0233 12.827 18.87 12.827 18.69C12.827 18.4633 12.7404 18.2867 12.567 18.16C12.3937 18.0333 12.147 17.97 11.827 17.97H10.747ZM16.7977 18.94C16.791 18.9667 16.7877 18.9967 16.7877 19.03C16.7877 19.17 16.8177 19.2967 16.8777 19.41C16.9443 19.5167 17.0277 19.61 17.1277 19.69C17.2343 19.7633 17.351 19.82 17.4777 19.86C17.611 19.9 17.7477 19.92 17.8877 19.92C18.141 19.92 18.3643 19.8733 18.5577 19.78C18.751 19.6867 18.9243 19.56 19.0777 19.4L20.0877 20.19C19.7677 20.53 19.411 20.7767 19.0177 20.93C18.6243 21.0767 18.201 21.15 17.7477 21.15C17.401 21.15 17.0777 21.1 16.7777 21C16.4843 20.9067 16.2277 20.7667 16.0077 20.58C15.7877 20.3867 15.6143 20.15 15.4877 19.87C15.361 19.59 15.2977 19.27 15.2977 18.91C15.2977 18.4833 15.371 18.0867 15.5177 17.72C15.671 17.3467 15.8777 17.0233 16.1377 16.75C16.4043 16.4767 16.721 16.2633 17.0877 16.11C17.4543 15.95 17.8577 15.87 18.2977 15.87C18.6243 15.87 18.921 15.9167 19.1877 16.01C19.461 16.1033 19.6943 16.24 19.8877 16.42C20.081 16.5933 20.231 16.81 20.3377 17.07C20.4443 17.33 20.4977 17.63 20.4977 17.97C20.4977 18.09 20.4843 18.2433 20.4577 18.43C20.4377 18.61 20.4077 18.78 20.3677 18.94H16.7977ZM19.0677 17.96C19.0743 17.9267 19.0777 17.8933 19.0777 17.86C19.0777 17.8267 19.0777 17.7933 19.0777 17.76C19.0777 17.54 18.9977 17.3567 18.8377 17.21C18.6843 17.0633 18.461 16.99 18.1677 16.99C17.9877 16.99 17.8243 17.0233 17.6777 17.09C17.5377 17.15 17.4143 17.2267 17.3077 17.32C17.201 17.4133 17.1143 17.5167 17.0477 17.63C16.981 17.7433 16.9343 17.8533 16.9077 17.96H19.0677ZM21.0668 21L22.3968 13.44H24.0268L22.6868 21H21.0668ZM24.016 21L25.346 13.44H26.976L25.636 21H24.016ZM31.8952 17.48C31.8952 17.5733 31.8886 17.6733 31.8752 17.78C31.8686 17.8867 31.8552 17.99 31.8352 18.09L31.4952 20.03C31.4619 20.2033 31.4352 20.38 31.4152 20.56C31.4019 20.74 31.3952 20.8867 31.3952 21H29.9752C29.9752 20.9267 29.9786 20.8433 29.9852 20.75C29.9919 20.65 30.0019 20.5567 30.0152 20.47H29.9952C29.6286 20.9033 29.1219 21.12 28.4752 21.12C28.3019 21.12 28.1219 21.0967 27.9352 21.05C27.7552 21.01 27.5886 20.94 27.4352 20.84C27.2886 20.7333 27.1686 20.5967 27.0752 20.43C26.9819 20.2567 26.9352 20.0467 26.9352 19.8C26.9352 19.4 27.0352 19.0733 27.2352 18.82C27.4352 18.5667 27.6952 18.37 28.0152 18.23C28.3419 18.09 28.7086 17.9933 29.1152 17.94C29.5286 17.8867 29.9419 17.86 30.3552 17.86C30.3686 17.8 30.3752 17.7533 30.3752 17.72C30.3752 17.6867 30.3752 17.6567 30.3752 17.63C30.3752 17.4367 30.3052 17.2967 30.1652 17.21C30.0319 17.1167 29.8419 17.07 29.5952 17.07C29.3686 17.07 29.1386 17.1133 28.9052 17.2C28.6786 17.2867 28.4719 17.4 28.2852 17.54L27.6252 16.62C27.9252 16.38 28.2686 16.1967 28.6552 16.07C29.0486 15.9367 29.4352 15.87 29.8152 15.87C30.1152 15.87 30.3919 15.9033 30.6452 15.97C30.8986 16.03 31.1152 16.1267 31.2952 16.26C31.4819 16.3933 31.6286 16.56 31.7352 16.76C31.8419 16.96 31.8952 17.2 31.8952 17.48ZM30.1252 18.82C29.9252 18.82 29.7219 18.83 29.5152 18.85C29.3086 18.8633 29.1219 18.8967 28.9552 18.95C28.7952 19.0033 28.6619 19.0767 28.5552 19.17C28.4486 19.2633 28.3952 19.3867 28.3952 19.54C28.3952 19.74 28.4619 19.8767 28.5952 19.95C28.7352 20.0167 28.8886 20.05 29.0552 20.05C29.3619 20.05 29.6186 19.9567 29.8252 19.77C30.0319 19.5767 30.1619 19.34 30.2152 19.06L30.2652 18.82H30.1252ZM34.8612 16.74C35.0212 16.4933 35.2345 16.29 35.5012 16.13C35.7678 15.97 36.0745 15.89 36.4212 15.89C36.7012 15.89 36.9412 15.93 37.1412 16.01C37.3412 16.09 37.5045 16.2 37.6312 16.34C37.7645 16.48 37.8612 16.6433 37.9212 16.83C37.9812 17.01 38.0112 17.2 38.0112 17.4C38.0112 17.4933 38.0078 17.5867 38.0012 17.68C37.9945 17.7667 37.9812 17.8533 37.9612 17.94L37.4212 21H35.8212L36.2912 18.3C36.3245 18.1467 36.3412 18.0067 36.3412 17.88C36.3412 17.6933 36.2912 17.5367 36.1912 17.41C36.0978 17.2767 35.9278 17.21 35.6812 17.21C35.5345 17.21 35.4012 17.24 35.2812 17.3C35.1678 17.3533 35.0645 17.43 34.9712 17.53C34.8845 17.63 34.8112 17.7467 34.7512 17.88C34.6978 18.0133 34.6578 18.1533 34.6312 18.3L34.1512 21H32.5512L33.2412 17.05C33.2678 16.9233 33.2945 16.76 33.3212 16.56C33.3545 16.36 33.3778 16.18 33.3912 16.02H34.9212C34.9145 16.1 34.9012 16.2133 34.8812 16.36C34.8678 16.5067 34.8545 16.6333 34.8412 16.74H34.8612ZM38.7135 21L39.5835 16.02H41.1935L40.3035 21H38.7135ZM41.5335 14.35C41.5335 14.4833 41.5102 14.6067 41.4635 14.72C41.4168 14.8333 41.3502 14.9367 41.2635 15.03C41.1835 15.1167 41.0868 15.1867 40.9735 15.24C40.8602 15.2867 40.7368 15.31 40.6035 15.31C40.3502 15.31 40.1402 15.2367 39.9735 15.09C39.8135 14.9367 39.7335 14.7433 39.7335 14.51C39.7335 14.2367 39.8235 14.01 40.0035 13.83C40.1902 13.6433 40.4168 13.55 40.6835 13.55C40.9302 13.55 41.1335 13.6267 41.2935 13.78C41.4535 13.9333 41.5335 14.1233 41.5335 14.35ZM12.3359 29.35L11.3359 35H9.6759L10.6659 29.35H8.6859L8.9459 27.92H14.5259L14.2759 29.35H12.3359ZM17.8962 31.48C17.8962 31.5733 17.8895 31.6733 17.8762 31.78C17.8695 31.8867 17.8562 31.99 17.8362 32.09L17.4962 34.03C17.4629 34.2033 17.4362 34.38 17.4162 34.56C17.4029 34.74 17.3962 34.8867 17.3962 35H15.9762C15.9762 34.9267 15.9795 34.8433 15.9862 34.75C15.9929 34.65 16.0029 34.5567 16.0162 34.47H15.9962C15.6295 34.9033 15.1229 35.12 14.4762 35.12C14.3029 35.12 14.1229 35.0967 13.9362 35.05C13.7562 35.01 13.5895 34.94 13.4362 34.84C13.2895 34.7333 13.1695 34.5967 13.0762 34.43C12.9829 34.2567 12.9362 34.0467 12.9362 33.8C12.9362 33.4 13.0362 33.0733 13.2362 32.82C13.4362 32.5667 13.6962 32.37 14.0162 32.23C14.3429 32.09 14.7095 31.9933 15.1162 31.94C15.5295 31.8867 15.9429 31.86 16.3562 31.86C16.3695 31.8 16.3762 31.7533 16.3762 31.72C16.3762 31.6867 16.3762 31.6567 16.3762 31.63C16.3762 31.4367 16.3062 31.2967 16.1662 31.21C16.0329 31.1167 15.8429 31.07 15.5962 31.07C15.3695 31.07 15.1395 31.1133 14.9062 31.2C14.6795 31.2867 14.4729 31.4 14.2862 31.54L13.6262 30.62C13.9262 30.38 14.2695 30.1967 14.6562 30.07C15.0495 29.9367 15.4362 29.87 15.8162 29.87C16.1162 29.87 16.3929 29.9033 16.6462 29.97C16.8995 30.03 17.1162 30.1267 17.2962 30.26C17.4829 30.3933 17.6295 30.56 17.7362 30.76C17.8429 30.96 17.8962 31.2 17.8962 31.48ZM16.1262 32.82C15.9262 32.82 15.7229 32.83 15.5162 32.85C15.3095 32.8633 15.1229 32.8967 14.9562 32.95C14.7962 33.0033 14.6629 33.0767 14.5562 33.17C14.4495 33.2633 14.3962 33.3867 14.3962 33.54C14.3962 33.74 14.4629 33.8767 14.5962 33.95C14.7362 34.0167 14.8895 34.05 15.0562 34.05C15.3629 34.05 15.6195 33.9567 15.8262 33.77C16.0329 33.5767 16.1629 33.34 16.2162 33.06L16.2662 32.82H16.1262ZM18.5521 35L19.8821 27.44H21.5121L20.1721 35H18.5521ZM23.1014 32.94C23.0947 32.9667 23.0914 32.9967 23.0914 33.03C23.0914 33.17 23.1214 33.2967 23.1814 33.41C23.248 33.5167 23.3314 33.61 23.4314 33.69C23.538 33.7633 23.6547 33.82 23.7814 33.86C23.9147 33.9 24.0514 33.92 24.1914 33.92C24.4447 33.92 24.668 33.8733 24.8614 33.78C25.0547 33.6867 25.228 33.56 25.3814 33.4L26.3914 34.19C26.0714 34.53 25.7147 34.7767 25.3214 34.93C24.928 35.0767 24.5047 35.15 24.0514 35.15C23.7047 35.15 23.3814 35.1 23.0814 35C22.788 34.9067 22.5314 34.7667 22.3114 34.58C22.0914 34.3867 21.918 34.15 21.7914 33.87C21.6647 33.59 21.6014 33.27 21.6014 32.91C21.6014 32.4833 21.6747 32.0867 21.8214 31.72C21.9747 31.3467 22.1814 31.0233 22.4414 30.75C22.708 30.4767 23.0247 30.2633 23.3914 30.11C23.758 29.95 24.1614 29.87 24.6014 29.87C24.928 29.87 25.2247 29.9167 25.4914 30.01C25.7647 30.1033 25.998 30.24 26.1914 30.42C26.3847 30.5933 26.5347 30.81 26.6414 31.07C26.748 31.33 26.8014 31.63 26.8014 31.97C26.8014 32.09 26.788 32.2433 26.7614 32.43C26.7414 32.61 26.7114 32.78 26.6714 32.94H23.1014ZM25.3714 31.96C25.378 31.9267 25.3814 31.8933 25.3814 31.86C25.3814 31.8267 25.3814 31.7933 25.3814 31.76C25.3814 31.54 25.3014 31.3567 25.1414 31.21C24.988 31.0633 24.7647 30.99 24.4714 30.99C24.2914 30.99 24.128 31.0233 23.9814 31.09C23.8414 31.15 23.718 31.2267 23.6114 31.32C23.5047 31.4133 23.418 31.5167 23.3514 31.63C23.2847 31.7433 23.238 31.8533 23.2114 31.96H25.3714ZM29.6805 30.74C29.8405 30.4933 30.0538 30.29 30.3205 30.13C30.5872 29.97 30.8938 29.89 31.2405 29.89C31.5205 29.89 31.7605 29.93 31.9605 30.01C32.1605 30.09 32.3238 30.2 32.4505 30.34C32.5838 30.48 32.6805 30.6433 32.7405 30.83C32.8005 31.01 32.8305 31.2 32.8305 31.4C32.8305 31.4933 32.8272 31.5867 32.8205 31.68C32.8138 31.7667 32.8005 31.8533 32.7805 31.94L32.2405 35H30.6405L31.1105 32.3C31.1438 32.1467 31.1605 32.0067 31.1605 31.88C31.1605 31.6933 31.1105 31.5367 31.0105 31.41C30.9172 31.2767 30.7472 31.21 30.5005 31.21C30.3538 31.21 30.2205 31.24 30.1005 31.3C29.9872 31.3533 29.8838 31.43 29.7905 31.53C29.7038 31.63 29.6305 31.7467 29.5705 31.88C29.5172 32.0133 29.4772 32.1533 29.4505 32.3L28.9705 35H27.3705L28.0605 31.05C28.0872 30.9233 28.1138 30.76 28.1405 30.56C28.1738 30.36 28.1972 30.18 28.2105 30.02H29.7405C29.7338 30.1 29.7205 30.2133 29.7005 30.36C29.6872 30.5067 29.6738 30.6333 29.6605 30.74H29.6805ZM33.5229 31.23L33.7429 30.02H34.5329L34.7629 28.7H36.3229L36.0929 30.02H37.1529L36.9329 31.23H35.9029L35.5429 33.18C35.5362 33.2267 35.5295 33.2767 35.5229 33.33C35.5229 33.3767 35.5229 33.4167 35.5229 33.45C35.5229 33.6167 35.5695 33.73 35.6629 33.79C35.7562 33.85 35.8829 33.88 36.0429 33.88C36.1229 33.88 36.1995 33.8733 36.2729 33.86C36.3529 33.8467 36.4229 33.8333 36.4829 33.82L36.3329 34.97C36.2395 35.01 36.1062 35.0433 35.9329 35.07C35.7662 35.1033 35.6062 35.12 35.4529 35.12C34.9729 35.12 34.5929 35.0233 34.3129 34.83C34.0395 34.6367 33.9029 34.33 33.9029 33.91C33.9029 33.83 33.9062 33.74 33.9129 33.64C33.9262 33.5333 33.9429 33.4333 33.9629 33.34L34.3429 31.23H33.5229ZM37.7454 33.41C37.8721 33.5967 38.0388 33.74 38.2454 33.84C38.4588 33.9333 38.6754 33.98 38.8954 33.98C39.1088 33.98 39.2788 33.94 39.4054 33.86C39.5388 33.78 39.6054 33.67 39.6054 33.53C39.6054 33.3967 39.5454 33.2933 39.4254 33.22C39.3054 33.1467 39.1288 33.0733 38.8954 33C38.6621 32.9333 38.4554 32.86 38.2754 32.78C38.1021 32.6933 37.9554 32.5967 37.8354 32.49C37.7154 32.3767 37.6254 32.25 37.5654 32.11C37.5054 31.9633 37.4754 31.7933 37.4754 31.6C37.4754 31.3267 37.5354 31.0833 37.6554 30.87C37.7821 30.6567 37.9454 30.4767 38.1454 30.33C38.3521 30.1767 38.5921 30.0633 38.8654 29.99C39.1388 29.91 39.4254 29.87 39.7254 29.87C40.1121 29.87 40.4721 29.9367 40.8054 30.07C41.1454 30.1967 41.4154 30.3867 41.6154 30.64L40.6054 31.49C40.5121 31.3567 40.3821 31.2467 40.2154 31.16C40.0554 31.0733 39.8621 31.03 39.6354 31.03C39.4621 31.03 39.3021 31.0633 39.1554 31.13C39.0154 31.1967 38.9454 31.31 38.9454 31.47C38.9454 31.5833 38.9988 31.6733 39.1054 31.74C39.2121 31.8 39.3754 31.86 39.5954 31.92C40.0621 32.0467 40.4288 32.2233 40.6954 32.45C40.9688 32.67 41.1054 32.9933 41.1054 33.42C41.1054 33.72 41.0388 33.9833 40.9054 34.21C40.7788 34.43 40.6088 34.6133 40.3954 34.76C40.1888 34.9 39.9488 35.0033 39.6754 35.07C39.4088 35.1433 39.1354 35.18 38.8554 35.18C38.3954 35.18 37.9854 35.1033 37.6254 34.95C37.2654 34.7967 36.9721 34.5867 36.7454 34.32L37.7454 33.41Z" fill="#FFEDED"/>
</svg>
