<svg width="19" height="21" viewBox="0 0 19 21" fill="none" xmlns="http://www.w3.org/2000/svg">
<path d="M4.3934 1.41408C4.06424 1.74324 3.87931 2.18967 3.87931 2.65517V10.169H1.33103C1.21671 10.169 1.10708 10.2144 1.02625 10.2952L1.02625 10.2952C0.94541 10.376 0.9 10.4857 0.9 10.6L0.9 18.3793L0.9 18.3795C0.900922 18.8886 1.10356 19.3765 1.46352 19.7365L1.53409 19.6659L1.46353 19.7365C1.82349 20.0964 2.31143 20.2991 2.82051 20.3H2.82069H16.2276C16.6931 20.3 17.1395 20.1151 17.4687 19.7859C17.7978 19.4568 17.9828 19.0103 17.9828 18.5448V2.65517C17.9828 2.18967 17.7978 1.74324 17.4687 1.41408C17.1395 1.08492 16.6931 0.9 16.2276 0.9H5.63448C5.16898 0.9 4.72253 1.08492 4.3934 1.41408ZM4.3934 1.41408L4.46411 1.48479L4.3934 1.41408C4.3934 1.41408 4.3934 1.41408 4.3934 1.41408ZM1.76207 18.3793V11.031H3.87931V18.3793C3.87931 18.6601 3.76779 18.9293 3.56926 19.1279C3.37072 19.3264 3.10146 19.4379 2.82069 19.4379C2.53992 19.4379 2.27066 19.3264 2.07213 19.1279C1.8736 18.9293 1.76207 18.6601 1.76207 18.3793ZM17.1207 18.5448C17.1207 18.7817 17.0266 19.0089 16.8591 19.1763C16.6916 19.3438 16.4644 19.4379 16.2276 19.4379H4.74138V2.65517C4.74138 2.41831 4.83548 2.19114 5.00297 2.02365C5.17046 1.85616 5.39763 1.76207 5.63448 1.76207H16.2276C16.4644 1.76207 16.6916 1.85616 16.8591 2.02365C17.0266 2.19114 17.1207 2.41831 17.1207 2.65517V18.5448Z" fill="#FFEDED" stroke="#FFEDED" stroke-width="0.2"/>
<path d="M9.94704 6.50883L9.94685 6.50866C9.66815 6.8209 9.32666 7.07079 8.94474 7.24197C8.94474 7.24197 8.94474 7.24197 8.94474 7.24197L8.90384 7.15072C8.53477 7.31617 8.13491 7.40181 7.73045 7.40207L9.94704 6.50883ZM9.94704 6.50883L9.95136 6.50324M9.94704 6.50883L9.95136 6.50324M6.42701 3.17321C6.31568 3.42612 6.28032 3.70596 6.32529 3.97862L6.42701 3.17321ZM6.42701 3.17321C6.53834 2.92029 6.72088 2.70523 6.9523 2.55424M6.42701 3.17321L6.9523 2.55424M9.95136 6.50324C9.97987 6.46636 10.0039 6.42626 10.023 6.38379L10.0238 6.38412M9.95136 6.50324L10.0238 6.38412M10.0238 6.38412L10.0275 6.37182M10.0238 6.38412L10.0275 6.37182M10.0275 6.37182C10.053 6.28791 10.0533 6.19843 10.0283 6.11441C9.94423 5.7759 9.78617 5.46019 9.56553 5.19004L9.56553 5.19003M10.0275 6.37182L9.56553 5.19003M9.56553 5.19003C9.37138 4.95235 9.13304 4.75512 8.86409 4.60899M9.56553 5.19003L8.86409 4.60899M6.9523 2.55424L6.95231 2.55424C7.18376 2.40325 7.45413 2.32285 7.73045 2.32285C8.0068 2.32285 8.27717 2.40325 8.5086 2.55424L6.9523 2.55424ZM7.16838 3.79511C7.17418 3.84825 7.18754 3.90041 7.20813 3.94997C7.23653 4.01832 7.27821 4.08041 7.33071 4.13269C7.3832 4.18489 7.4455 4.22622 7.514 4.25429L7.51403 4.2543C7.58252 4.28239 7.65589 4.29664 7.72996 4.29628L7.73045 4.29628C7.84163 4.29628 7.95031 4.26331 8.04273 4.20154L8.04275 4.20153C8.13516 4.13981 8.20718 4.05203 8.24974 3.94933L7.16838 3.79511ZM7.16838 3.79511V3.73421C7.16838 3.62303 7.20135 3.51439 7.26312 3.42196L7.26313 3.42194L7.16838 3.79511ZM8.0983 4.28469C8.20718 4.21196 8.29202 4.10854 8.34214 3.98758C8.39222 3.86659 8.40537 3.73348 8.37981 3.60504C8.35425 3.47663 8.29119 3.35865 8.1986 3.26606C8.10601 3.17346 7.98806 3.11041 7.85962 3.08486L8.0983 4.28469ZM8.0983 4.28469C7.98942 4.35745 7.86141 4.39628 7.73045 4.39628L8.0983 4.28469ZM8.86409 4.60899C9.00425 4.42467 9.09775 4.20837 9.13562 3.97862M8.86409 4.60899L9.13562 3.97862M9.13562 3.97862C9.13561 3.97862 9.13561 3.97863 9.13561 3.97863L9.03695 3.96236L9.13562 3.97862ZM9.13562 3.97862C9.18058 3.70596 9.14522 3.42612 9.0339 3.17321M9.13562 3.97862L9.0339 3.17321M9.0339 3.17321C8.92256 2.9203 8.74006 2.70523 8.5086 2.55424L9.0339 3.17321ZM8.28173 3.62456C8.30342 3.73357 8.29228 3.84657 8.24975 3.9493L8.28173 3.62456ZM8.12789 3.33677C8.2065 3.41537 8.26004 3.51554 8.28173 3.62455L7.51535 3.21492C7.61807 3.17238 7.73107 3.16125 7.84012 3.18294C7.94915 3.20463 8.04928 3.25816 8.12789 3.33677ZM8.59968 5.43535L8.59969 5.43535C8.83627 5.60219 9.01974 5.83304 9.12897 6.10015C8.74419 6.44474 8.24522 6.63606 7.72714 6.63606C7.20912 6.63606 6.7102 6.44478 6.32544 6.10026C6.43533 5.83329 6.61941 5.60281 6.85648 5.43649C7.11156 5.25755 7.41555 5.16159 7.72712 5.16166L7.76856 5.16167L7.77121 5.15901C8.0682 5.16782 8.35638 5.26375 8.59968 5.43535Z" fill="#FFEDED" stroke="#FFEDED" stroke-width="0.2"/>
<path d="M10.9706 3.42957L10.9706 3.42955C11.0514 3.34876 11.161 3.30332 11.2754 3.30332H12.9769C13.0912 3.30332 13.2008 3.34875 13.2817 3.42955C13.2817 3.42956 13.2817 3.42956 13.2817 3.42957L13.211 3.50028C13.2731 3.56235 13.3079 3.64656 13.3079 3.73435C13.3079 3.82215 13.2731 3.90636 13.211 3.96843L10.9706 3.42957ZM10.9706 3.42957C10.8898 3.51039 10.8443 3.62004 10.8443 3.73435C10.8443 3.84867 10.8898 3.95832 10.9706 4.03914L10.9706 4.03916C11.0514 4.11995 11.161 4.16539 11.2754 4.16539H12.9769C13.0912 4.16539 13.2008 4.11996 13.2817 4.03916M10.9706 3.42957L13.2817 4.03916M13.2817 4.03916C13.2817 4.03915 13.2817 4.03915 13.2817 4.03914L13.2817 4.03916Z" fill="#FFEDED" stroke="#FFEDED" stroke-width="0.2"/>
<path d="M10.9706 5.32996L10.9706 5.32994C11.0514 5.24915 11.161 5.20371 11.2754 5.20371H15.8834C15.9977 5.20371 16.1073 5.24914 16.1882 5.32996M10.9706 5.32996L16.1174 5.40067M10.9706 5.32996C10.8898 5.41078 10.8443 5.52043 10.8443 5.63475C10.8443 5.74906 10.8898 5.85871 10.9706 5.93953L10.9706 5.93955C11.0514 6.02034 11.161 6.06578 11.2754 6.06578H15.8834C15.9977 6.06578 16.1073 6.02035 16.1882 5.93953M10.9706 5.32996L16.1174 5.86882M16.1882 5.32996L16.1174 5.40067M16.1882 5.32996C16.1881 5.32995 16.1881 5.32995 16.1881 5.32994L16.1174 5.40067M16.1882 5.32996C16.269 5.4108 16.3144 5.52046 16.3144 5.63475C16.3144 5.74903 16.269 5.85869 16.1882 5.93953M16.1174 5.40067C16.1795 5.46274 16.2144 5.54696 16.2144 5.63475C16.2144 5.72254 16.1795 5.80675 16.1174 5.86882M16.1882 5.93953L16.1174 5.86882M16.1882 5.93953C16.1881 5.93954 16.1881 5.93954 16.1881 5.93955L16.1174 5.86882" fill="#FFEDED" stroke="#FFEDED" stroke-width="0.2"/>
<path d="M5.60146 8.54381L5.60144 8.54383C5.52063 8.62465 5.4752 8.7343 5.4752 8.84861C5.4752 8.96293 5.52062 9.07258 5.60144 9.1534L5.60146 9.15342C5.6823 9.23421 5.7919 9.27965 5.90623 9.27965H15.9564C16.0708 9.27965 16.1804 9.23421 16.2612 9.15342L16.2613 9.1534C16.3421 9.07256 16.3875 8.9629 16.3875 8.84861C16.3875 8.73432 16.3421 8.62466 16.2613 8.54383L16.2612 8.54381C16.1804 8.46301 16.0708 8.41758 15.9564 8.41758H5.90623C5.7919 8.41758 5.6823 8.46302 5.60146 8.54381Z" fill="#FFEDED" stroke="#FFEDED" stroke-width="0.2"/>
<path d="M5.60146 10.6727L5.60144 10.6727C5.52063 10.7536 5.4752 10.8632 5.4752 10.9775C5.4752 11.0918 5.52063 11.2015 5.60144 11.2823L5.60146 11.2823C5.6823 11.3631 5.7919 11.4086 5.90623 11.4086H15.9564C16.0708 11.4086 16.1804 11.3631 16.2612 11.2823L16.2613 11.2823C16.3421 11.2015 16.3875 11.0918 16.3875 10.9775C16.3875 10.8632 16.3421 10.7536 16.2613 10.6727L16.2612 10.6727C16.1804 10.5919 16.0708 10.5465 15.9564 10.5465H5.90623C5.7919 10.5465 5.6823 10.5919 5.60146 10.6727Z" fill="#FFEDED" stroke="#FFEDED" stroke-width="0.2"/>
<path d="M5.60146 12.8011L5.60144 12.8012C5.52063 12.882 5.4752 12.9916 5.4752 13.1059C5.4752 13.2203 5.52063 13.3299 5.60144 13.4107L5.60146 13.4107C5.6823 13.4915 5.7919 13.537 5.90623 13.537H15.9564C16.0708 13.537 16.1804 13.4915 16.2612 13.4107L16.2613 13.4107C16.3421 13.3299 16.3875 13.2202 16.3875 13.1059C16.3875 12.9916 16.3421 12.882 16.2613 12.8012L16.2612 12.8011C16.1804 12.7203 16.0708 12.6749 15.9564 12.6749H5.90623C5.7919 12.6749 5.6823 12.7203 5.60146 12.8011Z" fill="#FFEDED" stroke="#FFEDED" stroke-width="0.2"/>
<path d="M5.60146 14.9296L5.60144 14.9296C5.52063 15.0104 5.4752 15.12 5.4752 15.2344C5.4752 15.3487 5.52063 15.4583 5.60144 15.5391L5.60146 15.5392C5.6823 15.6199 5.7919 15.6654 5.90623 15.6654H15.9564C16.0708 15.6654 16.1804 15.62 16.2612 15.5392L16.2613 15.5391C16.3421 15.4583 16.3875 15.3486 16.3875 15.2344C16.3875 15.1201 16.3421 15.0104 16.2613 14.9296L16.2612 14.9296C16.1804 14.8488 16.0708 14.8033 15.9564 14.8033H5.90623C5.7919 14.8033 5.6823 14.8488 5.60146 14.9296Z" fill="#FFEDED" stroke="#FFEDED" stroke-width="0.2"/>
<path d="M5.60146 17.0585L5.60144 17.0585C5.52063 17.1393 5.4752 17.2489 5.4752 17.3633C5.4752 17.4776 5.52063 17.5872 5.60144 17.668L5.60146 17.6681C5.6823 17.7489 5.7919 17.7943 5.90623 17.7943H15.9564C16.0708 17.7943 16.1804 17.7489 16.2612 17.6681L16.2613 17.668C16.3421 17.5872 16.3875 17.4776 16.3875 17.3633C16.3875 17.249 16.3421 17.1393 16.2613 17.0585L16.2612 17.0585C16.1804 16.9777 16.0708 16.9322 15.9564 16.9322H5.90623C5.7919 16.9322 5.6823 16.9777 5.60146 17.0585Z" fill="#FFEDED" stroke="#FFEDED" stroke-width="0.2"/>
</svg>
