<svg width="20" height="20" viewBox="0 0 20 20" fill="none" xmlns="http://www.w3.org/2000/svg">
<rect width="20" height="20" rx="6" fill="#750033"/>
<path d="M15.4332 11.4515L12.9386 9.99711L15.3683 8.5677C15.6009 8.43947 15.7967 8.25362 15.9371 8.02792C16.1126 7.74227 16.1875 7.40591 16.1497 7.07263C16.1118 6.73935 15.9636 6.42839 15.7285 6.18949C15.4935 5.95059 15.1853 5.79753 14.8532 5.7548C14.521 5.71207 14.1842 5.78213 13.8965 5.95378L11.4968 7.37819V4.49938C11.4968 4.10172 11.3391 3.72035 11.0584 3.43916C10.7777 3.15797 10.397 3 10 3C9.60304 3 9.22233 3.15797 8.94164 3.43916C8.66094 3.72035 8.50325 4.10172 8.50325 4.49938V7.37819L6.0835 5.95378C5.9134 5.83888 5.72153 5.76025 5.51981 5.72275C5.31809 5.68526 5.11084 5.68971 4.91091 5.73582C4.71098 5.78194 4.52265 5.86873 4.35761 5.99082C4.19258 6.11291 4.05436 6.26768 3.95154 6.44553C3.84872 6.62338 3.78349 6.8205 3.75992 7.02466C3.73634 7.22882 3.75491 7.43565 3.81448 7.63232C3.87405 7.82898 3.97334 8.01128 4.10619 8.16789C4.23904 8.3245 4.40261 8.45208 4.58675 8.54271L7.08134 9.99711L4.6117 11.4265C4.37914 11.5547 4.18331 11.7406 4.04293 11.9663C3.86982 12.2519 3.79692 12.5873 3.83581 12.9192C3.8747 13.2511 4.02314 13.5604 4.25758 13.7982C4.49202 14.0359 4.79901 14.1883 5.12981 14.2313C5.46062 14.2743 5.79628 14.2054 6.0835 14.0354L8.50325 12.616V15.4449C8.49146 15.7643 8.58192 16.0793 8.76143 16.3436C8.94094 16.6079 9.20011 16.8079 9.50108 16.9142C9.7273 16.9944 9.96943 17.0188 10.2071 16.9856C10.4447 16.9523 10.6709 16.8623 10.8665 16.7232C11.0622 16.584 11.2215 16.3998 11.3312 16.186C11.4409 15.9723 11.4977 15.7352 11.4968 15.4948V12.616L13.9165 14.0404C14.0866 14.1553 14.2785 14.234 14.4802 14.2715C14.6819 14.309 14.8892 14.3045 15.0891 14.2584C15.289 14.2123 15.4774 14.1255 15.6424 14.0034C15.8074 13.8813 15.9456 13.7265 16.0485 13.5487C16.1513 13.3708 16.2165 13.1737 16.2401 12.9696C16.2637 12.7654 16.2451 12.5586 16.1855 12.3619C16.126 12.1652 16.0267 11.9829 15.8938 11.8263C15.761 11.6697 15.5974 11.5421 15.4133 11.4515H15.4332ZM15.1089 12.9959C15.0759 13.0527 15.032 13.1025 14.9798 13.1423C14.9275 13.1821 14.8679 13.2112 14.8044 13.228C14.7409 13.2447 14.6748 13.2487 14.6097 13.2397C14.5447 13.2308 14.482 13.209 14.4254 13.1758L10.4989 10.8717V15.4948C10.4989 15.6274 10.4464 15.7545 10.3528 15.8482C10.2592 15.942 10.1323 15.9946 10 15.9946C9.86768 15.9946 9.74078 15.942 9.64721 15.8482C9.55365 15.7545 9.50108 15.6274 9.50108 15.4948V10.8717L5.57461 13.1758C5.46205 13.2267 5.33464 13.2341 5.21701 13.1963C5.09938 13.1586 4.9999 13.0785 4.93782 12.9716C4.87574 12.8646 4.85547 12.7384 4.88094 12.6173C4.90641 12.4962 4.9758 12.3889 5.07569 12.3161L9.00217 9.99711L5.06072 7.67806C4.99711 7.64926 4.94023 7.60741 4.89378 7.55521C4.84732 7.50301 4.81232 7.44162 4.79104 7.37502C4.76975 7.30842 4.76265 7.23808 4.7702 7.16856C4.77776 7.09904 4.79979 7.03188 4.83488 6.97142C4.86996 6.91096 4.91733 6.85855 4.9739 6.81758C5.03048 6.77661 5.09501 6.74799 5.16332 6.73357C5.23163 6.71915 5.3022 6.71925 5.37047 6.73387C5.43873 6.74848 5.50318 6.77729 5.55964 6.81842L9.50108 9.12247V4.49938C9.50108 4.36683 9.55365 4.2397 9.64721 4.14597C9.74078 4.05224 9.86768 3.99959 10 3.99959C10.1323 3.99959 10.2592 4.05224 10.3528 4.14597C10.4464 4.2397 10.4989 4.36683 10.4989 4.49938V9.12247L14.4254 6.81342C14.5379 6.76247 14.6654 6.75514 14.783 6.79287C14.9006 6.8306 15.0001 6.91069 15.0622 7.01766C15.1243 7.12462 15.1445 7.25085 15.1191 7.37192C15.0936 7.49299 15.0242 7.60029 14.9243 7.67307L10.9978 9.99711L14.9393 12.3161C15.0509 12.3845 15.1312 12.4941 15.1629 12.6212C15.1946 12.7484 15.1752 12.8829 15.1089 12.9959Z" fill="#FFEDED"/>
</svg>
