<svg width="30" height="30" viewBox="0 0 30 30" fill="none" xmlns="http://www.w3.org/2000/svg">
<rect width="30" height="30" rx="6" fill="#FFEDED"/>
<path d="M12.5122 19.0211C13.0591 17.7728 13.6459 16.5797 14.2727 15.4417C14.9001 14.3031 15.5467 13.2523 16.2125 12.2893C16.9971 11.16 17.6153 10.3456 18.067 9.8463C18.3583 9.52532 18.6317 9.26081 18.8873 9.05277C19.0359 8.93388 19.2707 8.84472 19.5917 8.78528C20.3704 8.64262 20.9143 8.57129 21.2234 8.57129C21.3601 8.57129 21.4284 8.61884 21.4284 8.71395C21.4284 8.80311 21.3601 8.91011 21.2234 9.03494C20.0345 10.093 18.7876 11.6058 17.4825 13.5733C16.1781 15.5408 15.0771 17.6301 14.1796 19.8413C13.8408 20.6676 13.6043 21.1745 13.4702 21.3621C13.3368 21.549 12.9194 21.6424 12.218 21.6424C11.7603 21.6424 11.4733 21.5978 11.3571 21.5087C11.2415 21.4195 11.0322 21.1372 10.729 20.6616C10.2059 19.8711 9.6442 19.1578 9.04385 18.5218C8.72881 18.1889 8.57129 17.9333 8.57129 17.755C8.57129 17.5053 8.74664 17.2603 9.09735 17.0199C9.44805 16.7788 9.73634 16.6583 9.96221 16.6583C10.2773 16.6583 10.656 16.8353 11.0985 17.1893C11.5417 17.5426 12.0129 18.1532 12.5122 19.0211Z" fill="#750033"/>
</svg>
