<svg width="35" height="35" viewBox="0 0 35 35" fill="none" xmlns="http://www.w3.org/2000/svg">
<rect width="35" height="35" rx="6" fill="#FF0070"/>
<path d="M14.5978 22.1914C15.2358 20.7351 15.9204 19.3431 16.6516 18.0155C17.3837 16.6871 18.138 15.4612 18.9147 14.3377C19.8301 13.0201 20.5513 12.07 21.0784 11.4875C21.4182 11.113 21.7372 10.8044 22.0354 10.5617C22.2087 10.423 22.4827 10.319 22.8571 10.2497C23.7656 10.0832 24.4001 10 24.7607 10C24.9202 10 25 10.0555 25 10.1664C25 10.2705 24.9202 10.3953 24.7607 10.5409C23.3738 11.7753 21.919 13.5402 20.3964 15.8356C18.8746 18.1311 17.5901 20.5687 16.543 23.1484C16.1477 24.1123 15.8719 24.7037 15.7154 24.9226C15.5598 25.1406 15.0728 25.2497 14.2545 25.2497C13.7205 25.2497 13.3857 25.1976 13.2501 25.0936C13.1153 24.9896 12.871 24.6602 12.5173 24.1054C11.9071 23.1831 11.2517 22.3509 10.5513 21.6089C10.1838 21.2205 10 20.9223 10 20.7143C10 20.423 10.2046 20.1372 10.6137 19.8567C11.0229 19.5754 11.3592 19.4348 11.6227 19.4348C11.9903 19.4348 12.4322 19.6413 12.9485 20.0543C13.4655 20.4666 14.0153 21.1789 14.5978 22.1914Z" fill="white"/>
</svg>
