<svg width="60" height="80" viewBox="0 0 60 80" fill="none" xmlns="http://www.w3.org/2000/svg">
<rect y="40" width="60" height="40" rx="6" fill="#750033"/>
<rect width="60" height="60" rx="6" fill="#FF0070"/>
<path d="M11.2796 67.22L10.0796 74H8.08764L9.27564 67.22H6.89964L7.21164 65.504H13.9076L13.6076 67.22H11.2796ZM15.192 74.168C14.76 74.168 14.356 74.108 13.98 73.988C13.612 73.868 13.292 73.696 13.02 73.472C12.756 73.24 12.544 72.964 12.384 72.644C12.232 72.316 12.156 71.948 12.156 71.54C12.156 71.044 12.24 70.572 12.408 70.124C12.576 69.676 12.816 69.284 13.128 68.948C13.448 68.612 13.832 68.344 14.28 68.144C14.728 67.944 15.236 67.844 15.804 67.844C16.244 67.844 16.652 67.904 17.028 68.024C17.404 68.144 17.728 68.32 18 68.552C18.272 68.776 18.484 69.052 18.636 69.38C18.796 69.7 18.876 70.064 18.876 70.472C18.876 70.976 18.792 71.452 18.624 71.9C18.456 72.348 18.212 72.74 17.892 73.076C17.572 73.412 17.184 73.68 16.728 73.88C16.28 74.072 15.768 74.168 15.192 74.168ZM16.98 70.676C16.98 70.316 16.868 70.016 16.644 69.776C16.428 69.536 16.12 69.416 15.72 69.416C15.464 69.416 15.232 69.468 15.024 69.572C14.816 69.676 14.64 69.816 14.496 69.992C14.352 70.168 14.24 70.372 14.16 70.604C14.08 70.836 14.04 71.08 14.04 71.336C14.04 71.696 14.148 71.996 14.364 72.236C14.58 72.468 14.888 72.584 15.288 72.584C15.544 72.584 15.776 72.536 15.984 72.44C16.192 72.336 16.368 72.196 16.512 72.02C16.664 71.844 16.78 71.64 16.86 71.408C16.94 71.176 16.98 70.932 16.98 70.676ZM22.7037 74.168C22.2717 74.168 21.8677 74.108 21.4917 73.988C21.1237 73.868 20.8037 73.696 20.5317 73.472C20.2677 73.24 20.0557 72.964 19.8957 72.644C19.7437 72.316 19.6677 71.948 19.6677 71.54C19.6677 71.044 19.7517 70.572 19.9197 70.124C20.0877 69.676 20.3277 69.284 20.6397 68.948C20.9597 68.612 21.3437 68.344 21.7917 68.144C22.2397 67.944 22.7477 67.844 23.3157 67.844C23.7557 67.844 24.1637 67.904 24.5397 68.024C24.9157 68.144 25.2397 68.32 25.5117 68.552C25.7837 68.776 25.9957 69.052 26.1477 69.38C26.3077 69.7 26.3877 70.064 26.3877 70.472C26.3877 70.976 26.3037 71.452 26.1357 71.9C25.9677 72.348 25.7237 72.74 25.4037 73.076C25.0837 73.412 24.6957 73.68 24.2397 73.88C23.7917 74.072 23.2797 74.168 22.7037 74.168ZM24.4917 70.676C24.4917 70.316 24.3797 70.016 24.1557 69.776C23.9397 69.536 23.6317 69.416 23.2317 69.416C22.9757 69.416 22.7437 69.468 22.5357 69.572C22.3277 69.676 22.1517 69.816 22.0077 69.992C21.8637 70.168 21.7517 70.372 21.6717 70.604C21.5917 70.836 21.5517 71.08 21.5517 71.336C21.5517 71.696 21.6597 71.996 21.8757 72.236C22.0917 72.468 22.3997 72.584 22.7997 72.584C23.0557 72.584 23.2877 72.536 23.4957 72.44C23.7037 72.336 23.8797 72.196 24.0237 72.02C24.1757 71.844 24.2917 71.64 24.3717 71.408C24.4517 71.176 24.4917 70.932 24.4917 70.676ZM27.0595 74L28.6555 64.928H30.6115L29.0035 74H27.0595ZM33.4425 68.792C33.6505 68.512 33.9225 68.288 34.2585 68.12C34.6025 67.952 34.9665 67.868 35.3505 67.868C35.7345 67.868 36.0785 67.932 36.3825 68.06C36.6945 68.188 36.9545 68.368 37.1625 68.6C37.3785 68.824 37.5425 69.096 37.6545 69.416C37.7665 69.728 37.8225 70.068 37.8225 70.436C37.8225 70.948 37.7385 71.432 37.5705 71.888C37.4105 72.336 37.1825 72.728 36.8865 73.064C36.5905 73.4 36.2425 73.664 35.8425 73.856C35.4425 74.048 35.0025 74.144 34.5225 74.144C34.0985 74.144 33.7065 74.056 33.3465 73.88C32.9945 73.704 32.7265 73.46 32.5425 73.148H32.5185L32.3745 74H30.5985L32.1945 64.928H34.1265L33.4185 68.792H33.4425ZM35.9145 70.688C35.9145 70.328 35.8105 70.028 35.6025 69.788C35.3945 69.54 35.0865 69.416 34.6785 69.416C34.4385 69.416 34.2145 69.468 34.0065 69.572C33.7985 69.676 33.6185 69.816 33.4665 69.992C33.3225 70.168 33.2065 70.372 33.1185 70.604C33.0305 70.836 32.9865 71.08 32.9865 71.336C32.9865 71.704 33.0985 72.008 33.3225 72.248C33.5465 72.48 33.8545 72.596 34.2465 72.596C34.5025 72.596 34.7305 72.548 34.9305 72.452C35.1385 72.348 35.3145 72.212 35.4585 72.044C35.6025 71.868 35.7145 71.664 35.7945 71.432C35.8745 71.2 35.9145 70.952 35.9145 70.688ZM41.6647 74.168C41.2327 74.168 40.8287 74.108 40.4527 73.988C40.0847 73.868 39.7647 73.696 39.4927 73.472C39.2287 73.24 39.0167 72.964 38.8567 72.644C38.7047 72.316 38.6287 71.948 38.6287 71.54C38.6287 71.044 38.7127 70.572 38.8807 70.124C39.0487 69.676 39.2887 69.284 39.6007 68.948C39.9207 68.612 40.3047 68.344 40.7527 68.144C41.2007 67.944 41.7087 67.844 42.2767 67.844C42.7167 67.844 43.1247 67.904 43.5007 68.024C43.8767 68.144 44.2007 68.32 44.4727 68.552C44.7447 68.776 44.9567 69.052 45.1087 69.38C45.2687 69.7 45.3487 70.064 45.3487 70.472C45.3487 70.976 45.2647 71.452 45.0967 71.9C44.9287 72.348 44.6847 72.74 44.3647 73.076C44.0447 73.412 43.6567 73.68 43.2007 73.88C42.7527 74.072 42.2407 74.168 41.6647 74.168ZM43.4527 70.676C43.4527 70.316 43.3407 70.016 43.1167 69.776C42.9007 69.536 42.5927 69.416 42.1927 69.416C41.9367 69.416 41.7047 69.468 41.4967 69.572C41.2887 69.676 41.1127 69.816 40.9687 69.992C40.8247 70.168 40.7127 70.372 40.6327 70.604C40.5527 70.836 40.5127 71.08 40.5127 71.336C40.5127 71.696 40.6207 71.996 40.8367 72.236C41.0527 72.468 41.3607 72.584 41.7607 72.584C42.0167 72.584 42.2487 72.536 42.4567 72.44C42.6647 72.336 42.8407 72.196 42.9847 72.02C43.1367 71.844 43.2527 71.64 43.3327 71.408C43.4127 71.176 43.4527 70.932 43.4527 70.676ZM49.7901 74L48.8541 72.164L47.2221 74H44.9061L47.9301 70.868L46.3341 68.024H48.4341L49.2621 69.656L50.6901 68.024H52.9341L50.1861 70.904L51.9141 74H49.7901Z" fill="#FFEDED"/>
<path d="M38.4322 24.7755L39.388 25.7313C39.6519 25.9952 39.9979 26.1273 40.3439 26.1273C40.6898 26.1273 41.0358 25.9953 41.2997 25.7313L45.1232 21.9078C45.3767 21.6543 45.5192 21.3105 45.5192 20.952C45.5192 20.5934 45.3768 20.2496 45.1232 19.9961L41.2997 16.1727C40.7718 15.6449 39.9159 15.6449 39.388 16.1727L35.5645 19.9961C35.311 20.2496 35.1685 20.5934 35.1685 20.952C35.1685 21.3105 35.3109 21.6543 35.5645 21.9078L36.5204 22.8637L32.6968 26.6873L31.6661 25.6565C32.4326 22.4638 31.5061 19.1241 29.152 16.7701C26.3212 13.9393 21.993 13.1961 18.3817 14.9212C17.9857 15.1104 17.7062 15.4799 17.632 15.9124C17.5578 16.3449 17.6981 16.7866 18.0085 17.0969L22.461 21.5495L20.5493 23.4612L16.0967 19.0086C15.7864 18.6984 15.3449 18.5579 14.9123 18.6321C14.4798 18.7064 14.1102 18.9858 13.9211 19.3818C12.1962 22.9931 12.9393 27.3214 15.77 30.1522C17.3287 31.711 19.3197 32.6425 21.4137 32.8725L18.7454 35.5408C16.8128 37.4735 16.8129 40.6181 18.7454 42.5506C19.7118 43.517 20.9807 44.0001 22.2501 44C23.5191 43.9999 24.7886 43.5168 25.7548 42.5506L30.1479 38.1577L34.5408 42.5507C35.5072 43.5169 36.7763 44 38.0456 44C39.3149 44 40.5842 43.5168 41.5505 42.5505C42.4866 41.6144 43.0021 40.3697 43.0021 39.0458C43.0022 37.7218 42.4866 36.4772 41.5506 35.5412L36.2038 30.1943C36.2031 30.1936 36.2025 30.1928 36.2019 30.1922C36.2012 30.1915 36.2004 30.1909 36.1997 30.1902L34.6087 28.5991L38.4322 24.7755ZM40.3439 19.0403L42.2557 20.952L40.3439 22.8637L38.4321 20.952L40.3439 19.0403ZM17.6817 28.2405C16.1532 26.712 15.4768 24.5723 15.7696 22.5049L19.5935 26.3288C20.1214 26.8566 20.9773 26.8567 21.5052 26.3287L25.3286 22.5053C25.8566 21.9774 25.8566 21.1215 25.3286 20.5936L21.5047 16.7696C23.5719 16.4767 25.7119 17.1534 27.2404 18.6819C28.9959 20.4373 29.639 22.9601 28.9559 25.3303L24.33 29.9563C21.96 30.6392 19.4372 29.996 17.6817 28.2405ZM23.8432 40.6389C22.9648 41.5173 21.5356 41.5173 20.6572 40.6389C19.7786 39.7604 19.7786 38.331 20.6572 37.4525L30.148 27.9617L33.3342 31.1481L29.1976 35.2846C29.1957 35.2864 29.1937 35.288 29.1918 35.2899C29.19 35.2917 29.1885 35.2937 29.1866 35.2956L23.8432 40.6389ZM40.2986 39.0457C40.2986 39.6475 40.0643 40.2133 39.6389 40.6388C38.7605 41.5171 37.331 41.5172 36.4526 40.6389L32.0597 36.2459L35.246 33.0598L39.639 37.4529C40.0643 37.8783 40.2986 38.444 40.2986 39.0457Z" fill="#750033"/>
</svg>
