<svg width="22" height="30" viewBox="0 0 22 30" fill="none" xmlns="http://www.w3.org/2000/svg">
<path d="M20.9616 30H0.479414C0.352265 30 0.230325 29.9495 0.140417 29.8596C0.0505096 29.7697 0 29.6477 0 29.5206V0.479414C0 0.352266 0.0505096 0.230325 0.140417 0.140417C0.230325 0.0505096 0.352265 0 0.479414 0L20.977 0C21.1001 0 21.2181 0.0488922 21.3052 0.135921C21.3922 0.222949 21.4411 0.340985 21.4411 0.464063V29.5206C21.4411 29.6477 21.3906 29.7697 21.3006 29.8596C21.2107 29.9495 21.0888 30 20.9616 30Z" fill="#FFEDED"/>
<path d="M16.928 5.41416H2.73223C2.37205 5.41416 2.08008 5.12219 2.08008 4.76201C2.08008 4.40184 2.37205 4.10986 2.73223 4.10986H16.9279C17.288 4.10986 17.5801 4.40184 17.5801 4.76201C17.5801 5.12219 17.2881 5.41416 16.928 5.41416ZM14.5492 9.03074C14.5492 8.67057 14.2573 8.37859 13.8971 8.37859H2.73223C2.37205 8.37859 2.08008 8.67057 2.08008 9.03074C2.08008 9.39092 2.37205 9.68289 2.73223 9.68289H13.8971C14.2572 9.68289 14.5492 9.39092 14.5492 9.03074ZM8.86945 13.2995C8.86945 12.9394 8.57748 12.6474 8.21731 12.6474H2.73223C2.37205 12.6474 2.08008 12.9394 2.08008 13.2995C2.08008 13.6597 2.37205 13.9517 2.73223 13.9517H8.21731C8.57748 13.9516 8.86945 13.6597 8.86945 13.2995ZM15.2592 17.5683C15.2592 17.2081 14.9672 16.9161 14.607 16.9161H2.73223C2.37205 16.9161 2.08008 17.2081 2.08008 17.5683C2.08008 17.9284 2.37205 18.2204 2.73223 18.2204H14.607C14.9672 18.2204 15.2592 17.9284 15.2592 17.5683ZM18.1821 13.2995C18.1821 12.9394 17.8901 12.6474 17.5299 12.6474H11.5306C11.1705 12.6474 10.8785 12.9394 10.8785 13.2995C10.8785 13.6597 11.1704 13.9517 11.5306 13.9517H17.5299C17.89 13.9516 18.1821 13.6597 18.1821 13.2995ZM12.7692 21.8371C12.7692 21.4769 12.4772 21.1849 12.117 21.1849H2.73223C2.37205 21.1849 2.08008 21.4769 2.08008 21.8371C2.08008 22.1972 2.37205 22.4892 2.73223 22.4892H12.117C12.4772 22.4891 12.7692 22.1972 12.7692 21.8371ZM16.6659 26.1058C16.6659 25.7457 16.3739 25.4536 16.0137 25.4536H2.73223C2.37205 25.4536 2.08008 25.7456 2.08008 26.1058C2.08008 26.466 2.37205 26.7579 2.73223 26.7579H16.0137C16.3739 26.7579 16.6659 26.466 16.6659 26.1058ZM18.1821 21.8371C18.1821 21.4769 17.8901 21.1849 17.5299 21.1849H14.4976C14.1374 21.1849 13.8454 21.4769 13.8454 21.8371C13.8454 22.1972 14.1374 22.4892 14.4976 22.4892H17.5299C17.89 22.4891 18.1821 22.1972 18.1821 21.8371Z" fill="#750033"/>
</svg>
