<svg width="30" height="33" viewBox="0 0 30 33" fill="none" xmlns="http://www.w3.org/2000/svg">
<path d="M7.28 16L5.104 11.136L5.44 9.648H6.512C7.07733 9.648 7.536 9.54667 7.888 9.344C8.24 9.14133 8.47467 8.85333 8.592 8.48H5.568L5.84 7.296H8.624C8.56 6.98667 8.416 6.736 8.192 6.544C7.97867 6.34133 7.64267 6.24 7.184 6.24H6.064L6.4 4.576H13.136L12.88 5.76H10.224C10.4693 5.94133 10.6613 6.16533 10.8 6.432C10.9387 6.69867 11.024 6.98667 11.056 7.296H12.544L12.304 8.48H10.976C10.88 8.93867 10.6987 9.35467 10.432 9.728C10.1653 10.0907 9.792 10.3947 9.312 10.64C8.832 10.8853 8.224 11.056 7.488 11.152L9.84 16H7.28Z" fill="#FFEDED"/>
<path d="M30 18.9664C30 26.6669 23.7349 32.9328 16.0336 32.9328C8.35514 32.9328 2.10612 26.7041 2.06975 19.0324H0L3.10421 14.3761L6.20672 19.0324H4.39833C4.4347 25.4193 9.63827 30.6051 16.0345 30.6051C22.4509 30.6051 27.6731 25.3846 27.6731 18.9664C27.6731 12.5482 22.4509 7.32773 16.0345 7.32773C15.3899 7.32773 14.8697 6.8067 14.8697 6.16387C14.8697 5.52103 15.3899 5 16.0345 5C23.7349 4.99915 30 11.2659 30 18.9664ZM11.5541 24.6284C11.7825 24.8576 12.0793 24.9701 12.3788 24.9701C12.6773 24.9701 12.9734 24.8542 13.2018 24.6284L16.8575 20.9736C17.0774 20.7553 17.1992 20.4593 17.1992 20.1497V13.5658C17.1992 12.9229 16.6773 12.4019 16.0345 12.4019C15.3916 12.4019 14.8714 12.9229 14.8714 13.5658V19.6676L11.5541 22.9833C11.0999 23.4383 11.0999 24.175 11.5541 24.6284Z" fill="#FFEDED"/>
</svg>
