<svg width="20" height="20" viewBox="0 0 20 20" fill="none" xmlns="http://www.w3.org/2000/svg">
<rect width="20" height="20" rx="6" fill="#750033"/>
<path fill-rule="evenodd" clip-rule="evenodd" d="M4.2 10C4.2 6.79675 6.79674 4.2 9.99997 4.2C13.2032 4.2 15.8 6.79675 15.8 10C15.8 10.027 15.8018 10.0534 15.8052 10.0794C15.8026 10.1046 15.8016 10.1301 15.8022 10.1559C15.8072 10.3596 15.7811 10.6755 15.7142 10.9775C15.6413 11.3065 15.5464 11.4955 15.4908 11.5538C15.2493 11.8073 14.917 11.9543 14.5671 11.9628C14.2171 11.9712 13.878 11.8402 13.6246 11.5987C13.4589 11.4408 13.4114 11.209 13.3984 10.6705L13.306 6.83202C13.2981 6.50074 13.0231 6.23865 12.6918 6.24662C12.3605 6.2546 12.0984 6.52961 12.1064 6.86089L12.1197 7.415C11.5428 6.94138 10.8046 6.65708 9.99997 6.65708C8.15378 6.65708 6.65713 8.15373 6.65713 9.99992C6.65713 11.8462 8.15378 13.3428 9.99997 13.3428C11.0195 13.3428 11.9324 12.8864 12.5456 12.1667C12.6144 12.2714 12.6971 12.3724 12.7968 12.4674C13.2806 12.9285 13.9278 13.1785 14.5959 13.1624C15.264 13.1463 15.8984 12.8655 16.3596 12.3817C16.6553 12.0714 16.805 11.6018 16.8858 11.237C16.9725 10.8453 17.0092 10.4325 17.0019 10.127C17.0013 10.105 16.9996 10.0834 16.9968 10.062C16.9989 10.0416 17 10.021 17 10C17 6.13401 13.866 3 9.99997 3C6.13401 3 3 6.13401 3 10C3 13.866 6.13401 17 9.99997 17C11.6344 17 13.1395 16.4391 14.3309 15.4998C14.5911 15.2946 14.6357 14.9173 14.4305 14.657C14.2254 14.3969 13.8481 14.3522 13.5879 14.5574C12.6006 15.3358 11.3553 15.8 9.99997 15.8C6.79674 15.8 4.2 13.2033 4.2 10ZM9.99997 7.85708C8.81653 7.85708 7.85713 8.81648 7.85713 9.99992C7.85713 11.1834 8.81653 12.1428 9.99997 12.1428C11.1835 12.1428 12.1428 11.1834 12.1428 9.99992C12.1428 8.81648 11.1835 7.85708 9.99997 7.85708Z" fill="#FFEDED"/>
</svg>
