<svg width="15" height="14" viewBox="0 0 15 14" fill="none" xmlns="http://www.w3.org/2000/svg">
<path fill-rule="evenodd" clip-rule="evenodd" d="M1.2 7C1.2 3.79675 3.79674 1.2 6.99997 1.2C10.2032 1.2 12.8 3.79675 12.8 7C12.8 7.02696 12.8018 7.05344 12.8052 7.07944C12.8026 7.10456 12.8016 7.13008 12.8022 7.15592C12.8072 7.3596 12.7811 7.67552 12.7142 7.97752C12.6413 8.30648 12.5464 8.49552 12.4908 8.55384C12.2493 8.80728 11.917 8.95432 11.5671 8.9628C11.2171 8.9712 10.878 8.84024 10.6246 8.59872C10.4589 8.4408 10.4114 8.20904 10.3984 7.67048L10.306 3.83202C10.2981 3.50074 10.0231 3.23865 9.69181 3.24662C9.36053 3.2546 9.09845 3.52961 9.10645 3.86089L9.11973 4.415C8.54285 3.94138 7.80461 3.65708 6.99997 3.65708C5.15378 3.65708 3.65713 5.15373 3.65713 6.99992C3.65713 8.84616 5.15378 10.3428 6.99997 10.3428C8.01949 10.3428 8.93245 9.8864 9.54557 9.16672C9.61437 9.27136 9.69709 9.3724 9.79677 9.46744C10.2806 9.92848 10.9278 10.1785 11.5959 10.1624C12.264 10.1463 12.8984 9.86552 13.3596 9.38168C13.6553 9.07136 13.805 8.60176 13.8858 8.23704C13.9725 7.84528 14.0092 7.43248 14.0019 7.12704C14.0013 7.10504 13.9996 7.08336 13.9968 7.062C13.9989 7.0416 14 7.02096 14 7C14 3.13401 10.866 0 6.99997 0C3.13401 0 0 3.13401 0 7C0 10.866 3.13401 14 6.99997 14C8.63445 14 10.1395 13.4391 11.3309 12.4998C11.5911 12.2946 11.6357 11.9173 11.4305 11.657C11.2254 11.3969 10.8481 11.3522 10.5879 11.5574C9.60061 12.3358 8.35533 12.8 6.99997 12.8C3.79674 12.8 1.2 10.2033 1.2 7ZM6.99997 4.85708C5.81653 4.85708 4.85713 5.81648 4.85713 6.99992C4.85713 8.18344 5.81653 9.1428 6.99997 9.1428C8.18349 9.1428 9.14285 8.18344 9.14285 6.99992C9.14285 5.81648 8.18349 4.85708 6.99997 4.85708Z" fill="#FFEDED"/>
</svg>
