<svg width="25" height="26" viewBox="0 0 25 26" fill="none" xmlns="http://www.w3.org/2000/svg">
<path d="M25 23.875C25 24.5417 24.4583 25.0833 23.7917 25.0833H1.20833C0.541667 25.0417 0 24.5 0 23.875V6.08333C0 5.41667 0.541667 4.875 1.20833 4.875H23.7917C24.4583 4.875 25 5.41667 25 6.08333V23.875Z" fill="#FFEDED"/>
<path d="M25 24.0418C25 24.7085 24.4583 25.2502 23.7917 25.2502H1.20833C0.541667 25.2502 0 24.7085 0 24.0418V6.29183C0 5.62516 0.541667 5.0835 1.20833 5.0835H23.7917C24.4583 5.0835 25 5.62516 25 6.29183V24.0418Z" fill="#FFEDED"/>
<path d="M20.4583 0L0 5.25V11.2083L1.16667 15.7917L23.0833 10.1667L20.4583 0Z" fill="#750033"/>
<path d="M19.5 1.625L0 6.66667V12.3333L1.125 16.7083L22 11.3333L19.5 1.625Z" fill="#750033"/>
<path d="M22 11.3333L19.5 1.625L9.54167 4.25L0 12.3333" fill="#750033"/>
<path d="M0 6.83301V24.0413C0 24.708 0.541667 25.2497 1.20833 25.2497H23.7917C24.4583 25.2497 25 24.708 25 24.0413V6.83301H0Z" fill="#FFEDED"/>
<path d="M23.7917 25.2497C24.4583 25.2497 25 24.708 25 24.0413V6.83301H0" fill="#FFEDED"/>
<path opacity="0.3" d="M25.0007 10.083L23.2923 8.33301L21.959 8.62467L20.959 12.6247L23.0423 13.2913L25.0007 12.7497V10.083Z" fill="#FFEDED"/>
<path d="M23.5 19.5002C23.5 19.9585 23.125 20.3752 22.625 20.3752H2.375C1.91667 20.3752 1.5 20.0002 1.5 19.5002V8.8335C1.5 8.37516 1.875 7.9585 2.375 7.9585H22.625C23.0833 7.9585 23.5 8.3335 23.5 8.8335V19.5002Z" fill="#750033"/>
<path d="M1.5 8.8335C1.5 8.37516 1.875 7.9585 2.375 7.9585H22.625C23.0833 7.9585 23.5 8.3335 23.5 8.8335V19.4585C23.5 19.9168 23.125 20.3335 22.625 20.3335" fill="#750033"/>
<path d="M1.5 8.8335C1.5 8.37516 1.875 7.9585 2.375 7.9585H22.625C23.0833 7.9585 23.5 8.3335 23.5 8.8335" fill="#750033"/>
<path d="M0 10.3335V24.0418C0 24.7085 0.541667 25.2502 1.20833 25.2502H23.7917C24.4583 25.2502 25 24.7085 25 24.0418V10.3335H0Z" fill="#FFEDED"/>
<path d="M23.7917 25.2502C24.4583 25.2502 25 24.7085 25 24.0418V10.3335H0" fill="#FFEDED"/>
<path opacity="0.3" d="M25.0007 13.7083L23.2923 12L21.959 12.2917L20.959 16.25L23.0423 16.9583L25.0007 16.4167V13.7083Z" fill="#FFEDED"/>
<path d="M23.5 23.1667C23.5 23.625 23.125 24.0417 22.625 24.0417H2.375C1.91667 24.0417 1.5 23.6667 1.5 23.1667V12.5C1.5 12.0417 1.875 11.625 2.375 11.625H22.625C23.0833 11.625 23.5 12 23.5 12.5V23.1667Z" fill="#750033"/>
<path d="M1.5 12.5C1.5 12.0417 1.875 11.625 2.375 11.625H22.625C23.0833 11.625 23.5 12 23.5 12.5V23.125C23.5 23.5833 23.125 24 22.625 24" fill="#750033"/>
<path d="M1.5 12.5C1.5 12.0417 1.875 11.625 2.375 11.625H22.625C23.0833 11.625 23.5 12 23.5 12.5" fill="#750033"/>
<path d="M0 13.9165V24.0415C0 24.7082 0.541667 25.2498 1.20833 25.2498H23.7917C24.4583 25.2498 25 24.7082 25 24.0415V13.9165H0Z" fill="#FFEDED"/>
<path d="M1.5 13.9165V23.1248C1.5 23.5832 1.875 23.9998 2.375 23.9998H22.625C23.0833 23.9998 23.5 23.6248 23.5 23.1248V13.9165H1.5Z" fill="#FFEDED"/>
<path d="M25 10.3335H0V10.4585H25V10.3335Z" fill="#FFEDED"/>
<path d="M25 6.83301H0V6.95801H25V6.83301Z" fill="#FFEDED"/>
<path d="M25 13.9165H0V14.0415H25V13.9165Z" fill="#FFEDED"/>
</svg>
