<svg width="20" height="20" viewBox="0 0 20 20" fill="none" xmlns="http://www.w3.org/2000/svg">
<path fill-rule="evenodd" clip-rule="evenodd" d="M16.4011 2.80416C14.5957 0.99498 12.1944 1.57396e-10 9.63684 1.57396e-10C4.36824 -2.99998e-05 0.08007 4.2885 0.08007 9.561C0.08007 11.2452 0.52122 12.8925 1.35708 14.3399L0 19.2953L5.06877 17.9651C6.46662 18.7266 8.03916 19.1302 9.63543 19.1302H9.63933C14.9083 19.1302 19.2 14.8417 19.2 9.56949C19.2 7.01403 18.205 4.61412 16.3997 2.8056L16.4011 2.80419L16.4011 2.80416ZM9.63966 17.5169C8.21169 17.5169 6.81312 17.1321 5.59281 16.4082L5.3019 16.2346L2.29395 17.0223L3.09723 14.0905L2.90907 13.7893C2.10933 12.5264 1.69197 11.0648 1.69197 9.56136C1.69197 5.1789 5.25693 1.61256 9.64395 1.61256C11.7653 1.61256 13.7638 2.44206 15.263 3.94122C16.7629 5.44503 17.5878 7.43886 17.5878 9.56382C17.5843 13.9494 14.0193 17.5158 9.639 17.5158L9.63972 17.5169L9.63966 17.5169ZM13.9962 11.563C13.7588 11.4421 12.5827 10.866 12.3645 10.7863C12.1462 10.7065 11.9871 10.6654 11.8252 10.9071C11.6671 11.1445 11.2076 11.6838 11.0676 11.845C10.9276 12.0034 10.7891 12.0261 10.5517 11.9053C10.3143 11.7844 9.5415 11.5325 8.6298 10.7182C7.92078 10.0854 7.43994 9.30159 7.29996 9.0642C7.16001 8.82678 7.28436 8.69496 7.40592 8.57841C7.51575 8.47209 7.64367 8.29989 7.76415 8.15991C7.88499 8.01996 7.92255 7.92216 8.0019 7.76061C8.08164 7.60221 8.04267 7.46223 7.98279 7.34211C7.92255 7.22166 7.44348 6.0456 7.24824 5.56656C7.05654 5.09847 6.85635 5.16366 6.70929 5.15553C6.56934 5.14842 6.41094 5.14842 6.25329 5.14842C6.09558 5.14842 5.83479 5.2083 5.61654 5.44641C5.39826 5.68383 4.7796 6.26421 4.7796 7.43991C4.7796 8.61594 5.63496 9.75018 5.75508 9.91212C5.87589 10.0701 7.43994 12.4856 9.83595 13.5193C10.4053 13.7641 10.85 13.9112 11.1966 14.0249C11.7695 14.2056 12.2893 14.1794 12.7004 14.1188C13.16 14.0511 14.1138 13.5419 14.314 12.9839C14.5139 12.4254 14.5139 11.9478 14.454 11.8489C14.3973 11.7426 14.2393 11.6838 13.998 11.5615L13.9962 11.563H13.9962Z" fill="#FFEDED"/>
</svg>
