<svg width="15" height="16" viewBox="0 0 15 16" fill="none" xmlns="http://www.w3.org/2000/svg">
<path d="M4.59778 12.1914C5.23579 10.7351 5.9204 9.34312 6.65164 8.01549C7.38365 6.68709 8.13801 5.46117 8.91471 4.33773C9.8301 3.02011 10.5513 2.07004 11.0784 1.48752C11.4182 1.11304 11.7372 0.804443 12.0354 0.561723C12.2087 0.423027 12.4827 0.319004 12.8571 0.249653C13.7656 0.0832177 14.4001 0 14.7607 0C14.9202 0 15 0.0554785 15 0.166435C15 0.270459 14.9202 0.395287 14.7607 0.540922C13.3738 1.77532 11.919 3.54023 10.3964 5.83565C8.87463 8.13107 7.59015 10.5687 6.54299 13.1484C6.14771 14.1123 5.87186 14.7037 5.71545 14.9226C5.5598 15.1406 5.07282 15.2497 4.25451 15.2497C3.72053 15.2497 3.38573 15.1976 3.25011 15.0936C3.11527 14.9896 2.87101 14.6602 2.51734 14.1054C1.90708 13.1831 1.25174 12.3509 0.551316 11.6089C0.183772 11.2205 0 10.9223 0 10.7143C0 10.423 0.204578 10.1372 0.613733 9.85668C1.02289 9.57543 1.35923 9.43481 1.62275 9.43481C1.99029 9.43481 2.4322 9.64131 2.94845 10.0543C3.46548 10.4666 4.01526 11.1789 4.59778 12.1914Z" fill="white"/>
</svg>
