<svg width="30" height="30" viewBox="0 0 30 30" fill="none" xmlns="http://www.w3.org/2000/svg">
<rect width="30" height="30" rx="6" fill="#FFEDED"/>
<path d="M16.4086 14.9983L20.7045 10.7124C20.8926 10.5243 20.9983 10.2692 20.9983 10.0031C20.9983 9.73708 20.8926 9.48193 20.7045 9.29381C20.5164 9.10569 20.2612 9 19.9952 9C19.7291 9 19.474 9.10569 19.2859 9.29381L15 13.5897L10.7141 9.29381C10.526 9.10569 10.2709 9 10.0048 9C9.73878 9 9.48363 9.10569 9.29551 9.29381C9.10739 9.48193 9.0017 9.73708 9.0017 10.0031C9.0017 10.2692 9.10739 10.5243 9.29551 10.7124L13.5914 14.9983L9.29551 19.2842C9.20187 19.377 9.12755 19.4875 9.07683 19.6093C9.02611 19.731 9 19.8616 9 19.9935C9 20.1254 9.02611 20.2559 9.07683 20.3777C9.12755 20.4994 9.20187 20.6099 9.29551 20.7028C9.38839 20.7964 9.49888 20.8707 9.62062 20.9215C9.74236 20.9722 9.87294 20.9983 10.0048 20.9983C10.1367 20.9983 10.2673 20.9722 10.389 20.9215C10.5108 20.8707 10.6213 20.7964 10.7141 20.7028L15 16.4069L19.2859 20.7028C19.3787 20.7964 19.4892 20.8707 19.611 20.9215C19.7327 20.9722 19.8633 20.9983 19.9952 20.9983C20.1271 20.9983 20.2576 20.9722 20.3794 20.9215C20.5011 20.8707 20.6116 20.7964 20.7045 20.7028C20.7981 20.6099 20.8724 20.4994 20.9232 20.3777C20.9739 20.2559 21 20.1254 21 19.9935C21 19.8616 20.9739 19.731 20.9232 19.6093C20.8724 19.4875 20.7981 19.377 20.7045 19.2842L16.4086 14.9983Z" fill="#750033"/>
</svg>
