<svg width="18" height="18" viewBox="0 0 18 18" fill="none" xmlns="http://www.w3.org/2000/svg">
<path d="M17.5056 15.1194L13.5681 11.1819C13.5571 11.1709 13.5457 11.1606 13.5346 11.1499C14.2255 10.0337 14.625 8.71896 14.625 7.3125C14.625 3.28054 11.3447 0 7.3125 0C3.28025 0 0 3.28054 0 7.3125C0 11.3445 3.28025 14.625 7.3125 14.625C8.719 14.625 10.0337 14.2255 11.1499 13.5345C11.1606 13.5457 11.1709 13.5571 11.1819 13.5681L15.1194 17.5056C15.4487 17.8352 15.8807 18 16.3125 18C16.7443 18 17.1763 17.8352 17.5056 17.5056C18.1648 16.847 18.1648 15.778 17.5056 15.1194ZM2.25 7.3125C2.25 4.52088 4.52116 2.25 7.3125 2.25C10.1038 2.25 12.375 4.52088 12.375 7.3125C12.375 10.1041 10.1038 12.375 7.3125 12.375C4.52116 12.375 2.25 10.1041 2.25 7.3125Z" fill="#750033"/>
<path d="M9.5625 6.1875H8.4375V5.0625C8.4375 4.44122 7.93378 3.9375 7.3125 3.9375C6.69122 3.9375 6.1875 4.44122 6.1875 5.0625V6.1875H5.0625C4.44122 6.1875 3.9375 6.69122 3.9375 7.3125C3.9375 7.93378 4.44122 8.4375 5.0625 8.4375H6.1875V9.5625C6.1875 10.1838 6.69122 10.6875 7.3125 10.6875C7.93378 10.6875 8.4375 10.1838 8.4375 9.5625V8.4375H9.5625C10.1838 8.4375 10.6875 7.93378 10.6875 7.3125C10.6875 6.69122 10.1838 6.1875 9.5625 6.1875Z" fill="#750033"/>
</svg>
